<svg width="79" height="79" viewBox="0 0 79 79" fill="none" xmlns="http://www.w3.org/2000/svg">
<path d="M21.2479 62.5417L6.5835 74.0625V13.1667C6.5835 12.2937 6.9303 11.4564 7.5476 10.8391C8.16491 10.2218 9.00216 9.875 9.87516 9.875H69.1252C69.9982 9.875 70.8354 10.2218 71.4527 10.8391C72.07 11.4564 72.4168 12.2937 72.4168 13.1667V59.25C72.4168 60.123 72.07 60.9603 71.4527 61.5776C70.8354 62.1949 69.9982 62.5417 69.1252 62.5417H21.2479ZM36.2085 32.9167H26.3335V39.5H36.2085V49.375H42.7918V39.5H52.6668V32.9167H42.7918V23.0417H36.2085V32.9167Z" fill="#7B61FF"/>
</svg>
