<svg width="140" height="54" viewBox="0 0 140 54" fill="none" xmlns="http://www.w3.org/2000/svg">
<path d="M135.019 54H4.90415C2.20059 54 0 51.1272 0 47.6104V6.3801C0 2.862 2.20059 0 4.90415 0H135.019C137.722 0 140 2.862 140 6.3801V47.6104C140 51.1272 137.722 54 135.019 54Z" fill="#A6A6A6"/>
<path d="M138.997 47.6115C138.997 50.4681 137.219 52.782 135.021 52.782H4.90453C2.70704 52.782 0.92334 50.4681 0.92334 47.6115V6.37842C0.92334 3.52317 2.70704 1.20117 4.90453 1.20117H135.019C137.219 1.20117 138.995 3.52317 138.995 6.37842L138.997 47.6115Z" fill="black"/>
<path d="M31.2438 26.7089C31.2137 22.3578 33.9805 20.241 34.1071 20.1425C32.5401 17.1684 30.1114 16.7621 29.2579 16.7297C27.218 16.4502 25.2394 18.3186 24.2002 18.3186C23.1404 18.3186 21.5402 16.7567 19.8157 16.8026C17.5964 16.8471 15.5202 18.5198 14.3816 21.1172C12.0316 26.4132 13.7842 34.196 16.0357 38.4768C17.1619 40.5734 18.4779 42.9143 20.2004 42.8319C21.8856 42.7415 22.5151 41.4333 24.5487 41.4333C26.5637 41.4333 27.1548 42.8319 28.9115 42.7793C30.7201 42.7415 31.8588 40.6733 32.9456 38.5578C34.2471 36.1548 34.7697 33.7883 34.7905 33.6668C34.7479 33.6479 31.278 31.9239 31.2438 26.7089Z" fill="white"/>
<path d="M27.9255 13.9127C28.8319 12.4372 29.4521 10.4297 29.2799 8.39258C27.9681 8.46818 26.3275 9.57383 25.3827 11.017C24.5469 12.2887 23.8002 14.3731 23.9931 16.3333C25.4667 16.4764 26.9798 15.3653 27.9255 13.9127Z" fill="white"/>
<path d="M55.6316 42.5283H53.2765L51.9864 37.2512H47.5022L46.2734 42.5283H43.9805L48.4231 24.5625H51.1671L55.6316 42.5283ZM51.5975 35.0372L50.4308 30.3459C50.3074 29.8667 50.0762 28.7381 49.735 26.9615H49.6935C49.5577 27.7256 49.3388 28.8542 49.0381 30.3459L47.8922 35.0372H51.5975V35.0372Z" fill="white"/>
<path d="M67.0569 35.8906C67.0569 38.0938 66.5996 39.8353 65.6849 41.1137C64.8656 42.2518 63.8483 42.8201 62.6339 42.8201C61.3231 42.8201 60.3815 42.2072 59.808 40.9814H59.7665V47.8057H57.5556V33.8372C57.5556 32.4521 57.5276 31.0306 57.4736 29.5726H59.4181L59.5415 31.6259H59.583C60.3203 30.0788 61.4393 29.3066 62.9409 29.3066C64.1148 29.3066 65.0948 29.9101 65.8788 31.1183C66.6649 32.3279 67.0569 33.9182 67.0569 35.8906ZM64.8044 35.9959C64.8044 34.735 64.5867 33.6955 64.149 32.8774C63.671 32.0242 63.029 31.5976 62.2243 31.5976C61.6788 31.5976 61.1831 31.8352 60.7403 32.3036C60.2964 32.7761 60.0061 33.3931 59.8702 34.1572C59.8018 34.5136 59.7676 34.8052 59.7676 35.0347V37.1947C59.7676 38.137 59.9895 38.9321 60.4333 39.5815C60.8772 40.2308 61.4538 40.5548 62.1631 40.5548C62.9959 40.5548 63.644 40.1363 64.1076 39.302C64.5722 38.4664 64.8044 37.3648 64.8044 35.9959Z" fill="white"/>
<path d="M78.5026 35.8906C78.5026 38.0938 78.0453 39.8353 77.1296 41.1137C76.3114 42.2518 75.294 42.8201 74.0797 42.8201C72.7689 42.8201 71.8272 42.2072 71.2548 40.9814H71.2133V47.8057H69.0023V33.8372C69.0023 32.4521 68.9743 31.0306 68.9204 29.5726H70.8649L70.9883 31.6259H71.0297C71.766 30.0788 72.885 29.3066 74.3877 29.3066C75.5606 29.3066 76.5406 29.9101 77.3266 31.1183C78.1096 32.3279 78.5026 33.9182 78.5026 35.8906ZM76.2502 35.9959C76.2502 34.735 76.0314 33.6955 75.5937 32.8774C75.1157 32.0242 74.4758 31.5976 73.67 31.5976C73.1235 31.5976 72.6289 31.8352 72.185 32.3036C71.7412 32.7761 71.4518 33.3931 71.316 34.1572C71.2486 34.5136 71.2133 34.8052 71.2133 35.0347V37.1947C71.2133 38.137 71.4352 38.9321 71.877 39.5815C72.3209 40.2295 72.8975 40.5548 73.6089 40.5548C74.4416 40.5548 75.0897 40.1363 75.5533 39.302C76.0179 38.4664 76.2502 37.3648 76.2502 35.9959Z" fill="white"/>
<path d="M91.2996 37.4897C91.2996 39.0179 90.892 40.2612 90.0738 41.2211C89.1747 42.27 87.923 42.7938 86.3145 42.7938C84.8295 42.7938 83.639 42.4212 82.7378 41.6747L83.2501 39.2757C84.2208 40.0398 85.2858 40.4232 86.4462 40.4232C87.279 40.4232 87.9271 40.1775 88.3928 39.6888C88.8563 39.2001 89.0876 38.544 89.0876 37.7259C89.0876 36.9969 88.8968 36.3827 88.5141 35.8845C88.1335 35.3864 87.4978 34.9233 86.6101 34.4954C84.1938 33.3222 82.9867 31.6037 82.9867 29.3438C82.9867 27.8669 83.4098 26.6559 84.2571 25.7136C85.1012 24.77 86.2274 24.2988 87.6357 24.2988C88.8916 24.2988 89.9348 24.5837 90.7676 25.152L90.2148 27.4983C89.4371 26.9475 88.5576 26.6721 87.5735 26.6721C86.7957 26.6721 86.188 26.9219 85.7525 27.4187C85.3843 27.8628 85.1997 28.4042 85.1997 29.0454C85.1997 29.7555 85.4102 30.3428 85.8333 30.8045C86.2015 31.2311 86.8704 31.6928 87.8411 32.1909C89.0285 32.8133 89.9006 33.5409 90.4617 34.3752C91.0206 35.2068 91.2996 36.2477 91.2996 37.4897Z" fill="white"/>
<path d="M98.6098 31.7336H96.1727V38.0232C96.1727 39.623 96.6021 40.4222 97.4628 40.4222C97.8579 40.4222 98.1856 40.3776 98.4449 40.2885L98.5061 42.4742C98.0705 42.6861 97.497 42.7928 96.7866 42.7928C95.9135 42.7928 95.2311 42.4458 94.7385 41.7533C94.248 41.0594 94.0012 39.8957 94.0012 38.2608V31.7309H92.5493V29.5709H94.0012V27.1989L96.1727 26.3457V29.5709H98.6098V31.7336Z" fill="white"/>
<path d="M109.606 35.9438C109.606 37.9351 109.168 39.5699 108.295 40.8484C107.379 42.1646 106.164 42.8207 104.648 42.8207C103.188 42.8207 102.026 42.1903 101.159 40.9294C100.292 39.6685 99.8584 38.0768 99.8584 36.1585C99.8584 34.151 100.304 32.5067 101.199 31.2283C102.092 29.9485 103.297 29.3086 104.812 29.3086C106.272 29.3086 107.447 29.939 108.334 31.2013C109.182 32.4257 109.606 34.0066 109.606 35.9438ZM107.312 36.037C107.312 34.8422 107.116 33.8176 106.718 32.963C106.255 31.9289 105.592 31.4132 104.734 31.4132C103.845 31.4132 103.17 31.9303 102.706 32.963C102.309 33.8189 102.113 34.8598 102.113 36.091C102.113 37.2857 102.309 38.3104 102.706 39.1636C103.184 40.1977 103.852 40.7134 104.714 40.7134C105.558 40.7134 106.221 40.1869 106.699 39.1366C107.106 38.2658 107.312 37.2304 107.312 36.037Z" fill="white"/>
<path d="M116.792 32.1038C116.574 32.0512 116.34 32.0242 116.096 32.0242C115.318 32.0242 114.716 32.4062 114.293 33.1717C113.925 33.8467 113.74 34.6999 113.74 35.7299V42.5272H111.53L111.551 33.6523C111.551 32.1592 111.523 30.7997 111.468 29.5739H113.394L113.475 32.0525H113.536C113.769 31.2007 114.138 30.5149 114.642 30.0005C115.134 29.5375 115.666 29.3066 116.24 29.3066C116.444 29.3066 116.629 29.3255 116.792 29.3593V32.1038Z" fill="white"/>
<path d="M126.68 35.4379C126.68 35.9536 126.654 36.3883 126.599 36.7433H119.967C119.992 38.0231 120.313 39.0019 120.929 39.6769C121.488 40.2803 122.211 40.5827 123.098 40.5827C124.08 40.5827 124.976 40.3789 125.782 39.9698L126.129 41.9678C125.187 42.5024 124.075 42.7684 122.792 42.7684C121.249 42.7684 120.038 42.1771 119.157 40.9958C118.277 39.8146 117.836 38.2283 117.836 36.2384C117.836 34.285 118.246 32.6582 119.066 31.3609C119.925 29.9758 121.085 29.2832 122.546 29.2832C123.98 29.2832 125.066 29.9758 125.803 31.3609C126.387 32.4611 126.68 33.8219 126.68 35.4379ZM124.572 34.6913C124.587 33.8381 124.442 33.101 124.143 32.4787C123.76 31.6781 123.172 31.2785 122.381 31.2785C121.658 31.2785 121.07 31.6687 120.621 32.4517C120.253 33.074 120.034 33.8206 119.967 34.69H124.572V34.6913Z" fill="white"/>
<path d="M50.867 13.5103C50.867 15.0992 50.5009 16.2953 49.7698 17.0986C49.0926 17.8397 48.1302 18.211 46.8837 18.211C46.2656 18.211 45.7368 18.1759 45.2939 18.1057V9.42383C45.8716 9.30233 46.4938 9.24023 47.1658 9.24023C48.3532 9.24023 49.2482 9.57638 49.8517 10.2487C50.5279 11.0087 50.867 12.0955 50.867 13.5103ZM49.7211 13.5494C49.7211 12.5194 49.5116 11.7296 49.0926 11.1788C48.6737 10.6294 48.0618 10.354 47.256 10.354C46.9138 10.354 46.6224 10.3837 46.3808 10.4458V17.0459C46.5145 17.0729 46.7593 17.0851 47.115 17.0851C47.9467 17.0851 48.5886 16.784 49.0408 16.1819C49.4929 15.5798 49.7211 14.7023 49.7211 13.5494Z" fill="white"/>
<path d="M56.9428 14.8995C56.9428 15.8783 56.7281 16.6802 56.2988 17.3093C55.8487 17.9559 55.2524 18.2786 54.5078 18.2786C53.7902 18.2786 53.2188 17.9694 52.7926 17.3484C52.3674 16.7288 52.1548 15.9471 52.1548 15.0048C52.1548 14.0193 52.3736 13.2107 52.8133 12.5829C53.253 11.9552 53.8441 11.6406 54.5887 11.6406C55.3063 11.6406 55.8829 11.9498 56.3195 12.5694C56.7343 13.1715 56.9428 13.9491 56.9428 14.8995ZM55.8155 14.9454C55.8155 14.3582 55.718 13.8546 55.5241 13.4348C55.296 12.9272 54.9714 12.6734 54.5493 12.6734C54.1127 12.6734 53.7809 12.9272 53.5527 13.4348C53.3577 13.8546 53.2613 14.3663 53.2613 14.9711C53.2613 15.5583 53.3588 16.0619 53.5527 16.4817C53.7881 16.9893 54.1158 17.2431 54.5389 17.2431C54.9537 17.2431 55.2794 16.9853 55.5137 16.4682C55.7149 16.0403 55.8155 15.5327 55.8155 14.9454Z" fill="white"/>
<path d="M65.0898 11.7695L63.5602 18.1334H62.5646L61.931 15.37C61.7702 14.6801 61.6396 13.9943 61.5379 13.3139H61.5182C61.4239 14.0132 61.2932 14.6977 61.1252 15.37L60.4522 18.1334H59.4452L58.0068 11.7695H59.1237L59.6765 14.7949C59.8102 15.5104 59.9202 16.1921 60.0083 16.8374H60.028C60.1089 16.3055 60.2427 15.6278 60.4314 14.8084L61.1252 11.7709H62.0108L62.6756 14.7436C62.8363 15.4685 62.967 16.1665 63.0676 16.8388H63.0977C63.1713 16.184 63.2822 15.4861 63.4295 14.7436L64.0227 11.7709H65.0898V11.7695Z" fill="white"/>
<path d="M70.724 18.1343H69.6372V14.4893C69.6372 13.3661 69.3095 12.8045 68.652 12.8045C68.3295 12.8045 68.0692 12.9584 67.867 13.2675C67.6668 13.5767 67.5652 13.9412 67.5652 14.3583V18.1329H66.4784V13.5888C66.4784 13.0299 66.4649 12.4238 66.439 11.7677H67.3941L67.4449 12.7626H67.475C67.6015 12.4535 67.7902 12.1983 68.0381 11.9945C68.3326 11.7569 68.6624 11.6367 69.0233 11.6367C69.4796 11.6367 69.8591 11.8284 70.1609 12.2132C70.5363 12.6843 70.724 13.3877 70.724 14.3219V18.1343V18.1343Z" fill="white"/>
<path d="M73.721 18.1336H72.6353V8.84961H73.721V18.1336Z" fill="white"/>
<path d="M80.1195 14.8995C80.1195 15.8783 79.9049 16.6802 79.4755 17.3093C79.0255 17.9559 78.4281 18.2786 77.6846 18.2786C76.9659 18.2786 76.3945 17.9694 75.9693 17.3484C75.5441 16.7288 75.3315 15.9471 75.3315 15.0048C75.3315 14.0193 75.5504 13.2107 75.9901 12.5829C76.4298 11.9552 77.0209 11.6406 77.7644 11.6406C78.4831 11.6406 79.0587 11.9498 79.4963 12.5694C79.9111 13.1715 80.1195 13.9491 80.1195 14.8995ZM78.9912 14.9454C78.9912 14.3582 78.8938 13.8546 78.6998 13.4348C78.4727 12.9272 78.1471 12.6734 77.7261 12.6734C77.2884 12.6734 76.9566 12.9272 76.7295 13.4348C76.5345 13.8546 76.4381 14.3663 76.4381 14.9711C76.4381 15.5583 76.5355 16.0619 76.7295 16.4817C76.9649 16.9893 77.2926 17.2431 77.7157 17.2431C78.1305 17.2431 78.4551 16.9853 78.6895 16.4682C78.8917 16.0403 78.9912 15.5327 78.9912 14.9454Z" fill="white"/>
<path d="M85.3791 18.1341H84.4032L84.3223 17.4011H84.2922C83.9583 17.9856 83.4823 18.2786 82.8642 18.2786C82.4028 18.2786 82.0294 18.0855 81.7484 17.7021C81.4933 17.3538 81.3657 16.9205 81.3657 16.4061C81.3657 15.6285 81.6146 15.0359 82.1155 14.6255C82.6154 14.2151 83.3185 14.0139 84.2238 14.0234V13.9046C84.2238 13.0662 83.8857 12.6477 83.2085 12.6477C82.7263 12.6477 82.3011 12.8057 81.934 13.1189L81.7131 12.1901C82.1674 11.8242 82.7284 11.6406 83.39 11.6406C84.6677 11.6406 85.3085 12.5181 85.3085 14.2731V16.6167C85.3085 17.2526 85.3324 17.7588 85.3791 18.1341ZM84.2508 15.9471V14.9657C83.0519 14.9387 82.4525 15.3666 82.4525 16.2482C82.4525 16.5803 82.521 16.8287 82.661 16.9947C82.801 17.1608 82.9794 17.2431 83.1919 17.2431C83.4305 17.2431 83.6534 17.1446 83.8567 16.9488C84.061 16.7517 84.1865 16.502 84.2331 16.1955C84.2445 16.1267 84.2508 16.043 84.2508 15.9471Z" fill="white"/>
<path d="M91.5549 18.1336H90.5904L90.5396 17.1116H90.5095C90.2015 17.8892 89.6768 18.278 88.9394 18.278C88.3504 18.278 87.8599 17.977 87.471 17.3749C87.0821 16.7728 86.8882 15.9911 86.8882 15.0313C86.8882 14.0012 87.0987 13.1669 87.5218 12.5297C87.9314 11.9357 88.4334 11.6387 89.0307 11.6387C89.6871 11.6387 90.1466 11.9263 90.4079 12.5027H90.4286V8.84961H91.5165V16.4191C91.5165 17.0387 91.5289 17.6098 91.5549 18.1336ZM90.4286 15.4498V14.3887C90.4286 14.2051 90.4183 14.0566 90.3985 13.9432C90.3374 13.603 90.2057 13.3168 90.0055 13.0859C89.8033 12.8551 89.5596 12.739 89.2785 12.739C88.8731 12.739 88.5557 12.9482 88.3224 13.3681C88.0911 13.7879 87.974 14.3239 87.974 14.9786C87.974 15.6077 88.0849 16.118 88.3079 16.5109C88.5433 16.9294 88.8606 17.1386 89.2578 17.1386C89.6145 17.1386 89.8997 16.9645 90.1165 16.6148C90.326 16.2922 90.4286 15.9034 90.4286 15.4498Z" fill="white"/>
<path d="M100.85 14.8995C100.85 15.8783 100.635 16.6802 100.206 17.3093C99.7555 17.9559 99.1602 18.2786 98.4146 18.2786C97.698 18.2786 97.1266 17.9694 96.6993 17.3484C96.2741 16.7288 96.0615 15.9471 96.0615 15.0048C96.0615 14.0193 96.2803 13.2107 96.72 12.5829C97.1597 11.9552 97.7509 11.6406 98.4965 11.6406C99.2131 11.6406 99.7907 11.9498 100.226 12.5694C100.641 13.1715 100.85 13.9491 100.85 14.8995ZM99.7233 14.9454C99.7233 14.3582 99.6258 13.8546 99.4319 13.4348C99.2027 12.9272 98.8792 12.6734 98.456 12.6734C98.0205 12.6734 97.6886 12.9272 97.4594 13.4348C97.2645 13.8546 97.168 14.3663 97.168 14.9711C97.168 15.5583 97.2655 16.0619 97.4594 16.4817C97.6949 16.9893 98.0226 17.2431 98.4457 17.2431C98.8605 17.2431 99.1872 16.9853 99.4215 16.4682C99.6217 16.0403 99.7233 15.5327 99.7233 14.9454Z" fill="white"/>
<path d="M106.694 18.1343H105.608V14.4893C105.608 13.3661 105.28 12.8045 104.622 12.8045C104.299 12.8045 104.039 12.9584 103.838 13.2675C103.636 13.5767 103.536 13.9412 103.536 14.3583V18.1329H102.448V13.5888C102.448 13.0299 102.436 12.4238 102.41 11.7677H103.364L103.415 12.7626H103.445C103.572 12.4535 103.761 12.1983 104.008 11.9945C104.303 11.7569 104.632 11.6367 104.994 11.6367C105.449 11.6367 105.829 11.8284 106.131 12.2132C106.507 12.6843 106.694 13.3877 106.694 14.3219V18.1343V18.1343Z" fill="white"/>
<path d="M114.008 12.8302H112.811V15.9217C112.811 16.7074 113.023 17.1002 113.444 17.1002C113.639 17.1002 113.801 17.0786 113.929 17.0341L113.957 18.1073C113.742 18.2126 113.46 18.2653 113.113 18.2653C112.683 18.2653 112.349 18.0952 112.108 17.755C111.865 17.4148 111.745 16.8424 111.745 16.0391V12.8302H111.03V11.7704H111.745V10.604L112.81 10.1855V11.7691H114.007V12.8302H114.008Z" fill="white"/>
<path d="M119.761 18.1336H118.673V14.5156C118.673 13.3748 118.346 12.8038 117.689 12.8038C117.185 12.8038 116.841 13.1345 116.652 13.796C116.62 13.9351 116.601 14.1052 116.601 14.305V18.1322H115.516V8.84961H116.601V12.685H116.622C116.964 11.987 117.455 11.6387 118.091 11.6387C118.541 11.6387 118.913 11.8304 119.209 12.2152C119.577 12.6944 119.761 13.4072 119.761 14.3495V18.1336V18.1336Z" fill="white"/>
<path d="M125.696 14.6516C125.696 14.9054 125.682 15.1187 125.656 15.2928H122.396C122.411 15.9219 122.567 16.4012 122.868 16.7333C123.144 17.0303 123.5 17.1788 123.935 17.1788C124.418 17.1788 124.857 17.0789 125.254 16.8777L125.424 17.8605C124.96 18.1224 124.415 18.2534 123.783 18.2534C123.026 18.2534 122.43 17.9631 121.998 17.3826C121.565 16.8021 121.35 16.0232 121.35 15.0458C121.35 14.0859 121.55 13.2867 121.954 12.6495C122.375 11.9691 122.944 11.6289 123.663 11.6289C124.366 11.6289 124.9 11.9691 125.261 12.6495C125.552 13.1895 125.696 13.8578 125.696 14.6516ZM124.659 14.2857C124.668 13.8659 124.596 13.5041 124.449 13.199C124.26 12.8061 123.973 12.609 123.584 12.609C123.229 12.609 122.94 12.8007 122.719 13.1855C122.539 13.4919 122.432 13.8578 122.396 14.2857H124.659Z" fill="white"/>
</svg>
