<svg width="130" height="24" viewBox="0 0 130 24" fill="none" xmlns="http://www.w3.org/2000/svg">
<path d="M5.825 22L7.45 14.975L2 10.25L9.2 9.625L12 3L14.8 9.625L22 10.25L16.55 14.975L18.175 22L12 18.275L5.825 22Z" fill="black"/>
<path d="M32.825 22L34.45 14.975L29 10.25L36.2 9.625L39 3L41.8 9.625L49 10.25L43.55 14.975L45.175 22L39 18.275L32.825 22Z" fill="black"/>
<path d="M59.825 22L61.45 14.975L56 10.25L63.2 9.625L66 3L68.8 9.625L76 10.25L70.55 14.975L72.175 22L66 18.275L59.825 22Z" fill="black"/>
<path d="M85.825 22L87.45 14.975L82 10.25L89.2 9.625L92 3L94.8 9.625L102 10.25L96.55 14.975L98.175 22L92 18.275L85.825 22Z" fill="black"/>
<path d="M111.825 22L113.45 14.975L108 10.25L115.2 9.625L118 3L120.8 9.625L128 10.25L122.55 14.975L124.175 22L118 18.275L111.825 22Z" fill="black"/>
</svg>
