<svg width="140" height="54" viewBox="0 0 140 54" fill="none" xmlns="http://www.w3.org/2000/svg">
<path d="M134.815 54H5.18526C2.33335 54 0 50.9625 0 47.25V6.75C0 3.03747 2.33335 0 5.18526 0H134.815C137.667 0 140 3.03747 140 6.75V47.25C140 50.9625 137.667 54 134.815 54Z" fill="#100F0D"/>
<path d="M134.815 0H5.18526C2.33335 0 0 3.03747 0 6.75V47.25C0 50.9625 2.33335 54 5.18526 54H134.815C137.667 54 140 50.9625 140 47.25V6.75C140 3.03747 137.667 0 134.815 0V0ZM134.815 1.07945C137.217 1.07945 139.17 3.62342 139.17 6.75V47.25C139.17 50.3766 137.217 52.9205 134.815 52.9205H5.18526C2.78346 52.9205 0.830077 50.3766 0.830077 47.25V6.75C0.830077 3.62342 2.78346 1.07945 5.18526 1.07945H134.815" fill="#A2A2A1"/>
<path d="M110.898 40.5003H112.833V23.6225H110.898V40.5003ZM128.327 29.7027L126.109 37.0196H126.043L123.741 29.7027H121.656L125.11 39.9292L123.14 45.6181H125.158L130.479 29.7032L128.327 29.7027ZM117.353 38.5832C116.72 38.5832 115.835 38.1702 115.835 37.1498C115.835 35.8472 116.937 35.3479 117.887 35.3479C118.737 35.3479 119.138 35.5863 119.655 35.9122C119.505 37.4757 118.471 38.5831 117.353 38.5831L117.353 38.5832ZM117.587 29.3336C116.186 29.3336 114.735 30.1372 114.135 31.9176L115.852 32.851C116.219 31.9176 116.902 31.6139 117.62 31.6139C118.621 31.6139 119.638 32.3949 119.655 33.785V33.9584C119.304 33.6979 118.553 33.3072 117.637 33.3072C115.785 33.3072 113.9 34.6313 113.9 37.1066C113.9 39.3647 115.418 40.8196 117.119 40.8196C118.42 40.8196 119.138 40.0597 119.587 39.1691H119.655V40.4726H121.524V34.0016C121.524 31.0052 119.804 29.3335 117.587 29.3335V29.3336ZM105.627 31.7572H102.875V25.9724H105.627C107.074 25.9724 107.895 27.5313 107.895 28.8648C107.895 30.1726 107.074 31.7572 105.627 31.7572ZM105.578 23.6229H100.941V40.5007H102.875V34.1067H105.578C107.722 34.1067 109.831 32.0859 109.831 28.8654C109.831 25.6454 107.722 23.6236 105.578 23.6236L105.578 23.6229ZM80.2934 38.586C78.9565 38.586 77.8376 37.1284 77.8376 35.1282C77.8376 33.1048 78.9565 31.6266 80.2934 31.6266C81.6133 31.6266 82.6491 33.1049 82.6491 35.1282C82.6491 37.1284 81.6133 38.586 80.2934 38.586ZM82.5154 30.6475H82.4485C82.0142 29.9734 81.1785 29.3644 80.1265 29.3644C77.9207 29.3644 75.8992 31.8877 75.8992 35.1282C75.8992 38.3466 77.9207 40.8478 80.1265 40.8478C81.1785 40.8478 82.0142 40.2387 82.4485 39.5431H82.5154V40.3689C82.5154 42.5664 81.6133 43.7402 80.1597 43.7402C78.9739 43.7402 78.2387 42.6312 77.9377 41.6962L76.2506 42.6095C76.7347 44.1313 78.0208 46.0025 80.1598 46.0025C82.4324 46.0025 84.3537 44.2622 84.3537 40.0208V29.7123H82.5154L82.5154 30.6475ZM85.6905 40.4998H87.6277V23.622H85.6905V40.4998ZM90.4849 34.9321C90.4351 32.7136 91.8055 31.5829 92.7907 31.5829C93.5596 31.5829 94.2106 32.0833 94.4286 32.8005L90.4849 34.9321ZM96.4994 33.0178C96.132 31.7354 95.0127 29.3644 92.7239 29.3644C90.4513 29.3644 88.5635 31.6915 88.5635 35.1062C88.5635 38.3251 90.4351 40.8479 92.9406 40.8479C94.9621 40.8479 96.1321 39.239 96.6169 38.3034L95.1131 36.9983C94.6117 37.9554 93.9271 38.5861 92.9406 38.5861C91.9555 38.5861 91.2534 37.9987 90.803 36.846L96.6999 33.6708L96.4994 33.0178ZM49.5128 31.1262V33.5621H53.9903C53.8566 34.9322 53.5058 35.9325 52.971 36.6286C52.3192 37.4765 51.3001 38.4121 49.5127 38.4121C46.756 38.4121 44.6009 35.5196 44.6009 31.931C44.6009 28.3424 46.756 25.4495 49.5127 25.4495C50.9997 25.4495 52.0855 26.2109 52.8875 27.1896L54.2077 25.4711C53.088 24.0794 51.6013 23.0137 49.5127 23.0137C45.7363 23.0137 42.562 27.0156 42.562 31.931C42.562 36.8459 45.7363 40.8479 49.5127 40.8479C51.5507 40.8479 53.0881 39.9778 54.2908 38.3467C55.5272 36.7372 55.9116 34.4755 55.9116 32.6483C55.9116 32.0834 55.8779 31.5614 55.8111 31.1262H49.5128ZM61.0026 38.586C59.6657 38.586 58.5128 37.1506 58.5128 35.1062C58.5128 33.04 59.6657 31.6267 61.0026 31.6267C62.3389 31.6267 63.4918 33.04 63.4918 35.1062C63.4918 37.1506 62.3389 38.586 61.0026 38.586ZM61.0026 29.3644C58.5626 29.3644 56.5748 31.7785 56.5748 35.1062C56.5748 38.4121 58.5626 40.8479 61.0026 40.8479C63.4416 40.8479 65.4299 38.4121 65.4299 35.1062C65.4299 31.7785 63.4416 29.3644 61.0026 29.3644V29.3644ZM70.6606 38.586C69.3247 38.586 68.1714 37.1506 68.1714 35.1062C68.1714 33.04 69.3248 31.6267 70.6606 31.6267C71.9975 31.6267 73.15 33.04 73.15 35.1062C73.15 37.1506 71.9975 38.586 70.6606 38.586ZM70.6606 29.3644C68.2216 29.3644 66.2337 31.7785 66.2337 35.1062C66.2337 38.4121 68.2216 40.8479 70.6606 40.8479C73.1006 40.8479 75.0885 38.4121 75.0885 35.1062C75.0885 31.7785 73.1006 29.3644 70.6606 29.3644" fill="white"/>
<path d="M21.4821 26.2228L10.4419 41.4775C10.4423 41.4807 10.4431 41.4833 10.4435 41.4866C10.7821 43.143 11.9444 44.3627 13.3238 44.3627C13.8752 44.3627 14.3928 44.1687 14.8368 43.828L14.8721 43.8011L27.2999 34.4656L21.4827 26.2227" fill="#EB3131"/>
<path d="M32.6519 23.6249L32.6413 23.6155L27.2758 19.5664L21.231 26.5686L27.2968 34.464L32.634 30.4552C33.5697 29.7976 34.2049 28.5135 34.2049 27.0327C34.2049 25.5625 33.5783 24.2848 32.6518 23.625" fill="#F6B60B"/>
<path d="M10.4401 12.5234C10.3738 12.842 10.3389 13.1758 10.3389 13.5223V40.4788C10.3389 40.8247 10.3733 41.1595 10.4405 41.477L21.8619 26.6121L10.4405 12.5238" fill="#5778C5"/>
<path d="M21.5636 27.0019L27.2784 19.5648L14.8646 10.1955C14.4133 9.84367 13.8867 9.64062 13.3232 9.64062C11.9438 9.64062 10.78 10.8625 10.4413 12.521C10.4409 12.5226 10.4409 12.5237 10.4409 12.5251L21.5636 27.0022" fill="#3BAD49"/>
<path d="M49.1496 13.2054H46.1243V14.18H48.3913C48.3297 14.9753 48.0866 15.5996 47.6766 16.0531C47.2667 16.5067 46.7433 16.7345 46.1243 16.7345C45.4453 16.7345 44.8701 16.4265 44.3986 15.8149C43.9367 15.1905 43.7019 14.4184 43.7019 13.4882C43.7019 12.558 43.9367 11.7859 44.3986 11.1616C44.8701 10.5499 45.4453 10.244 46.1243 10.244C46.4727 10.244 46.8049 10.3221 47.1095 10.493C47.4141 10.6637 47.6588 10.9021 47.85 11.2081L48.4253 10.4592C48.1643 10.0731 47.8338 9.77786 47.4238 9.56268C47.0138 9.34749 46.5861 9.24421 46.1242 9.24421C45.2184 9.24421 44.4504 9.65339 43.8233 10.4698C43.1962 11.2881 42.8818 12.2965 42.8818 13.4882C42.8818 14.68 43.1962 15.6905 43.8233 16.5069C44.4504 17.3231 45.2184 17.7324 46.1242 17.7324C47.0754 17.7324 47.8337 17.3358 48.4171 16.5299C48.9308 15.8593 49.1932 14.9522 49.1932 13.8174C49.1932 13.6254 49.1754 13.4208 49.1495 13.2056L49.1496 13.2054ZM50.3216 9.42544V17.5509H53.9657V16.5531H51.1236V13.9755H53.6871V13.0009H51.1236V10.4254H53.9657V9.42541L50.3216 9.42544ZM59.0758 10.4254V9.42544H54.7866V10.4254H56.5302V17.5508H57.3323V10.4254H59.0758ZM62.959 9.42544H62.1569V17.5509H62.959V9.42544ZM68.2532 10.4254V9.42544H63.9641V10.4254H65.7075V17.5508H66.5096V10.4254H68.2532ZM76.3471 10.4824C75.7281 9.65333 74.9698 9.24414 74.0639 9.24414C73.1565 9.24414 72.3982 9.65332 71.7792 10.4697C71.1602 11.2755 70.8556 12.2859 70.8556 13.4881C70.8556 14.6904 71.1602 15.7009 71.7792 16.5068C72.3982 17.323 73.1565 17.7323 74.0639 17.7323C74.9616 17.7323 75.728 17.323 76.3471 16.5068C76.9661 15.701 77.2707 14.6905 77.2707 13.4881C77.2707 12.2964 76.9661 11.288 76.3471 10.4824V10.4824ZM72.3545 11.1615C72.8163 10.5499 73.3834 10.2439 74.0639 10.2439C74.7429 10.2439 75.31 10.5499 75.7637 11.1615C76.2255 11.7627 76.4523 12.5473 76.4523 13.4881C76.4523 14.4311 76.2255 15.2136 75.7637 15.8148C75.31 16.4265 74.7429 16.7344 74.0639 16.7344C73.3834 16.7344 72.8162 16.4265 72.3545 15.8148C71.9023 15.201 71.6755 14.4311 71.6755 13.4881C71.6755 12.5473 71.9023 11.7753 72.3545 11.1615V11.1615ZM79.1763 12.4905L79.1423 10.9231H79.1763L82.3491 17.5508H83.1867V9.42536H82.3847V14.1799L82.4187 15.7473H82.3847L79.3513 9.42536H78.3742V17.5508H79.1763V12.4905Z" fill="white" stroke="white" stroke-width="0.26666" stroke-miterlimit="10"/>
</svg>
