<svg width="792" height="561" viewBox="0 0 792 561" fill="none" xmlns="http://www.w3.org/2000/svg">
<path d="M253.644 433.851C253.644 433.851 275.161 386.232 280.779 367.624C286.396 349.016 284.749 293.786 284.749 293.786L300.311 255.639C300.311 255.639 409.486 172.497 441.246 154.521C473.006 136.546 511.396 108.596 522.631 114.811C533.866 121.026 531.901 134.666 518.661 148.306C513.222 153.889 505.858 159.769 501.352 165.891C497.679 170.897 493.094 186.621 497.501 192.203C502.781 198.884 516.438 189.189 523.782 195.758C527.653 199.219 527.415 205.304 524.834 209.677C522.254 214.05 517.867 217.12 513.837 220.488C503.098 229.197 493.987 240.138 485.452 250.615C476.718 261.389 481.72 276.667 482.415 289.078C483.249 304.17 485.492 322.164 480.946 336.92C473.661 360.479 430.964 389.638 412.444 404.543C393.924 419.448 378.361 469.058 378.361 469.058L253.644 433.851Z" fill="white"/>
<path d="M378.401 469.989H378.103L253.366 434.782C253.23 434.745 253.105 434.681 252.999 434.594C252.893 434.507 252.808 434.4 252.75 434.279C252.696 434.159 252.668 434.029 252.668 433.898C252.668 433.767 252.696 433.637 252.75 433.517C252.969 433.051 274.307 385.749 279.846 367.401C285.384 349.053 283.816 294.401 283.816 293.861C283.795 293.744 283.795 293.624 283.816 293.507L299.378 255.342C299.44 255.19 299.542 255.055 299.676 254.951C300.767 254.114 409.287 171.567 440.75 153.759C448.69 149.237 457.205 144.045 465.403 139.021C491.605 122.962 514.214 109.117 523.167 114.049C525.182 115.081 526.918 116.531 528.242 118.289C529.567 120.047 530.445 122.065 530.809 124.19C531.96 131.373 527.931 140.138 519.435 148.902C517.45 150.763 515.465 152.791 513.262 154.838C509.226 158.376 505.527 162.236 502.205 166.375C498.533 171.381 494.265 186.547 498.335 191.608C500.597 194.474 504.806 193.823 509.649 193.078C514.492 192.334 520.467 191.422 524.517 195.051C528.566 198.679 528.487 205.546 525.728 210.086C523.172 213.887 519.896 217.217 516.061 219.911L514.512 221.158C503.893 229.774 494.662 240.697 486.286 251.136C479.795 259.119 481.164 269.745 482.494 279.998C482.891 283.143 483.268 286.101 483.447 289.004C483.566 291.33 483.725 293.731 483.904 296.187C484.797 309.455 485.889 324.509 481.919 337.125C475.765 357.148 444.64 380.985 423.917 396.858C419.947 399.91 416.156 402.813 413.118 405.25C395.035 419.784 379.512 468.835 379.373 469.319C379.297 469.555 379.126 469.755 378.897 469.877C378.744 469.952 378.574 469.99 378.401 469.989ZM254.993 433.256L377.726 467.905C379.989 460.908 394.44 417.792 411.828 403.836C414.885 401.38 418.676 398.477 422.666 395.407C443.112 379.757 474.018 356.087 480.013 336.66C483.824 324.341 482.812 309.473 481.998 296.336C481.839 293.88 481.661 291.479 481.541 289.134C481.383 286.306 481.005 283.366 480.608 280.258C479.298 270.117 477.81 258.635 484.777 250.057C493.312 239.525 502.523 228.527 513.301 219.8L514.85 218.534C518.496 215.976 521.622 212.824 524.08 209.23C526.383 205.304 526.839 199.666 523.226 196.428C519.614 193.19 514.889 194.213 510.066 194.958C505.242 195.702 499.803 196.521 496.826 192.743C491.943 186.584 496.985 170.413 500.657 165.37C504.032 161.119 507.813 157.164 511.952 153.554C514.115 151.526 516.18 149.609 518.046 147.674C525.986 139.468 529.956 130.926 528.923 124.507C528.626 122.64 527.869 120.864 526.711 119.32C525.553 117.775 524.027 116.506 522.254 115.612C514.314 111.257 490.057 126.144 466.555 140.547C458.357 145.571 449.861 150.782 441.861 155.303C411.173 172.684 306.584 252.067 301.224 256.198L285.84 293.954C285.959 298.066 287.329 349.779 281.87 367.885C276.59 384.874 258.05 426.427 254.993 433.256Z" fill="#231F20"/>
<path d="M498.057 65.4805H359.087C353.485 65.4805 348.943 69.7377 348.943 74.9893V353.556C348.943 358.808 353.485 363.065 359.087 363.065H498.057C503.659 363.065 508.2 358.808 508.2 353.556V74.9893C508.2 69.7377 503.659 65.4805 498.057 65.4805Z" fill="white"/>
<path d="M498.056 364.014H359.106C356.148 364.014 353.31 362.913 351.218 360.951C349.126 358.99 347.951 356.33 347.951 353.556V75.0084C347.977 72.2509 349.164 69.6148 351.253 67.6736C353.342 65.7325 356.165 64.6434 359.106 64.6436H498.056C501.012 64.6485 503.844 65.7525 505.932 67.7132C508.02 69.6739 509.192 72.3311 509.192 75.1014V353.556C509.192 356.327 508.02 358.984 505.932 360.945C503.844 362.905 501.012 364.009 498.056 364.014ZM359.106 66.5044C356.674 66.5044 354.342 67.4101 352.622 69.0224C350.902 70.6347 349.936 72.8214 349.936 75.1014V353.556C349.936 355.837 350.902 358.023 352.622 359.636C354.342 361.248 356.674 362.154 359.106 362.154H498.056C500.485 362.149 502.813 361.241 504.528 359.629C506.244 358.017 507.207 355.833 507.207 353.556V75.0084C507.181 72.7477 506.206 70.5876 504.493 68.996C502.781 67.4043 500.468 66.5091 498.056 66.5044H359.106Z" fill="#231F20"/>
<path d="M500.161 92.4072H357.638V321.439H500.161V92.4072Z" fill="#E6D2FF"/>
<path d="M443.787 354.933H416.672C414.755 354.933 412.918 354.22 411.563 352.949C410.208 351.679 409.446 349.956 409.446 348.16V338.446C409.446 336.648 410.207 334.923 411.561 333.65C412.916 332.377 414.754 331.659 416.672 331.654H443.787C445.705 331.659 447.543 332.377 448.897 333.65C450.252 334.923 451.012 336.648 451.012 338.446V348.16C451.012 349.956 450.251 351.679 448.896 352.949C447.541 354.22 445.703 354.933 443.787 354.933ZM416.672 333.515C415.28 333.52 413.947 334.042 412.965 334.966C411.983 335.89 411.431 337.142 411.431 338.446V348.16C411.431 349.463 411.983 350.712 412.966 351.634C413.949 352.555 415.282 353.072 416.672 353.072H443.787C445.177 353.072 446.51 352.555 447.492 351.634C448.475 350.712 449.027 349.463 449.027 348.16V338.446C449.027 337.142 448.476 335.89 447.494 334.966C446.511 334.042 445.178 333.52 443.787 333.515H416.672Z" fill="#D1D3D4"/>
<path d="M440.452 79.7534H399.878C399.615 79.7534 399.363 79.6554 399.176 79.4809C398.99 79.3064 398.886 79.0698 398.886 78.823C398.886 78.5762 398.99 78.3396 399.176 78.1651C399.363 77.9906 399.615 77.8926 399.878 77.8926H440.452C440.715 77.8926 440.967 77.9906 441.153 78.1651C441.34 78.3396 441.444 78.5762 441.444 78.823C441.444 79.0698 441.34 79.3064 441.153 79.4809C440.967 79.6554 440.715 79.7534 440.452 79.7534Z" fill="#D1D3D4"/>
<path d="M451.588 79.3071H446.149C445.886 79.3071 445.633 79.2091 445.447 79.0346C445.261 78.8601 445.156 78.6235 445.156 78.3767C445.156 78.1299 445.261 77.8933 445.447 77.7188C445.633 77.5443 445.886 77.4463 446.149 77.4463H451.588C451.851 77.4463 452.103 77.5443 452.289 77.7188C452.476 77.8933 452.58 78.1299 452.58 78.3767C452.58 78.6235 452.476 78.8601 452.289 79.0346C452.103 79.2091 451.851 79.3071 451.588 79.3071Z" fill="#D1D3D4"/>
<path d="M492.935 195.776C492.338 198.35 492.415 201.02 493.16 203.56C493.904 206.099 495.294 208.431 497.21 210.357C499.126 212.283 501.511 213.745 504.161 214.618C506.811 215.491 509.648 215.75 512.428 215.371C515.613 214.905 518.626 213.709 521.201 211.891C523.572 210.276 525.541 208.199 526.973 205.803C528.406 203.407 529.267 200.748 529.499 198.009C530.055 189.059 521.995 181.262 512.626 180.183C503.853 179.159 494.662 188.277 492.935 195.776Z" fill="white"/>
<path d="M510.026 216.45C507.277 216.46 504.56 215.892 502.076 214.789C499.592 213.685 497.403 212.073 495.67 210.072C493.937 208.072 492.705 205.732 492.063 203.226C491.422 200.72 491.387 198.111 491.963 195.591C493.948 187.31 503.555 178.173 512.746 179.234C523.087 180.425 531.067 188.873 530.492 198.047C530.255 200.921 529.355 203.713 527.854 206.228C526.353 208.744 524.286 210.924 521.797 212.617C519.091 214.547 515.922 215.825 512.567 216.339C511.724 216.432 510.875 216.469 510.026 216.45ZM511.277 181.095C503.654 181.095 495.536 188.966 493.908 195.981C493.353 198.406 493.432 200.921 494.137 203.311C494.843 205.701 496.154 207.896 497.959 209.709C499.764 211.521 502.01 212.898 504.505 213.722C507 214.546 509.67 214.793 512.289 214.441C515.316 213.994 518.179 212.857 520.626 211.128C522.891 209.601 524.775 207.63 526.146 205.351C527.517 203.073 528.343 200.543 528.566 197.935C529.062 189.859 521.738 182.137 512.567 181.076C512.13 181.039 511.694 181.02 511.277 181.02V181.095Z" fill="#231F20"/>
<path d="M486.742 253.798C485.606 255.313 484.852 257.049 484.536 258.877C484.219 260.704 484.349 262.575 484.916 264.349C485.833 266.43 487.253 268.284 489.064 269.764C493.848 274.007 500.379 277.002 506.929 276.091C510.906 275.322 514.645 273.718 517.867 271.401C523.623 267.68 529.141 262.99 531.047 256.719C533.806 247.62 526.779 234.389 515.405 235.655C505.996 236.753 491.724 246.559 486.742 253.798Z" fill="white"/>
<path d="M504.508 277.188C498.39 276.962 492.595 274.553 488.31 270.452C486.377 268.874 484.867 266.892 483.903 264.665C483.291 262.753 483.152 260.735 483.496 258.765C483.839 256.795 484.658 254.925 485.888 253.295C490.99 245.852 505.52 235.878 515.187 234.687C517.509 234.435 519.861 234.742 522.021 235.579C524.181 236.416 526.079 237.755 527.534 239.469C529.667 241.852 531.175 244.671 531.937 247.699C532.699 250.727 532.693 253.88 531.921 256.905C530.253 262.488 525.966 267.233 518.363 272.108C515.01 274.505 511.121 276.159 506.989 276.947C506.169 277.083 505.34 277.163 504.508 277.188ZM487.576 254.3C486.52 255.694 485.816 257.294 485.517 258.98C485.217 260.666 485.331 262.394 485.849 264.032C486.729 265.989 488.089 267.723 489.819 269.094C495.039 273.727 501.213 275.942 506.79 275.16C510.611 274.402 514.205 272.858 517.311 270.638C524.497 266.005 528.566 261.502 530.094 256.459C530.784 253.729 530.785 250.886 530.096 248.156C529.406 245.426 528.047 242.885 526.124 240.735C524.876 239.264 523.252 238.113 521.402 237.387C519.553 236.662 517.538 236.386 515.544 236.585C506.513 237.646 492.439 247.378 487.655 254.3H487.576Z" fill="#231F20"/>
<path d="M492.518 291.777C490.306 293.207 488.456 295.075 487.099 297.248C485.767 299.775 485.228 302.605 485.544 305.409C485.86 308.212 487.019 310.874 488.886 313.084C490.796 315.255 493.15 317.046 495.809 318.353C498.467 319.66 501.378 320.456 504.369 320.695C507.892 321.095 511.466 320.793 514.856 319.809C518.246 318.824 521.376 317.18 524.04 314.982C526.668 312.739 528.628 309.894 529.727 306.726C530.827 303.558 531.029 300.176 530.313 296.913C526.025 279.831 503.873 284.036 492.518 291.777Z" fill="white"/>
<path d="M507.247 321.774C506.255 321.774 505.262 321.774 504.25 321.625C501.123 321.377 498.082 320.542 495.307 319.171C492.531 317.8 490.077 315.92 488.092 313.642C486.122 311.284 484.904 308.451 484.578 305.472C484.251 302.492 484.829 299.487 486.246 296.802C487.668 294.508 489.613 292.538 491.943 291.033C499.605 285.804 512.071 282.138 521.043 285.265C523.652 286.189 525.963 287.727 527.753 289.731C529.544 291.736 530.754 294.139 531.266 296.709C532.041 300.13 531.844 303.683 530.695 307.011C529.545 310.339 527.483 313.325 524.715 315.671C519.901 319.665 513.676 321.84 507.247 321.774ZM493.114 292.54C491.021 293.888 489.267 295.647 487.973 297.695C486.726 300.073 486.223 302.732 486.522 305.367C486.82 308.001 487.908 310.503 489.66 312.582C491.487 314.657 493.738 316.368 496.281 317.614C498.824 318.861 501.608 319.617 504.468 319.839C507.854 320.224 511.289 319.936 514.549 318.993C517.808 318.051 520.819 316.475 523.385 314.368C525.894 312.248 527.765 309.547 528.81 306.536C529.856 303.525 530.038 300.309 529.34 297.211C528.911 294.937 527.858 292.806 526.285 291.028C524.712 289.25 522.673 287.886 520.368 287.07C512.031 284.185 500.339 287.684 493.114 292.652V292.54Z" fill="#231F20"/>
<path d="M259.936 389.174L274.168 362.824L408.831 413.383L393.626 436.327L259.936 389.174Z" fill="#313131"/>
<path d="M404.543 428.733L258.606 376.611L208.981 449.668L368.793 506.442L404.543 428.733Z" fill="#231F20"/>
<path d="M368.793 507.372C368.682 507.388 368.568 507.388 368.456 507.372L208.624 450.617C208.488 450.568 208.365 450.49 208.266 450.39C208.166 450.29 208.092 450.171 208.048 450.04C207.985 449.915 207.952 449.779 207.952 449.64C207.952 449.502 207.985 449.365 208.048 449.24L257.673 376.202C257.795 376.021 257.981 375.885 258.198 375.817C258.415 375.749 258.65 375.754 258.864 375.83L404.781 427.933C405.033 428.028 405.238 428.207 405.357 428.436C405.411 428.554 405.438 428.68 405.438 428.808C405.438 428.936 405.411 429.063 405.357 429.18L369.627 506.87C369.547 507.015 369.428 507.138 369.282 507.226C369.136 507.314 368.967 507.365 368.793 507.372ZM210.41 449.203L368.218 505.251L403.154 429.255L258.943 377.747L210.41 449.203Z" fill="#231F20"/>
<path d="M285.026 295.387C285.026 295.387 286.019 215.595 295.944 199.759C305.869 183.923 337.192 117.399 345.569 116.933C353.946 116.468 362.68 140.547 355.315 161.966C350.997 174.586 344.637 186.511 336.458 197.321C336.458 197.321 361.111 221.977 347.693 266.172" fill="white"/>
<path d="M285.027 296.355C284.896 296.352 284.768 296.326 284.648 296.277C284.529 296.228 284.421 296.157 284.331 296.069C284.24 295.981 284.169 295.877 284.122 295.763C284.074 295.649 284.051 295.528 284.054 295.406C284.054 292.149 285.165 215.185 295.11 199.331C298.128 194.493 303.169 184.928 309.005 173.819C326.672 140.212 339.634 116.375 345.609 116.133C347.792 115.984 350.035 117.231 352.06 119.687C358.472 127.466 361.985 145.999 356.189 162.319C351.87 174.783 345.631 186.587 337.669 197.358C341.242 201.396 360.873 226.034 348.606 266.507C348.571 266.629 348.51 266.744 348.428 266.844C348.346 266.944 348.243 267.028 348.126 267.091C348.009 267.154 347.88 267.195 347.746 267.211C347.612 267.228 347.476 267.219 347.346 267.186C347.215 267.153 347.093 267.096 346.986 267.019C346.879 266.942 346.79 266.846 346.722 266.736C346.655 266.626 346.611 266.505 346.594 266.38C346.577 266.254 346.586 266.127 346.621 266.005C353.469 243.451 350.115 226.183 346.085 215.762C343.78 209.327 340.227 203.346 335.604 198.121C335.456 197.954 335.374 197.743 335.374 197.526C335.374 197.308 335.456 197.098 335.604 196.93C343.701 186.189 350.006 174.355 354.303 161.835C359.782 146.092 356.586 128.34 350.492 120.897C349.983 120.108 349.286 119.441 348.456 118.947C347.626 118.453 346.686 118.146 345.708 118.05C340.448 118.347 321.888 153.685 310.772 174.805C304.936 185.97 299.874 195.535 296.877 200.429C287.19 215.855 286.098 294.792 286.098 295.573C286.055 295.805 285.921 296.013 285.723 296.157C285.525 296.302 285.277 296.372 285.027 296.355Z" fill="#231F20"/>
<path d="M259.102 439.433C264.858 439.433 269.524 435.059 269.524 429.664C269.524 424.268 264.858 419.895 259.102 419.895C253.347 419.895 248.681 424.268 248.681 429.664C248.681 435.059 253.347 439.433 259.102 439.433Z" fill="white"/>
<path d="M256.065 197.06C255.874 197.066 255.686 197.014 255.529 196.911L203.304 164.924C203.083 164.788 202.928 164.576 202.874 164.333C202.82 164.09 202.871 163.838 203.016 163.63C203.161 163.423 203.387 163.278 203.646 163.228C203.905 163.177 204.174 163.225 204.395 163.361L256.641 195.348C256.863 195.485 257.019 195.699 257.074 195.942C257.13 196.186 257.081 196.441 256.938 196.651C256.84 196.781 256.709 196.887 256.557 196.959C256.404 197.03 256.235 197.065 256.065 197.06Z" fill="#D1D3D4"/>
<path d="M234.111 258.301L160.785 255.119C160.655 255.114 160.527 255.085 160.408 255.034C160.29 254.983 160.183 254.91 160.095 254.82C160.006 254.73 159.938 254.625 159.893 254.51C159.847 254.395 159.827 254.273 159.832 254.151C159.852 253.907 159.97 253.68 160.161 253.514C160.353 253.349 160.604 253.257 160.865 253.258L234.23 256.44C234.493 256.459 234.739 256.572 234.916 256.755C235.093 256.939 235.189 257.179 235.183 257.426C235.163 257.675 235.039 257.906 234.838 258.069C234.638 258.233 234.376 258.316 234.111 258.301Z" fill="#D1D3D4"/>
<path d="M588.116 189.934C587.913 189.928 587.717 189.867 587.551 189.758C587.385 189.649 587.257 189.496 587.183 189.319C587.094 189.088 587.106 188.832 587.218 188.608C587.33 188.385 587.531 188.213 587.779 188.129L630.873 173.242C631.12 173.158 631.393 173.17 631.631 173.274C631.87 173.379 632.054 173.568 632.143 173.8C632.191 173.914 632.214 174.035 632.21 174.157C632.207 174.279 632.178 174.399 632.124 174.51C632.07 174.621 631.993 174.72 631.898 174.803C631.802 174.886 631.69 174.95 631.568 174.991L588.454 189.878C588.346 189.916 588.231 189.935 588.116 189.934Z" fill="#D1D3D4"/>
<path d="M639.984 294.215H639.746L591.987 283.31C591.732 283.253 591.511 283.103 591.374 282.894C591.236 282.685 591.192 282.433 591.252 282.194C591.282 282.074 591.338 281.96 591.415 281.86C591.493 281.76 591.591 281.676 591.704 281.611C591.816 281.547 591.941 281.505 592.072 281.487C592.202 281.469 592.335 281.475 592.463 281.505L640.222 292.41C640.477 292.467 640.697 292.617 640.835 292.826C640.973 293.035 641.016 293.287 640.957 293.526C640.899 293.726 640.772 293.902 640.596 294.027C640.42 294.152 640.205 294.218 639.984 294.215Z" fill="#D1D3D4"/>
<path d="M564.296 425.533C564.154 425.532 564.013 425.503 563.883 425.449C563.754 425.394 563.637 425.316 563.541 425.217L535.613 394.662C535.526 394.571 535.46 394.465 535.418 394.35C535.377 394.234 535.36 394.113 535.369 393.991C535.378 393.87 535.413 393.751 535.472 393.643C535.531 393.534 535.613 393.438 535.712 393.359C535.901 393.188 536.153 393.092 536.416 393.092C536.68 393.092 536.932 393.188 537.121 393.359L565.05 423.914C565.136 424.005 565.202 424.111 565.244 424.227C565.286 424.342 565.303 424.464 565.293 424.585C565.284 424.707 565.249 424.825 565.19 424.934C565.131 425.042 565.05 425.138 564.951 425.217C564.781 425.394 564.548 425.507 564.296 425.533Z" fill="#D1D3D4"/>
<path d="M215.313 340.047C215.093 340.046 214.879 339.979 214.704 339.855C214.528 339.731 214.401 339.556 214.34 339.358C214.308 339.24 214.3 339.116 214.318 338.995C214.336 338.874 214.38 338.757 214.446 338.651C214.513 338.546 214.601 338.454 214.705 338.38C214.81 338.307 214.928 338.253 215.055 338.223L242.011 331.524C242.138 331.493 242.269 331.486 242.399 331.503C242.528 331.52 242.653 331.561 242.765 331.623C242.878 331.686 242.976 331.768 243.054 331.866C243.133 331.964 243.19 332.075 243.222 332.194C243.289 332.431 243.254 332.683 243.124 332.895C242.994 333.108 242.779 333.264 242.527 333.329L215.571 340.028L215.313 340.047Z" fill="#D1D3D4"/>
<path d="M359.847 236.735H494.566C494.631 236.735 494.693 236.687 494.74 236.602C494.786 236.517 494.812 236.401 494.812 236.281C494.812 236.16 494.786 236.044 494.74 235.959C494.693 235.874 494.631 235.826 494.566 235.826H359.847C359.782 235.826 359.719 235.874 359.673 235.959C359.627 236.044 359.601 236.16 359.601 236.281C359.601 236.401 359.627 236.517 359.673 236.602C359.719 236.687 359.782 236.735 359.847 236.735Z" fill="#D1D3D4"/>
<path d="M376.259 253.219H478.149L489.093 285.049H365.319L376.259 253.219Z" fill="white"/>
<path d="M365.32 285.504H489.094C489.137 285.504 489.18 285.482 489.217 285.441C489.255 285.399 489.285 285.339 489.305 285.267C489.327 285.198 489.338 285.12 489.338 285.04C489.338 284.96 489.327 284.882 489.305 284.813L478.341 252.982C478.318 252.918 478.288 252.866 478.252 252.829C478.216 252.793 478.175 252.774 478.134 252.773H376.259C376.218 252.774 376.178 252.793 376.142 252.829C376.106 252.866 376.075 252.918 376.053 252.982L365.113 284.786C365.092 284.855 365.08 284.933 365.08 285.013C365.08 285.093 365.092 285.171 365.113 285.24C365.131 285.315 365.159 285.38 365.196 285.427C365.232 285.473 365.275 285.5 365.32 285.504ZM488.666 284.595H365.747L376.377 253.7H478.016L488.666 284.595Z" fill="#D1D3D4"/>
<path d="M452.174 269.985C452.174 269.985 458.718 268.531 459.578 262.47C460.439 256.409 455.723 199.063 455.723 199.063C455.723 199.063 459.878 176.256 458.226 178.755C456.574 181.254 448.452 198.8 449.042 200.263C449.654 201.631 450.311 202.93 451.008 204.152L450.084 252.075L452.174 269.985Z" fill="white"/>
<path d="M452.173 270.436H452.203C452.478 270.373 458.924 268.864 459.814 262.586C460.665 256.579 456.259 202.677 455.964 199.106C457.316 191.691 459.406 179.243 458.639 178.207C458.526 178.061 458.329 177.97 458.064 178.379C457.026 179.942 447.994 198.443 448.835 200.514C449.424 201.85 450.054 203.121 450.723 204.322L449.823 252.072C449.821 252.108 449.821 252.145 449.823 252.181L451.913 270.127C451.931 270.226 451.966 270.311 452.013 270.367C452.061 270.423 452.117 270.448 452.173 270.436ZM458.364 179.115C458.501 180.86 457.051 190.319 455.482 198.915C455.47 198.986 455.47 199.062 455.482 199.133C455.527 199.706 460.183 256.461 459.347 262.358C458.629 267.429 453.511 269.155 452.375 269.473L450.315 252L451.205 204.167C451.205 204.103 451.199 204.039 451.185 203.979C451.172 203.92 451.152 203.866 451.126 203.822C450.45 202.612 449.811 201.332 449.214 199.987C449.125 198.243 456.589 181.823 458.364 179.115Z" fill="#231F20"/>
<path d="M405.273 216.5C401.688 234.237 397.966 253.646 397.966 253.646C397.966 253.646 389.937 257.926 389.298 259.453C388.379 261.652 400.675 259.453 400.675 259.453C404.53 246.486 409.59 230.048 413.459 216.5H405.273Z" fill="white"/>
<path d="M392.14 260.881C394.839 260.881 398.63 260.272 400.695 259.899C400.735 259.894 400.773 259.871 400.806 259.831C400.84 259.791 400.868 259.737 400.887 259.672C402.165 255.374 403.576 250.694 405.031 245.869C408.011 235.992 411.094 225.779 413.685 216.71C413.705 216.642 413.716 216.566 413.716 216.488C413.716 216.41 413.705 216.333 413.685 216.265C413.662 216.199 413.631 216.144 413.594 216.106C413.557 216.067 413.516 216.047 413.473 216.047H405.277C405.227 216.047 405.179 216.075 405.138 216.127C405.097 216.179 405.065 216.252 405.046 216.338C401.708 232.875 398.207 251.076 397.784 253.275C396.186 254.129 389.745 257.655 389.111 259.172C389.057 259.285 389.023 259.425 389.013 259.574C389.003 259.724 389.019 259.875 389.057 260.008C389.244 260.653 390.488 260.881 392.14 260.881ZM400.498 259.063C395.581 259.926 390.335 260.372 389.524 259.672C390.232 258.545 395.041 255.701 398.01 254.12C398.048 254.101 398.083 254.064 398.111 254.013C398.14 253.962 398.161 253.899 398.172 253.829C398.212 253.638 401.894 234.447 405.42 216.992H413.06C410.509 225.879 407.509 235.829 404.604 245.46C403.173 250.176 401.781 254.802 400.523 259.027L400.498 259.063Z" fill="#231F20"/>
<path d="M451.067 270.947C451.067 270.947 457.651 271.665 459.077 265.985C460.503 260.306 461.378 202.324 461.378 202.324C461.378 202.324 467.666 181.243 465.803 183.16C463.939 185.078 454.253 199.671 454.691 201.334C455.152 202.853 455.661 204.322 456.215 205.732L450.728 252.573L451.067 270.947Z" fill="white"/>
<path d="M451.819 271.437C453.634 271.437 458.103 270.937 459.298 266.176C460.709 260.551 461.569 206.059 461.623 202.442C463.664 195.6 466.948 184.042 466.26 182.779C466.166 182.597 465.985 182.451 465.68 182.779C464.51 183.978 453.845 199.207 454.465 201.524C454.91 203.03 455.403 204.486 455.94 205.886L450.477 252.528C450.475 252.564 450.475 252.601 450.477 252.637L450.807 270.965C450.808 271.078 450.832 271.186 450.875 271.267C450.918 271.349 450.976 271.396 451.038 271.401C451.106 271.41 451.387 271.437 451.819 271.437ZM465.906 183.569C465.871 185.332 463.536 194.155 461.161 202.106C461.144 202.168 461.134 202.236 461.132 202.306C461.132 202.887 460.242 260.27 458.85 265.794C457.656 270.556 452.459 270.565 451.303 270.51L450.984 252.646L456.461 205.868C456.468 205.805 456.468 205.741 456.461 205.679C456.454 205.616 456.441 205.557 456.421 205.504C455.871 204.09 455.366 202.619 454.907 201.097C454.971 199.371 463.9 185.641 465.906 183.569Z" fill="#231F20"/>
<path d="M427.698 163.516C428.873 163.749 430.009 164.423 431.037 165.497C432.836 167.259 434.533 170.04 434.862 173.756C435.128 176.764 434.449 179.781 433.613 182.416C432.777 185.051 431.764 187.532 431.263 190.43C430.761 193.329 430.894 196.882 432.109 198.945C430.481 197.454 428.819 195.928 427.531 193.556C426.724 192.24 426.215 190.41 426.105 188.431C426.143 186.811 426.391 185.231 426.828 183.824C427.389 181.653 427.983 179.454 428.116 177.064C428.249 174.674 427.826 172.021 426.73 170.703C425.771 169.576 422.565 169.44 423.141 166.16C423.593 163.588 426.558 163.352 427.698 163.516Z" fill="white"/>
<path d="M432.123 199.371C432.163 199.371 432.203 199.353 432.238 199.318C432.273 199.283 432.303 199.233 432.325 199.171C432.358 199.081 432.373 198.972 432.367 198.864C432.361 198.755 432.334 198.655 432.29 198.58C431.056 196.481 431.101 192.938 431.514 190.539C431.929 188.454 432.484 186.473 433.166 184.641C433.397 183.969 433.623 183.297 433.839 182.615C434.946 179.126 435.354 176.254 435.118 173.656C434.719 169.112 432.472 166.386 431.184 165.069C430.125 163.961 428.953 163.271 427.743 163.042C426.577 162.87 423.44 163.042 422.934 165.996C422.869 166.306 422.841 166.638 422.851 166.971C422.861 167.303 422.91 167.627 422.993 167.922C423.376 169.24 424.468 169.794 425.402 170.285C425.825 170.454 426.234 170.72 426.621 171.075C427.733 172.393 428.003 175.082 427.895 176.991C427.696 179.206 427.294 181.342 426.705 183.306L426.631 183.597C426.178 185.069 425.922 186.72 425.884 188.412C425.983 190.51 426.511 192.459 427.359 193.864C428.691 196.318 430.378 197.854 432.005 199.316C432.042 199.35 432.082 199.368 432.123 199.371ZM427.064 163.933C427.295 163.933 427.511 163.933 427.693 163.933C428.835 164.158 429.939 164.814 430.938 165.859C432.163 167.059 434.267 169.676 434.636 173.801C434.847 176.2 434.459 178.853 433.416 182.143C433.2 182.815 432.979 183.478 432.753 184.142C432.046 186.039 431.473 188.094 431.047 190.257C430.598 192.667 430.678 195.305 431.268 197.608C429.968 196.488 428.77 195.001 427.718 193.201C426.96 191.957 426.478 190.238 426.366 188.376C426.405 186.828 426.645 185.32 427.064 183.978L427.138 183.696C427.754 181.637 428.173 179.396 428.377 177.072C428.534 174.228 427.949 171.566 426.877 170.303C426.448 169.894 425.992 169.589 425.52 169.394C424.67 168.958 423.701 168.485 423.416 167.486C423.366 167.297 423.338 167.091 423.334 166.882C423.33 166.672 423.349 166.463 423.391 166.268C423.706 164.442 425.702 163.933 427.054 163.933H427.064Z" fill="#231F20"/>
<path d="M426.253 164.159C426.614 165.431 426.732 166.891 426.587 168.303C426.532 169.255 426.325 170.157 425.992 170.892C425.77 171.316 425.497 171.636 425.196 171.829C424.894 172.021 424.573 172.08 424.257 172.001C423.976 171.967 423.712 171.744 423.514 171.374C423.374 171.023 423.287 170.609 423.263 170.174C423.008 167.158 424.375 158.189 426.253 164.159Z" fill="#231F20"/>
<path d="M424.527 172.484C424.834 172.488 425.139 172.377 425.422 172.156C425.705 171.936 425.961 171.612 426.174 171.202C426.539 170.4 426.768 169.418 426.833 168.376C426.985 166.861 426.855 165.295 426.464 163.933C425.894 162.116 425.289 161.398 424.679 161.807C423.46 162.625 422.835 167.977 423.047 170.257C423.074 170.771 423.18 171.259 423.352 171.666C423.588 172.131 423.912 172.411 424.256 172.447C424.346 172.473 424.436 172.485 424.527 172.484ZM426.041 164.387C426.371 165.57 426.478 166.923 426.346 168.231C426.297 169.096 426.111 169.915 425.81 170.584C425.621 170.944 425.39 171.218 425.134 171.386C424.878 171.553 424.604 171.608 424.335 171.548C424.115 171.528 423.907 171.36 423.75 171.075C423.639 170.789 423.571 170.453 423.553 170.103C423.362 168.004 424.001 163.242 424.871 162.661C425.314 162.37 425.766 163.442 426.066 164.396L426.041 164.387Z" fill="#231F20"/>
<path d="M418.814 219.361C418.814 219.361 422.069 228.948 425.206 233.446C425.206 233.446 420.446 252.219 417.378 255.753C417.378 255.753 410.775 242.769 408.577 232.328L418.814 219.361Z" fill="white"/>
<path d="M417.402 256.2C417.449 256.2 417.494 256.178 417.535 256.136C420.627 252.565 425.259 234.401 425.451 233.628C425.474 233.535 425.48 233.43 425.468 233.329C425.455 233.229 425.425 233.139 425.382 233.074C422.289 228.685 419.054 219.208 419.02 219.117C419.002 219.064 418.98 219.018 418.953 218.983C418.926 218.947 418.895 218.921 418.862 218.908C418.796 218.886 418.727 218.912 418.671 218.981L408.463 231.947C408.418 232.004 408.384 232.089 408.368 232.186C408.352 232.284 408.354 232.389 408.375 232.483C410.563 242.888 417.156 255.927 417.225 256.063C417.248 256.107 417.275 256.142 417.306 256.165C417.336 256.189 417.369 256.2 417.402 256.2ZM424.925 233.565C424.286 236.018 420.195 251.547 417.441 255.155C416.483 253.228 410.941 241.824 408.901 232.483L418.735 219.998C419.388 221.843 422.147 229.485 424.925 233.565Z" fill="#231F20"/>
<path d="M415.318 182.915C415.775 183.978 416.468 184.605 417.678 184.469C418.669 184.295 419.622 183.67 420.451 182.652C422.066 180.725 423.359 178.003 424.182 174.792C425.006 171.581 425.328 168.009 425.112 164.478C424.62 157.318 420.933 149.94 416.754 152.384C416.048 152.803 415.4 153.503 414.855 154.434C414.311 155.365 413.883 156.504 413.602 157.772C413.326 157.578 413.025 157.536 412.736 157.652C412.447 157.768 412.182 158.037 411.975 158.427C410.863 160.317 410.863 162.416 411.385 164.787C412.245 168.74 413.322 172.52 414.084 176.536C414.517 178.853 414.654 181.352 415.318 182.915Z" fill="white"/>
<path d="M417.373 184.941H417.703C418.738 184.762 419.733 184.102 420.594 183.024C422.255 181.055 423.584 178.264 424.428 174.967C425.272 171.67 425.598 168.001 425.368 164.378C425.198 162.139 424.776 159.99 424.129 158.071C423.482 156.152 422.624 154.505 421.611 153.238C420.898 152.349 420.086 151.767 419.235 151.538C418.384 151.308 417.515 151.436 416.695 151.911C415.985 152.314 415.329 152.988 414.768 153.887C414.208 154.787 413.755 155.894 413.44 157.136C413.144 157.023 412.839 157.047 412.55 157.206C412.26 157.364 411.997 157.652 411.783 158.045C410.377 160.434 410.736 163.133 411.134 164.95C411.488 166.577 411.881 168.203 412.265 169.775C412.815 172.011 413.381 174.319 413.823 176.681C413.971 177.436 414.084 178.226 414.192 178.989C414.343 180.494 414.656 181.928 415.111 183.206C415.385 183.81 415.733 184.284 416.127 184.586C416.521 184.888 416.948 185.01 417.373 184.941ZM418.356 152.302C419.406 152.331 420.43 152.915 421.306 153.983C422.26 155.176 423.067 156.726 423.676 158.532C424.285 160.339 424.682 162.361 424.842 164.469C425.048 167.913 424.735 171.396 423.938 174.533C423.14 177.669 421.889 180.337 420.323 182.242C419.53 183.234 418.616 183.843 417.663 184.014C416.645 184.132 415.967 183.687 415.515 182.633C415.104 181.444 414.82 180.121 414.679 178.735C414.571 177.953 414.453 177.154 414.305 176.363C413.853 173.974 413.282 171.638 412.732 169.385C412.348 167.822 411.955 166.204 411.601 164.587C411.045 162.034 411.208 160.271 412.132 158.69C412.304 158.366 412.523 158.14 412.763 158.038C413.002 157.937 413.253 157.964 413.484 158.117C413.515 158.144 413.548 158.158 413.582 158.158C413.616 158.158 413.65 158.144 413.681 158.117C413.712 158.095 413.741 158.061 413.764 158.018C413.788 157.974 413.806 157.921 413.818 157.863C414.085 156.656 414.492 155.572 415.01 154.688C415.528 153.804 416.145 153.142 416.818 152.747C417.316 152.457 417.834 152.307 418.356 152.302Z" fill="#231F20"/>
<path d="M412.594 166.276C412.594 166.276 410.013 170.029 410.19 171.247C410.367 172.464 411.665 172.528 411.665 172.528" fill="white"/>
<path d="M411.665 173.02C411.729 173.02 411.791 172.974 411.837 172.89C411.883 172.807 411.909 172.694 411.911 172.575C411.912 172.516 411.907 172.457 411.896 172.401C411.885 172.345 411.867 172.295 411.845 172.251C411.823 172.208 411.797 172.174 411.768 172.15C411.738 172.126 411.707 172.113 411.675 172.111C411.311 172.111 410.524 171.83 410.426 171.203C410.372 170.685 411.453 168.586 412.747 166.659C412.798 166.586 412.831 166.478 412.84 166.358C412.848 166.239 412.83 166.119 412.791 166.023C412.75 165.928 412.691 165.866 412.625 165.85C412.56 165.835 412.494 165.868 412.442 165.942C411.63 167.132 409.752 170.031 409.949 171.394C410.146 172.757 411.508 173.002 411.66 173.011L411.665 173.02Z" fill="#231F20"/>
<path d="M419.767 186.651C421.424 188.468 421.901 192.412 421.941 195.737C422.019 202.062 421.962 208.386 421.769 214.71C421.685 217.436 421.975 226.023 421.975 226.023C421.975 226.023 412.092 234.683 408.602 241.225C408.602 241.225 406.32 222.879 404.958 219.935C402.529 214.701 401.615 204.406 403.818 199.799C407.697 191.685 413.622 185.151 413.622 185.151C415.441 185.578 411.797 184.824 413.622 185.151C415.446 185.478 417.909 184.788 419.64 186.523L419.767 186.651Z" fill="#7000FF"/>
<path d="M410.657 192.729C413.46 193.338 418.371 188.459 418.411 188.268C418.995 184.933 419.488 181.545 419.886 178.118C419.886 178.118 418.003 176.991 417.639 172.184C417.275 167.378 414.9 166.478 414.099 160.145C412.707 161.126 412.398 164.806 411.999 167.087C411.439 170.297 410.919 173.523 410.441 176.764C410.136 178.827 412.963 180.608 413.573 180.317C412.87 183.352 412.87 183.352 410.657 192.729Z" fill="white"/>
<path d="M411.134 193.227C413.961 193.227 418.509 188.966 418.641 188.421C419.229 185.069 419.721 181.663 420.116 178.216C420.129 178.107 420.12 177.993 420.09 177.895C420.06 177.798 420.012 177.725 419.954 177.689C419.885 177.689 418.214 176.572 417.874 172.119C417.688 169.666 417.009 168.185 416.286 166.603C415.328 164.774 414.649 162.507 414.32 160.034C414.313 159.971 414.298 159.912 414.277 159.861C414.256 159.811 414.228 159.77 414.197 159.743C414.165 159.716 414.131 159.702 414.096 159.702C414.061 159.702 414.027 159.716 413.995 159.743C412.722 160.652 412.289 163.469 411.945 165.731C411.876 166.176 411.812 166.64 411.748 166.976C411.188 170.156 410.662 173.418 410.18 176.671C410.137 177.03 410.149 177.402 410.215 177.749C410.28 178.095 410.395 178.402 410.549 178.634C411.296 179.804 412.209 180.554 413.179 180.797C412.604 183.25 412.451 183.904 410.406 192.609C410.389 192.673 410.38 192.743 410.38 192.814C410.38 192.885 410.389 192.955 410.406 193.018C410.425 193.079 410.451 193.13 410.483 193.168C410.514 193.206 410.55 193.23 410.588 193.236C410.77 193.255 410.952 193.252 411.134 193.227ZM418.204 187.984C417.712 188.539 413.636 192.528 411.021 192.319L413.803 180.506C413.823 180.427 413.83 180.34 413.823 180.254C413.816 180.169 413.795 180.089 413.764 180.024C413.734 179.96 413.694 179.912 413.65 179.886C413.606 179.861 413.558 179.858 413.513 179.879C412.561 179.776 411.652 179.107 410.922 177.971C410.832 177.849 410.762 177.683 410.72 177.492C410.677 177.302 410.664 177.093 410.681 176.89C411.173 173.655 411.665 170.402 412.24 167.23C412.309 166.849 412.373 166.413 412.441 165.958C412.732 164.068 413.086 161.742 413.941 160.797C414.314 163.176 414.988 165.356 415.908 167.158C416.611 168.693 417.216 170.02 417.383 172.21C417.697 176.326 419.059 177.898 419.59 178.352C419.428 179.834 418.769 185.131 418.204 187.984Z" fill="#231F20"/>
<path d="M410.913 174.411C410.913 174.411 411.98 176.755 413.155 174.629L410.913 174.411Z" fill="white"/>
<path d="M412.117 175.972C412.345 175.96 412.569 175.863 412.777 175.689C412.985 175.514 413.171 175.264 413.326 174.955C413.349 174.912 413.368 174.862 413.38 174.807C413.393 174.751 413.399 174.692 413.399 174.632C413.399 174.572 413.393 174.513 413.38 174.457C413.368 174.402 413.349 174.352 413.326 174.309C413.304 174.267 413.277 174.234 413.247 174.211C413.218 174.188 413.186 174.176 413.154 174.176C413.122 174.176 413.09 174.188 413.061 174.211C413.031 174.234 413.004 174.267 412.982 174.309C412.867 174.545 412.727 174.733 412.57 174.863C412.414 174.993 412.244 175.061 412.072 175.064C411.696 174.99 411.347 174.667 411.089 174.155C411.07 174.102 411.045 174.057 411.016 174.022C410.986 173.988 410.953 173.966 410.919 173.957C410.885 173.948 410.85 173.952 410.817 173.97C410.783 173.987 410.752 174.018 410.726 174.059C410.7 174.1 410.678 174.151 410.663 174.209C410.648 174.267 410.64 174.329 410.639 174.393C410.638 174.457 410.644 174.521 410.657 174.58C410.67 174.639 410.69 174.693 410.715 174.737C411.052 175.452 411.523 175.906 412.033 176.009L412.117 175.972Z" fill="#231F20"/>
<path d="M413.577 180.29C413.577 180.29 415.053 181.053 416.075 179.608C416.075 179.608 415.092 184.452 412.594 184.479L413.577 180.29Z" fill="#231F20"/>
<path d="M412.594 184.961C415.239 184.961 416.291 179.845 416.301 179.799C416.32 179.707 416.323 179.605 416.307 179.51C416.292 179.415 416.261 179.331 416.218 179.272C416.175 179.215 416.123 179.184 416.07 179.184C416.017 179.184 415.966 179.215 415.923 179.272C415.013 180.563 413.651 179.881 413.641 179.881C413.584 179.85 413.522 179.858 413.468 179.905C413.413 179.952 413.37 180.034 413.346 180.135L412.363 184.324C412.347 184.394 412.341 184.469 412.346 184.544C412.35 184.618 412.364 184.69 412.388 184.752C412.41 184.815 412.44 184.868 412.476 184.905C412.512 184.941 412.553 184.96 412.594 184.961ZM415.52 180.69C415.259 181.559 414.895 182.307 414.456 182.88C414.016 183.453 413.513 183.835 412.982 183.997L413.725 180.844C414.321 181.061 414.937 181.008 415.52 180.69Z" fill="#231F20"/>
<path d="M413.299 166.253C413.162 166.188 413.124 165.615 413.212 164.974C413.301 164.332 413.484 163.864 413.621 163.929C413.758 163.993 413.797 164.566 413.708 165.208C413.619 165.85 413.436 166.318 413.299 166.253Z" fill="#231F20"/>
<path d="M415.829 170.075C416.02 169.304 416.323 168.646 416.705 168.176C416.97 167.74 417.27 167.381 417.595 167.113C417.754 166.971 417.929 166.897 418.106 166.897C418.283 166.897 418.458 166.971 418.617 167.113C418.748 167.271 418.859 167.478 418.944 167.721C419.029 167.963 419.085 168.236 419.109 168.521C419.157 169.096 419.134 169.683 419.04 170.239C418.85 171.455 418.492 172.558 418 173.439C417.508 174.321 416.901 174.949 416.237 175.264L416.365 175.136" fill="white"/>
<path d="M416.248 175.745H416.302C417.009 175.414 417.657 174.745 418.181 173.806C418.704 172.867 419.086 171.69 419.286 170.393C419.384 169.771 419.403 169.114 419.34 168.476C419.31 168.124 419.239 167.788 419.132 167.492C419.025 167.196 418.885 166.945 418.721 166.759C418.531 166.573 418.321 166.47 418.106 166.456C417.892 166.442 417.678 166.517 417.482 166.677C417.136 166.964 416.816 167.347 416.533 167.813C416.104 168.327 415.764 169.055 415.549 169.912C415.528 170.032 415.533 170.164 415.564 170.277C415.595 170.39 415.649 170.476 415.714 170.516C415.779 170.556 415.85 170.546 415.912 170.489C415.973 170.432 416.02 170.332 416.041 170.212C416.231 169.517 416.522 168.935 416.882 168.53C417.127 168.123 417.404 167.786 417.703 167.531C417.83 167.42 417.968 167.363 418.109 167.363C418.249 167.363 418.387 167.42 418.514 167.531C418.617 167.653 418.704 167.815 418.77 168.004C418.836 168.194 418.88 168.407 418.898 168.63C418.937 169.139 418.915 169.657 418.834 170.148C418.664 171.202 418.36 172.165 417.947 172.956C417.533 173.746 417.023 174.342 416.459 174.691C416.43 174.669 416.399 174.658 416.368 174.658C416.337 174.658 416.306 174.669 416.277 174.691L416.149 174.828C416.099 174.872 416.059 174.948 416.036 175.041C416.013 175.134 416.007 175.24 416.021 175.339C416.035 175.439 416.067 175.526 416.112 175.587C416.157 175.648 416.212 175.678 416.267 175.673L416.248 175.745Z" fill="#231F20"/>
<path d="M417.402 255.708L425.24 233.436C425.24 233.436 430.156 229.293 433.411 231.719C435.609 233.345 436.922 244.695 436.922 244.695C443.471 250.974 450.748 252.609 450.748 252.609L451.077 270.946C451.077 270.946 434.232 277.952 417.402 255.708Z" fill="#231F20"/>
<path d="M444.567 272.41C446.765 272.466 448.96 272.125 451.121 271.392C451.177 271.369 451.226 271.311 451.261 271.228C451.296 271.145 451.314 271.043 451.313 270.938L450.983 252.592C450.982 252.483 450.959 252.38 450.919 252.3C450.879 252.22 450.825 252.169 450.767 252.156C450.693 252.156 443.535 250.475 437.128 244.396C436.931 242.769 435.653 232.883 433.495 231.302C430.156 228.83 425.333 232.846 425.136 233.019C425.094 233.055 425.059 233.112 425.033 233.183L417.206 255.499C417.171 255.598 417.158 255.717 417.17 255.832C417.182 255.947 417.218 256.05 417.269 256.117C425.226 266.678 434.771 272.374 444.567 272.41ZM450.811 270.592C448.879 271.274 433.244 275.899 417.737 255.645L425.397 233.837C425.977 233.373 430.363 230.011 433.313 232.192C435.358 233.701 436.661 244.732 436.671 244.841C436.69 244.971 436.736 245.082 436.799 245.15C442.699 250.793 449.253 252.719 450.497 253.046L450.811 270.592Z" fill="#231F20"/>
<path d="M419.743 201.905C419.609 200.574 419.267 199.345 418.759 198.371C418.002 197.396 417.089 196.922 416.168 197.026C414.487 197.026 412.318 198.271 411.409 201.106C409.068 208.375 397.986 266.194 397.986 266.194C397.986 266.194 389.957 270.473 389.318 271.991C388.398 274.199 400.695 271.991 400.695 271.991C404.82 258.125 410.327 240.278 414.285 226.239L415.219 222.896C415.485 223.47 415.823 223.916 416.203 224.195C416.679 224.463 417.187 224.468 417.665 224.21C418.142 223.951 418.569 223.441 418.892 222.741C421.463 217.625 420.795 210.674 420.082 204.413C419.959 203.668 419.87 202.787 419.743 201.905Z" fill="white"/>
<path d="M392.141 273.427C394.84 273.427 398.631 272.819 400.696 272.446C400.735 272.441 400.774 272.418 400.807 272.378C400.841 272.338 400.868 272.283 400.887 272.219C402.171 267.921 403.577 263.241 405.037 258.407C408.336 247.458 411.748 236.145 414.482 226.449L415.264 223.66C415.498 224.073 415.773 224.397 416.075 224.614C416.596 224.912 417.152 224.922 417.676 224.645C418.2 224.367 418.669 223.813 419.025 223.051C421.784 217.553 420.913 209.911 420.274 204.323L420.215 203.769C420.146 203.142 420.068 202.47 419.974 201.797C419.829 200.362 419.45 199.043 418.888 198.017C418.093 196.984 417.134 196.475 416.164 196.572H416.139C414.344 196.572 412.112 197.917 411.168 200.87C408.892 207.976 398.626 261.351 397.77 265.822C396.172 266.676 389.731 270.202 389.097 271.719C389.043 271.831 389.009 271.972 388.999 272.121C388.989 272.271 389.005 272.422 389.043 272.555C389.245 273.2 390.489 273.427 392.141 273.427ZM400.499 271.565C395.582 272.473 390.336 272.873 389.525 272.173C390.233 271.047 395.041 268.212 398.011 266.63C398.049 266.61 398.083 266.572 398.111 266.522C398.14 266.471 398.161 266.409 398.173 266.34C398.286 265.767 409.275 208.512 411.576 201.334C412.422 198.689 414.472 197.49 416.124 197.481C416.714 197.481 417.86 197.635 418.553 198.717C419.036 199.621 419.36 200.774 419.482 202.024C419.576 202.688 419.65 203.342 419.718 203.951L419.777 204.505C420.544 211.238 421.036 217.681 418.652 222.433C418.465 222.912 418.222 223.304 417.94 223.58C417.658 223.856 417.345 224.008 417.026 224.024C416.707 224.04 416.391 223.919 416.101 223.672C415.812 223.424 415.557 223.056 415.357 222.596C415.33 222.542 415.296 222.501 415.259 222.475C415.221 222.45 415.181 222.442 415.141 222.451C415.102 222.461 415.065 222.488 415.033 222.529C415 222.57 414.973 222.624 414.954 222.687L414.02 226.031C411.291 235.709 407.879 247.021 404.58 257.962C403.174 262.714 401.782 267.33 400.524 271.565H400.499Z" fill="#231F20"/>
<path d="M415.2 223.352C415.246 223.352 415.291 223.328 415.33 223.283C415.369 223.238 415.4 223.174 415.421 223.098L418.356 211.912C418.383 211.803 418.386 211.68 418.364 211.567C418.342 211.455 418.296 211.363 418.238 211.312C418.209 211.286 418.177 211.27 418.145 211.267C418.113 211.263 418.08 211.271 418.05 211.29C418.019 211.31 417.991 211.34 417.967 211.38C417.943 211.419 417.923 211.467 417.909 211.521L414.998 222.707C414.984 222.76 414.975 222.818 414.973 222.877C414.972 222.936 414.976 222.995 414.986 223.051C414.997 223.106 415.013 223.158 415.035 223.202C415.056 223.246 415.082 223.281 415.111 223.307C415.138 223.333 415.169 223.349 415.2 223.352Z" fill="#231F20"/>
<path d="M375.497 206.894C375.458 205.861 375.577 204.828 375.841 203.914C376.101 203.312 376.342 202.684 376.564 202.033C376.869 200.824 376.652 199.398 376.726 198.071C376.788 196.957 377.054 195.916 377.478 195.118C377.852 194.418 378.339 193.937 378.698 193.21C379.283 192.01 379.455 190.32 379.789 188.821C380.265 186.704 381.086 184.916 382.139 183.705C381.495 186.095 382.961 189.157 382.297 191.492C382.085 192.237 381.687 192.783 381.535 193.582C381.161 195.5 382.4 197.58 382.002 199.48C381.805 200.388 381.254 200.979 381.018 201.878C380.674 203.096 380.945 204.604 380.915 205.94C380.803 207.841 380.302 209.59 379.514 210.829C379.052 211.647 378.531 212.355 378.039 213.091C377.439 214 377.188 214.909 376.667 213.482C375.941 211.541 375.534 209.253 375.497 206.894Z" fill="#D1D3D4"/>
<path d="M374.833 207.976C375.091 206.536 375.091 204.981 374.833 203.541C374.469 201.978 373.56 200.87 373.452 199.18C373.383 198.08 373.688 196.953 373.565 195.863C373.442 194.773 372.965 194.046 372.581 193.219C371.662 191.355 371.116 188.966 371.033 186.449C370.416 187.813 369.918 189.345 369.558 190.993C369.381 191.811 369.308 192.694 369.345 193.573C369.381 194.452 369.527 195.304 369.769 196.063C369.923 196.402 370.049 196.782 370.143 197.19C370.325 198.271 369.823 199.28 369.568 200.297C369.419 200.878 369.357 201.521 369.389 202.161C369.421 202.8 369.546 203.412 369.749 203.932C370.271 205.141 371.283 205.604 371.539 207.076C371.603 207.625 371.633 208.186 371.628 208.748C371.683 209.719 371.894 210.638 372.234 211.386C372.574 212.134 373.027 212.678 373.535 212.946C374.155 213.219 374.14 212.773 374.253 211.81C374.396 210.511 374.666 209.266 374.833 207.976Z" fill="#D1D3D4"/>
<path d="M376.805 197.444C377.243 194.637 377.42 191.693 377.882 188.894C378.28 186.713 378.761 184.587 379.323 182.533L377.435 184.005C376.8 184.347 376.252 185.099 375.891 186.122C375.399 188.031 376.284 190.466 375.763 192.347C375.537 192.958 375.287 193.538 375.016 194.082C374.46 195.527 374.524 197.508 374.853 199.189C374.981 199.907 375.557 203.642 376.068 202.597C376.269 202.188 376.289 200.643 376.373 200.07C376.505 199.18 376.668 198.326 376.805 197.444Z" fill="#D1D3D4"/>
<path d="M375.772 234.808C376.151 230.211 377.326 214.009 377.341 213.845L377.016 213.764C377.016 213.927 375.826 230.12 375.448 234.718L375.772 234.808Z" fill="#D1D3D4"/>
<path d="M375.33 239.143H375.654C375.654 233.691 374.405 212.792 373.688 211.393L373.447 211.801C373.924 212.756 375.3 231.674 375.33 239.143Z" fill="#D1D3D4"/>
<path d="M374.691 238.106H375.015C374.735 226.339 376.087 201.623 376.097 201.378L375.772 201.314C375.757 201.542 374.405 226.294 374.691 238.106Z" fill="#D1D3D4"/>
<path d="M379.022 223.734H371.996L372.488 236.874C372.528 237.971 372.792 238.998 373.226 239.749C373.661 240.5 374.234 240.917 374.828 240.917H376.171C376.766 240.918 377.339 240.5 377.775 239.75C378.21 238.999 378.475 237.971 378.516 236.874L379.022 223.734Z" fill="white"/>
<path d="M374.814 241.369H376.171C376.827 241.365 377.459 240.904 377.939 240.077C378.42 239.25 378.713 238.118 378.762 236.907L379.253 223.759C379.256 223.696 379.251 223.632 379.239 223.573C379.227 223.513 379.208 223.459 379.185 223.414C379.162 223.369 379.134 223.334 379.104 223.311C379.073 223.287 379.041 223.276 379.008 223.277H371.982C371.948 223.276 371.914 223.288 371.883 223.311C371.852 223.335 371.823 223.37 371.8 223.414C371.755 223.509 371.732 223.633 371.736 223.759L372.227 236.907C372.275 238.117 372.567 239.249 373.047 240.076C373.526 240.903 374.158 241.365 374.814 241.369ZM378.747 224.186L378.255 236.844C378.218 237.827 377.981 238.749 377.592 239.423C377.202 240.097 376.689 240.474 376.156 240.479H374.799C374.265 240.476 373.753 240.099 373.364 239.425C372.975 238.75 372.739 237.827 372.704 236.844L372.213 224.186H378.747Z" fill="#D1D3D4"/>
</svg>
