<svg width="358" height="259" viewBox="0 0 335 259" fill="none" xmlns="http://www.w3.org/2000/svg">
<g clip-path="url(#clip0_89_97)">
<ellipse cx="173.956" cy="136.316" rx="126.611" ry="122.684" fill="#DDF0F4"/>
<ellipse cx="173.956" cy="136.316" rx="126.611" ry="122.684" fill="white"/>
<path d="M170.155 175.204H162.416V218.829H170.155V175.204Z" fill="#231F20"/>
<path d="M170.155 219.259H162.416C162.305 219.259 162.199 219.213 162.12 219.133C162.042 219.052 161.998 218.943 161.998 218.829V175.204C161.998 175.09 162.042 174.981 162.12 174.9C162.199 174.82 162.305 174.774 162.416 174.774H170.155C170.266 174.774 170.372 174.82 170.451 174.9C170.529 174.981 170.574 175.09 170.574 175.204V218.846C170.569 218.957 170.523 219.062 170.445 219.139C170.367 219.216 170.263 219.259 170.155 219.259ZM162.835 218.4H169.736V175.634H162.835V218.4Z" fill="#231F20"/>
<path d="M186.369 218.829H146.604V222.987H186.369V218.829Z" fill="white"/>
<path d="M186.369 223.417H146.604C146.493 223.417 146.387 223.372 146.308 223.291C146.23 223.211 146.186 223.101 146.186 222.987V218.847C146.186 218.733 146.23 218.623 146.308 218.543C146.387 218.462 146.493 218.417 146.604 218.417H186.369C186.48 218.417 186.586 218.462 186.665 218.543C186.743 218.623 186.788 218.733 186.788 218.847V223.005C186.783 223.116 186.737 223.22 186.659 223.297C186.581 223.374 186.477 223.417 186.369 223.417ZM147.006 222.558H185.925V219.259H147.023L147.006 222.558Z" fill="#231F20"/>
<path d="M184.3 166.647H148.271C145.098 166.647 142.525 169.286 142.525 172.541C142.525 175.796 145.098 178.434 148.271 178.434H184.3C187.473 178.434 190.045 175.796 190.045 172.541C190.045 169.286 187.473 166.647 184.3 166.647Z" fill="white"/>
<path d="M184.3 178.864H148.237C146.602 178.864 145.035 178.198 143.879 177.012C142.723 175.826 142.073 174.218 142.073 172.541C142.073 170.864 142.723 169.256 143.879 168.07C145.035 166.884 146.602 166.218 148.237 166.218H184.25C185.885 166.218 187.452 166.884 188.608 168.07C189.764 169.256 190.414 170.864 190.414 172.541C190.414 174.218 189.764 175.826 188.608 177.012C187.452 178.198 185.885 178.864 184.25 178.864H184.3ZM148.287 167.077C146.875 167.077 145.52 167.653 144.521 168.677C143.522 169.702 142.961 171.092 142.961 172.541C142.961 173.99 143.522 175.38 144.521 176.404C145.52 177.429 146.875 178.005 148.287 178.005H184.3C185.713 178.005 187.067 177.429 188.066 176.404C189.065 175.38 189.626 173.99 189.626 172.541C189.626 171.092 189.065 169.702 188.066 168.677C187.067 167.653 185.713 167.077 184.3 167.077H148.287Z" fill="#231F20"/>
<path d="M250.077 189.869C248.243 202.884 246.275 215.908 246.275 215.908H229.307L227.105 189.869L226.267 180.195L207.398 175.951L215.346 150.324C215.346 150.324 252.741 160.221 253.118 164.07C253.319 165.96 251.752 177.919 250.077 189.869Z" fill="white"/>
<path d="M246.275 216.338H229.307C229.202 216.336 229.102 216.295 229.024 216.222C228.947 216.15 228.899 216.05 228.889 215.943L225.89 180.548L207.323 176.373C207.267 176.359 207.214 176.333 207.167 176.298C207.121 176.262 207.082 176.217 207.053 176.166C207.024 176.115 207.005 176.058 206.999 175.999C206.992 175.94 206.997 175.88 207.013 175.823L214.961 150.196C214.994 150.09 215.065 150 215.16 149.946C215.255 149.892 215.366 149.877 215.472 149.904C221.761 151.57 253.159 160.084 253.553 164.062C253.712 165.651 252.715 174.113 250.496 189.929C248.679 202.816 246.711 215.84 246.685 215.969C246.673 216.071 246.624 216.165 246.549 216.234C246.473 216.302 246.376 216.339 246.275 216.338ZM229.693 215.479H245.915C246.25 213.28 248.017 201.467 249.667 189.809C252.372 170.471 252.824 165.179 252.715 164.148C252.464 161.57 230.011 154.698 215.639 150.84L207.951 175.634L226.376 179.775C226.462 179.795 226.539 179.843 226.598 179.911C226.656 179.978 226.693 180.063 226.703 180.153L229.693 215.479Z" fill="#231F20"/>
<path d="M130.65 169.071L106.438 171.442L104.83 187.919L102.577 211.622H87.4433C87.4433 211.622 85.6175 200.806 83.8588 187.919C81.7483 172.455 79.7299 154.088 81.1034 148.246C83.6159 137.61 119.98 140.608 119.98 140.608L130.65 169.071Z" fill="white"/>
<path d="M102.577 212.068H87.4432C87.3443 212.067 87.2488 212.031 87.1737 211.965C87.0986 211.899 87.0487 211.807 87.0329 211.707C87.0329 211.604 85.182 200.702 83.4484 187.996C81.4132 173.125 79.2609 154.139 80.693 148.159C83.2474 137.292 118.514 140.067 120.055 140.196C120.135 140.202 120.211 140.231 120.274 140.279C120.338 140.328 120.387 140.394 120.416 140.47L131.052 168.915C131.079 168.974 131.093 169.039 131.093 169.104C131.093 169.17 131.079 169.234 131.052 169.293C131.016 169.348 130.969 169.395 130.914 169.431C130.859 169.466 130.798 169.49 130.734 169.499L106.865 171.836L103.012 211.681C103 211.79 102.948 211.89 102.868 211.961C102.787 212.033 102.683 212.071 102.577 212.068ZM87.795 211.209H102.175L105.96 171.398C105.97 171.299 106.012 171.206 106.081 171.135C106.15 171.065 106.24 171.021 106.337 171.012L130.005 168.692L119.662 141.029C113.607 140.61 107.532 140.561 101.471 140.883C89.3695 141.63 82.4601 144.216 81.4886 148.366C80.3999 152.988 81.3546 166.656 84.2524 187.884C85.8352 199.285 87.4684 209.224 87.795 211.209Z" fill="#231F20"/>
<path d="M142.484 137.713L114.586 140.625L119.503 174.766L167.6 169.319L215.363 180.187L226.376 151.493L191.93 140.625L142.484 137.713Z" fill="#231F20"/>
<path d="M215.363 180.617H215.238L167.5 169.758L119.469 175.196C119.362 175.208 119.254 175.178 119.168 175.11C119.083 175.043 119.025 174.945 119.009 174.835L114.176 140.669C114.166 140.611 114.168 140.552 114.183 140.496C114.197 140.439 114.224 140.387 114.26 140.342C114.293 140.295 114.336 140.256 114.385 140.228C114.434 140.2 114.489 140.183 114.545 140.179L142.442 137.267H142.509L191.922 140.17H192.022L226.46 151.038C226.516 151.054 226.568 151.082 226.612 151.12C226.657 151.159 226.693 151.206 226.718 151.26C226.744 151.313 226.758 151.372 226.759 151.431C226.761 151.491 226.75 151.55 226.728 151.605L215.715 180.308C215.693 180.389 215.648 180.463 215.586 180.518C215.523 180.573 215.445 180.608 215.363 180.617ZM167.626 168.89H167.718L215.129 179.68L225.84 151.76L191.88 141.047L142.517 138.143L115.089 141.004L119.88 174.277L167.617 168.882L167.626 168.89Z" fill="#231F20"/>
<path d="M198.538 60.0328C199.928 57.653 200.606 54.3026 201.326 51.6651C201.821 49.8352 202.574 47.9624 202.625 46.0466C202.625 45.6858 201.896 41.5105 200.824 42.447C202.179 41.2528 203.051 39.5833 203.269 37.7649C201.843 37.4197 200.351 37.4821 198.956 37.9453C200.132 37.5019 201.255 36.9256 202.306 36.2271C203.144 35.6772 203.981 34.758 203.638 33.813C203.295 32.868 201.963 32.7391 200.883 32.7735C194.869 32.9711 189.074 30.2735 183.061 30.0501C181.167 29.8875 179.265 30.2433 177.55 31.081C176.609 31.6483 175.761 32.3644 175.037 33.203C173.806 34.5346 173.086 36.4247 171.863 37.6875C171.026 38.5466 169.811 38.8559 169.032 39.9384C167.533 42.0088 167.634 44.7665 167.667 47.215C167.709 51.373 168.63 55.5826 168.572 59.6547C173.153 60.5139 177.784 61.4245 182.424 61.897C186.084 62.2664 196.067 64.2767 198.538 60.0328Z" fill="white"/>
<path d="M191.084 63.1258C188.755 63.0792 186.43 62.8841 184.124 62.5417C183.438 62.4557 182.835 62.3698 182.332 62.3269C178.547 61.9403 174.744 61.2358 171.068 60.5571L168.455 60.076C168.356 60.058 168.267 60.0051 168.203 59.9266C168.139 59.8481 168.103 59.749 168.103 59.6465C168.088 57.4941 167.939 55.3449 167.659 53.2118C167.403 51.2169 167.25 49.2096 167.199 47.1981V46.8716C167.199 44.4748 167.14 41.717 168.656 39.6552C169.118 39.0673 169.687 38.5771 170.331 38.2119C170.751 37.9745 171.142 37.686 171.495 37.3528C172.091 36.6831 172.613 35.9485 173.053 35.1621C173.514 34.35 174.05 33.5848 174.652 32.8769C175.421 32.0114 176.321 31.2776 177.316 30.7034C179.103 29.8045 181.093 29.4157 183.078 29.5779C185.885 29.7738 188.669 30.234 191.394 30.9525C194.486 31.8108 197.671 32.264 200.874 32.3013C201.712 32.3013 203.538 32.2154 204.032 33.6329C204.367 34.5865 203.806 35.669 202.533 36.5452C202.24 36.7428 201.946 36.9318 201.637 37.1123C202.218 37.1297 202.796 37.2074 203.362 37.3442C203.462 37.3688 203.55 37.4307 203.609 37.5179C203.668 37.6051 203.693 37.7116 203.68 37.8167C203.482 39.4205 202.803 40.9215 201.737 42.1122C202.667 42.9713 203.044 45.8493 203.044 46.0297C202.941 47.5121 202.637 48.9725 202.139 50.3682C201.997 50.8321 201.854 51.296 201.729 51.7513C201.603 52.2067 201.461 52.7565 201.327 53.2805C200.824 55.6982 200.007 58.0358 198.898 60.2307C197.583 62.4901 194.417 63.1258 191.084 63.1258ZM168.949 59.2943L171.219 59.7152C174.878 60.3853 178.656 61.0898 182.416 61.4334C182.918 61.485 183.53 61.5623 184.225 61.6568C188.412 62.198 196.184 63.2118 198.178 59.7753C199.246 57.6524 200.034 55.3932 200.523 53.0572C200.657 52.5245 200.791 52.0091 200.925 51.5108C201.05 51.0469 201.193 50.5744 201.335 50.1019C201.796 48.7788 202.078 47.397 202.173 45.9954C202.173 45.3854 201.536 42.8768 201.101 42.705C201.015 42.7691 200.91 42.7984 200.805 42.7873C200.699 42.7762 200.602 42.7254 200.531 42.6449C200.493 42.6072 200.462 42.5618 200.441 42.5116C200.42 42.4614 200.409 42.4074 200.409 42.3528C200.409 42.2982 200.42 42.2441 200.441 42.1939C200.462 42.1437 200.493 42.0984 200.531 42.0607C201.702 41.022 202.492 39.603 202.767 38.0401C201.529 37.8084 200.255 37.894 199.057 38.2892C198.953 38.3249 198.839 38.3169 198.74 38.2671C198.641 38.2172 198.566 38.1295 198.529 38.0229C198.496 37.9168 198.504 37.8018 198.551 37.7013C198.597 37.6008 198.68 37.5222 198.781 37.4817C199.931 37.0425 201.028 36.4658 202.047 35.7635C202.767 35.2738 203.454 34.5178 203.219 33.8649C202.985 33.2119 201.838 33.0745 200.874 33.1003C197.604 33.0625 194.352 32.6036 191.193 31.7343C188.515 31.0255 185.778 30.5711 183.019 30.3769C181.58 30.1789 180.116 30.3553 178.76 30.8897C177.405 31.4241 176.203 32.2995 175.264 33.4353C174.697 34.0992 174.195 34.8185 173.765 35.5831C173.289 36.4234 172.727 37.2096 172.09 37.9284C171.687 38.309 171.243 38.6405 170.766 38.9164C170.2 39.2166 169.698 39.6316 169.292 40.1363C167.944 42.0005 167.977 44.4318 168.003 46.8287V47.1552C168.057 49.129 168.208 51.0988 168.455 53.0572C168.735 55.1249 168.9 57.2073 168.949 59.2943Z" fill="#231F20"/>
<path d="M173.747 57.8506C173.689 52.5843 165.557 50.0499 165.088 56.1753C164.851 58.285 165.343 60.4129 166.478 62.189C167.065 63.0583 167.889 63.7301 168.847 64.1199C169.806 64.5097 170.855 64.6001 171.863 64.3798" fill="white"/>
<path d="M170.749 64.982C169.844 64.9548 168.956 64.7126 168.157 64.2744C167.358 63.8361 166.668 63.2138 166.143 62.4562C164.944 60.5943 164.422 58.3589 164.669 56.1418C164.895 53.1264 166.855 52.1212 168.622 52.1728C170.076 52.2314 171.456 52.8472 172.488 53.8986C173.521 54.95 174.132 56.3605 174.2 57.8514C174.2 57.9639 174.157 58.0719 174.08 58.1522C174.004 58.2325 173.899 58.2787 173.79 58.281C173.734 58.2833 173.679 58.2741 173.627 58.254C173.576 58.2339 173.528 58.2033 173.488 58.1639C173.449 58.1246 173.417 58.0774 173.395 58.0252C173.374 57.973 173.362 57.9168 173.362 57.86C173.284 56.5952 172.753 55.4045 171.872 54.5154C170.992 53.6263 169.823 53.1012 168.589 53.0405C166.796 52.9889 165.666 54.1401 165.507 56.2191C165.271 58.2313 165.737 60.264 166.822 61.9579C167.351 62.7643 168.104 63.3893 168.983 63.7523C169.863 64.1152 170.828 64.1994 171.754 63.994C171.865 63.9632 171.984 63.979 172.084 64.0378C172.183 64.0966 172.256 64.1936 172.286 64.3076C172.316 64.4215 172.301 64.543 172.244 64.6453C172.186 64.7476 172.092 64.8223 171.981 64.8531C171.578 64.9517 171.164 64.995 170.749 64.982Z" fill="#231F20"/>
<path d="M191.854 59.956C193.06 54.8444 201.544 54.243 200.665 60.3169C200.439 62.4361 199.49 64.4051 197.985 65.8752C197.221 66.5847 196.268 67.0451 195.248 67.198C194.228 67.351 193.187 67.1896 192.256 66.7344" fill="white"/>
<path d="M194.358 67.7223C193.556 67.7289 192.765 67.5311 192.055 67.1467C192.007 67.1197 191.964 67.0831 191.93 67.0391C191.895 66.9951 191.869 66.9445 191.854 66.8902C191.838 66.836 191.833 66.7791 191.839 66.7229C191.845 66.6667 191.861 66.6122 191.888 66.5626C191.914 66.5129 191.95 66.4691 191.993 66.4336C192.036 66.3981 192.085 66.3716 192.138 66.3557C192.191 66.3397 192.246 66.3346 192.301 66.3406C192.356 66.3466 192.409 66.3637 192.457 66.3907C193.318 66.8009 194.278 66.9383 195.215 66.7852C196.152 66.6322 197.023 66.1957 197.717 65.5316C199.136 64.1262 200.025 62.252 200.229 60.2396C200.531 58.1691 199.685 56.8032 197.918 56.4337C196.705 56.2171 195.456 56.4649 194.41 57.13C193.363 57.7952 192.591 58.8314 192.24 60.042C192.214 60.1559 192.145 60.2548 192.049 60.3168C191.952 60.3788 191.836 60.3989 191.724 60.3727C191.613 60.3465 191.517 60.2761 191.457 60.1771C191.396 60.078 191.377 59.9583 191.402 59.8444C191.785 58.4045 192.681 57.1645 193.912 56.3692C195.143 55.5739 196.62 55.2811 198.052 55.5489C199.777 55.9011 201.469 57.3358 201.033 60.3255C200.79 62.543 199.794 64.602 198.219 66.1416C197.158 67.1245 195.788 67.6853 194.358 67.7223Z" fill="#231F20"/>
<path d="M195.33 86.6908C194.987 84.8523 191.67 83.8386 187.885 83.2544L188.153 79.2338L188.68 71.3301L173.681 69.0363L172.257 75.3765L171.805 77.4297L171.16 80.3163C157.76 74.3026 116.362 62.1463 101.84 68.3748C83.9678 76.0466 97.7447 136.553 99.7296 140.625C99.7296 140.625 109.713 139.38 110.843 142C111.974 144.62 111.748 145.96 113.456 146.544C113.667 146.628 113.894 146.66 114.12 146.638C114.345 146.616 114.562 146.541 114.754 146.419C114.947 146.296 115.109 146.13 115.228 145.933C115.347 145.735 115.42 145.513 115.441 145.282C115.553 145.537 115.722 145.762 115.934 145.938C116.147 146.113 116.397 146.235 116.665 146.292C116.932 146.349 117.209 146.34 117.472 146.266C117.736 146.192 117.978 146.055 118.18 145.866C118.18 145.866 119.696 147.421 120.692 145.574C120.692 145.574 122.015 147.223 122.769 145.668C123.523 144.113 124.101 136.648 121.354 134.998C118.607 133.349 112.56 131.124 111.614 129.569C111.614 129.569 121.262 108.151 117.099 92.3695C117.099 92.3695 124.478 100.101 146.412 105.892C146.412 105.892 152.651 117.541 153.405 117.73C154.159 117.919 184.652 120.84 184.652 120.84L192.943 105.892C192.943 105.892 196.159 91.1496 195.33 86.6908Z" fill="white"/>
<path d="M114.076 147.086C113.819 147.084 113.564 147.037 113.322 146.948C111.94 146.476 111.647 145.522 111.203 144.19C111.011 143.615 110.801 142.953 110.466 142.18C109.729 140.462 103.523 140.591 99.7798 141.055C99.694 141.066 99.6068 141.05 99.5303 141.008C99.4538 140.967 99.3918 140.902 99.3527 140.823C97.954 137.945 87.7365 95.866 94.7799 76.3902C96.3377 72.0947 98.6575 69.2683 101.681 67.971C109.78 64.5346 125.357 66.7769 136.998 69.3112C151.001 72.3524 164.217 76.7854 170.858 79.7063L173.279 68.959C173.305 68.8552 173.366 68.7646 173.453 68.7045C173.539 68.6443 173.644 68.6187 173.748 68.6325L188.739 70.9177C188.844 70.9327 188.94 70.988 189.007 71.0726C189.073 71.1571 189.107 71.2645 189.099 71.3731L188.329 82.9022C192.994 83.6324 195.414 84.8438 195.741 86.5963C196.578 91.098 193.53 105.376 193.396 105.978C193.4 106.018 193.4 106.058 193.396 106.098L185.088 121.046C185.046 121.116 184.986 121.172 184.915 121.21C184.845 121.248 184.765 121.266 184.686 121.261C181.562 120.969 154.142 118.34 153.38 118.151C152.768 117.988 150.348 113.993 146.202 106.261C128.724 101.605 120.55 95.8231 117.887 93.598C119.562 101.536 118.037 110.617 116.387 116.991C115.294 121.264 113.894 125.447 112.2 129.508C112.954 130.368 115.491 131.587 117.753 132.653C119.243 133.357 120.659 134.019 121.664 134.629C124.737 136.476 124.034 144.251 123.247 145.866C123.154 146.092 123.006 146.29 122.816 146.441C122.627 146.591 122.403 146.689 122.166 146.725C121.924 146.73 121.684 146.687 121.458 146.597C121.232 146.507 121.026 146.372 120.851 146.201C120.576 146.555 120.182 146.79 119.746 146.862C119.191 146.905 118.643 146.726 118.213 146.364C117.977 146.527 117.712 146.639 117.433 146.695C117.154 146.751 116.867 146.75 116.588 146.69C116.223 146.596 115.889 146.4 115.625 146.123C115.473 146.404 115.254 146.64 114.989 146.811C114.719 146.996 114.4 147.092 114.076 147.086ZM104.587 139.895C107.435 139.895 110.55 140.273 111.228 141.828C111.521 142.511 111.776 143.211 111.991 143.924C112.409 145.213 112.602 145.797 113.582 146.141C113.725 146.208 113.881 146.244 114.038 146.244C114.196 146.244 114.352 146.208 114.495 146.141C114.775 145.919 114.963 145.597 115.022 145.239C115.038 145.15 115.081 145.068 115.144 145.005C115.207 144.942 115.287 144.901 115.374 144.886C115.461 144.873 115.55 144.888 115.628 144.93C115.707 144.972 115.77 145.038 115.81 145.118C116.009 145.493 116.338 145.778 116.731 145.917C116.945 145.951 117.163 145.935 117.37 145.871C117.577 145.807 117.768 145.697 117.928 145.548C118.003 145.48 118.1 145.442 118.201 145.442C118.301 145.442 118.398 145.48 118.473 145.548C118.769 145.845 119.164 146.014 119.578 146.02C119.753 145.978 119.916 145.895 120.054 145.777C120.192 145.66 120.302 145.51 120.374 145.342C120.408 145.282 120.456 145.232 120.513 145.195C120.569 145.158 120.634 145.134 120.701 145.127C120.768 145.125 120.835 145.138 120.897 145.165C120.959 145.191 121.015 145.231 121.061 145.282C121.228 145.496 121.697 145.926 122.015 145.891C122.166 145.891 122.309 145.728 122.443 145.462C123.205 143.89 123.59 136.802 121.186 135.35C120.215 134.766 118.816 134.113 117.342 133.417C114.578 132.112 111.974 130.84 111.304 129.775C111.269 129.713 111.251 129.644 111.251 129.573C111.251 129.502 111.269 129.432 111.304 129.371C111.396 129.156 120.835 107.893 116.764 92.4296C116.739 92.3389 116.745 92.2422 116.78 92.1549C116.814 92.0677 116.877 91.995 116.957 91.9485C117.038 91.9027 117.131 91.8847 117.223 91.8971C117.315 91.9094 117.401 91.9515 117.468 92.0173C117.535 92.0946 125.047 99.7492 146.588 105.428C146.642 105.442 146.693 105.468 146.738 105.504C146.783 105.539 146.82 105.583 146.847 105.634C149.661 110.883 152.961 116.682 153.631 117.275C155.021 117.498 176.026 119.526 184.493 120.333L192.617 105.729C192.843 104.68 195.724 90.9348 194.945 86.7596C194.694 85.4194 192.181 84.3369 187.851 83.6926C187.747 83.6757 187.653 83.6199 187.586 83.5358C187.52 83.4517 187.486 83.3454 187.491 83.2372L188.262 71.7167L174.024 69.5432L171.579 80.4022C171.566 80.4644 171.539 80.5229 171.502 80.5734C171.464 80.6239 171.416 80.6652 171.361 80.6943C171.304 80.7196 171.243 80.7327 171.181 80.7327C171.119 80.7327 171.058 80.7196 171.001 80.6943C157.308 74.5174 116.161 62.6532 102.016 68.7528C99.2187 69.9555 97.0495 72.6187 95.5839 76.6823C88.9425 95.0327 98.3058 135.625 100.006 140.144C101.528 139.982 103.057 139.899 104.587 139.895Z" fill="#231F20"/>
<path d="M172.768 72.4298C173.753 74.4872 175.224 76.2592 177.047 77.5844C180.012 79.9126 184.543 82.739 188.546 82.739L189.116 74.2769C186.191 74.21 183.284 73.789 180.456 73.0226C177.93 72.5451 175.49 71.676 173.22 70.4453L172.768 72.4298Z" fill="#231F20"/>
<path d="M188.513 83.152C184.074 83.152 179.3 79.896 176.788 77.9974C174.898 76.6257 173.379 74.784 172.374 72.6452C172.349 72.5582 172.349 72.4658 172.374 72.3788L172.826 70.3342C172.839 70.2671 172.868 70.2043 172.91 70.1517C172.952 70.0991 173.007 70.0585 173.069 70.0335C173.129 70.0019 173.195 69.9854 173.262 69.9854C173.329 69.9854 173.395 70.0019 173.455 70.0335C175.686 71.2596 178.086 72.1287 180.573 72.6108C183.368 73.375 186.241 73.7933 189.133 73.8565C189.189 73.8562 189.246 73.8683 189.298 73.892C189.35 73.9157 189.396 73.9505 189.434 73.994C189.475 74.0367 189.507 74.0879 189.527 74.1442C189.547 74.2005 189.556 74.2606 189.551 74.3204L188.982 82.774C188.965 82.8864 188.907 82.988 188.82 83.0583C188.733 83.1285 188.623 83.162 188.513 83.152ZM173.203 72.3874C174.163 74.3351 175.572 76.0131 177.307 77.2757C179.627 79.097 184.057 82.1125 188.153 82.2843L188.664 74.6898C185.86 74.58 183.076 74.1536 180.364 73.4184C177.983 72.9428 175.673 72.1455 173.496 71.0472L173.203 72.3874Z" fill="#231F20"/>
<path d="M197.524 46.4332L194.819 65.0671C194.709 65.8669 194.518 66.6529 194.25 67.4125C193.335 69.9946 191.58 72.174 189.281 73.5826C186.981 74.9913 184.278 75.5429 181.628 75.1444L180.288 74.9382C177.805 74.5572 175.508 73.3625 173.74 71.5323C171.973 69.7022 170.829 67.3349 170.481 64.7836C170.327 63.6609 170.327 62.5214 170.481 61.3987L173.212 42.7305C173.212 42.7305 175.64 46.9057 183.814 47.7906C191.988 48.6754 197.524 46.4332 197.524 46.4332Z" fill="white"/>
<path d="M183.32 75.6947C182.731 75.6953 182.143 75.6493 181.561 75.5573L180.221 75.3511C177.065 74.8694 174.225 73.122 172.325 70.4928C170.425 67.8637 169.62 64.5681 170.088 61.3306L172.793 42.6623C172.807 42.5754 172.846 42.4951 172.906 42.4321C172.966 42.3691 173.043 42.3265 173.128 42.31C173.213 42.2905 173.301 42.2991 173.381 42.3346C173.461 42.3701 173.528 42.4307 173.572 42.5076C173.572 42.5076 176.025 46.5196 183.856 47.3616C188.402 47.9232 193.013 47.4719 197.373 46.0385C197.442 46.0113 197.517 46.0025 197.59 46.013C197.664 46.0235 197.733 46.053 197.792 46.0987C197.847 46.1484 197.89 46.2111 197.916 46.2815C197.942 46.3518 197.952 46.4277 197.943 46.5025L195.238 65.1621C195.119 65.9908 194.92 66.8053 194.643 67.5934C193.787 69.9675 192.243 72.0161 190.219 73.4642C188.195 74.9124 185.788 75.6907 183.32 75.6947ZM173.479 43.7705L170.917 61.4508C170.697 62.9443 170.767 64.4676 171.122 65.9333C171.478 67.399 172.112 68.7784 172.988 69.9923C173.864 71.2062 174.965 72.2309 176.228 73.0074C177.49 73.784 178.89 74.2973 180.347 74.5178L181.687 74.7239C183.141 74.9528 184.625 74.8842 186.053 74.5219C187.481 74.1597 188.826 73.511 190.008 72.6134C191.191 71.7157 192.188 70.5868 192.944 69.2917C193.699 67.9967 194.197 66.561 194.409 65.0676L197.013 47.0952C192.719 48.3859 188.216 48.7745 183.772 48.2378C177.633 47.5592 174.66 45.0849 173.479 43.7705Z" fill="#231F20"/>
<path d="M183.655 55.4629C183.655 55.4629 186.494 64.4835 184.802 64.4491C183.111 64.4147 180.866 62.8426 180.866 62.8426" fill="white"/>
<path d="M184.811 64.8788C183.01 64.8273 180.749 63.2723 180.624 63.1606C180.531 63.096 180.467 62.9969 180.445 62.8845C180.423 62.772 180.445 62.6553 180.506 62.5592C180.572 62.4676 180.669 62.4051 180.778 62.3843C180.887 62.3636 180.999 62.3862 181.093 62.4475C181.093 62.4475 183.245 63.9338 184.803 63.9768C185.247 63.5558 184.526 59.6211 183.245 55.549C183.223 55.494 183.212 55.4348 183.213 55.3753C183.214 55.3157 183.228 55.2571 183.252 55.2032C183.277 55.1492 183.312 55.101 183.356 55.0618C183.399 55.0225 183.45 54.9929 183.506 54.975C183.561 54.9571 183.62 54.9512 183.677 54.9576C183.735 54.9641 183.791 54.9827 183.841 55.0125C183.891 55.0422 183.935 55.0823 183.969 55.1303C184.004 55.1783 184.028 55.2331 184.041 55.2912C184.618 57.1125 186.419 63.1692 185.464 64.4922C185.393 64.6046 185.296 64.6981 185.183 64.7652C185.069 64.8323 184.942 64.8713 184.811 64.8788Z" fill="#231F20"/>
<path d="M185.59 69.9128C183.038 69.8115 180.555 69.0299 178.388 67.6448C178.291 67.5888 178.22 67.4959 178.19 67.3864C178.16 67.2769 178.174 67.1597 178.228 67.0606C178.286 66.9626 178.378 66.8911 178.486 66.8608C178.593 66.8304 178.708 66.8435 178.806 66.8973C184.124 70.0073 187.282 68.8475 187.315 68.8303C187.367 68.8096 187.422 68.7997 187.478 68.801C187.533 68.8024 187.588 68.815 187.638 68.8382C187.689 68.8613 187.735 68.8946 187.773 68.936C187.811 68.9775 187.84 69.0262 187.86 69.0795C187.88 69.1318 187.889 69.1878 187.888 69.2441C187.886 69.3003 187.874 69.3557 187.851 69.407C187.829 69.4583 187.796 69.5043 187.756 69.5425C187.716 69.5807 187.668 69.6102 187.617 69.6293C186.963 69.8449 186.277 69.9409 185.59 69.9128Z" fill="#231F20"/>
<path d="M179.669 53.6787C179.781 52.6651 179.518 51.8022 179.082 51.7514C178.645 51.7006 178.2 52.4812 178.088 53.4948C177.976 54.5084 178.239 55.3713 178.676 55.422C179.112 55.4728 179.557 54.6923 179.669 53.6787Z" fill="#231F20"/>
<path d="M190.26 54.9092C190.372 53.8956 190.109 53.0327 189.672 52.9819C189.235 52.9311 188.791 53.7116 188.678 54.7252C188.566 55.7388 188.83 56.6017 189.266 56.6525C189.703 56.7033 190.148 55.9228 190.26 54.9092Z" fill="#231F20"/>
<path d="M157.391 73.71C157.391 73.71 157.994 91.7511 153.271 97.361C148.547 102.971 141.311 105.093 141.311 105.093C141.311 105.093 140.407 124.534 142.484 137.739L194.652 140.668L200.213 116.794C200.213 116.794 195.472 98.8387 197.909 83.435H191.62C191.62 83.435 188.588 107.438 176.101 104.981C163.614 102.524 165.942 75.3766 165.942 75.3766L157.391 73.71Z" fill="#7000FF"/>
<path d="M87.4433 211.639C87.4433 211.639 68.9095 226.192 71.5308 227.747C74.1522 229.302 105.868 225.805 105.868 225.805L102.585 211.639H87.4433Z" fill="white"/>
<path d="M75.668 228.563C73.4654 228.563 71.8825 228.434 71.3465 228.116C71.2123 228.039 71.0991 227.929 71.0172 227.795C70.9352 227.661 70.8872 227.509 70.8775 227.351C70.6849 224.413 84.4282 213.468 87.192 211.303C87.262 211.242 87.3512 211.209 87.4432 211.209H102.577C102.671 211.209 102.763 211.242 102.836 211.303C102.909 211.364 102.96 211.449 102.979 211.544L106.262 225.719C106.278 225.779 106.28 225.842 106.269 225.903C106.257 225.964 106.232 226.022 106.195 226.071C106.161 226.121 106.118 226.163 106.067 226.194C106.017 226.225 105.96 226.245 105.902 226.252C103.297 226.518 84.4785 228.563 75.668 228.563ZM87.5856 212.068C81.3379 216.991 71.5894 225.393 71.6731 227.291C71.6731 227.343 71.6731 227.352 71.7234 227.369C73.5575 228.451 92.6609 226.819 105.299 225.427L102.2 212.068H87.5856Z" fill="#231F20"/>
<path d="M229.307 215.908L228.076 228.142H258.067C258.409 228.14 258.741 228.026 259.016 227.819C259.29 227.611 259.494 227.319 259.597 226.985C259.701 226.651 259.698 226.292 259.59 225.96C259.482 225.627 259.274 225.339 258.997 225.135L246.275 215.908H229.307Z" fill="white"/>
<path d="M258.067 228.571H228.076C228.018 228.571 227.961 228.559 227.907 228.535C227.854 228.512 227.806 228.477 227.766 228.434C227.727 228.388 227.697 228.335 227.678 228.278C227.659 228.22 227.652 228.159 227.657 228.099L228.888 215.865C228.901 215.76 228.95 215.662 229.027 215.591C229.104 215.52 229.204 215.48 229.307 215.479H246.275C246.362 215.479 246.446 215.506 246.518 215.556L259.239 224.791C259.592 225.046 259.857 225.409 259.995 225.828C260.133 226.247 260.136 226.701 260.006 227.123C259.875 227.544 259.616 227.912 259.268 228.173C258.919 228.433 258.498 228.573 258.067 228.571ZM228.537 227.712H258.067C258.323 227.718 258.573 227.638 258.779 227.482C258.986 227.327 259.136 227.105 259.206 226.853C259.287 226.605 259.286 226.336 259.205 226.088C259.123 225.84 258.965 225.626 258.754 225.478L246.141 216.338H229.684L228.537 227.712Z" fill="#231F20"/>
<path d="M277.908 115.093C277.893 114.259 278.121 113.44 278.561 112.739V111.828H289.541C290.721 111.828 291.676 113.289 291.676 115.093C291.676 116.897 290.721 118.357 289.541 118.357H278.561V117.472C278.114 116.765 277.886 115.935 277.908 115.093Z" fill="#231F20"/>
<path d="M289.54 118.787H278.561C278.45 118.785 278.345 118.739 278.267 118.658C278.189 118.578 278.144 118.47 278.142 118.357V117.575C277.714 116.822 277.488 115.965 277.488 115.093C277.488 114.22 277.714 113.363 278.142 112.61V111.828C278.144 111.715 278.189 111.607 278.267 111.527C278.345 111.447 278.45 111.401 278.561 111.398H289.54C290.973 111.398 292.053 113.022 292.053 115.093C292.053 117.163 290.973 118.787 289.54 118.787ZM278.98 117.928H289.54C290.47 117.928 291.215 116.63 291.215 115.093C291.215 113.555 290.428 112.258 289.54 112.258H278.98V112.739C278.981 112.828 278.955 112.915 278.904 112.988C278.526 113.621 278.326 114.35 278.326 115.093C278.326 115.835 278.526 116.564 278.904 117.197C278.953 117.271 278.979 117.358 278.98 117.447V117.928Z" fill="#231F20"/>
<path d="M278.561 118.357C279.736 118.357 280.688 116.896 280.688 115.093C280.688 113.29 279.736 111.828 278.561 111.828C277.386 111.828 276.434 113.29 276.434 115.093C276.434 116.896 277.386 118.357 278.561 118.357Z" fill="white"/>
<path d="M278.561 118.787C277.137 118.787 276.048 117.163 276.048 115.093C276.048 113.022 277.171 111.398 278.561 111.398C279.951 111.398 281.115 113.022 281.115 115.093C281.115 117.163 279.993 118.787 278.561 118.787ZM278.561 112.258C277.631 112.258 276.886 113.555 276.886 115.093C276.886 116.63 277.665 117.928 278.561 117.928C279.457 117.928 280.278 116.63 280.278 115.093C280.278 113.555 279.49 112.258 278.561 112.258Z" fill="#231F20"/>
<path d="M256.819 115.093C256.708 109.764 258.168 104.524 261.007 100.059V94.2773H270.428C277.966 94.2773 284.046 103.616 284.046 115.136C284.046 126.657 277.949 135.995 270.428 135.995H261.015V130.179C258.165 125.7 256.702 120.441 256.819 115.093Z" fill="white"/>
<path d="M270.437 136.373H261.015C260.904 136.373 260.798 136.328 260.719 136.247C260.64 136.167 260.596 136.058 260.596 135.944V130.256C257.853 125.696 256.4 120.443 256.4 115.085C256.4 109.726 257.853 104.473 260.596 99.9129V94.2772C260.596 94.1633 260.64 94.054 260.719 93.9735C260.798 93.8929 260.904 93.8477 261.015 93.8477H270.437C278.175 93.8477 284.473 103.401 284.473 115.136C284.473 126.872 278.175 136.373 270.437 136.373ZM261.434 135.514H270.437C277.715 135.514 283.636 126.347 283.636 115.085C283.636 103.822 277.715 94.6552 270.437 94.6552H261.434V100.05C261.434 100.137 261.408 100.221 261.358 100.291C258.56 104.682 257.124 109.84 257.238 115.085C257.124 120.33 258.56 125.487 261.358 129.878C261.408 129.951 261.434 130.038 261.434 130.127V135.514Z" fill="#231F20"/>
<path d="M261.015 135.952C268.536 135.952 274.633 126.613 274.633 115.093C274.633 103.573 268.536 94.2344 261.015 94.2344C253.494 94.2344 247.397 103.573 247.397 115.093C247.397 126.613 253.494 135.952 261.015 135.952Z" fill="#231F20"/>
<path d="M261.015 136.373C253.277 136.373 246.979 126.82 246.979 115.084C246.979 103.349 253.277 93.7959 261.015 93.7959C268.754 93.7959 275.052 103.349 275.052 115.084C275.052 126.82 268.754 136.373 261.015 136.373ZM261.015 94.655C253.737 94.655 247.816 103.822 247.816 115.084C247.816 126.347 253.762 135.514 261.015 135.514C268.268 135.514 274.214 126.347 274.214 115.084C274.214 103.822 268.293 94.6636 261.015 94.6636V94.655Z" fill="#231F20"/>
<path d="M197.909 83.3917C197.909 83.3917 215.865 80.8917 219.559 89.2421C222.071 94.9809 227.934 127.214 227.934 127.214L238.821 118.357L254.215 120.763C254.215 120.763 233.746 158.907 219.601 153.099C205.455 147.292 198.847 110.204 198.847 110.204C197.518 105.828 196.675 101.312 196.335 96.7421C196.193 92.2356 196.724 87.7334 197.909 83.3917Z" fill="white"/>
<path d="M222.683 154.139C221.558 154.143 220.444 153.925 219.4 153.495C213.42 151.047 208.06 143.005 203.487 129.621C201.359 123.302 199.657 116.841 198.395 110.282C197.073 105.887 196.231 101.355 195.883 96.7687C195.769 92.2058 196.334 87.6519 197.558 83.2636C197.579 83.184 197.623 83.1127 197.685 83.0591C197.746 83.0055 197.821 82.972 197.901 82.9629C198.647 82.8598 216.209 80.5231 219.986 89.0625C222.34 94.3804 227.373 121.571 228.261 126.433L238.57 118.023C238.615 117.985 238.668 117.956 238.724 117.94C238.78 117.924 238.839 117.92 238.897 117.928L254.282 120.334C254.348 120.346 254.411 120.374 254.465 120.416C254.519 120.458 254.562 120.512 254.592 120.574C254.625 120.635 254.642 120.703 254.642 120.772C254.642 120.841 254.625 120.909 254.592 120.97C251.037 127.408 247.014 133.562 242.557 139.38C234.827 149.191 228.177 154.139 222.683 154.139ZM198.236 83.779C197.1 87.9891 196.586 92.3505 196.712 96.7171C197.063 101.249 197.906 105.727 199.225 110.068C199.308 110.497 205.966 147.052 219.735 152.705C220.671 153.083 221.668 153.276 222.675 153.272C235.153 153.272 251.15 125.351 253.536 121.09L238.922 118.813L228.21 127.559C228.154 127.602 228.087 127.631 228.017 127.641C227.947 127.652 227.875 127.644 227.808 127.619C227.739 127.595 227.677 127.552 227.63 127.494C227.583 127.437 227.552 127.367 227.54 127.293C227.482 126.975 221.678 95.0505 219.165 89.4233C215.899 82.0093 200.472 83.5213 198.236 83.779Z" fill="#231F20"/>
<path d="M223.822 115.093C223.808 114.259 224.035 113.44 224.475 112.739V111.828H262.305C263.486 111.828 264.432 113.289 264.432 115.093C264.432 116.897 263.486 118.357 262.305 118.357H224.45V117.472C224.011 116.762 223.793 115.933 223.822 115.093Z" fill="white"/>
<path d="M262.305 118.787H224.45C224.339 118.787 224.232 118.741 224.154 118.661C224.075 118.58 224.031 118.471 224.031 118.357V117.575C223.603 116.822 223.377 115.965 223.377 115.093C223.377 114.22 223.603 113.363 224.031 112.61V111.828C224.031 111.714 224.075 111.605 224.154 111.524C224.232 111.444 224.339 111.398 224.45 111.398H262.305C263.737 111.398 264.817 113.022 264.817 115.093C264.817 117.163 263.737 118.787 262.305 118.787ZM224.894 117.928H262.305C263.235 117.928 263.98 116.63 263.98 115.093C263.98 113.555 263.201 112.258 262.305 112.258H224.894V112.739C224.896 112.828 224.869 112.915 224.818 112.988C224.44 113.621 224.24 114.35 224.24 115.093C224.24 115.835 224.44 116.564 224.818 117.197C224.867 117.271 224.893 117.358 224.894 117.447V117.928Z" fill="#231F20"/>
<path d="M241.108 108.409C240.969 108.141 240.878 107.85 240.84 107.55C240.798 106.424 242.289 105.832 243.294 106.235C244.252 106.811 244.997 107.696 245.412 108.753C244.997 108.215 244.71 107.586 244.575 106.914C244.518 106.579 244.576 106.234 244.737 105.937C244.899 105.64 245.155 105.409 245.463 105.282C245.771 105.237 246.086 105.271 246.379 105.382C246.671 105.493 246.932 105.677 247.138 105.918C248.011 106.722 248.673 107.738 249.064 108.873C248.779 108.009 248.812 107.068 249.156 106.227C249.337 105.813 249.643 105.47 250.03 105.25C250.417 105.03 250.862 104.945 251.3 105.007C252.481 105.265 252.975 106.725 253.26 107.894C253.203 107.513 253.229 107.124 253.338 106.755C253.447 106.386 253.635 106.047 253.888 105.763C254.767 105.05 256.049 105.823 256.786 106.682C259.591 109.938 261.09 117.679 257.23 120.823C253.369 123.967 246.928 123.624 242.95 120.917C240.647 119.354 240.898 117.79 241.627 115.351C242.271 113.127 242.104 110.739 241.158 108.632C241.2 108.538 241.141 108.469 241.108 108.409Z" fill="white"/>
<path d="M250.412 123.487C247.711 123.51 245.059 122.744 242.766 121.279C240.254 119.56 240.547 117.679 241.275 115.265C241.891 113.144 241.733 110.866 240.831 108.856L240.739 108.658C240.566 108.332 240.461 107.972 240.429 107.602C240.424 107.308 240.492 107.019 240.627 106.76C240.762 106.501 240.959 106.282 241.2 106.124C241.531 105.898 241.91 105.758 242.306 105.716C242.701 105.674 243.101 105.731 243.47 105.884C243.742 106.002 243.996 106.161 244.223 106.356C244.266 106.025 244.398 105.714 244.605 105.457C244.813 105.2 245.087 105.008 245.396 104.904C245.774 104.828 246.165 104.855 246.53 104.984C246.894 105.112 247.22 105.336 247.473 105.634C247.884 106.012 248.252 106.435 248.57 106.897C248.618 106.6 248.705 106.311 248.83 106.038C249.058 105.544 249.433 105.137 249.901 104.876C250.369 104.615 250.906 104.514 251.434 104.586C251.817 104.689 252.171 104.882 252.469 105.149C252.766 105.415 253 105.749 253.151 106.124C253.267 105.85 253.448 105.611 253.679 105.428C254.742 104.569 256.191 105.325 257.154 106.399C259.219 109.114 260.228 112.518 259.985 115.952C259.95 116.946 259.714 117.922 259.293 118.818C258.872 119.714 258.275 120.511 257.54 121.158C255.488 122.738 252.976 123.558 250.412 123.487ZM242.582 106.519C242.26 106.523 241.946 106.621 241.677 106.803C241.554 106.878 241.451 106.985 241.379 107.113C241.307 107.241 241.268 107.385 241.267 107.533C241.296 107.79 241.376 108.039 241.501 108.263L241.585 108.452C242.579 110.655 242.752 113.155 242.071 115.48C241.334 117.963 241.233 119.2 243.235 120.566C246.828 123.005 253.118 123.676 257.02 120.488C257.66 119.907 258.178 119.2 258.545 118.409C258.912 117.618 259.12 116.759 259.156 115.883C259.384 112.68 258.447 109.503 256.526 106.966C255.982 106.339 254.851 105.548 254.19 106.107C253.995 106.357 253.854 106.646 253.774 106.955C253.695 107.264 253.68 107.587 253.729 107.902C253.742 108.016 253.711 108.131 253.642 108.221C253.608 108.266 253.565 108.303 253.517 108.331C253.469 108.359 253.415 108.377 253.36 108.384C253.249 108.397 253.138 108.365 253.05 108.294C252.962 108.223 252.905 108.119 252.891 108.006C252.657 107.009 252.23 105.652 251.216 105.428C250.873 105.395 250.528 105.471 250.228 105.646C249.928 105.821 249.688 106.087 249.541 106.408C249.245 107.156 249.221 107.988 249.474 108.753C249.504 108.86 249.493 108.975 249.443 109.074C249.393 109.173 249.309 109.248 249.206 109.286C249.102 109.319 248.989 109.31 248.891 109.26C248.793 109.211 248.717 109.125 248.679 109.019C248.309 107.953 247.687 106.997 246.87 106.236C246.526 105.918 246.032 105.557 245.58 105.695C245.369 105.797 245.198 105.968 245.092 106.181C244.985 106.394 244.951 106.636 244.994 106.872C245.017 107.091 245.074 107.306 245.161 107.507C245.371 107.842 245.563 108.195 245.748 108.555C245.799 108.654 245.812 108.769 245.782 108.876C245.752 108.984 245.683 109.075 245.588 109.131C245.495 109.184 245.386 109.2 245.282 109.174C245.178 109.149 245.087 109.084 245.027 108.993C244.799 108.652 244.597 108.293 244.424 107.92C244.113 107.366 243.65 106.918 243.093 106.631C242.93 106.55 242.754 106.5 242.574 106.485L242.582 106.519Z" fill="#231F20"/>
<path d="M215.363 115.093C215.252 109.764 216.712 104.524 219.55 100.059V94.2773H228.972C236.51 94.2773 242.59 103.616 242.59 115.136C242.59 126.657 236.493 135.995 228.972 135.995H219.559V130.179C216.709 125.7 215.246 120.441 215.363 115.093Z" fill="#231F20"/>
<path d="M228.981 136.373H219.559C219.448 136.373 219.341 136.328 219.263 136.247C219.184 136.167 219.14 136.058 219.14 135.944V130.256C216.397 125.696 214.944 120.443 214.944 115.085C214.944 109.726 216.397 104.473 219.14 99.9129V94.2772C219.14 94.1633 219.184 94.054 219.263 93.9735C219.341 93.8929 219.448 93.8477 219.559 93.8477H228.981C236.719 93.8477 243.017 103.401 243.017 115.136C243.017 126.872 236.719 136.373 228.981 136.373ZM219.978 135.514H228.981C236.259 135.514 242.18 126.347 242.18 115.085C242.18 103.822 236.259 94.6552 228.981 94.6552H219.978V100.05C219.978 100.137 219.952 100.221 219.902 100.291C217.104 104.682 215.668 109.84 215.782 115.085C215.668 120.33 217.104 125.487 219.902 129.878C219.952 129.951 219.978 130.038 219.978 130.127V135.514Z" fill="#231F20"/>
<path d="M219.559 135.952C227.08 135.952 233.176 126.613 233.176 115.093C233.176 103.573 227.08 94.2344 219.559 94.2344C212.038 94.2344 205.941 103.573 205.941 115.093C205.941 126.613 212.038 135.952 219.559 135.952Z" fill="white"/>
<path d="M219.559 136.373C211.82 136.373 205.522 126.82 205.522 115.084C205.522 103.349 211.82 93.7959 219.559 93.7959C227.297 93.7959 233.595 103.349 233.595 115.084C233.595 126.82 227.297 136.373 219.559 136.373ZM219.559 94.655C212.281 94.655 206.36 103.822 206.36 115.084C206.36 126.347 212.281 135.514 219.559 135.514C226.837 135.514 232.758 126.347 232.758 115.084C232.758 103.822 226.837 94.6636 219.559 94.6636V94.655Z" fill="#231F20"/>
<path d="M219.559 129.956C214.132 129.956 209.718 123.289 209.718 115.093C209.718 106.897 214.132 100.239 219.559 100.239C224.986 100.239 229.4 106.897 229.4 115.093C229.4 123.289 224.986 129.956 219.559 129.956ZM219.559 101.098C214.593 101.098 210.556 107.378 210.556 115.093C210.556 122.808 214.593 129.096 219.559 129.096C224.525 129.096 228.562 122.816 228.562 115.093C228.562 107.37 224.517 101.098 219.559 101.098Z" fill="#D1D3D4"/>
<path d="M204.626 115.093C204.612 114.259 204.839 113.44 205.28 112.739V111.828H218.772C219.953 111.828 220.907 113.289 220.907 115.093C220.907 116.897 219.953 118.357 218.772 118.357H205.28V117.472C204.832 116.765 204.604 115.935 204.626 115.093Z" fill="#231F20"/>
<path d="M218.772 118.787H205.28C205.169 118.785 205.064 118.739 204.986 118.658C204.908 118.578 204.863 118.47 204.861 118.357V117.575C204.433 116.822 204.207 115.965 204.207 115.093C204.207 114.22 204.433 113.363 204.861 112.61V111.828C204.863 111.715 204.908 111.607 204.986 111.527C205.064 111.447 205.169 111.401 205.28 111.398H218.772C220.204 111.398 221.284 113.022 221.284 115.093C221.284 117.163 220.204 118.787 218.772 118.787ZM205.698 117.928H218.772C219.701 117.928 220.447 116.63 220.447 115.093C220.447 113.555 219.659 112.258 218.772 112.258H205.698V112.739C205.7 112.828 205.674 112.915 205.623 112.988C205.245 113.621 205.044 114.35 205.044 115.093C205.044 115.835 205.245 116.564 205.623 117.197C205.672 117.271 205.698 117.358 205.698 117.447V117.928Z" fill="#231F20"/>
<path d="M205.28 118.357C206.454 118.357 207.407 116.896 207.407 115.093C207.407 113.29 206.454 111.828 205.28 111.828C204.105 111.828 203.152 113.29 203.152 115.093C203.152 116.896 204.105 118.357 205.28 118.357Z" fill="white"/>
<path d="M205.28 118.787C203.856 118.787 202.767 117.163 202.767 115.093C202.767 113.022 203.889 111.398 205.28 111.398C206.67 111.398 207.792 113.022 207.792 115.093C207.792 117.163 206.712 118.787 205.28 118.787ZM205.28 112.258C204.35 112.258 203.605 113.555 203.605 115.093C203.605 116.63 204.383 117.928 205.28 117.928C206.176 117.928 206.955 116.63 206.955 115.093C206.955 113.555 206.209 112.258 205.28 112.258Z" fill="#231F20"/>
<path d="M104.83 187.919L102.577 211.622H87.4434C87.4434 211.622 85.6176 200.805 83.8589 187.919H104.83Z" fill="#D1D3D4"/>
<path d="M102.577 212.069H87.4433C87.3443 212.068 87.2488 212.031 87.1737 211.965C87.0986 211.899 87.0487 211.808 87.0329 211.708C87.0329 211.605 85.182 200.703 83.4484 187.997C83.4386 187.936 83.4419 187.874 83.4581 187.814C83.4743 187.755 83.5029 187.7 83.5421 187.653C83.5812 187.607 83.6298 187.569 83.6845 187.544C83.7393 187.519 83.7987 187.506 83.8588 187.507H104.796C104.854 187.507 104.912 187.519 104.965 187.543C105.018 187.566 105.066 187.601 105.106 187.644C105.146 187.69 105.175 187.743 105.194 187.8C105.213 187.858 105.22 187.919 105.215 187.979L103.012 211.682C103 211.791 102.948 211.89 102.868 211.962C102.787 212.033 102.683 212.071 102.577 212.069ZM87.795 211.209H102.175L104.344 188.366H84.3445C85.8855 199.569 87.4768 209.259 87.795 211.209Z" fill="#231F20"/>
<path d="M250.078 189.869C248.243 202.885 246.275 215.908 246.275 215.908H229.308L227.105 189.869H250.078Z" fill="#D1D3D4"/>
<path d="M246.275 216.338H229.307C229.202 216.336 229.102 216.295 229.024 216.222C228.947 216.149 228.899 216.05 228.889 215.943L226.686 189.903C226.681 189.844 226.689 189.785 226.708 189.728C226.727 189.672 226.757 189.621 226.796 189.577C226.835 189.534 226.883 189.499 226.936 189.475C226.989 189.451 227.047 189.439 227.105 189.439H250.077C250.137 189.439 250.197 189.452 250.252 189.477C250.307 189.502 250.356 189.539 250.396 189.586C250.434 189.633 250.463 189.688 250.48 189.747C250.497 189.806 250.503 189.868 250.496 189.929C248.679 202.816 246.711 215.84 246.685 215.969C246.673 216.071 246.624 216.165 246.549 216.233C246.473 216.301 246.376 216.339 246.275 216.338ZM229.693 215.479H245.915C246.242 213.305 247.967 201.802 249.592 190.299H227.565L229.693 215.479Z" fill="#231F20"/>
</g>
<defs>
<clipPath id="clip0_89_97">
<rect width="335" height="259" fill="white"/>
</clipPath>
</defs>
</svg>
