<svg width="200" height="200" viewBox="0 0 262 242" fill="none" xmlns="http://www.w3.org/2000/svg">
<ellipse cx="130.57" cy="120.995" rx="130.57" ry="120.995" fill="#DDF0F4"/>
<ellipse cx="130.57" cy="120.995" rx="130.57" ry="120.995" fill="white"/>
<path d="M133.222 146.73H126.19V186.182H133.222V146.73Z" fill="#231F20"/>
<path d="M133.222 186.569H126.19C126.089 186.569 125.992 186.528 125.921 186.455C125.849 186.382 125.809 186.283 125.809 186.18V146.728C125.809 146.625 125.849 146.526 125.921 146.454C125.992 146.381 126.089 146.34 126.19 146.34H133.222C133.323 146.34 133.42 146.381 133.492 146.454C133.563 146.526 133.603 146.625 133.603 146.728V186.196C133.599 186.296 133.557 186.391 133.486 186.46C133.415 186.53 133.321 186.569 133.222 186.569ZM126.57 185.792H132.842V147.117H126.57V185.792Z" fill="#231F20"/>
<path d="M147.957 186.182H111.82V189.942H147.957V186.182Z" fill="white"/>
<path d="M147.957 190.328H111.82C111.72 190.328 111.623 190.287 111.551 190.215C111.48 190.142 111.44 190.043 111.44 189.94V186.195C111.44 186.092 111.48 185.993 111.551 185.92C111.623 185.848 111.72 185.807 111.82 185.807H147.957C148.058 185.807 148.155 185.848 148.227 185.92C148.298 185.993 148.338 186.092 148.338 186.195V189.955C148.334 190.056 148.292 190.151 148.221 190.22C148.15 190.29 148.056 190.328 147.957 190.328ZM112.186 189.551H147.554V186.568H112.201L112.186 189.551Z" fill="#231F20"/>
<path d="M146.078 138.99H113.335C110.452 138.99 108.114 141.376 108.114 144.32C108.114 147.263 110.452 149.65 113.335 149.65H146.078C148.961 149.65 151.299 147.263 151.299 144.32C151.299 141.376 148.961 138.99 146.078 138.99Z" fill="white"/>
<path d="M146.077 150.04H113.304C111.819 150.04 110.394 149.437 109.343 148.365C108.293 147.293 107.703 145.838 107.703 144.322C107.703 142.805 108.293 141.351 109.343 140.278C110.394 139.206 111.819 138.604 113.304 138.604H146.032C147.517 138.604 148.942 139.206 149.993 140.278C151.043 141.351 151.633 142.805 151.633 144.322C151.633 145.838 151.043 147.293 149.993 148.365C148.942 149.437 147.517 150.04 146.032 150.04H146.077ZM113.35 139.38C112.066 139.38 110.835 139.901 109.927 140.828C109.019 141.754 108.509 143.011 108.509 144.322C108.509 145.632 109.019 146.889 109.927 147.816C110.835 148.742 112.066 149.263 113.35 149.263H146.077C147.361 149.263 148.592 148.742 149.5 147.816C150.408 146.889 150.918 145.632 150.918 144.322C150.918 143.011 150.408 141.754 149.5 140.828C148.592 139.901 147.361 139.38 146.077 139.38H113.35Z" fill="#231F20"/>
<path d="M205.854 159.992C204.187 171.762 202.399 183.54 202.399 183.54H186.979L184.977 159.992L184.216 151.244L167.068 147.406L174.291 124.23C174.291 124.23 208.274 133.181 208.617 136.661C208.799 138.37 207.376 149.185 205.854 159.992Z" fill="white"/>
<path d="M202.398 183.929H186.979C186.883 183.927 186.792 183.89 186.722 183.824C186.651 183.758 186.607 183.668 186.598 183.571L183.873 151.562L167 147.787C166.949 147.774 166.901 147.751 166.858 147.719C166.816 147.687 166.781 147.646 166.755 147.6C166.728 147.553 166.711 147.502 166.705 147.448C166.699 147.395 166.703 147.341 166.718 147.289L173.941 124.114C173.971 124.018 174.036 123.937 174.122 123.888C174.208 123.839 174.31 123.825 174.405 123.85C180.121 125.357 208.655 133.056 209.012 136.653C209.157 138.091 208.251 145.743 206.234 160.046C204.583 171.7 202.794 183.478 202.771 183.595C202.76 183.687 202.716 183.773 202.647 183.834C202.578 183.896 202.49 183.93 202.398 183.929ZM187.329 183.152H202.071C202.376 181.163 203.982 170.48 205.481 159.938C207.939 142.449 208.35 137.663 208.251 136.731C208.023 134.4 187.618 128.185 174.558 124.697L167.571 147.118L184.315 150.863C184.393 150.882 184.463 150.925 184.516 150.986C184.569 151.047 184.603 151.124 184.612 151.205L187.329 183.152Z" fill="#231F20"/>
<path d="M97.3214 141.182L75.318 143.326L73.8567 158.227L71.8094 179.662H58.0563C58.0563 179.662 56.3971 169.881 54.7988 158.227C52.8809 144.243 51.0466 127.632 52.2948 122.349C54.5781 112.731 87.625 115.442 87.625 115.442L97.3214 141.182Z" fill="white"/>
<path d="M71.8096 180.066H58.0565C57.9666 180.066 57.8799 180.033 57.8116 179.973C57.7433 179.913 57.698 179.831 57.6836 179.74C57.6836 179.647 56.0016 169.788 54.4261 158.297C52.5766 144.849 50.6206 127.679 51.9221 122.271C54.2434 112.443 86.2933 114.953 87.6937 115.069C87.7657 115.075 87.8348 115.101 87.8927 115.145C87.9507 115.189 87.9952 115.249 88.021 115.318L97.6869 141.042C97.7114 141.095 97.7241 141.154 97.7241 141.213C97.7241 141.272 97.7114 141.33 97.6869 141.384C97.6539 141.433 97.6112 141.476 97.5614 141.508C97.5117 141.54 97.4559 141.561 97.3977 141.57L75.7064 143.683L72.2054 179.717C72.194 179.815 72.1471 179.905 72.0739 179.97C72.0007 180.035 71.9064 180.069 71.8096 180.066ZM58.3762 179.289H71.4443L74.8844 143.287C74.8928 143.197 74.9316 143.113 74.9941 143.049C75.0566 142.986 75.1389 142.946 75.2269 142.937L96.7355 140.84L87.336 115.823C81.8331 115.444 76.313 115.4 70.8049 115.691C59.8071 116.367 53.528 118.705 52.6451 122.458C51.6557 126.638 52.5234 138.999 55.1568 158.196C56.5952 168.506 58.0794 177.495 58.3762 179.289Z" fill="#231F20"/>
<path d="M108.076 112.824L82.7234 115.458L87.191 146.333L130.901 141.407L174.306 151.235L184.315 125.286L153.011 115.458L108.076 112.824Z" fill="#231F20"/>
<path d="M174.306 151.623H174.192L130.81 141.803L87.1608 146.721C87.0632 146.732 86.9652 146.704 86.8872 146.644C86.8092 146.583 86.7573 146.494 86.7422 146.395L82.3506 115.497C82.3412 115.445 82.3431 115.391 82.3563 115.34C82.3694 115.289 82.3935 115.242 82.4267 115.201C82.4567 115.159 82.4954 115.124 82.5401 115.098C82.5848 115.073 82.6344 115.057 82.6855 115.054L108.038 112.42H108.099L153.003 115.046H153.095L184.391 124.874C184.442 124.888 184.489 124.914 184.529 124.948C184.57 124.983 184.603 125.026 184.626 125.074C184.649 125.123 184.662 125.176 184.663 125.23C184.665 125.283 184.655 125.337 184.635 125.387L174.626 151.343C174.607 151.418 174.566 151.484 174.509 151.534C174.452 151.584 174.381 151.615 174.306 151.623ZM130.924 141.018H131.008L174.093 150.776L183.828 125.527L152.965 115.838L108.106 113.212L83.1802 115.8L87.5337 145.89L130.916 141.01L130.924 141.018Z" fill="#231F20"/>
<path d="M159.016 42.573C160.279 40.4209 160.896 37.3909 161.55 35.0058C161.999 33.351 162.684 31.6573 162.73 29.9248C162.73 29.5984 162.068 25.8226 161.094 26.6695C162.325 25.5895 163.117 24.0798 163.316 22.4353C162.019 22.1231 160.664 22.1795 159.396 22.5984C160.465 22.1975 161.486 21.6763 162.441 21.0446C163.202 20.5474 163.963 19.7161 163.651 18.8615C163.339 18.0068 162.129 17.8903 161.147 17.9214C155.682 18.1001 150.415 15.6606 144.951 15.4586C143.23 15.3115 141.502 15.6332 139.943 16.3909C139.087 16.9038 138.317 17.5515 137.659 18.3098C136.541 19.5141 135.886 21.2233 134.775 22.3654C134.014 23.1423 132.91 23.422 132.202 24.4009C130.84 26.2732 130.931 28.7671 130.962 30.9814C131 34.7416 131.837 38.5485 131.784 42.2311C135.947 43.008 140.156 43.8316 144.372 44.2589C147.698 44.5929 156.771 46.4109 159.016 42.573Z" fill="white"/>
<path d="M152.242 45.3711C150.125 45.3289 148.013 45.1525 145.917 44.8428C145.293 44.7651 144.745 44.6874 144.289 44.6486C140.849 44.299 137.393 43.6619 134.052 43.0481L131.677 42.6131C131.588 42.5967 131.507 42.5489 131.449 42.4779C131.39 42.4069 131.358 42.3173 131.358 42.2246C131.344 40.2782 131.209 38.3346 130.954 36.4055C130.722 34.6014 130.582 32.7861 130.536 30.9671V30.6719C130.536 28.5043 130.482 26.0103 131.86 24.1457C132.28 23.6141 132.797 23.1708 133.382 22.8405C133.764 22.6258 134.119 22.365 134.44 22.0636C134.981 21.458 135.456 20.7936 135.856 20.0825C136.275 19.348 136.762 18.656 137.309 18.0159C138.008 17.2332 138.826 16.5696 139.73 16.0503C141.354 15.2374 143.163 14.8858 144.966 15.0325C147.517 15.2097 150.047 15.6258 152.524 16.2756C155.334 17.0517 158.229 17.4616 161.139 17.4953C161.901 17.4953 163.56 17.4176 164.009 18.6996C164.313 19.5619 163.803 20.5409 162.646 21.3333C162.38 21.512 162.114 21.6829 161.832 21.8461C162.36 21.8619 162.886 21.9322 163.4 22.0558C163.491 22.0781 163.571 22.134 163.625 22.2129C163.678 22.2918 163.701 22.388 163.689 22.4831C163.509 23.9335 162.892 25.2909 161.923 26.3677C162.768 27.1446 163.111 29.7473 163.111 29.9105C163.018 31.2511 162.741 32.5717 162.289 33.8339C162.159 34.2534 162.03 34.673 161.916 35.0847C161.802 35.4965 161.672 35.9937 161.55 36.4677C161.093 38.6541 160.351 40.768 159.343 42.7529C158.148 44.7962 155.271 45.3711 152.242 45.3711ZM132.126 41.9061L134.189 42.2868C137.515 42.8928 140.947 43.5298 144.365 43.8406C144.821 43.8872 145.377 43.9571 146.009 44.0426C149.814 44.5321 156.877 45.4488 158.689 42.3411C159.659 40.4212 160.376 38.3782 160.82 36.2657C160.942 35.784 161.063 35.3178 161.185 34.8672C161.299 34.4477 161.429 34.0204 161.558 33.5931C161.977 32.3965 162.233 31.147 162.319 29.8794C162.319 29.3278 161.741 27.0592 161.345 26.9038C161.267 26.9618 161.172 26.9883 161.076 26.9782C160.98 26.9682 160.892 26.9223 160.827 26.8494C160.792 26.8153 160.765 26.7743 160.745 26.7289C160.726 26.6835 160.717 26.6347 160.717 26.5853C160.717 26.5359 160.726 26.487 160.745 26.4416C160.765 26.3962 160.792 26.3552 160.827 26.3211C161.892 25.3818 162.609 24.0986 162.859 22.6851C161.735 22.4756 160.576 22.553 159.488 22.9105C159.393 22.9427 159.289 22.9355 159.2 22.8904C159.11 22.8453 159.041 22.766 159.008 22.6696C158.978 22.5737 158.985 22.4697 159.028 22.3788C159.07 22.2879 159.145 22.2168 159.237 22.1801C160.282 21.783 161.279 21.2615 162.205 20.6263C162.859 20.1835 163.484 19.4998 163.27 18.9093C163.057 18.3189 162.015 18.1946 161.139 18.2179C158.168 18.1837 155.212 17.7687 152.341 16.9826C149.907 16.3416 147.421 15.9307 144.913 15.755C143.605 15.576 142.274 15.7355 141.043 16.2188C139.811 16.7021 138.718 17.4937 137.865 18.5209C137.35 19.1212 136.893 19.7718 136.503 20.4632C136.07 21.2231 135.56 21.9341 134.98 22.5841C134.615 22.9283 134.211 23.2281 133.778 23.4776C133.263 23.7491 132.807 24.1244 132.438 24.5808C131.213 26.2667 131.244 28.4654 131.266 30.633V30.9282C131.316 32.7133 131.453 34.4946 131.677 36.2657C131.932 38.1356 132.082 40.0188 132.126 41.9061Z" fill="#231F20"/>
<path d="M136.488 40.6022C136.434 35.8397 129.044 33.5478 128.618 39.0872C128.403 40.995 128.85 42.9194 129.881 44.5256C130.415 45.3117 131.164 45.9192 132.035 46.2717C132.905 46.6242 133.859 46.706 134.775 46.5067" fill="white"/>
<path d="M133.763 47.0504C132.94 47.0258 132.133 46.8068 131.407 46.4105C130.68 46.0141 130.054 45.4513 129.577 44.7662C128.487 43.0824 128.013 41.0609 128.237 39.0559C128.443 36.3289 130.224 35.4199 131.83 35.4665C133.151 35.5195 134.405 36.0764 135.343 37.0273C136.282 37.9781 136.837 39.2537 136.898 40.602C136.899 40.7037 136.859 40.8013 136.79 40.8739C136.72 40.9466 136.625 40.9884 136.526 40.9904C136.475 40.9925 136.425 40.9842 136.378 40.966C136.331 40.9478 136.288 40.9201 136.252 40.8846C136.216 40.849 136.187 40.8063 136.167 40.7591C136.147 40.7119 136.137 40.6611 136.137 40.6097C136.066 39.4659 135.584 38.3891 134.783 37.5851C133.983 36.781 132.921 36.3062 131.799 36.2512C130.17 36.2046 129.143 37.2457 128.998 39.1258C128.784 40.9455 129.208 42.7837 130.193 44.3156C130.674 45.0449 131.359 45.6101 132.158 45.9383C132.957 46.2665 133.834 46.3427 134.676 46.1569C134.777 46.1291 134.885 46.1433 134.975 46.1965C135.066 46.2497 135.132 46.3375 135.159 46.4405C135.187 46.5435 135.173 46.6534 135.121 46.7459C135.068 46.8384 134.983 46.906 134.882 46.9338C134.515 47.023 134.139 47.0621 133.763 47.0504Z" fill="#231F20"/>
<path d="M152.943 42.5056C154.039 37.8829 161.749 37.3391 160.949 42.8319C160.744 44.7484 159.882 46.529 158.514 47.8585C157.819 48.5001 156.953 48.9164 156.027 49.0548C155.1 49.1931 154.153 49.0472 153.308 48.6355" fill="white"/>
<path d="M155.218 49.528C154.489 49.5339 153.77 49.3551 153.125 49.0075C153.081 48.983 153.042 48.9499 153.011 48.9101C152.979 48.8703 152.956 48.8246 152.942 48.7755C152.928 48.7265 152.923 48.6751 152.928 48.6242C152.934 48.5734 152.949 48.5241 152.973 48.4792C152.997 48.4343 153.029 48.3947 153.068 48.3626C153.107 48.3305 153.152 48.3065 153.2 48.2921C153.248 48.2777 153.299 48.273 153.348 48.2785C153.398 48.2839 153.446 48.2993 153.49 48.3238C154.272 48.6947 155.145 48.819 155.996 48.6806C156.848 48.5421 157.64 48.1474 158.27 47.5469C159.56 46.2759 160.368 44.581 160.553 42.7611C160.827 40.8887 160.059 39.6534 158.453 39.3193C157.35 39.1234 156.216 39.3475 155.265 39.949C154.313 40.5505 153.612 41.4876 153.293 42.5824C153.269 42.6854 153.207 42.7748 153.119 42.8309C153.031 42.887 152.925 42.9052 152.824 42.8815C152.724 42.8578 152.636 42.7942 152.581 42.7046C152.526 42.6149 152.508 42.5067 152.531 42.4037C152.88 41.1016 153.694 39.9802 154.812 39.2609C155.931 38.5417 157.274 38.277 158.575 38.5191C160.142 38.8377 161.68 40.1351 161.284 42.8388C161.063 44.8442 160.158 46.7062 158.727 48.0985C157.762 48.9874 156.517 49.4945 155.218 49.528Z" fill="#231F20"/>
<path d="M156.101 66.6835C155.789 65.0209 152.775 64.1041 149.335 63.5758L149.578 59.9398L150.058 52.7922L136.427 50.7178L135.133 56.4515L134.722 58.3083L134.136 60.9187C121.958 55.4803 84.3371 44.4869 71.1396 50.1196C54.8978 57.0575 67.4179 111.776 69.2217 115.458C69.2217 115.458 78.294 114.332 79.3215 116.701C80.3489 119.071 80.1434 120.283 81.6961 120.811C81.888 120.887 82.0944 120.915 82.299 120.896C82.5037 120.876 82.7011 120.808 82.8758 120.698C83.0505 120.587 83.1978 120.437 83.3061 120.258C83.4143 120.08 83.4807 119.878 83.4999 119.669C83.6012 119.9 83.7548 120.104 83.9481 120.263C84.1415 120.422 84.369 120.531 84.612 120.583C84.8549 120.634 85.1064 120.626 85.3458 120.559C85.5851 120.492 85.8054 120.368 85.9887 120.198C85.9887 120.198 87.3663 121.604 88.272 119.933C88.272 119.933 89.4745 121.425 90.1595 120.019C90.8445 118.613 91.3696 111.861 88.8732 110.37C86.3768 108.878 80.8817 106.866 80.0217 105.459C80.0217 105.459 88.7895 86.0909 85.0069 71.8189C85.0069 71.8189 91.7121 78.8112 111.645 84.0476C111.645 84.0476 117.315 94.5826 118 94.7535C118.685 94.9244 146.397 97.5659 146.397 97.5659L153.932 84.0476C153.932 84.0476 156.854 70.7157 156.101 66.6835Z" fill="white"/>
<path d="M82.2592 121.302C82.0257 121.3 81.7941 121.258 81.5743 121.177C80.3184 120.75 80.0521 119.888 79.6487 118.683C79.4736 118.163 79.2833 117.565 78.9789 116.865C78.3091 115.312 72.6694 115.428 69.2673 115.848C69.1893 115.858 69.1101 115.843 69.0406 115.806C68.9711 115.768 68.9147 115.709 68.8791 115.638C67.6081 113.035 58.3227 74.9818 64.7235 57.369C66.1392 53.4845 68.2474 50.9284 70.995 49.7553C78.3548 46.6476 92.5112 48.6753 103.09 50.9672C115.816 53.7175 127.826 57.7264 133.862 60.3679L136.061 50.6487C136.085 50.5548 136.141 50.4729 136.219 50.4185C136.298 50.3641 136.393 50.341 136.487 50.3535L150.111 52.4201C150.207 52.4336 150.294 52.4837 150.354 52.5601C150.415 52.6365 150.445 52.7337 150.438 52.8318L149.738 63.2581C153.977 63.9185 156.177 65.0139 156.474 66.5988C157.235 70.6699 154.465 83.5822 154.343 84.1261C154.347 84.1622 154.347 84.1987 154.343 84.2348L146.793 97.7532C146.755 97.8161 146.7 97.8673 146.636 97.9015C146.572 97.9357 146.5 97.9515 146.427 97.9474C143.589 97.6833 118.67 95.3059 117.978 95.135C117.422 94.9874 115.222 91.3747 111.455 84.3825C95.5708 80.1716 88.1425 74.9429 85.7222 72.9307C87.2444 80.1094 85.8592 88.3214 84.3599 94.0862C83.3658 97.9498 82.0939 101.733 80.5544 105.406C81.2394 106.183 83.5455 107.286 85.6005 108.249C86.9552 108.886 88.2415 109.485 89.1548 110.036C91.948 111.707 91.3087 118.738 90.5933 120.198C90.509 120.403 90.3744 120.582 90.2024 120.718C90.0303 120.855 89.8268 120.943 89.6114 120.975C89.3915 120.98 89.1728 120.941 88.9678 120.86C88.7628 120.778 88.5754 120.657 88.4165 120.501C88.1661 120.821 87.808 121.035 87.4119 121.1C86.9081 121.138 86.4093 120.976 86.0191 120.649C85.8046 120.796 85.5635 120.898 85.31 120.949C85.0564 120.999 84.7955 120.998 84.5425 120.944C84.2102 120.859 83.9073 120.681 83.6673 120.431C83.5288 120.685 83.3298 120.899 83.0888 121.053C82.8438 121.221 82.5542 121.307 82.2592 121.302ZM73.636 114.799C76.2237 114.799 79.055 115.141 79.6715 116.547C79.9378 117.165 80.169 117.798 80.3641 118.442C80.7447 119.608 80.9197 120.136 81.8102 120.447C81.9402 120.508 82.0818 120.54 82.225 120.54C82.3682 120.54 82.5098 120.508 82.6398 120.447C82.8945 120.246 83.0657 119.955 83.1193 119.631C83.1339 119.551 83.1725 119.477 83.2297 119.42C83.2869 119.363 83.36 119.326 83.4389 119.313C83.5181 119.301 83.599 119.314 83.6701 119.352C83.7411 119.39 83.7987 119.449 83.8347 119.522C84.0162 119.861 84.3146 120.119 84.6719 120.245C84.8663 120.275 85.0648 120.261 85.253 120.203C85.4413 120.145 85.6145 120.046 85.7603 119.911C85.8285 119.849 85.9165 119.815 86.0076 119.815C86.0988 119.815 86.1868 119.849 86.255 119.911C86.5239 120.179 86.8835 120.332 87.2597 120.338C87.4186 120.3 87.5667 120.225 87.6922 120.119C87.8177 120.012 87.9172 119.877 87.9827 119.724C88.0141 119.671 88.0573 119.625 88.1088 119.592C88.1603 119.558 88.2187 119.537 88.2795 119.53C88.3406 119.529 88.4014 119.54 88.4578 119.564C88.5142 119.589 88.565 119.624 88.6068 119.67C88.759 119.864 89.1852 120.253 89.4744 120.222C89.6114 120.222 89.7408 120.074 89.8626 119.833C90.5552 118.411 90.9053 112.002 88.721 110.689C87.8381 110.161 86.5671 109.57 85.2275 108.941C82.7159 107.76 80.3489 106.61 79.74 105.647C79.7086 105.591 79.6921 105.528 79.6921 105.464C79.6921 105.4 79.7086 105.337 79.74 105.282C79.8237 105.087 88.4013 85.8586 84.7024 71.8741C84.6796 71.792 84.6845 71.7046 84.7162 71.6257C84.7479 71.5468 84.8047 71.481 84.8774 71.439C84.9512 71.3976 85.036 71.3813 85.1195 71.3925C85.203 71.4037 85.2808 71.4417 85.3417 71.5012C85.4026 71.5711 92.2296 78.4934 111.805 83.6288C111.855 83.6421 111.901 83.6654 111.942 83.6975C111.982 83.7295 112.016 83.7696 112.041 83.8153C114.598 88.5623 117.597 93.8065 118.206 94.3425C119.469 94.5445 138.558 96.3781 146.252 97.1084L153.635 83.9008C153.84 82.9529 156.459 70.5223 155.751 66.7464C155.523 65.5344 153.239 64.5555 149.304 63.9728C149.21 63.9576 149.124 63.9071 149.063 63.8311C149.003 63.755 148.972 63.6589 148.977 63.5611L149.677 53.1426L136.739 51.177L134.516 60.9972C134.504 61.0535 134.481 61.1063 134.446 61.152C134.412 61.1977 134.368 61.2351 134.318 61.2614C134.267 61.2843 134.211 61.2961 134.155 61.2961C134.098 61.2961 134.043 61.2843 133.991 61.2614C121.547 55.6754 84.1544 44.9461 71.2994 50.4623C68.7574 51.5499 66.7861 53.9584 65.4542 57.6332C59.4187 74.2281 67.9278 110.937 69.4728 115.024C70.8559 114.878 72.2454 114.802 73.636 114.799Z" fill="#231F20"/>
<path d="M135.597 53.7869C136.492 55.6474 137.829 57.2499 139.486 58.4484C142.18 60.5538 146.298 63.1099 149.936 63.1099L150.454 55.4572C147.796 55.3967 145.154 55.016 142.584 54.3229C140.289 53.8911 138.071 53.1052 136.008 51.9922L135.597 53.7869Z" fill="#231F20"/>
<path d="M149.906 63.4813C145.872 63.4813 141.534 60.5368 139.25 58.8198C137.533 57.5794 136.153 55.9138 135.239 53.9796C135.217 53.901 135.217 53.8174 135.239 53.7387L135.65 51.8897C135.662 51.829 135.688 51.7722 135.726 51.7247C135.765 51.6771 135.815 51.6403 135.871 51.6178C135.925 51.5891 135.985 51.5742 136.046 51.5742C136.107 51.5742 136.167 51.5891 136.221 51.6178C138.249 52.7266 140.43 53.5126 142.691 53.9485C145.23 54.6396 147.841 55.0178 150.469 55.075C150.521 55.0748 150.572 55.0857 150.619 55.1072C150.666 55.1286 150.708 55.16 150.743 55.1993C150.78 55.238 150.809 55.2843 150.827 55.3352C150.846 55.3861 150.853 55.4405 150.849 55.4946L150.332 63.1394C150.317 63.2411 150.264 63.333 150.185 63.3965C150.106 63.46 150.006 63.4904 149.906 63.4813ZM135.993 53.7465C136.865 55.5079 138.145 57.0253 139.722 58.1672C141.83 59.8142 145.857 62.5412 149.578 62.6966L150.043 55.8286C147.495 55.7294 144.965 55.3437 142.5 54.6788C140.336 54.2488 138.238 53.5277 136.259 52.5345L135.993 53.7465Z" fill="#231F20"/>
<path d="M158.095 30.2762L155.637 47.1276C155.536 47.8509 155.363 48.5617 155.119 49.2486C154.288 51.5837 152.693 53.5546 150.603 54.8285C148.514 56.1024 146.057 56.6012 143.649 56.2408L142.432 56.0544C140.174 55.7098 138.087 54.6294 136.481 52.9743C134.874 51.3193 133.835 49.1784 133.519 46.8712C133.378 45.8559 133.378 44.8254 133.519 43.8101L136 26.9277C136 26.9277 138.207 30.7036 145.636 31.5038C153.064 32.304 158.095 30.2762 158.095 30.2762Z" fill="white"/>
<path d="M145.187 56.7374C144.652 56.7379 144.118 56.6963 143.589 56.6131L142.371 56.4266C139.503 55.991 136.922 54.4107 135.195 52.0331C133.468 49.6555 132.737 46.6752 133.162 43.7473L135.62 26.8649C135.633 26.7864 135.669 26.7137 135.723 26.6567C135.778 26.5998 135.848 26.5612 135.924 26.5464C136.002 26.5287 136.082 26.5365 136.155 26.5686C136.227 26.6007 136.288 26.6555 136.328 26.7251C136.328 26.7251 138.558 30.3533 145.674 31.1146C149.805 31.6225 153.996 31.2144 157.958 29.9182C158.021 29.8935 158.089 29.8856 158.155 29.8951C158.222 29.9046 158.285 29.9313 158.339 29.9726C158.389 30.0175 158.428 30.0742 158.451 30.1379C158.475 30.2015 158.484 30.2701 158.476 30.3377L156.017 47.2124C155.909 47.9618 155.728 48.6983 155.477 49.411C154.699 51.558 153.296 53.4107 151.457 54.7203C149.617 56.0299 147.43 56.7337 145.187 56.7374ZM136.244 27.8671L133.915 43.8561C133.716 45.2067 133.779 46.5842 134.102 47.9097C134.425 49.2353 135.001 50.4827 135.797 51.5805C136.593 52.6783 137.594 53.6049 138.742 54.3072C139.889 55.0094 141.161 55.4736 142.485 55.673L143.703 55.8595C145.024 56.0664 146.373 56.0044 147.671 55.6768C148.969 55.3492 150.19 54.7626 151.265 53.9508C152.34 53.139 153.246 52.1181 153.933 50.9469C154.619 49.7757 155.071 48.4774 155.264 47.1269L157.631 30.8738C153.729 32.041 149.636 32.3924 145.598 31.9071C140.019 31.2933 137.317 29.0558 136.244 27.8671Z" fill="#231F20"/>
<path d="M145.491 38.4414C145.491 38.4414 148.071 46.599 146.534 46.568C144.997 46.5369 142.957 45.1151 142.957 45.1151" fill="white"/>
<path d="M146.541 46.9568C144.905 46.9102 142.85 45.504 142.736 45.403C142.652 45.3446 142.594 45.2549 142.574 45.1533C142.554 45.0516 142.574 44.946 142.629 44.8591C142.689 44.7763 142.777 44.7197 142.876 44.701C142.975 44.6822 143.077 44.7027 143.162 44.7581C143.162 44.7581 145.118 46.1022 146.534 46.1411C146.937 45.7604 146.283 42.2021 145.118 38.5195C145.098 38.4697 145.088 38.4163 145.089 38.3624C145.091 38.3086 145.103 38.2556 145.125 38.2068C145.147 38.158 145.179 38.1144 145.219 38.0789C145.258 38.0434 145.305 38.0167 145.355 38.0005C145.406 37.9842 145.459 37.9789 145.511 37.9847C145.563 37.9905 145.614 38.0074 145.66 38.0343C145.706 38.0612 145.745 38.0975 145.777 38.1409C145.808 38.1843 145.83 38.2339 145.841 38.2864C146.366 39.9335 148.003 45.4108 147.135 46.6072C147.07 46.7088 146.982 46.7934 146.879 46.8541C146.776 46.9148 146.66 46.95 146.541 46.9568Z" fill="#231F20"/>
<path d="M147.249 51.5109C144.93 51.4193 142.674 50.7124 140.704 49.4598C140.616 49.4092 140.552 49.3252 140.525 49.2262C140.498 49.1272 140.51 49.0212 140.559 48.9315C140.612 48.843 140.695 48.7783 140.793 48.7508C140.891 48.7234 140.995 48.7352 141.085 48.7839C145.918 51.5963 148.787 50.5475 148.817 50.532C148.864 50.5133 148.914 50.5042 148.965 50.5055C149.015 50.5067 149.065 50.5181 149.111 50.5391C149.157 50.56 149.198 50.5901 149.233 50.6276C149.267 50.665 149.294 50.7091 149.312 50.7573C149.33 50.8047 149.339 50.8553 149.338 50.9062C149.336 50.957 149.325 51.0071 149.305 51.0535C149.284 51.0998 149.255 51.1415 149.218 51.176C149.181 51.2106 149.138 51.2373 149.091 51.2545C148.497 51.4495 147.873 51.5363 147.249 51.5109Z" fill="#231F20"/>
<path d="M141.869 36.8289C141.971 35.9122 141.732 35.1319 141.335 35.086C140.938 35.04 140.534 35.7459 140.432 36.6625C140.33 37.5792 140.569 38.3595 140.966 38.4054C141.363 38.4514 141.767 37.7455 141.869 36.8289Z" fill="#231F20"/>
<path d="M151.493 37.9421C151.595 37.0255 151.356 36.2452 150.959 36.1992C150.562 36.1533 150.158 36.8592 150.056 37.7758C149.954 38.6925 150.193 39.4728 150.59 39.5187C150.987 39.5646 151.391 38.8588 151.493 37.9421Z" fill="#231F20"/>
<path d="M121.623 54.9434C121.623 54.9434 122.171 71.2586 117.879 76.3319C113.586 81.4052 107.01 83.3241 107.01 83.3241C107.01 83.3241 106.188 100.906 108.076 112.847L155.484 115.496L160.538 93.9058C160.538 93.9058 156.23 77.6682 158.445 63.7381H152.729C152.729 63.7381 149.974 85.4451 138.626 83.2232C127.278 81.0012 129.394 56.4506 129.394 56.4506L121.623 54.9434Z" fill="#9747FF"/>
<path d="M58.0564 179.678C58.0564 179.678 41.2133 192.839 43.5956 194.245C45.9778 195.651 74.8006 192.489 74.8006 192.489L71.8171 179.678H58.0564Z" fill="white"/>
<path d="M47.3553 194.983C45.3536 194.983 43.9151 194.866 43.428 194.579C43.3061 194.509 43.2032 194.409 43.1288 194.288C43.0543 194.168 43.0107 194.03 43.0018 193.887C42.8268 191.23 55.3164 181.332 57.828 179.375C57.8917 179.319 57.9727 179.289 58.0563 179.289H71.8094C71.8951 179.289 71.9782 179.319 72.0448 179.374C72.1113 179.429 72.1572 179.506 72.1747 179.592L75.1582 192.411C75.1728 192.465 75.1749 192.522 75.1643 192.578C75.1538 192.633 75.1308 192.685 75.0973 192.73C75.0667 192.775 75.0271 192.812 74.9812 192.84C74.9353 192.868 74.8841 192.886 74.8309 192.893C72.4639 193.134 55.3621 194.983 47.3553 194.983ZM58.1857 180.066C52.5079 184.518 43.6488 192.116 43.7249 193.833C43.7249 193.88 43.7249 193.887 43.7705 193.903C45.4373 194.882 62.798 193.406 74.2829 192.147L71.4669 180.066H58.1857Z" fill="#231F20"/>
<path d="M186.979 183.539L185.86 194.602H213.115C213.425 194.6 213.727 194.498 213.977 194.31C214.227 194.122 214.412 193.858 214.506 193.556C214.599 193.254 214.597 192.93 214.499 192.629C214.401 192.329 214.212 192.067 213.96 191.883L202.399 183.539H186.979Z" fill="white"/>
<path d="M213.115 194.991H185.86C185.807 194.991 185.755 194.979 185.706 194.958C185.658 194.937 185.614 194.905 185.578 194.866C185.542 194.825 185.515 194.777 185.498 194.725C185.481 194.673 185.475 194.618 185.479 194.563L186.598 183.5C186.609 183.405 186.654 183.316 186.724 183.252C186.794 183.188 186.884 183.152 186.979 183.15H202.398C202.477 183.151 202.554 183.175 202.619 183.22L214.18 191.572C214.501 191.802 214.741 192.131 214.867 192.51C214.992 192.889 214.995 193.299 214.876 193.681C214.758 194.062 214.523 194.395 214.206 194.63C213.889 194.866 213.507 194.992 213.115 194.991ZM186.278 194.214H213.115C213.347 194.219 213.575 194.146 213.762 194.006C213.949 193.865 214.086 193.665 214.15 193.437C214.223 193.212 214.223 192.969 214.149 192.745C214.074 192.521 213.93 192.327 213.739 192.194L202.277 183.927H187.321L186.278 194.214Z" fill="#231F20"/>
<path d="M231.145 92.3683C231.132 91.6144 231.339 90.8735 231.739 90.2396V89.416H241.717C242.79 89.416 243.658 90.7368 243.658 92.3683C243.658 93.9998 242.79 95.3206 241.717 95.3206H231.739V94.5204C231.332 93.8808 231.125 93.1304 231.145 92.3683Z" fill="#231F20"/>
<path d="M241.717 95.7088H231.739C231.638 95.7068 231.543 95.6653 231.472 95.5929C231.401 95.5204 231.36 95.4228 231.358 95.3204V94.6134C230.969 93.9318 230.764 93.157 230.764 92.3681C230.764 91.5792 230.969 90.8044 231.358 90.1228V89.4158C231.36 89.3134 231.401 89.2158 231.472 89.1433C231.543 89.0709 231.638 89.0293 231.739 89.0273H241.717C243.018 89.0273 244 90.4957 244 92.3681C244 94.2405 243.018 95.7088 241.717 95.7088ZM232.119 94.9319H241.717C242.561 94.9319 243.239 93.7588 243.239 92.3681C243.239 90.9774 242.523 89.8043 241.717 89.8043H232.119V90.2393C232.121 90.32 232.097 90.3991 232.051 90.4646C231.707 91.0375 231.525 91.6963 231.525 92.3681C231.525 93.0399 231.707 93.6987 232.051 94.2715C232.095 94.338 232.119 94.4165 232.119 94.4968V94.9319Z" fill="#231F20"/>
<path d="M231.739 95.3206C232.807 95.3206 233.672 93.9988 233.672 92.3683C233.672 90.7378 232.807 89.416 231.739 89.416C230.671 89.416 229.806 90.7378 229.806 92.3683C229.806 93.9988 230.671 95.3206 231.739 95.3206Z" fill="white"/>
<path d="M231.739 95.7088C230.445 95.7088 229.456 94.2405 229.456 92.3681C229.456 90.4957 230.475 89.0273 231.739 89.0273C233.002 89.0273 234.06 90.4957 234.06 92.3681C234.06 94.2405 233.04 95.7088 231.739 95.7088ZM231.739 89.8043C230.894 89.8043 230.217 90.9774 230.217 92.3681C230.217 93.7588 230.924 94.9319 231.739 94.9319C232.553 94.9319 233.299 93.7588 233.299 92.3681C233.299 90.9774 232.584 89.8043 231.739 89.8043Z" fill="#231F20"/>
<path d="M211.981 92.3677C211.88 87.548 213.206 82.8095 215.786 78.7716V73.543H224.348C231.198 73.543 236.724 81.9881 236.724 92.4065C236.724 102.825 231.183 111.27 224.348 111.27H215.794V106.01C213.203 101.96 211.874 97.2038 211.981 92.3677Z" fill="white"/>
<path d="M224.356 111.612H215.794C215.693 111.612 215.596 111.571 215.525 111.498C215.453 111.425 215.413 111.326 215.413 111.223V106.08C212.92 101.956 211.6 97.2056 211.6 92.3597C211.6 87.5138 212.92 82.7633 215.413 78.6393V73.5428C215.413 73.4397 215.453 73.3409 215.525 73.2681C215.596 73.1952 215.693 73.1543 215.794 73.1543H224.356C231.389 73.1543 237.112 81.7936 237.112 92.4063C237.112 103.019 231.389 111.612 224.356 111.612ZM216.174 110.835H224.356C230.97 110.835 236.351 102.545 236.351 92.3597C236.351 82.1743 230.97 73.8846 224.356 73.8846H216.174V78.7636C216.175 78.8418 216.151 78.918 216.106 78.9812C213.563 82.9524 212.257 87.6165 212.361 92.3597C212.257 97.1029 213.563 101.767 216.106 105.738C216.151 105.804 216.175 105.883 216.174 105.964V110.835Z" fill="#231F20"/>
<path d="M215.794 111.231C222.629 111.231 228.169 102.786 228.169 92.3675C228.169 81.9494 222.629 73.5039 215.794 73.5039C208.959 73.5039 203.418 81.9494 203.418 92.3675C203.418 102.786 208.959 111.231 215.794 111.231Z" fill="#231F20"/>
<path d="M215.794 111.613C208.761 111.613 203.038 102.974 203.038 92.3614C203.038 81.7487 208.761 73.1094 215.794 73.1094C222.826 73.1094 228.55 81.7487 228.55 92.3614C228.55 102.974 222.826 111.613 215.794 111.613ZM215.794 73.8863C209.18 73.8863 203.799 82.176 203.799 92.3614C203.799 102.547 209.203 110.836 215.794 110.836C222.385 110.836 227.789 102.547 227.789 92.3614C227.789 82.176 222.408 73.8941 215.794 73.8941V73.8863Z" fill="#231F20"/>
<path d="M158.445 63.6999C158.445 63.6999 174.763 61.4391 178.12 68.9907C180.403 74.1805 185.731 103.33 185.731 103.33L195.625 95.3205L209.614 97.4958C209.614 97.4958 191.013 131.991 178.158 126.739C165.303 121.487 159.298 87.9475 159.298 87.9475C158.09 83.9902 157.324 79.9062 157.015 75.7732C156.886 71.6979 157.368 67.6264 158.445 63.6999Z" fill="white"/>
<path d="M180.958 127.679C179.936 127.683 178.923 127.485 177.975 127.096C172.54 124.882 167.669 117.61 163.514 105.506C161.579 99.7919 160.033 93.9486 158.886 88.0174C157.685 84.0425 156.919 79.9438 156.603 75.7965C156.5 71.6702 157.013 67.5519 158.125 63.5834C158.145 63.5114 158.185 63.447 158.24 63.3985C158.296 63.35 158.365 63.3197 158.437 63.3115C159.115 63.2182 175.075 61.105 178.507 68.8276C180.646 73.6367 185.22 98.2261 186.027 102.623L195.396 95.0175C195.437 94.9829 195.485 94.9574 195.536 94.9427C195.587 94.9279 195.64 94.9243 195.693 94.932L209.674 97.1074C209.735 97.1183 209.792 97.1437 209.841 97.1816C209.89 97.2194 209.929 97.2685 209.956 97.3249C209.986 97.3795 210.002 97.441 210.002 97.5036C210.002 97.5662 209.986 97.6277 209.956 97.6823C206.726 103.505 203.07 109.07 199.019 114.332C191.994 123.204 185.951 127.679 180.958 127.679ZM158.742 64.0495C157.709 67.8569 157.242 71.801 157.357 75.7499C157.676 79.8485 158.441 83.8979 159.64 87.8232C159.716 88.2117 165.767 121.269 178.279 126.382C179.13 126.724 180.036 126.898 180.951 126.894C192.291 126.894 206.828 101.645 208.997 97.7911L195.716 95.7322L185.981 103.641C185.93 103.681 185.869 103.706 185.806 103.716C185.742 103.725 185.677 103.718 185.616 103.696C185.553 103.674 185.497 103.635 185.454 103.583C185.411 103.531 185.383 103.468 185.373 103.4C185.319 103.113 180.045 74.2427 177.762 69.1539C174.793 62.4491 160.774 63.8165 158.742 64.0495Z" fill="#231F20"/>
<path d="M181.993 92.3683C181.98 91.6144 182.187 90.8735 182.587 90.2396V89.416H216.966C218.039 89.416 218.899 90.7368 218.899 92.3683C218.899 93.9998 218.039 95.3206 216.966 95.3206H182.564V94.5204C182.166 93.8782 181.967 93.128 181.993 92.3683Z" fill="white"/>
<path d="M216.966 95.7088H182.564C182.463 95.7088 182.367 95.6679 182.295 95.5951C182.224 95.5222 182.184 95.4234 182.184 95.3204V94.6134C181.795 93.9318 181.59 93.157 181.59 92.3681C181.59 91.5792 181.795 90.8044 182.184 90.1228V89.4158C182.184 89.3128 182.224 89.214 182.295 89.1411C182.367 89.0683 182.463 89.0273 182.564 89.0273H216.966C218.267 89.0273 219.249 90.4957 219.249 92.3681C219.249 94.2405 218.267 95.7088 216.966 95.7088ZM182.968 94.9319H216.966C217.811 94.9319 218.488 93.7588 218.488 92.3681C218.488 90.9774 217.78 89.8043 216.966 89.8043H182.968V90.2393C182.969 90.32 182.945 90.3991 182.899 90.4646C182.555 91.0375 182.373 91.6963 182.373 92.3681C182.373 93.0399 182.555 93.6987 182.899 94.2715C182.943 94.338 182.967 94.4165 182.968 94.4968V94.9319Z" fill="#231F20"/>
<path d="M197.703 86.3229C197.576 86.081 197.494 85.8178 197.459 85.5459C197.421 84.5282 198.776 83.9921 199.689 84.3573C200.56 84.878 201.237 85.6785 201.615 86.6336C201.237 86.1477 200.977 85.5783 200.854 84.971C200.802 84.6679 200.854 84.3559 201.001 84.0873C201.148 83.8186 201.381 83.6095 201.66 83.4949C201.941 83.454 202.227 83.4852 202.493 83.5856C202.758 83.6859 202.996 83.8524 203.182 84.0698C203.976 84.7968 204.578 85.7159 204.933 86.7424C204.674 85.9611 204.704 85.11 205.017 84.3495C205.181 83.9752 205.46 83.6654 205.811 83.4665C206.162 83.2676 206.567 83.1903 206.965 83.2463C208.038 83.4793 208.487 84.8001 208.746 85.8567C208.694 85.5124 208.718 85.1606 208.817 84.8272C208.916 84.4937 209.087 84.1872 209.317 83.93C210.116 83.2851 211.281 83.9843 211.95 84.7613C214.5 87.7058 215.862 94.7058 212.354 97.5493C208.845 100.393 202.992 100.082 199.377 97.6348C197.284 96.2208 197.512 94.8068 198.174 92.6003C198.76 90.5895 198.608 88.43 197.748 86.5249C197.786 86.4394 197.733 86.3772 197.703 86.3229Z" fill="white"/>
<path d="M206.158 99.9585C203.703 99.9794 201.293 99.2869 199.209 97.9618C196.926 96.408 197.193 94.7066 197.855 92.5234C198.414 90.6055 198.27 88.5455 197.451 86.7276L197.368 86.5489C197.21 86.2535 197.115 85.9282 197.086 85.5933C197.081 85.3281 197.143 85.066 197.266 84.8321C197.388 84.5982 197.567 84.4002 197.786 84.257C198.087 84.0524 198.432 83.9256 198.791 83.8877C199.15 83.8498 199.514 83.9019 199.849 84.0395C200.097 84.1464 200.327 84.2904 200.534 84.4668C200.572 84.1677 200.692 83.8857 200.881 83.6534C201.069 83.4211 201.318 83.2479 201.599 83.1538C201.943 83.085 202.298 83.1098 202.63 83.2257C202.961 83.3416 203.257 83.5446 203.487 83.8142C203.86 84.1552 204.195 84.5384 204.484 84.9563C204.527 84.6875 204.607 84.4261 204.72 84.1793C204.927 83.7325 205.268 83.3646 205.693 83.1285C206.119 82.8925 206.607 82.8007 207.087 82.8663C207.434 82.9596 207.756 83.1336 208.027 83.3749C208.297 83.6161 208.51 83.9181 208.647 84.257C208.752 84.0092 208.917 83.7926 209.127 83.6277C210.093 82.8508 211.41 83.5345 212.285 84.5056C214.161 86.9608 215.078 90.0393 214.858 93.145C214.825 94.0438 214.611 94.9261 214.229 95.7363C213.846 96.5466 213.304 97.2673 212.635 97.8531C210.771 99.2813 208.488 100.023 206.158 99.9585ZM199.042 84.6144C198.75 84.6175 198.464 84.7065 198.22 84.8708C198.107 84.9389 198.014 85.0354 197.949 85.1511C197.883 85.2668 197.848 85.3977 197.847 85.5312C197.874 85.7637 197.946 85.9884 198.06 86.1916L198.136 86.3625C199.039 88.3546 199.196 90.6154 198.578 92.7177C197.908 94.9629 197.817 96.0817 199.636 97.317C202.901 99.5235 208.617 100.129 212.163 97.2471C212.744 96.7217 213.216 96.0821 213.549 95.3666C213.882 94.6512 214.071 93.8744 214.104 93.0828C214.311 90.1856 213.46 87.3128 211.714 85.0184C211.22 84.4513 210.192 83.7365 209.591 84.2415C209.414 84.4674 209.285 84.7286 209.213 85.0082C209.141 85.2878 209.127 85.5798 209.172 85.8653C209.184 85.9683 209.156 86.072 209.093 86.1536C209.062 86.194 209.023 86.2277 208.979 86.2529C208.936 86.2781 208.887 86.2942 208.837 86.3003C208.736 86.3127 208.635 86.2836 208.555 86.2195C208.475 86.1554 208.423 86.0615 208.411 85.9585C208.198 85.0573 207.81 83.8297 206.889 83.6277C206.577 83.5973 206.263 83.6661 205.99 83.8246C205.718 83.9831 205.5 84.2237 205.367 84.5134C205.097 85.19 205.076 85.9429 205.306 86.6344C205.333 86.7312 205.323 86.8349 205.277 86.9244C205.232 87.0139 205.155 87.0824 205.062 87.1161C204.967 87.1463 204.865 87.1381 204.775 87.0933C204.686 87.0485 204.617 86.9704 204.583 86.8752C204.246 85.9108 203.682 85.0461 202.939 84.358C202.627 84.0706 202.178 83.7443 201.767 83.8686C201.575 83.961 201.419 84.1156 201.323 84.3081C201.226 84.5007 201.195 84.7204 201.234 84.933C201.255 85.1315 201.306 85.3255 201.386 85.5079C201.576 85.8109 201.751 86.1294 201.919 86.4557C201.966 86.5446 201.977 86.6487 201.95 86.7459C201.923 86.8431 201.86 86.9257 201.774 86.9762C201.689 87.0243 201.59 87.0383 201.496 87.0153C201.401 86.9922 201.319 86.934 201.264 86.8519C201.057 86.5435 200.874 86.2187 200.716 85.8808C200.433 85.38 200.012 84.9749 199.506 84.7154C199.358 84.6422 199.198 84.5974 199.034 84.5833L199.042 84.6144Z" fill="#231F20"/>
<path d="M174.307 92.3677C174.206 87.548 175.532 82.8095 178.112 78.7716V73.543H186.675C193.524 73.543 199.05 81.9881 199.05 92.4065C199.05 102.825 193.509 111.27 186.675 111.27H178.12V106.01C175.53 101.96 174.2 97.2038 174.307 92.3677Z" fill="#231F20"/>
<path d="M186.682 111.612H178.119C178.019 111.612 177.922 111.571 177.85 111.498C177.779 111.425 177.739 111.326 177.739 111.223V106.08C175.246 101.956 173.926 97.2056 173.926 92.3597C173.926 87.5138 175.246 82.7633 177.739 78.6393V73.5428C177.739 73.4397 177.779 73.3409 177.85 73.2681C177.922 73.1952 178.019 73.1543 178.119 73.1543H186.682C193.714 73.1543 199.438 81.7936 199.438 92.4063C199.438 103.019 193.714 111.612 186.682 111.612ZM178.5 110.835H186.682C193.296 110.835 198.677 102.545 198.677 92.3597C198.677 82.1743 193.296 73.8846 186.682 73.8846H178.5V78.7636C178.501 78.8418 178.477 78.918 178.432 78.9812C175.889 82.9524 174.583 87.6165 174.687 92.3597C174.583 97.1029 175.889 101.767 178.432 105.738C178.477 105.804 178.501 105.883 178.5 105.964V110.835Z" fill="#231F20"/>
<path d="M178.119 111.231C184.954 111.231 190.495 102.786 190.495 92.3675C190.495 81.9494 184.954 73.5039 178.119 73.5039C171.285 73.5039 165.744 81.9494 165.744 92.3675C165.744 102.786 171.285 111.231 178.119 111.231Z" fill="white"/>
<path d="M178.12 111.613C171.087 111.613 165.364 102.974 165.364 92.3614C165.364 81.7487 171.087 73.1094 178.12 73.1094C185.152 73.1094 190.876 81.7487 190.876 92.3614C190.876 102.974 185.152 111.613 178.12 111.613ZM178.12 73.8863C171.506 73.8863 166.125 82.176 166.125 92.3614C166.125 102.547 171.506 110.836 178.12 110.836C184.733 110.836 190.114 102.547 190.114 92.3614C190.114 82.176 184.733 73.8941 178.12 73.8941V73.8863Z" fill="#231F20"/>
<path d="M178.12 105.809C173.188 105.809 169.177 99.7802 169.177 92.3684C169.177 84.9566 173.188 78.9355 178.12 78.9355C183.052 78.9355 187.063 84.9566 187.063 92.3684C187.063 99.7802 183.052 105.809 178.12 105.809ZM178.12 79.7125C173.606 79.7125 169.938 85.3917 169.938 92.3684C169.938 99.3452 173.606 105.032 178.12 105.032C182.633 105.032 186.301 99.3529 186.301 92.3684C186.301 85.384 182.625 79.7125 178.12 79.7125Z" fill="#D1D3D4"/>
<path d="M164.549 92.3683C164.536 91.6144 164.743 90.8735 165.143 90.2396V89.416H177.404C178.477 89.416 179.345 90.7368 179.345 92.3683C179.345 93.9998 178.477 95.3206 177.404 95.3206H165.143V94.5204C164.736 93.8808 164.529 93.1304 164.549 92.3683Z" fill="#231F20"/>
<path d="M177.404 95.7088H165.143C165.042 95.7068 164.947 95.6653 164.876 95.5929C164.805 95.5204 164.764 95.4228 164.762 95.3204V94.6134C164.373 93.9318 164.168 93.157 164.168 92.3681C164.168 91.5792 164.373 90.8044 164.762 90.1228V89.4158C164.764 89.3134 164.805 89.2158 164.876 89.1433C164.947 89.0709 165.042 89.0293 165.143 89.0273H177.404C178.705 89.0273 179.687 90.4957 179.687 92.3681C179.687 94.2405 178.705 95.7088 177.404 95.7088ZM165.523 94.9319H177.404C178.249 94.9319 178.926 93.7588 178.926 92.3681C178.926 90.9774 178.211 89.8043 177.404 89.8043H165.523V90.2393C165.525 90.32 165.501 90.3991 165.455 90.4646C165.111 91.0375 164.929 91.6963 164.929 92.3681C164.929 93.0399 165.111 93.6987 165.455 94.2715C165.499 94.338 165.523 94.4165 165.523 94.4968V94.9319Z" fill="#231F20"/>
<path d="M165.143 95.3206C166.211 95.3206 167.076 93.9988 167.076 92.3683C167.076 90.7378 166.211 89.416 165.143 89.416C164.075 89.416 163.21 90.7378 163.21 92.3683C163.21 93.9988 164.075 95.3206 165.143 95.3206Z" fill="white"/>
<path d="M165.143 95.7088C163.849 95.7088 162.86 94.2405 162.86 92.3681C162.86 90.4957 163.879 89.0273 165.143 89.0273C166.406 89.0273 167.426 90.4957 167.426 92.3681C167.426 94.2405 166.444 95.7088 165.143 95.7088ZM165.143 89.8043C164.298 89.8043 163.621 90.9774 163.621 92.3681C163.621 93.7588 164.329 94.9319 165.143 94.9319C165.957 94.9319 166.665 93.7588 166.665 92.3681C166.665 90.9774 165.988 89.8043 165.143 89.8043Z" fill="#231F20"/>
<path d="M73.857 158.227L71.8096 179.662H58.0566C58.0566 179.662 56.3974 169.88 54.7991 158.227H73.857Z" fill="#D1D3D4"/>
<path d="M71.8094 180.068H58.0563C57.9664 180.067 57.8797 180.034 57.8114 179.974C57.7431 179.914 57.6978 179.832 57.6834 179.741C57.6834 179.648 56.0014 169.789 54.4259 158.298C54.417 158.243 54.42 158.187 54.4347 158.134C54.4494 158.08 54.4755 158.03 54.511 157.988C54.5466 157.946 54.5908 157.912 54.6405 157.889C54.6903 157.866 54.7443 157.855 54.7988 157.856H73.8263C73.879 157.856 73.9312 157.867 73.9796 157.888C74.0281 157.909 74.0717 157.941 74.1079 157.98C74.1437 158.021 74.1709 158.069 74.1879 158.121C74.205 158.173 74.2114 158.228 74.2068 158.283L72.2052 179.718C72.1938 179.816 72.1469 179.906 72.0737 179.971C72.0005 180.036 71.9062 180.07 71.8094 180.068ZM58.376 179.291H71.4441L73.4153 158.632H55.2403C56.6407 168.763 58.0868 177.527 58.376 179.291Z" fill="#231F20"/>
<path d="M205.854 159.99C204.187 171.761 202.398 183.539 202.398 183.539H186.978L184.977 159.99H205.854Z" fill="#D1D3D4"/>
<path d="M202.399 183.929H186.979C186.883 183.927 186.792 183.89 186.722 183.824C186.651 183.758 186.607 183.668 186.598 183.571L184.596 160.023C184.592 159.969 184.599 159.916 184.616 159.865C184.633 159.814 184.661 159.767 184.697 159.728C184.732 159.689 184.776 159.657 184.824 159.636C184.872 159.614 184.924 159.603 184.977 159.604H205.854C205.909 159.603 205.963 159.615 206.013 159.637C206.063 159.66 206.107 159.694 206.143 159.736C206.178 159.778 206.204 159.828 206.22 159.881C206.236 159.935 206.241 159.991 206.234 160.046C204.583 171.7 202.794 183.478 202.771 183.595C202.76 183.687 202.716 183.773 202.647 183.834C202.579 183.896 202.49 183.93 202.399 183.929ZM187.329 183.152H202.071C202.368 181.186 203.936 170.783 205.412 160.38H185.396L187.329 183.152Z" fill="#231F20"/>
</svg>
