<svg width="358" height="269" viewBox="0 0 358 269" fill="none" xmlns="http://www.w3.org/2000/svg">
<ellipse cx="186.831" cy="134.126" rx="131.64" ry="128.149" fill="#02181D"/>
<ellipse cx="186.831" cy="134.126" rx="131.64" ry="128.149" fill="white"/>
<path d="M190.519 99.4429C187.395 95.0976 179.644 66.8393 173.165 66.5627C166.685 66.2861 160.858 75.4854 164.492 82.8913C168.126 90.2971 177.487 107.589 184.066 112.238C188.747 115.548 194.949 117.306 200.292 119.234C203.872 120.536 207.622 121.625 211.202 123.008C214.406 124.239 216.626 126.63 220.152 124.177C221.87 122.972 223.562 120.313 222.246 118.564C221.674 117.806 219.633 117.19 218.792 116.78C215.212 114.882 211.673 112.949 208.177 110.98C202.798 107.946 194.215 104.573 190.519 99.4429Z" fill="white"/>
<path d="M217.136 125.649C215.711 125.535 214.334 125.085 213.117 124.337C212.464 124.007 211.784 123.668 211.059 123.383C209.018 122.597 206.897 121.901 204.839 121.214C203.299 120.706 201.706 120.179 200.149 119.617C199.164 119.26 198.153 118.912 197.124 118.555C192.488 116.958 187.699 115.308 183.824 112.568C176.19 107.215 165.342 85.5236 164.134 83.0698C163.235 81.1372 162.853 79.0054 163.026 76.8821C163.198 74.7587 163.919 72.716 165.119 70.9528C167.168 67.8209 170.193 66.0275 173.174 66.1613C177.828 66.3576 182.696 79.0903 186.599 89.3603C188.389 93.9288 189.856 97.8815 190.841 99.2467C193.615 103.11 199.236 105.957 204.194 108.464C205.68 109.222 207.076 109.927 208.32 110.623C211.578 112.408 215.042 114.353 218.926 116.423C219.168 116.548 219.526 116.7 219.91 116.86C220.878 117.154 221.765 117.663 222.506 118.35C222.739 118.669 222.904 119.033 222.992 119.418C223.08 119.803 223.088 120.202 223.016 120.59C222.645 122.194 221.688 123.604 220.331 124.543C219.41 125.239 218.292 125.627 217.136 125.649ZM172.878 66.9643C170.247 66.9643 167.616 68.6061 165.799 71.4257C164.673 73.0707 163.995 74.9788 163.83 76.9635C163.665 78.9482 164.02 80.9415 164.859 82.7486C166.067 85.1756 176.825 106.653 184.298 111.935C188.075 114.612 192.81 116.244 197.392 117.824C198.421 118.181 199.442 118.529 200.426 118.886C201.975 119.439 203.559 119.965 205.098 120.483C207.157 121.161 209.296 121.866 211.363 122.66C212.124 122.954 212.822 123.311 213.502 123.65C215.677 124.748 217.404 125.622 219.884 123.882C221.057 123.064 221.893 121.85 222.237 120.465C222.294 120.184 222.292 119.895 222.23 119.615C222.168 119.336 222.049 119.072 221.879 118.841C221.213 118.291 220.448 117.873 219.624 117.61C219.212 117.44 218.827 117.279 218.568 117.137C214.684 115.067 211.202 113.166 207.944 111.337C206.718 110.65 205.322 109.945 203.845 109.196C198.806 106.644 193.105 103.744 190.196 99.7196C189.158 98.2652 187.699 94.4641 185.865 89.6459C182.437 80.7232 177.273 67.1874 173.156 67.0089L172.878 66.9643Z" fill="#231F20"/>
<path d="M229.621 127.317H220.958V216.803H229.621V127.317Z" fill="#231F20"/>
<path d="M229.621 217.25H220.958C220.84 217.247 220.727 217.2 220.644 217.116C220.56 217.033 220.513 216.921 220.51 216.803V127.362C220.51 127.244 220.557 127.13 220.641 127.047C220.725 126.963 220.839 126.916 220.958 126.916H229.621C229.74 126.916 229.854 126.963 229.938 127.047C230.022 127.13 230.069 127.244 230.069 127.362V216.803C230.067 216.921 230.019 217.033 229.935 217.116C229.852 217.2 229.739 217.247 229.621 217.25ZM221.405 216.357H229.174V127.764H221.405V216.357Z" fill="#231F20"/>
<path d="M141.616 137.159H132.487V186.1H141.616V137.159Z" fill="#231F20"/>
<path d="M141.616 186.546H132.46C132.342 186.546 132.228 186.499 132.144 186.415C132.06 186.332 132.013 186.218 132.013 186.1V137.177C132.013 137.058 132.06 136.945 132.144 136.861C132.228 136.777 132.342 136.73 132.46 136.73H141.589C141.708 136.73 141.822 136.777 141.906 136.861C141.99 136.945 142.037 137.058 142.037 137.177V186.118C142.032 186.228 141.987 186.334 141.909 186.413C141.832 186.492 141.727 186.539 141.616 186.546ZM132.935 185.654H141.169V137.605H132.935V185.654Z" fill="#231F20"/>
<path d="M151.765 137.177C151.765 137.177 118.65 134.768 118.65 137.177C118.65 139.586 123 147.768 128.8 148.25C134.599 148.732 148.597 145.493 151.739 142.174C154.88 138.855 151.765 137.177 151.765 137.177Z" fill="#D1D3D4"/>
<path d="M130.026 148.714C129.578 148.714 129.131 148.714 128.791 148.669C122.758 148.169 118.274 139.675 118.274 137.194C118.275 137.093 118.298 136.992 118.342 136.9C118.385 136.807 118.447 136.725 118.525 136.659C120.754 134.589 148.624 136.552 151.792 136.784C151.848 136.788 151.903 136.803 151.953 136.829C152.354 137.057 152.702 137.368 152.973 137.74C153.245 138.112 153.434 138.537 153.528 138.988C153.707 140.085 153.215 141.254 152.061 142.477C148.928 145.778 136.264 148.714 130.026 148.714ZM127.224 136.534C122.588 136.534 119.465 136.757 119.071 137.266C119.071 139.256 123.242 147.393 128.853 147.857C134.707 148.348 148.499 145.046 151.47 141.915C152.437 140.888 152.857 139.952 152.723 139.131C152.654 138.814 152.522 138.513 152.334 138.248C152.147 137.983 151.908 137.758 151.631 137.587C142.788 136.954 133.588 136.534 127.224 136.534Z" fill="#231F20"/>
<path d="M202.342 140.746C202.342 140.746 216.205 147.527 213.932 153.809C211.659 160.091 170.596 190.49 170.596 190.49L159.856 182.201L192.219 151.302L202.342 140.746Z" fill="white"/>
<path d="M170.596 190.865C170.505 190.862 170.417 190.831 170.345 190.776L159.605 182.487C159.56 182.449 159.524 182.402 159.499 182.349C159.474 182.295 159.461 182.237 159.461 182.179C159.461 182.12 159.474 182.062 159.499 182.009C159.524 181.956 159.56 181.909 159.605 181.871L191.968 150.972L202.037 140.425C202.098 140.364 202.176 140.323 202.261 140.309C202.346 140.294 202.434 140.307 202.511 140.345C203.093 140.63 216.679 147.367 214.308 153.916C212.025 160.233 172.511 189.536 170.828 190.785C170.761 190.835 170.68 190.863 170.596 190.865ZM160.527 182.13L170.596 189.937C174.033 187.385 211.444 159.484 213.556 153.639C215.507 148.232 204.328 142.183 202.44 141.21L192.595 151.543L160.527 182.13Z" fill="#231F20"/>
<path d="M161.995 176.481C161.995 176.481 143.567 166.407 123.412 176.481C104.178 186.1 100.983 204.017 107.535 223.111C112.663 238.048 127.842 239.172 127.842 239.172H228.718C228.718 239.172 240.057 236.424 240.057 221.96C240.057 207.496 230.427 205.748 221.96 201.964C213.494 198.181 161.995 176.481 161.995 176.481Z" fill="white"/>
<path d="M228.717 239.556H127.833C127.654 239.556 112.295 238.262 107.14 223.236C99.7565 201.723 105.467 184.993 123.25 176.124C143.074 166.211 161.476 175.741 162.192 176.124C163.382 176.624 213.86 197.878 222.157 201.599C223.275 202.098 224.43 202.571 225.549 203.026C232.897 206.024 240.495 209.12 240.495 221.942C240.495 229.562 237.336 233.943 234.687 236.281C233.011 237.798 231.013 238.917 228.842 239.556H228.717ZM142.305 172.439C135.803 172.425 129.39 173.935 123.581 176.847C106.245 185.511 100.678 201.893 107.919 222.977C112.895 237.477 127.716 238.735 127.868 238.744H228.663C230.696 238.112 232.567 237.05 234.15 235.63C237.801 232.4 239.654 227.796 239.654 221.933C239.654 209.665 232.637 206.765 225.209 203.776C224.09 203.312 222.926 202.883 221.799 202.339C213.439 198.592 162.335 177.079 161.834 176.856C155.741 173.935 149.065 172.425 142.305 172.439Z" fill="#231F20"/>
<path d="M169.898 234.068C150.297 234.068 132.012 233.649 127.537 231.989C118.068 228.5 108.742 212.921 115.169 195.486C117.907 188.036 125.658 175.901 146.932 178.283C161.852 179.952 221.369 208.103 229.72 212.841C232.942 214.626 234.651 220.497 233.38 225.333C232.557 228.429 229.854 233.622 220.958 233.622C217.664 233.622 212.41 233.693 205.743 233.774C195.441 233.899 182.401 234.068 169.898 234.068ZM141.92 178.89C132.97 178.89 121.147 181.79 116.01 195.79C109.816 212.743 118.695 227.787 127.842 231.159C135.002 233.836 179.304 233.22 205.76 232.864C212.401 232.783 217.655 232.712 220.975 232.712C229.272 232.712 231.778 227.929 232.53 225.083C233.801 220.291 231.868 215.072 229.29 213.617C221.235 209.04 161.27 180.791 146.852 179.167C145.214 178.985 143.568 178.893 141.92 178.89Z" fill="#D1D3D4"/>
<path d="M174.874 229.991C184.899 229.991 193.025 221.89 193.025 211.896C193.025 201.902 184.899 193.801 174.874 193.801C164.85 193.801 156.724 201.902 156.724 211.896C156.724 221.89 164.85 229.991 174.874 229.991Z" fill="#231F20"/>
<path d="M174.874 230.429C171.195 230.429 167.599 229.341 164.541 227.303C161.482 225.265 159.098 222.369 157.691 218.981C156.283 215.592 155.916 211.864 156.634 208.267C157.352 204.67 159.124 201.366 161.726 198.773C164.328 196.181 167.643 194.415 171.251 193.701C174.859 192.986 178.599 193.355 181.997 194.76C185.396 196.164 188.3 198.542 190.342 201.593C192.385 204.643 193.474 208.229 193.472 211.896C193.467 216.811 191.506 221.524 188.019 224.998C184.532 228.473 179.804 230.426 174.874 230.429ZM174.874 194.247C171.373 194.247 167.95 195.282 165.039 197.221C162.127 199.161 159.858 201.917 158.518 205.142C157.179 208.367 156.828 211.916 157.511 215.339C158.194 218.763 159.88 221.908 162.356 224.376C164.832 226.844 167.986 228.525 171.42 229.206C174.854 229.887 178.414 229.538 181.649 228.202C184.883 226.866 187.648 224.604 189.594 221.701C191.539 218.799 192.577 215.387 192.577 211.896C192.563 207.223 190.692 202.746 187.374 199.444C184.056 196.143 179.561 194.287 174.874 194.283V194.247Z" fill="#231F20"/>
<path d="M209.43 130.931C208.79 130.928 208.172 130.697 207.688 130.28C207.204 129.863 206.885 129.287 206.789 128.656C206.693 128.026 206.826 127.381 207.164 126.84C207.502 126.298 208.023 125.895 208.633 125.702L245.23 114.344L256.865 89.1459C257.003 88.8138 257.207 88.5128 257.465 88.261C257.723 88.0093 258.029 87.8119 258.365 87.6806C258.701 87.5494 259.06 87.487 259.42 87.4972C259.781 87.5073 260.136 87.5899 260.464 87.7399C260.792 87.8898 261.086 88.1042 261.329 88.3701C261.572 88.636 261.759 88.948 261.878 89.2874C261.998 89.6269 262.047 89.9868 262.024 90.3458C262 90.7047 261.905 91.0553 261.743 91.3766L249.687 117.663C249.527 118.004 249.298 118.308 249.015 118.557C248.731 118.805 248.399 118.993 248.04 119.108L210.298 130.779C210.019 130.877 209.726 130.928 209.43 130.931Z" fill="#231F20"/>
<path d="M158.988 117.547L207.38 139.229L187.306 156.807C187.306 156.807 145.885 132.715 146.905 127.362C147.926 122.008 158.988 117.547 158.988 117.547Z" fill="#231F20"/>
<path d="M187.305 157.235C187.226 157.235 187.149 157.214 187.082 157.172C182.812 154.692 145.428 132.742 146.467 127.308C147.505 121.874 158.352 117.305 158.818 117.109C158.872 117.085 158.932 117.072 158.992 117.072C159.052 117.072 159.112 117.085 159.167 117.109L207.568 138.782C207.636 138.816 207.695 138.865 207.74 138.925C207.785 138.986 207.815 139.056 207.828 139.13C207.836 139.205 207.826 139.28 207.8 139.349C207.774 139.419 207.731 139.482 207.676 139.532L187.601 157.119C187.52 157.192 187.415 157.233 187.305 157.235ZM158.979 117.975C157.573 118.59 148.239 122.82 147.344 127.442C146.654 131.011 171.339 146.92 187.252 156.209L206.566 139.255L158.979 117.975Z" fill="#231F20"/>
<path d="M141.562 105.76C141.562 105.76 126.15 121.348 125.452 131.502C124.056 152.916 175.241 170.101 175.241 170.101L194.036 160.974L163.535 120.643L141.562 105.76Z" fill="#231F20"/>
<path d="M175.277 170.547H175.133C166.351 167.456 157.827 163.676 149.644 159.242C132.728 149.9 124.45 140.558 125.04 131.484C125.703 121.285 140.613 106.108 141.24 105.465C141.313 105.389 141.41 105.341 141.515 105.33C141.62 105.318 141.725 105.344 141.813 105.403L163.847 120.286C163.892 120.312 163.929 120.349 163.955 120.393L194.456 160.724C194.497 160.776 194.524 160.837 194.536 160.903C194.549 160.968 194.546 161.035 194.528 161.098C194.515 161.163 194.487 161.224 194.444 161.276C194.402 161.327 194.348 161.367 194.286 161.393L175.491 170.521C175.424 170.549 175.349 170.559 175.277 170.547ZM141.625 106.304C139.611 108.401 126.526 122.365 125.935 131.493C124.611 151.712 171.983 168.46 175.241 169.584L193.409 160.777L163.284 120.928L141.625 106.304Z" fill="#231F20"/>
<path d="M163.928 29.9257C162.665 31.0813 161.625 32.4571 160.858 33.9855C159.326 36.7118 157.986 39.5412 156.849 42.4532C155.954 44.7642 155.059 47.2893 152.937 48.6099C150.414 50.207 146.896 49.3683 144.712 47.3428C147.201 52.9909 153.797 56.2656 159.927 55.6767C166.058 55.0878 171.643 51.1528 175.035 45.9866C176.343 44.118 177.223 41.9858 177.613 39.7407C178.731 32.1921 171.061 24.0278 163.928 29.9257Z" fill="white"/>
<path d="M158.522 56.185C152.409 56.185 146.583 52.7051 144.301 47.521C144.257 47.427 144.249 47.3207 144.277 47.2211C144.305 47.1214 144.367 47.0348 144.453 46.9767C144.533 46.9122 144.632 46.8771 144.735 46.8771C144.838 46.8771 144.937 46.9122 145.017 46.9767C146.896 48.7613 150.235 49.7517 152.705 48.1991C154.575 47.0213 155.461 44.7639 156.285 42.5778L156.41 42.2566C157.562 39.3244 158.913 36.4744 160.456 33.7265C161.247 32.1536 162.321 30.7383 163.624 29.5507C166.506 27.1683 169.737 26.7668 172.708 28.4175C176.396 30.4786 178.705 35.3594 178.078 39.7761C177.687 42.0977 176.779 44.3022 175.42 46.2272C171.715 51.8664 165.942 55.5604 159.981 56.1225C159.516 56.1671 159.015 56.185 158.522 56.185ZM145.992 48.8416C147.526 51.0419 149.622 52.794 152.062 53.9171C154.502 55.0402 157.199 55.4935 159.874 55.2302C165.566 54.6949 171.097 51.1526 174.65 45.7365C175.925 43.9302 176.781 41.8637 177.156 39.6869C177.747 35.6181 175.626 31.1211 172.243 29.2295C169.611 27.7661 166.747 28.132 164.188 30.2734C162.969 31.392 161.966 32.7224 161.225 34.1994C159.711 36.9035 158.386 39.709 157.26 42.5957L157.144 42.9169C156.249 45.1297 155.309 47.637 153.179 48.9754C152.086 49.5945 150.846 49.9088 149.59 49.8853C148.333 49.8617 147.106 49.5012 146.037 48.8416H145.992Z" fill="#231F20"/>
<path d="M174.229 30.6757C172.726 31.3096 171.485 32.4366 170.712 33.87C170.119 34.7805 169.808 35.8449 169.817 36.9305C169.882 37.5868 170.098 38.2192 170.449 38.7781C170.8 39.337 171.276 39.8071 171.84 40.1516C172.322 40.4969 172.915 40.6526 173.504 40.5888C173.982 40.4646 174.418 40.215 174.766 39.8661C177.362 37.5908 181.559 27.9186 174.229 30.6757Z" fill="#231F20"/>
<path d="M173.192 41.061C172.614 41.0421 172.054 40.8561 171.581 40.5257C170.962 40.1409 170.441 39.6184 170.059 38.9991C169.677 38.3798 169.444 37.6807 169.379 36.9566C169.363 35.7926 169.693 34.65 170.328 33.673C171.159 32.1593 172.477 30.9682 174.069 30.2913C176.27 29.4615 177.738 29.6221 178.418 30.7553C179.779 33.0127 176.951 38.5716 175.035 40.2401C174.628 40.6443 174.117 40.9284 173.559 41.061C173.437 41.0747 173.314 41.0747 173.192 41.061ZM176.432 30.6304C175.73 30.6669 175.039 30.8239 174.391 31.0944C172.986 31.6951 171.825 32.7515 171.097 34.0924C170.55 34.9274 170.263 35.9056 170.274 36.903C170.33 37.487 170.521 38.0501 170.832 38.5485C171.142 39.0468 171.564 39.467 172.064 39.7762C172.453 40.055 172.929 40.1878 173.406 40.1509C173.804 40.041 174.165 39.8287 174.454 39.5352C176.288 37.9381 178.669 32.8611 177.658 31.1836C177.522 30.9899 177.337 30.8362 177.121 30.7388C176.905 30.6415 176.667 30.604 176.432 30.6304Z" fill="#231F20"/>
<path d="M178.579 61.5653C177.084 61.8954 175.491 61.5653 173.63 59.7807C172.142 58.3116 171.043 56.4963 170.435 54.4985C169.189 50.6668 169.041 46.5646 170.007 42.6536C170.973 38.7426 173.015 35.178 175.903 32.3612C181.837 26.731 193.105 25.1517 198.18 32.7984C199.031 34.1035 199.586 35.578 199.807 37.119C200.028 38.66 199.91 40.2305 199.459 41.7211C200.042 41.9106 200.558 42.2641 200.944 42.739C201.33 43.214 201.57 43.7902 201.634 44.398C202.082 47.5298 200.578 49.3768 198.001 50.7955C193.785 53.1333 189.319 55.0249 185.193 57.55C182.795 59.0669 180.79 61.0745 178.579 61.5653Z" fill="white"/>
<path d="M177.604 62.1191C175.977 62.0346 174.445 61.3284 173.326 60.1472C171.78 58.6296 170.641 56.7487 170.014 54.6776C168.759 50.7638 168.616 46.5796 169.602 42.5898C170.588 38.6 172.664 34.9607 175.599 32.0763C177.47 30.3422 179.684 29.0189 182.1 28.192C184.516 27.3651 187.079 27.053 189.624 27.2759C191.425 27.4357 193.165 28.0005 194.716 28.9277C196.266 29.855 197.585 31.1207 198.574 32.6295C199.424 33.9198 199.992 35.3737 200.242 36.8971C200.492 38.4204 200.417 39.9791 200.024 41.4719C200.588 41.7507 201.073 42.1665 201.435 42.681C201.796 43.1955 202.022 43.7922 202.091 44.4164C202.664 48.3424 200.167 50.2073 198.243 51.2691C196.497 52.2327 194.663 53.1339 192.935 54.0083C190.438 55.2486 187.861 56.5335 185.453 58.0057C184.666 58.4875 183.923 59.0318 183.198 59.5583C181.886 60.6728 180.365 61.516 178.723 62.0388L178.624 61.6016L178.723 62.0388C178.354 62.1084 177.979 62.1354 177.604 62.1191ZM187.95 28.0789C183.609 28.1285 179.441 29.7817 176.252 32.7188C173.438 35.4851 171.446 38.9742 170.498 42.7996C169.551 46.625 169.684 50.6373 170.882 54.392C171.466 56.3197 172.525 58.0712 173.961 59.4869C175.545 60.9502 176.986 61.4677 178.508 61.1287C180.034 60.6242 181.45 59.8338 182.679 58.7998C183.413 58.2645 184.182 57.7113 184.988 57.2116C187.431 55.7215 190.035 54.4188 192.55 53.1696C194.287 52.2773 196.086 51.3851 197.813 50.4928C200.579 48.9581 201.599 47.1825 201.214 44.5503C201.17 44.0291 200.978 43.5311 200.661 43.1142C200.344 42.6972 199.915 42.3784 199.424 42.1947C199.365 42.1816 199.309 42.1567 199.26 42.1214C199.21 42.0861 199.169 42.0412 199.138 41.9895C199.114 41.933 199.101 41.8723 199.101 41.811C199.101 41.7497 199.114 41.689 199.138 41.6325C199.56 40.1973 199.659 38.6865 199.427 37.2086C199.195 35.7307 198.638 34.3224 197.795 33.0846C196.872 31.6977 195.648 30.5356 194.213 29.6845C192.779 28.8334 191.17 28.3152 189.507 28.1682C188.99 28.1092 188.471 28.0794 187.95 28.0789Z" fill="#231F20"/>
<path d="M194.931 50.5645C194.931 50.5645 196.453 57.2743 195.289 58.1041C194.126 58.934 191.969 57.2743 191.969 57.2743" fill="white"/>
<path d="M194.492 58.7816C193.47 58.6631 192.5 58.2647 191.691 57.6306C191.597 57.5583 191.536 57.452 191.521 57.3349C191.506 57.2178 191.538 57.0996 191.61 57.006C191.683 56.9133 191.789 56.8522 191.906 56.8356C192.022 56.8189 192.141 56.848 192.237 56.9168C192.729 57.3005 194.304 58.2552 195.029 57.7377C195.522 57.3897 195.271 54.0794 194.501 50.662C194.488 50.6045 194.486 50.5451 194.496 50.487C194.506 50.4289 194.528 50.3734 194.559 50.3236C194.591 50.2738 194.632 50.2308 194.681 50.197C194.729 50.1632 194.784 50.1392 194.841 50.1266C194.956 50.1027 195.076 50.1248 195.175 50.1883C195.274 50.2517 195.344 50.3513 195.369 50.4657C195.844 52.5625 196.819 57.6038 195.548 58.4961C195.236 58.7023 194.866 58.8024 194.492 58.7816Z" fill="#231F20"/>
<path d="M196.739 43.4879C196.962 44.0267 197.145 44.5815 197.285 45.1476C197.338 45.7412 197.338 46.3385 197.285 46.9321C197.052 48.7166 195.96 50.412 195.316 52.0716C193.931 55.6407 192.467 59.1592 190.921 62.6271C189.937 64.84 184.057 62.6272 183.278 61.601C182.088 65.7947 181.184 76.502 175.984 77.7065C174.931 77.8784 173.851 77.6594 172.95 77.0909C166.685 73.6021 169.182 67.8826 170.891 62.8145C172.18 58.9956 173.352 55.1321 174.579 51.2864C175.14 51.4417 175.716 51.5404 176.297 51.5808C177.907 51.5696 179.484 51.1257 180.861 50.296C184.066 48.6363 186.921 46.7269 189.122 43.8359C189.042 44.8085 188.46 46.6376 189.597 47.1373C190.492 47.5121 192.613 46.3967 193.427 46.0577C194.79 45.5582 195.944 44.6151 196.703 43.3809C196.703 43.3809 196.721 43.4879 196.739 43.4879Z" fill="white"/>
<path d="M175.304 78.2333C174.397 78.2032 173.512 77.9421 172.735 77.4748C166.551 74.0307 168.457 68.5521 170.14 63.6536L170.462 62.7077C171.357 60.1648 172.144 57.5593 172.932 55.0431C173.335 53.7583 173.746 52.4734 174.158 51.1885C174.195 51.0762 174.275 50.983 174.381 50.9295C174.487 50.8759 174.609 50.8664 174.722 50.903L174.829 50.9565C175.116 51.0279 176.136 51.1528 176.324 51.1707C177.852 51.1516 179.347 50.7265 180.656 49.9393C183.808 48.4714 186.581 46.3045 188.765 43.6042C188.823 43.5262 188.904 43.4691 188.998 43.4417C189.091 43.4143 189.191 43.4181 189.282 43.4524C189.373 43.4867 189.451 43.5497 189.503 43.6319C189.555 43.714 189.578 43.8108 189.57 43.9076C189.57 44.1039 189.516 44.3448 189.481 44.5946C189.31 45.6386 189.221 46.5219 189.776 46.7629C190.331 47.0038 192.04 46.2275 192.765 45.8706L193.257 45.6564C194.522 45.2079 195.598 44.3464 196.309 43.2116C196.35 43.1419 196.407 43.0833 196.476 43.0412C196.544 42.9991 196.623 42.9749 196.703 42.9707C196.783 42.9723 196.862 42.9935 196.932 43.0324C197.003 43.0712 197.062 43.1267 197.106 43.1938C197.372 43.7908 197.579 44.4124 197.723 45.0497C197.778 45.6761 197.778 46.306 197.723 46.9324C197.486 48.2109 197.051 49.4449 196.435 50.5907C196.175 51.135 195.933 51.6525 195.728 52.17C194.349 55.7391 192.873 59.3082 191.324 62.7434C191.156 63.1179 190.884 63.4364 190.54 63.661C190.195 63.8856 189.794 64.0069 189.382 64.0105C187.317 64.0568 185.283 63.5017 183.529 62.4133C183.35 63.145 183.171 64.0194 182.974 64.983C181.927 70.1136 180.495 77.1447 176.091 78.1708C175.832 78.2184 175.568 78.2393 175.304 78.2333ZM174.874 51.8756C174.507 53.0177 174.149 54.1687 173.791 55.3108C172.995 57.8359 172.18 60.4414 171.312 62.9933L170.945 63.948C169.307 68.7038 167.598 73.6113 173.138 76.6986C173.937 77.1994 174.888 77.4017 175.823 77.2696C179.671 76.3773 181.094 69.3998 182.034 64.7778C182.303 63.4751 182.535 62.3419 182.777 61.4675C182.801 61.386 182.847 61.3127 182.91 61.256C182.973 61.1992 183.051 61.1612 183.135 61.1463C183.218 61.131 183.303 61.1398 183.381 61.1714C183.458 61.203 183.525 61.2562 183.574 61.3247C184.003 61.9047 187.207 63.3145 189.221 63.1093C189.466 63.1159 189.709 63.0575 189.925 62.9399C190.14 62.8223 190.32 62.6498 190.447 62.4401C191.987 58.978 193.463 55.4268 194.833 51.9023C195.047 51.3491 195.307 50.7959 195.567 50.2606C196.136 49.1963 196.543 48.0536 196.775 46.8699C196.829 46.3061 196.829 45.7384 196.775 45.1746C196.775 45.0854 196.658 44.7374 196.542 44.3983C195.735 45.3417 194.705 46.0688 193.544 46.513L193.078 46.7182C191.602 47.3874 190.205 47.9585 189.355 47.6105C188.505 47.2625 188.344 46.281 188.46 45.3977C186.335 47.6145 183.824 49.4285 181.05 50.7513C179.619 51.6067 177.983 52.06 176.315 52.0629C175.831 52.0368 175.349 51.9742 174.874 51.8756Z" fill="#231F20"/>
<path d="M191.843 59.9242C191.843 59.9242 188.424 60.5756 188.04 57.1582L191.843 59.9242Z" fill="white"/>
<path d="M191.199 60.4417C190.389 60.4614 189.594 60.2274 188.925 59.7725C188.536 59.4681 188.216 59.0849 187.986 58.6481C187.756 58.2113 187.622 57.7308 187.592 57.2385C187.579 57.1214 187.614 57.0042 187.687 56.9122C187.761 56.8203 187.868 56.7612 187.986 56.7477C188.045 56.7402 188.104 56.7445 188.161 56.7603C188.219 56.776 188.272 56.8029 188.319 56.8395C188.365 56.876 188.404 56.9214 188.433 56.9731C188.462 57.0247 188.48 57.0816 188.487 57.1403C188.506 57.5093 188.602 57.8702 188.769 58.2003C188.935 58.5305 189.168 58.8227 189.453 59.0587C190.142 59.4864 190.963 59.6483 191.763 59.5138C191.881 59.4925 192.004 59.519 192.103 59.5876C192.202 59.6562 192.269 59.7613 192.291 59.8796C192.312 59.9979 192.285 60.1198 192.217 60.2186C192.148 60.3173 192.042 60.3847 191.924 60.406C191.684 60.4398 191.441 60.4518 191.199 60.4417Z" fill="#231F20"/>
<path d="M183.278 61.5837C183.278 61.5837 180.316 60.3077 179.698 57.6934C179.698 57.6934 178.463 61.3338 182.526 64.662L183.278 61.5837Z" fill="#231F20"/>
<path d="M182.526 65.1082C182.422 65.1082 182.322 65.0737 182.24 65.01C177.988 61.5213 179.215 57.7113 179.268 57.5507C179.295 57.4557 179.355 57.3732 179.437 57.3177C179.519 57.2622 179.617 57.2373 179.716 57.2473C179.812 57.2507 179.905 57.2858 179.979 57.3471C180.054 57.4084 180.106 57.4925 180.128 57.5863C180.691 59.9509 183.43 61.1554 183.457 61.1554C183.553 61.1984 183.631 61.2739 183.677 61.3686C183.723 61.4633 183.734 61.5711 183.708 61.6729L182.956 64.7513C182.938 64.8255 182.902 64.894 182.85 64.9503C182.798 65.0065 182.733 65.0486 182.66 65.0725L182.526 65.1082ZM179.966 59.4066C180.123 61.135 180.948 62.735 182.267 63.8679L182.759 61.8514C181.643 61.2737 180.685 60.4347 179.966 59.4066Z" fill="#231F20"/>
<path d="M194.868 48.6122C195.185 47.9278 195.224 47.2724 194.955 47.1483C194.685 47.0243 194.21 47.4786 193.893 48.1631C193.576 48.8475 193.537 49.5029 193.806 49.6269C194.075 49.7509 194.55 49.2966 194.868 48.6122Z" fill="#231F20"/>
<path d="M186.956 49.6271C187.192 48.6985 187.167 47.7231 186.885 46.8075C186.769 46.072 186.539 45.3587 186.205 44.6929C186.036 44.3629 185.795 44.0742 185.501 43.8475C185.208 43.6208 184.867 43.4615 184.504 43.3812C184.182 43.3483 183.856 43.3829 183.548 43.4827C183.239 43.5826 182.956 43.7456 182.714 43.9612C182.226 44.4031 181.843 44.949 181.595 45.5584C181.027 46.8751 180.816 48.3179 180.984 49.7417C181.152 51.1655 181.693 52.52 182.553 53.6691L182.437 53.3836" fill="white"/>
<path d="M182.517 54.1242C182.448 54.1236 182.38 54.1071 182.317 54.0762C182.255 54.0453 182.201 54.0007 182.159 53.9458C181.256 52.7278 180.689 51.2956 180.513 49.7914C180.337 48.2872 180.559 46.7633 181.157 45.3711C181.426 44.6898 181.849 44.0793 182.392 43.5865C182.686 43.3248 183.034 43.1296 183.41 43.0141C183.787 42.8986 184.185 42.8656 184.576 42.9173C185.007 43.0051 185.413 43.1886 185.763 43.4543C186.113 43.72 186.399 44.0611 186.598 44.452C186.948 45.1562 187.192 45.9078 187.323 46.6827C187.629 47.6807 187.647 48.7441 187.377 49.7521C187.337 49.8633 187.254 49.954 187.146 50.0042C187.039 50.0544 186.916 50.06 186.804 50.0198C186.693 49.9795 186.602 49.8968 186.551 49.7897C186.501 49.6826 186.495 49.56 186.536 49.4487C186.739 48.5968 186.708 47.7059 186.446 46.8701C186.338 46.1822 186.127 45.5145 185.82 44.8892C185.683 44.617 185.488 44.3781 185.248 44.1899C185.009 44.0017 184.73 43.8688 184.432 43.8007C184.169 43.7705 183.903 43.7971 183.651 43.8787C183.4 43.9603 183.168 44.095 182.974 44.2736C182.534 44.6703 182.192 45.1616 181.971 45.7101C181.472 46.8788 181.267 48.1512 181.373 49.4168C181.479 50.6825 181.893 51.9032 182.58 52.9732C182.633 52.9896 182.682 53.0184 182.723 53.0571C182.763 53.0959 182.794 53.1435 182.812 53.1963L182.929 53.4818C182.971 53.5809 182.976 53.6922 182.941 53.7943C182.906 53.8964 182.835 53.9821 182.741 54.035C182.675 54.0828 182.598 54.1134 182.517 54.1242Z" fill="#231F20"/>
<path d="M187.055 86.9418C188.048 72.5406 167.079 48.4403 153.045 65.6701C147.272 72.8083 147.675 95.6593 132.46 116.53C147.854 108.758 165.942 120.554 166.031 120.616C166.926 121.196 171.33 114.165 171.697 113.576C173.918 110.003 175.875 106.272 177.55 102.414C178.223 100.707 179.003 99.0439 179.886 97.435C179.886 97.435 186.616 93.1521 187.055 86.9418Z" fill="#7000FF"/>
<path d="M166.184 121.116C166.05 121.114 165.919 121.074 165.808 121C162.372 118.906 158.685 117.251 154.835 116.074C149.035 114.29 140.515 113.014 132.693 116.966C132.603 117.014 132.5 117.03 132.4 117.01C132.301 116.991 132.211 116.937 132.147 116.859C132.084 116.781 132.05 116.683 132.05 116.583C132.05 116.482 132.084 116.385 132.147 116.306C141.374 103.591 144.874 89.9217 147.424 79.9461C149.098 73.4058 150.423 68.2396 152.723 65.4111C158.701 58.0587 165.306 58.6209 169.799 60.3876C179.403 64.153 188.174 77.3407 187.511 86.9862C187.091 93.0268 181.112 97.2294 180.271 97.7916C179.556 99.0743 178.922 100.4 178.373 101.762L178.006 102.654C176.326 106.54 174.358 110.295 172.117 113.888C170.82 115.976 167.642 120.857 166.371 121.142L166.184 121.116ZM144.095 113.451C155.229 113.451 165.047 119.492 166.184 120.214C166.855 119.92 169.065 116.975 171.303 113.371C173.545 109.818 175.519 106.105 177.21 102.262L177.577 101.37C178.151 99.939 178.818 98.547 179.573 97.2027C179.611 97.1466 179.66 97.0982 179.716 97.0599C179.788 97.0599 186.232 92.7949 186.643 86.888C187.288 77.5549 178.794 64.8132 169.504 61.1728C165.289 59.5131 159.086 58.9956 153.448 65.9286C151.273 68.6054 149.966 73.6913 148.319 80.1157C145.84 89.8147 142.475 102.967 133.865 115.423C137.108 114.09 140.587 113.419 144.095 113.451Z" fill="#9747FF"/>
<path d="M167.535 66.5085C160.527 60.5124 157.198 72.7544 156.849 77.3942C156.339 85.0916 157.78 92.793 161.037 99.7902C161.438 100.863 162.125 101.807 163.024 102.521C164.599 103.6 166.864 103.172 168.331 101.949C169.735 100.641 170.735 98.96 171.213 97.1045C172.86 91.9471 172.905 86.3972 172.636 81.0436C172.377 75.7435 171.553 69.9437 167.535 66.5085Z" fill="#231F20"/>
<path d="M165.101 103.583C164.273 103.594 163.462 103.354 162.774 102.896C161.809 102.134 161.069 101.126 160.635 99.978C157.333 92.9273 155.877 85.158 156.401 77.3946C156.661 73.9772 158.478 66.4018 162.416 64.7779C164.089 64.0819 165.915 64.5637 167.83 66.1966C171.983 69.7657 172.816 75.6814 173.084 81.0172C173.335 86.0318 173.353 91.8762 171.634 97.2655C171.127 99.2015 170.081 100.955 168.618 102.325C167.621 103.127 166.382 103.571 165.101 103.583ZM163.937 65.34C163.531 65.3407 163.129 65.4226 162.756 65.5809C159.435 66.9461 157.556 73.9772 157.296 77.4303C156.779 85.0515 158.204 92.6792 161.44 99.6032C161.817 100.599 162.45 101.479 163.275 102.155C164.752 103.163 166.792 102.646 168.045 101.611C169.374 100.349 170.323 98.7419 170.784 96.971C172.458 91.7156 172.44 85.9693 172.189 81.0351C171.938 75.8956 171.142 70.1851 167.249 66.848C166.361 65.9666 165.186 65.4316 163.937 65.34Z" fill="#231F20"/>
<path d="M183.287 99.4429C180.163 95.0976 172.413 66.8393 165.924 66.5627C159.435 66.2861 153.618 75.4854 157.26 82.8913C160.903 90.2971 170.256 107.589 176.825 112.238C183.394 116.887 217.377 127.362 217.377 127.362L222.13 127.068C222.13 127.068 219.087 129.289 220.957 129.45C222.828 129.611 232.888 127.558 231.975 123.632C231.062 119.706 226.077 117.654 225.012 117.137C223.947 116.619 216.321 119.323 216.321 119.323C216.321 119.323 186.41 103.788 183.287 99.4429Z" fill="white"/>
<path d="M221.154 129.816H220.922C220.259 129.754 220.027 129.45 219.964 129.209C219.821 128.701 220.313 128.058 220.859 127.505L217.368 127.728H217.225C215.829 127.3 183.099 117.217 176.556 112.56C168.922 107.206 158.066 85.5148 156.866 83.061C155.967 81.1284 155.586 78.9967 155.758 76.8733C155.931 74.7499 156.652 72.7072 157.851 70.944C159.892 67.8121 162.908 66.0187 165.906 66.1525C170.56 66.3488 175.429 79.0815 179.331 89.3516C181.121 93.9289 182.598 97.8817 183.573 99.2468C186.491 103.298 214.003 117.645 216.303 118.877C218.308 118.172 224.045 116.2 225.146 116.771L225.423 116.905C226.909 117.592 231.429 119.698 232.324 123.534C232.422 123.979 232.408 124.441 232.283 124.878C232.158 125.316 231.926 125.716 231.608 126.042C229.379 128.62 222.98 129.816 221.154 129.816ZM220.769 128.968H220.993C222.533 129.093 229.048 127.782 231.035 125.399C231.266 125.169 231.436 124.886 231.529 124.575C231.623 124.263 231.638 123.933 231.572 123.615C230.767 120.162 226.515 118.181 225.119 117.529L224.833 117.396C224.224 117.128 220.018 118.341 216.456 119.6C216.405 119.622 216.35 119.633 216.294 119.633C216.239 119.633 216.184 119.622 216.133 119.6C214.907 118.966 186.097 104.02 182.956 99.6484C181.909 98.194 180.459 94.3929 178.615 89.5746C175.196 80.6519 170.023 67.1162 165.906 66.9377C163.221 66.8395 160.446 68.4724 158.558 71.3991C157.443 73.0478 156.774 74.9561 156.617 76.9387C156.46 78.9212 156.821 80.9104 157.663 82.7131C158.862 85.14 169.629 106.617 177.093 111.899C183.358 116.361 215.713 126.363 217.467 126.907L222.139 126.613C222.226 126.614 222.311 126.639 222.384 126.687C222.457 126.734 222.515 126.801 222.55 126.88C222.578 126.963 222.579 127.052 222.553 127.135C222.527 127.218 222.476 127.291 222.407 127.344C221.76 127.765 221.211 128.319 220.796 128.968H220.769Z" fill="#231F20"/>
<path d="M175.277 170.102C175.277 170.102 170.336 196.228 174.874 217.838L186.088 219.266C186.088 219.266 194.662 170.985 194.143 161.019L175.277 170.102Z" fill="white"/>
<path d="M186.089 219.623L174.865 218.24C174.781 218.229 174.702 218.192 174.64 218.134C174.577 218.077 174.534 218.001 174.516 217.919C170.041 196.504 174.865 170.289 174.919 170.03C174.931 169.968 174.958 169.908 174.997 169.857C175.035 169.806 175.085 169.765 175.143 169.736L193.938 160.608C193.997 160.577 194.063 160.562 194.13 160.562C194.197 160.562 194.263 160.577 194.323 160.608C194.38 160.643 194.428 160.691 194.462 160.749C194.497 160.806 194.516 160.871 194.52 160.938C195.092 170.833 186.858 217.303 186.509 219.275C186.496 219.375 186.445 219.466 186.367 219.531C186.289 219.595 186.19 219.628 186.089 219.623ZM175.214 217.481L185.757 218.775C186.545 214.314 193.911 172.127 193.714 161.625L175.644 170.387C175.205 172.868 171.053 197.236 175.214 217.481Z" fill="#231F20"/>
<path d="M195.315 231.157L174.716 229.111C173.732 229.013 172.855 229.729 172.757 230.709C172.659 231.69 173.377 232.564 174.361 232.662L194.96 234.708C195.944 234.806 196.821 234.09 196.919 233.109C197.017 232.129 196.299 231.254 195.315 231.157Z" fill="white"/>
<path d="M195.11 235.112H194.886L174.301 233.06C173.722 233.003 173.189 232.719 172.82 232.271C172.451 231.823 172.275 231.246 172.332 230.669C172.389 230.091 172.674 229.56 173.124 229.192C173.574 228.824 174.152 228.649 174.731 228.706L195.316 230.749C195.604 230.777 195.883 230.861 196.138 230.997C196.393 231.133 196.618 231.318 196.801 231.541C196.984 231.764 197.121 232.021 197.204 232.297C197.287 232.573 197.315 232.863 197.285 233.149C197.228 233.688 196.973 234.187 196.571 234.551C196.168 234.915 195.645 235.118 195.101 235.121L195.11 235.112ZM174.525 229.5C174.199 229.494 173.882 229.605 173.63 229.812C173.358 230.036 173.182 230.356 173.138 230.705C173.119 230.884 173.137 231.065 173.189 231.238C173.241 231.411 173.327 231.571 173.442 231.711C173.557 231.85 173.698 231.965 173.858 232.05C174.018 232.135 174.193 232.187 174.373 232.204L194.958 234.256C195.138 234.274 195.321 234.257 195.495 234.205C195.668 234.153 195.83 234.068 195.971 233.953C196.111 233.839 196.228 233.698 196.313 233.538C196.399 233.379 196.453 233.204 196.47 233.024C196.489 232.845 196.471 232.663 196.419 232.49C196.367 232.317 196.281 232.156 196.166 232.016C195.945 231.74 195.623 231.56 195.271 231.516L174.686 229.473L174.525 229.5Z" fill="#231F20"/>
<path d="M242.554 239.146H101.976C100.192 239.146 98.7451 240.588 98.7451 242.367V242.376C98.7451 244.154 100.192 245.597 101.976 245.597H242.554C244.338 245.597 245.785 244.154 245.785 242.376V242.367C245.785 240.588 244.338 239.146 242.554 239.146Z" fill="#E6E7E8"/>
<path d="M242.545 246.034H101.976C101.001 246.034 100.065 245.647 99.3752 244.96C98.6854 244.272 98.2979 243.339 98.2979 242.366C98.2979 241.394 98.6854 240.461 99.3752 239.773C100.065 239.086 101.001 238.699 101.976 238.699H242.545C243.521 238.699 244.456 239.086 245.146 239.773C245.836 240.461 246.223 241.394 246.223 242.366C246.223 243.339 245.836 244.272 245.146 244.96C244.456 245.647 243.521 246.034 242.545 246.034ZM101.976 239.591C101.238 239.591 100.53 239.884 100.008 240.404C99.4861 240.925 99.1929 241.631 99.1929 242.366C99.1929 243.102 99.4861 243.808 100.008 244.329C100.53 244.849 101.238 245.141 101.976 245.141H242.545C243.283 245.141 243.991 244.849 244.513 244.329C245.035 243.808 245.328 243.102 245.328 242.366C245.328 241.631 245.035 240.925 244.513 240.404C243.991 239.884 243.283 239.591 242.545 239.591H101.976Z" fill="#231F20"/>
<path d="M187.95 153.238C187.886 153.238 187.823 153.224 187.765 153.196C187.708 153.168 187.658 153.128 187.619 153.077L166.085 124.587C166.045 124.545 166.014 124.495 165.995 124.44C165.976 124.386 165.968 124.328 165.973 124.27C165.978 124.212 165.995 124.157 166.023 124.106C166.051 124.055 166.089 124.011 166.136 123.976C166.182 123.941 166.235 123.917 166.292 123.904C166.348 123.891 166.407 123.89 166.464 123.901C166.521 123.913 166.575 123.936 166.622 123.97C166.669 124.003 166.709 124.046 166.738 124.096L188.272 152.586C188.306 152.628 188.33 152.676 188.345 152.728C188.36 152.78 188.364 152.834 188.357 152.887C188.35 152.94 188.333 152.991 188.306 153.038C188.279 153.084 188.243 153.125 188.2 153.157C188.127 153.209 188.04 153.237 187.95 153.238Z" fill="white"/>
<path d="M174.874 217.838C174.874 217.838 172.261 226.252 174.802 227.885C177.711 229.768 202.01 232.828 204.105 231.026C206.199 229.223 186.088 219.266 186.088 219.266L174.874 217.838Z" fill="white"/>
<path d="M199.988 231.954C192.21 231.954 176.951 229.759 174.579 228.224C171.894 226.44 174.203 218.605 174.48 217.713C174.511 217.622 174.572 217.545 174.654 217.494C174.736 217.444 174.833 217.423 174.928 217.437L186.16 218.811H186.294C189.302 220.31 204.356 227.921 204.678 230.535C204.698 230.675 204.683 230.818 204.632 230.951C204.582 231.084 204.499 231.202 204.391 231.294C203.863 231.758 202.27 231.954 199.988 231.954ZM175.17 218.284C174.445 220.756 173.236 226.395 175.017 227.546C178.141 229.563 202.118 232.204 203.845 230.714C204.105 229.625 196.086 224.646 185.945 219.614L175.17 218.284Z" fill="#231F20"/>
</svg>
