<svg width="200" height="200" viewBox="0 0 262 242" fill="none" xmlns="http://www.w3.org/2000/svg">
<ellipse cx="130.57" cy="120.995" rx="130.57" ry="120.995" fill="#DDF0F4"/>
<ellipse cx="130.57" cy="120.995" rx="130.57" ry="120.995" fill="white"/>
<path d="M145.702 84.7009C142.86 80.7764 135.807 55.2553 129.91 55.0055C124.014 54.7557 118.712 63.0639 122.019 69.7524C125.325 76.441 133.844 92.0582 139.83 96.2567C144.089 99.2463 149.733 100.834 154.595 102.574C157.853 103.751 161.265 104.734 164.523 105.983C167.439 107.095 169.458 109.255 172.667 107.039C174.231 105.951 175.77 103.55 174.573 101.97C174.052 101.285 172.195 100.729 171.429 100.358C168.172 98.6446 164.952 96.8986 161.77 95.1204C156.876 92.3805 149.065 89.3345 145.702 84.7009Z" fill="white"/>
<path d="M169.573 108C168.268 107.898 167.008 107.498 165.894 106.832C165.296 106.537 164.673 106.235 164.009 105.981C162.141 105.282 160.199 104.662 158.315 104.05C156.906 103.596 155.447 103.127 154.022 102.627C153.12 102.309 152.194 101.999 151.252 101.681C147.008 100.258 142.625 98.7875 139.077 96.3472C132.088 91.578 122.158 72.2548 121.052 70.069C120.229 68.3473 119.879 66.4483 120.037 64.5567C120.195 62.6651 120.855 60.8454 121.953 59.2747C123.829 56.4847 126.598 54.887 129.327 55.0062C133.587 55.1811 138.045 66.5239 141.617 75.6728C143.256 79.7425 144.599 83.2637 145.501 84.4799C148.04 87.9217 153.186 90.4573 157.725 92.6909C159.085 93.3665 160.363 93.9944 161.502 94.6144C164.485 96.2042 167.655 97.937 171.211 99.7811C171.432 99.8924 171.76 100.027 172.113 100.171C172.998 100.432 173.811 100.886 174.489 101.498C174.702 101.782 174.853 102.106 174.934 102.449C175.014 102.792 175.021 103.147 174.956 103.493C174.616 104.923 173.74 106.178 172.498 107.014C171.655 107.635 170.631 107.98 169.573 108V108ZM129.056 55.7216C126.648 55.7216 124.239 57.1842 122.576 59.6959C121.545 61.1614 120.924 62.8612 120.773 64.6292C120.622 66.3972 120.947 68.1729 121.715 69.7828C122.821 71.9448 132.67 91.0773 139.511 95.7829C142.969 98.1675 147.303 99.6221 151.498 101.029C152.44 101.347 153.374 101.657 154.276 101.975C155.693 102.468 157.143 102.937 158.553 103.398C160.437 104.002 162.395 104.63 164.288 105.337C164.984 105.599 165.623 105.917 166.246 106.219C168.237 107.197 169.818 107.976 172.088 106.426C173.162 105.697 173.927 104.616 174.243 103.382C174.295 103.132 174.292 102.874 174.236 102.625C174.18 102.376 174.07 102.141 173.915 101.935C173.305 101.445 172.604 101.073 171.85 100.838C171.473 100.687 171.121 100.544 170.884 100.417C167.328 98.5729 164.14 96.8798 161.158 95.2503C160.036 94.6383 158.757 94.0103 157.405 93.3427C152.793 91.0693 147.573 88.486 144.911 84.9012C143.96 83.6055 142.625 80.2194 140.945 75.9271C137.807 67.9785 133.079 55.9203 129.31 55.7614L129.056 55.7216Z" fill="#231F20"/>
<path d="M181 110H173V190H181V110Z" fill="#231F20"/>
<path d="M181.579 190H173.421C173.31 189.998 173.204 189.955 173.126 189.881C173.047 189.806 173.002 189.705 173 189.6V109.4C173 109.294 173.044 109.192 173.123 109.117C173.202 109.042 173.31 109 173.421 109H181.579C181.69 109 181.798 109.042 181.877 109.117C181.956 109.192 182 109.294 182 109.4V189.6C181.998 189.705 181.953 189.806 181.874 189.881C181.796 189.955 181.69 189.998 181.579 190V190ZM173.843 189.2H181.157V109.76H173.843V189.2Z" fill="#231F20"/>
<path d="M101 119H92V163H101V119Z" fill="#231F20"/>
<path d="M100.622 163H92.4018C92.2952 163 92.193 162.958 92.1177 162.882C92.0423 162.806 92 162.704 92 162.597V118.403C92 118.296 92.0423 118.194 92.1177 118.118C92.193 118.042 92.2952 118 92.4018 118H100.598C100.705 118 100.807 118.042 100.882 118.118C100.958 118.194 101 118.296 101 118.403V162.613C100.996 162.713 100.955 162.808 100.886 162.88C100.816 162.951 100.722 162.994 100.622 163V163ZM92.8277 162.194H100.221V118.79H92.8277V162.194Z" fill="#231F20"/>
<path d="M109.763 118.966C109.763 118.966 80 116.792 80 118.966C80 121.14 83.9094 128.522 89.1219 128.957C94.3345 129.392 106.915 126.469 109.739 123.474C112.562 120.48 109.763 118.966 109.763 118.966Z" fill="#D1D3D4"/>
<path d="M89.9888 129C89.5704 129 89.1519 129 88.8339 128.959C83.193 128.497 79 120.653 79 118.362C79.001 118.268 79.0224 118.175 79.0628 118.09C79.1032 118.004 79.1617 117.929 79.2343 117.868C81.3183 115.956 107.38 117.769 110.343 117.983C110.395 117.987 110.447 118.001 110.494 118.024C110.868 118.235 111.193 118.522 111.447 118.866C111.701 119.209 111.878 119.602 111.967 120.018C112.134 121.032 111.674 122.111 110.594 123.24C107.665 126.289 95.8222 129 89.9888 129ZM87.3693 117.752C83.034 117.752 80.1131 117.958 79.7449 118.428C79.7449 120.265 83.6449 127.78 88.8925 128.209C94.366 128.662 107.263 125.613 110.042 122.721C110.945 121.773 111.339 120.908 111.213 120.15C111.149 119.857 111.025 119.58 110.85 119.335C110.675 119.09 110.451 118.883 110.192 118.724C101.923 118.139 93.3198 117.752 87.3693 117.752Z" fill="#231F20"/>
<path d="M156.101 122C156.101 122 168.86 127.998 166.768 133.554C164.676 139.111 126.884 166 126.884 166L117 158.668L146.785 131.337L156.101 122Z" fill="white"/>
<path d="M127.302 167C127.218 166.998 127.136 166.969 127.07 166.919L117.133 159.378C117.092 159.343 117.058 159.3 117.035 159.252C117.012 159.204 117 159.151 117 159.098C117 159.044 117.012 158.991 117.035 158.943C117.058 158.895 117.092 158.852 117.133 158.817L147.075 130.706L156.391 121.111C156.447 121.055 156.519 121.018 156.598 121.005C156.677 120.992 156.758 121.004 156.83 121.038C157.368 121.298 169.937 127.427 167.743 133.385C165.632 139.132 129.074 165.79 127.517 166.927C127.455 166.972 127.379 166.998 127.302 167ZM117.986 159.053L127.302 166.156C130.481 163.834 165.093 138.45 167.048 133.133C168.853 128.214 158.51 122.71 156.763 121.826L147.655 131.226L117.986 159.053Z" fill="#231F20"/>
<path d="M119.626 153.999C119.626 153.999 102.777 145.001 84.3478 153.999C66.7621 162.592 63.8407 178.596 69.8308 195.653C74.5198 208.996 88.3985 210 88.3985 210H180.632C180.632 210 191 207.545 191 194.625C191 181.705 182.195 180.143 174.453 176.763C166.712 173.384 119.626 153.999 119.626 153.999Z" fill="white"/>
<path d="M180.214 210H87.8299C87.666 210 73.6018 208.857 68.881 195.584C62.1194 176.581 67.3484 161.803 83.6336 153.968C101.788 145.212 118.638 153.629 119.294 153.968C120.384 154.41 166.609 173.184 174.207 176.471C175.231 176.912 176.288 177.33 177.313 177.732C184.042 180.38 191 183.115 191 194.441C191 201.172 188.107 205.042 185.681 207.107C184.146 208.447 182.317 209.436 180.329 210H180.214ZM101.083 150.713C95.1291 150.701 89.2558 152.034 83.9369 154.607C68.0614 162.26 62.9636 176.731 69.594 195.356C74.151 208.164 87.7234 209.275 87.8627 209.283H180.165C182.026 208.725 183.74 207.786 185.189 206.532C188.533 203.679 190.23 199.612 190.23 194.433C190.23 183.596 183.804 181.034 177.001 178.394C175.977 177.984 174.911 177.606 173.879 177.125C166.224 173.815 119.425 154.812 118.966 154.615C113.387 152.034 107.273 150.701 101.083 150.713V150.713Z" fill="#231F20"/>
<path d="M126.789 206C108.934 206 92.2782 205.619 88.2019 204.11C79.5763 200.937 71.0812 186.772 76.9349 170.919C79.4296 164.145 86.4898 153.111 105.869 155.277C119.459 156.794 173.675 182.391 181.281 186.699C184.216 188.322 185.773 193.66 184.616 198.057C183.866 200.873 181.403 205.594 173.3 205.594C170.3 205.594 165.514 205.659 159.44 205.732C150.056 205.846 138.178 206 126.789 206ZM101.303 155.829C93.1506 155.829 82.3809 158.466 77.7012 171.195C72.0595 186.61 80.147 200.288 88.4791 203.355C95.0012 205.789 135.357 205.229 159.456 204.905C165.506 204.832 170.291 204.767 173.316 204.767C180.874 204.767 183.156 200.418 183.841 197.83C184.999 193.473 183.238 188.727 180.89 187.405C173.552 183.243 118.929 157.557 105.795 156.08C104.304 155.915 102.804 155.831 101.303 155.829V155.829Z" fill="#D1D3D4"/>
<path d="M131.5 202C140.613 202 148 194.613 148 185.5C148 176.387 140.613 169 131.5 169C122.387 169 115 176.387 115 185.5C115 194.613 122.387 202 131.5 202Z" fill="#231F20"/>
<path d="M131 202C127.637 202 124.35 201.032 121.554 199.219C118.759 197.405 116.58 194.828 115.293 191.812C114.007 188.797 113.671 185.479 114.327 182.278C114.984 179.077 116.604 176.137 118.982 173.83C121.36 171.523 124.39 169.952 127.688 169.316C130.987 168.68 134.405 169.008 137.511 170.258C140.617 171.508 143.272 173.624 145.139 176.339C147.006 179.053 148.002 182.244 148 185.508C147.996 189.882 146.203 194.076 143.016 197.168C139.828 200.26 135.507 201.998 131 202V202ZM131 169.802C127.8 169.802 124.671 170.723 122.01 172.449C119.349 174.175 117.275 176.628 116.05 179.498C114.825 182.367 114.505 185.525 115.129 188.572C115.753 191.619 117.295 194.417 119.558 196.614C121.821 198.81 124.704 200.306 127.843 200.912C130.982 201.518 134.236 201.207 137.193 200.018C140.149 198.83 142.677 196.817 144.455 194.234C146.233 191.651 147.182 188.614 147.182 185.508C147.169 181.349 145.459 177.365 142.426 174.427C139.393 171.49 135.285 169.838 131 169.834V169.802Z" fill="#231F20"/>
<path d="M162.465 113C161.874 112.997 161.304 112.79 160.858 112.415C160.411 112.041 160.117 111.524 160.028 110.957C159.939 110.391 160.062 109.813 160.374 109.327C160.686 108.84 161.167 108.478 161.73 108.305L195.499 98.1063L206.235 75.4814C206.362 75.1831 206.551 74.9129 206.788 74.6868C207.026 74.4608 207.309 74.2835 207.619 74.1657C207.928 74.0479 208.26 73.9918 208.593 74.001C208.925 74.0101 209.253 74.0842 209.555 74.2189C209.858 74.3535 210.13 74.546 210.354 74.7847C210.578 75.0235 210.75 75.3036 210.861 75.6084C210.971 75.9132 211.016 76.2364 210.995 76.5587C210.973 76.881 210.885 77.1958 210.735 77.4843L199.611 101.087C199.463 101.393 199.252 101.666 198.991 101.889C198.729 102.112 198.423 102.281 198.092 102.385L163.266 112.864C163.008 112.952 162.738 112.998 162.465 113Z" fill="#231F20"/>
<path d="M117.002 101L161 120.33L142.748 136C142.748 136 105.089 114.523 106.017 109.75C106.945 104.977 117.002 101 117.002 101Z" fill="#231F20"/>
<path d="M142.275 137C142.203 137 142.133 136.981 142.071 136.944C138.177 134.721 104.072 115.046 105.019 110.175C105.966 105.304 115.862 101.209 116.287 101.033C116.337 101.011 116.391 101 116.446 101C116.501 101 116.555 101.011 116.605 101.033L160.761 120.46C160.823 120.49 160.876 120.534 160.918 120.588C160.959 120.642 160.986 120.705 160.997 120.772C161.005 120.839 160.996 120.906 160.972 120.968C160.948 121.031 160.909 121.087 160.859 121.132L142.545 136.896C142.471 136.962 142.375 136.999 142.275 137ZM116.434 101.809C115.152 102.361 106.636 106.152 105.82 110.295C105.191 113.494 127.709 127.754 142.226 136.08L159.846 120.884L116.434 101.809Z" fill="#231F20"/>
<path d="M100.818 90C100.818 90 86.6668 104.052 86.0258 113.205C84.7438 132.509 131.742 148 131.742 148L149 139.772L120.993 103.416L100.818 90Z" fill="#231F20"/>
<path d="M131.266 148.996H131.134C123.05 146.2 115.205 142.78 107.673 138.77C92.1034 130.319 84.4835 121.869 85.0272 113.66C85.6368 104.435 99.3609 90.706 99.9375 90.1248C100.005 90.0561 100.094 90.0127 100.191 90.0024C100.287 89.9921 100.384 90.0154 100.465 90.0683L120.746 103.531C120.787 103.555 120.821 103.588 120.845 103.628L148.919 140.109C148.956 140.157 148.982 140.213 148.993 140.271C149.004 140.33 149.002 140.391 148.985 140.448C148.974 140.507 148.947 140.563 148.908 140.609C148.87 140.656 148.82 140.692 148.763 140.715L131.464 148.972C131.401 148.998 131.333 149.006 131.266 148.996ZM100.292 90.8835C98.4383 92.7803 86.3946 105.412 85.8509 113.668C84.6318 131.958 128.234 147.107 131.233 148.124L147.956 140.158L120.227 104.112L100.292 90.8835Z" fill="#231F20"/>
<path d="M121.464 22.8136C120.316 23.8513 119.371 25.0869 118.674 26.4594C117.281 28.9078 116.064 31.4487 115.03 34.0637C114.216 36.1391 113.403 38.4068 111.475 39.5927C109.181 41.027 105.985 40.2738 104 38.4548C106.261 43.527 112.256 46.4678 117.828 45.9389C123.4 45.4101 128.475 41.8764 131.558 37.2369C132.747 35.5588 133.546 33.644 133.901 31.6278C134.917 24.8488 127.947 17.517 121.464 22.8136Z" fill="white"/>
<path d="M116.034 46C110.447 46 105.122 42.855 103.037 38.1697C102.997 38.0847 102.989 37.9887 103.015 37.8986C103.04 37.8085 103.097 37.7303 103.176 37.6778C103.249 37.6195 103.339 37.5877 103.433 37.5877C103.527 37.5877 103.618 37.6195 103.691 37.6778C105.409 39.2906 108.46 40.1857 110.717 38.7825C112.427 37.7181 113.237 35.6778 113.989 33.7021L114.104 33.4118C115.156 30.7617 116.391 28.1859 117.801 25.7024C118.524 24.2808 119.506 23.0018 120.696 21.9284V21.9284C123.33 19.7752 126.283 19.4124 128.999 20.9042C132.369 22.7671 134.479 27.1782 133.907 31.1699C133.549 33.2681 132.719 35.2606 131.477 37.0004C128.091 42.0969 122.815 45.4355 117.367 45.9436C116.942 45.9839 116.484 46 116.034 46ZM104.583 39.3632C105.985 41.3517 107.9 42.9353 110.13 43.9503C112.36 44.9654 114.825 45.3751 117.269 45.1371C122.471 44.6533 127.526 41.4518 130.774 36.5568C131.939 34.9243 132.721 33.0567 133.064 31.0893C133.604 27.412 131.665 23.3477 128.573 21.6381C126.169 20.3155 123.551 20.6462 121.212 22.5816C120.098 23.5926 119.181 24.7949 118.504 26.1298C117.12 28.5738 115.909 31.1093 114.881 33.7182L114.774 34.0085C113.956 36.0085 113.098 38.2745 111.151 39.4841C110.152 40.0437 109.019 40.3277 107.87 40.3065C106.722 40.2852 105.6 39.9593 104.623 39.3632H104.583Z" fill="#231F20"/>
<path d="M130.625 23.4235C129.39 23.9711 128.37 24.9448 127.735 26.1832C127.248 26.9698 126.992 27.8894 127 28.8273C127.053 29.3943 127.231 29.9406 127.519 30.4235C127.807 30.9064 128.199 31.3126 128.662 31.6102C129.058 31.9085 129.545 32.043 130.029 31.9879C130.422 31.8805 130.78 31.6649 131.066 31.3635C133.198 29.3978 136.647 21.0414 130.625 23.4235Z" fill="#231F20"/>
<path d="M129.652 31.991C129.099 31.9742 128.563 31.8096 128.109 31.5173C127.517 31.1769 127.018 30.7146 126.652 30.1667C126.286 29.6188 126.063 29.0002 126.001 28.3596C125.985 27.3298 126.301 26.3188 126.909 25.4545C127.705 24.1152 128.967 23.0614 130.492 22.4625C132.601 21.7283 134.006 21.8704 134.658 22.873C135.961 24.8703 133.252 29.7884 131.418 31.2647C131.028 31.6222 130.539 31.8736 130.003 31.991C129.887 32.003 129.769 32.003 129.652 31.991V31.991ZM132.755 22.7625C132.083 22.7948 131.422 22.9337 130.801 23.173V23.173C129.455 23.7045 128.343 24.6392 127.646 25.8255C127.122 26.5643 126.848 27.4297 126.858 28.3122C126.912 28.8289 127.094 29.3271 127.392 29.768C127.689 30.2089 128.093 30.5806 128.572 30.8542C128.945 31.1009 129.4 31.2183 129.858 31.1857C130.238 31.0885 130.584 30.9006 130.861 30.641C132.618 29.2279 134.898 24.7361 133.929 23.2519C133.799 23.0805 133.622 22.9446 133.415 22.8585C133.208 22.7723 132.98 22.7392 132.755 22.7625V22.7625Z" fill="#231F20"/>
<path d="M134.537 50.8967C133.15 51.197 131.672 50.8967 129.945 49.2738C128.564 47.9377 127.546 46.2868 126.981 44.4699C125.825 40.9853 125.688 37.2545 126.584 33.6977C127.481 30.1409 129.375 26.8992 132.054 24.3375C137.56 19.2172 148.014 17.7809 152.722 24.7351C153.512 25.922 154.027 27.2629 154.232 28.6644C154.437 30.0658 154.327 31.4941 153.91 32.8498C154.45 33.022 154.929 33.3435 155.287 33.7755C155.645 34.2074 155.867 34.7314 155.927 35.2841C156.342 38.1324 154.947 39.8121 152.556 41.1023C148.645 43.2284 144.502 44.9487 140.674 47.2451C138.448 48.6246 136.588 50.4504 134.537 50.8967Z" fill="white"/>
<path d="M133.811 50.9959C132.341 50.9209 130.958 50.294 129.948 49.2452C128.551 47.8979 127.523 46.2281 126.957 44.3893C125.823 40.9146 125.694 37.1999 126.584 33.6577C127.475 30.1156 129.35 26.8846 132.001 24.3238C133.69 22.7843 135.69 21.6095 137.872 20.8753C140.053 20.1412 142.368 19.8641 144.666 20.062C146.292 20.2039 147.864 20.7053 149.264 21.5285C150.664 22.3518 151.855 23.4754 152.748 24.815C153.516 25.9604 154.029 27.2513 154.255 28.6037C154.48 29.9561 154.413 31.3399 154.058 32.6653C154.567 32.9128 155.006 33.2819 155.332 33.7387C155.658 34.1955 155.862 34.7253 155.925 35.2794C156.442 38.7649 154.187 40.4206 152.449 41.3632C150.873 42.2188 149.216 43.0188 147.656 43.7952C145.401 44.8963 143.074 46.037 140.899 47.344C140.188 47.7718 139.517 48.255 138.863 48.7224C137.678 49.7119 136.304 50.4605 134.821 50.9246L134.732 50.5365L134.821 50.9246C134.488 50.9864 134.149 51.0104 133.811 50.9959ZM143.154 20.775C139.234 20.8189 135.47 22.2867 132.591 24.8942C130.049 27.3501 128.25 30.4478 127.394 33.844C126.538 37.2402 126.658 40.8023 127.741 44.1358C128.268 45.8472 129.224 47.4022 130.521 48.659C131.952 49.9582 133.253 50.4176 134.627 50.1166C136.006 49.6687 137.284 48.967 138.394 48.0491C139.057 47.5738 139.752 47.0826 140.479 46.639C142.686 45.3161 145.038 44.1596 147.309 43.0505C148.877 42.2584 150.501 41.4662 152.061 40.674C154.559 39.3115 155.48 37.7351 155.133 35.3983C155.092 34.9355 154.919 34.4934 154.633 34.1233C154.347 33.7531 153.96 33.4701 153.516 33.3069C153.463 33.2953 153.412 33.2732 153.368 33.2419C153.323 33.2106 153.286 33.1707 153.257 33.1247C153.236 33.0747 153.224 33.0208 153.224 32.9663C153.224 32.9119 153.236 32.858 153.257 32.8079C153.639 31.5336 153.729 30.1924 153.519 28.8803C153.309 27.5682 152.806 26.3179 152.045 25.219C151.212 23.9877 150.106 22.956 148.811 22.2004C147.515 21.4448 146.062 20.9847 144.561 20.8542C144.094 20.8018 143.624 20.7754 143.154 20.775V20.775Z" fill="#231F20"/>
<path d="M149.364 41C149.364 41 150.579 47.0433 149.65 47.7907C148.722 48.5381 147 47.0434 147 47.0434" fill="white"/>
<path d="M149.193 47.9978C148.095 47.9021 147.055 47.5803 146.186 47.0682C146.086 47.0098 146.02 46.9239 146.004 46.8294C145.988 46.7348 146.022 46.6393 146.1 46.5638C146.178 46.4889 146.291 46.4395 146.416 46.4261C146.542 46.4127 146.669 46.4362 146.772 46.4917C147.3 46.8016 148.991 47.5726 149.769 47.1547C150.298 46.8736 150.029 44.2 149.203 41.44C149.188 41.3936 149.187 41.3456 149.197 41.2987C149.208 41.2518 149.231 41.2069 149.265 41.1667C149.299 41.1265 149.343 41.0918 149.395 41.0645C149.447 41.0371 149.506 41.0178 149.568 41.0076C149.691 40.9883 149.82 41.0062 149.926 41.0574C150.032 41.1086 150.107 41.1891 150.134 41.2814C150.644 42.975 151.691 47.0466 150.327 47.7672C149.992 47.9337 149.594 48.0146 149.193 47.9978V47.9978Z" fill="#231F20"/>
<path d="M151.463 35.0934C151.668 35.5635 151.835 36.0476 151.963 36.5415C152.012 37.0595 152.012 37.5806 151.963 38.0986C151.75 39.6556 150.75 41.1348 150.16 42.5829C148.893 45.697 147.552 48.7671 146.137 51.7929C145.235 53.7237 139.852 51.793 139.139 50.8976C138.049 54.5567 137.221 63.8991 132.46 64.9502C131.496 65.1001 130.508 64.909 129.682 64.413C123.946 61.3689 126.233 56.3785 127.798 51.9564C128.978 48.6243 130.051 45.2533 131.174 41.8978C131.688 42.0333 132.215 42.1194 132.747 42.1547C134.221 42.1449 135.665 41.7576 136.926 41.0336C139.86 39.5856 142.474 37.9195 144.49 35.3971C144.416 36.2457 143.883 37.8416 144.924 38.2776C145.744 38.6046 147.686 37.6314 148.431 37.3356C149.679 36.8998 150.736 36.0769 151.43 35C151.43 35 151.447 35.0934 151.463 35.0934Z" fill="white"/>
<path d="M131.29 65.9991C130.454 65.9718 129.639 65.7349 128.922 65.3108C123.22 62.1854 124.977 57.2139 126.529 52.7687L126.826 51.9104C127.651 49.6028 128.377 47.2385 129.104 44.9552C129.475 43.7892 129.855 42.6232 130.234 41.4573C130.268 41.3553 130.342 41.2708 130.439 41.2222C130.537 41.1736 130.65 41.165 130.754 41.1982L130.853 41.2468C131.117 41.3115 132.058 41.4249 132.231 41.4411C133.64 41.4238 135.019 41.0381 136.225 40.3237C139.132 38.9916 141.689 37.0252 143.702 34.5749C143.755 34.5041 143.831 34.4523 143.917 34.4274C144.003 34.4026 144.095 34.406 144.179 34.4371C144.263 34.4683 144.335 34.5254 144.383 34.6C144.43 34.6745 144.452 34.7624 144.445 34.8502C144.445 35.0283 144.395 35.2469 144.362 35.4736C144.205 36.421 144.123 37.2226 144.634 37.4412C145.146 37.6598 146.722 36.9554 147.391 36.6315L147.845 36.4372C149.011 36.0302 150.002 35.2483 150.659 34.2186C150.696 34.1553 150.748 34.1022 150.812 34.064C150.875 34.0258 150.947 34.0038 151.022 34C151.096 34.0015 151.168 34.0207 151.233 34.056C151.298 34.0912 151.353 34.1415 151.393 34.2024V34.2024C151.638 34.7442 151.829 35.3083 151.962 35.8866C152.013 36.455 152.013 37.0266 151.962 37.595C151.743 38.7552 151.343 39.875 150.774 40.9148C150.535 41.4087 150.312 41.8783 150.122 42.3479C148.851 45.5867 147.49 48.8255 146.062 51.9428C145.907 52.2826 145.656 52.5716 145.339 52.7754C145.021 52.9793 144.651 53.0893 144.271 53.0926C142.367 53.1346 140.491 52.6309 138.874 51.6432C138.709 52.3072 138.544 53.1007 138.363 53.9751C137.397 58.6309 136.077 65.0113 132.017 65.9424C131.777 65.9856 131.534 66.0046 131.29 65.9991V65.9991ZM130.894 42.0807C130.556 43.1171 130.226 44.1617 129.896 45.1981C129.161 47.4895 128.41 49.8538 127.61 52.1695L127.272 53.0359C125.761 57.3516 124.185 61.8049 129.293 64.6064C130.03 65.0609 130.907 65.2445 131.769 65.1246C135.318 64.3149 136.63 57.9831 137.496 53.7889C137.744 52.6068 137.958 51.5784 138.181 50.7849C138.203 50.711 138.245 50.6445 138.304 50.593C138.362 50.5415 138.434 50.507 138.511 50.4935C138.587 50.4796 138.666 50.4875 138.738 50.5162C138.809 50.545 138.871 50.5932 138.916 50.6554C139.312 51.1817 142.266 52.461 144.123 52.2748C144.349 52.2808 144.573 52.2278 144.772 52.1211C144.97 52.0144 145.137 51.8579 145.253 51.6675C146.673 48.5259 148.034 45.3033 149.297 42.105C149.495 41.603 149.734 41.101 149.974 40.6152C150.498 39.6495 150.874 38.6125 151.088 37.5384C151.137 37.0267 151.137 36.5116 151.088 35.9999C151.088 35.919 150.98 35.6032 150.873 35.2955C150.129 36.1516 149.179 36.8113 148.109 37.2145L147.68 37.4007C146.318 38.008 145.031 38.5262 144.247 38.2104C143.463 37.8946 143.314 37.004 143.421 36.2024C141.462 38.214 139.147 39.8601 136.588 41.0605C135.27 41.8368 133.761 42.2481 132.223 42.2508C131.776 42.2271 131.332 42.1702 130.894 42.0807V42.0807Z" fill="#231F20"/>
<path d="M147 48.9648C147 48.9648 143.405 49.4274 143 47Z" fill="white"/>
<path d="M146.066 49.9963C145.379 50.0176 144.703 49.7646 144.135 49.273C143.804 48.944 143.532 48.5298 143.337 48.0577C143.142 47.5856 143.028 47.0664 143.002 46.5343C142.991 46.4077 143.021 46.281 143.083 46.1817C143.146 46.0823 143.237 46.0184 143.337 46.0039C143.387 45.9958 143.437 46.0004 143.486 46.0174C143.535 46.0344 143.58 46.0636 143.62 46.103C143.659 46.1425 143.692 46.1916 143.717 46.2474C143.741 46.3032 143.757 46.3647 143.762 46.4282C143.779 46.8269 143.861 47.217 144.002 47.5738C144.143 47.9307 144.341 48.2465 144.584 48.5015C145.168 48.9638 145.866 49.1387 146.545 48.9933C146.646 48.9703 146.75 48.999 146.834 49.0732C146.918 49.1473 146.976 49.2608 146.994 49.3887C147.012 49.5166 146.989 49.6484 146.931 49.7551C146.872 49.8618 146.783 49.9347 146.682 49.9577C146.478 49.9942 146.272 50.0072 146.066 49.9963Z" fill="#231F20"/>
<path d="M139 50.9078C139 50.9078 135.846 49.6261 135.188 47C135.188 47 133.873 50.6569 138.199 54L139 50.9078Z" fill="#231F20"/>
<path d="M137.973 54C137.884 54 137.798 53.9693 137.727 53.9126C134.076 50.8068 135.129 47.415 135.176 47.272C135.199 47.1874 135.25 47.114 135.32 47.0646C135.39 47.0152 135.475 46.993 135.56 47.0019C135.643 47.005 135.722 47.0362 135.786 47.0908C135.85 47.1454 135.895 47.2203 135.913 47.3038C136.398 49.4088 138.75 50.4811 138.773 50.4811C138.855 50.5194 138.922 50.5866 138.962 50.6709C139.001 50.7552 139.01 50.8511 138.988 50.9418L138.342 53.6823C138.327 53.7484 138.296 53.8094 138.252 53.8594C138.207 53.9095 138.151 53.947 138.089 53.9682L137.973 54ZM135.775 48.9242C135.91 50.4629 136.618 51.8873 137.751 52.8959L138.173 51.1007C137.215 50.5864 136.392 49.8395 135.775 48.9242V48.9242Z" fill="#231F20"/>
<path d="M149.471 39.1995C149.762 38.5856 149.797 37.9978 149.551 37.8866C149.304 37.7753 148.868 38.1828 148.578 38.7967C148.287 39.4106 148.251 39.9984 148.498 40.1096C148.745 40.2208 149.18 39.8134 149.471 39.1995Z" fill="#231F20"/>
<path d="M141.871 40.0757C142.061 39.1741 142.041 38.2272 141.813 37.3383C141.719 36.6241 141.533 35.9316 141.263 35.2852C141.127 34.9648 140.933 34.6846 140.695 34.4644C140.458 34.2443 140.183 34.0897 139.889 34.0117C139.629 33.9798 139.366 34.0133 139.117 34.1103C138.868 34.2073 138.638 34.3655 138.443 34.5748C138.049 35.0039 137.74 35.5339 137.539 36.1255C137.08 37.4039 136.91 38.8046 137.045 40.187C137.181 41.5693 137.618 42.8844 138.313 44L138.219 43.7228" fill="white"/>
<path d="M138.03 44C137.962 43.9994 137.894 43.9848 137.833 43.9572C137.772 43.9297 137.719 43.89 137.678 43.8411C136.789 42.7566 136.231 41.4814 136.058 40.142C135.885 38.8026 136.103 37.4457 136.691 36.206C136.956 35.5994 137.372 35.0558 137.907 34.617C138.196 34.384 138.538 34.2101 138.909 34.1073C139.28 34.0045 139.671 33.9751 140.056 34.0212C140.48 34.0993 140.88 34.2627 141.224 34.4993C141.569 34.7359 141.85 35.0396 142.047 35.3877C142.391 36.0147 142.631 36.6839 142.76 37.3739C143.061 38.2625 143.079 39.2094 142.813 40.107C142.773 40.206 142.692 40.2867 142.586 40.3314C142.48 40.3761 142.359 40.3811 142.249 40.3453C142.139 40.3095 142.05 40.2358 142 40.1404C141.951 40.0451 141.945 39.9359 141.985 39.8369C142.185 39.0783 142.155 38.285 141.897 37.5408C141.791 36.9283 141.583 36.3337 141.28 35.777C141.146 35.5345 140.954 35.3219 140.718 35.1543C140.482 34.9867 140.208 34.8683 139.915 34.8077C139.656 34.7808 139.394 34.8045 139.146 34.8772C138.898 34.9498 138.671 35.0698 138.479 35.2288C138.047 35.5821 137.71 36.0195 137.493 36.5079C137.002 37.5485 136.8 38.6815 136.904 39.8084C137.008 40.9354 137.416 42.0224 138.092 42.9751C138.144 42.9897 138.193 43.0153 138.232 43.0498C138.272 43.0843 138.302 43.1268 138.321 43.1737L138.435 43.428C138.477 43.5162 138.481 43.6153 138.447 43.7062C138.413 43.7971 138.343 43.8735 138.25 43.9206C138.185 43.9631 138.11 43.9904 138.03 44V44Z" fill="#231F20"/>
<path d="M141.969 73.5833C142.878 60.5883 123.685 38.8414 110.841 54.3887C105.557 60.8298 105.926 81.4495 92 100.282C106.09 93.269 122.645 103.913 122.727 103.969C123.546 104.493 127.576 98.1482 127.912 97.6168C129.945 94.3923 131.736 91.0259 133.269 87.5445C133.885 86.0042 134.599 84.5036 135.407 83.0518C135.407 83.0518 141.567 79.1871 141.969 73.5833Z" fill="#7000FF"/>
<path d="M123.368 103.976C123.245 103.975 123.125 103.939 123.022 103.873C119.865 102.012 116.477 100.541 112.939 99.4955C107.609 97.9094 99.7788 96.7754 92.5903 100.289C92.5082 100.331 92.4133 100.345 92.3218 100.328C92.2303 100.31 92.1479 100.263 92.0886 100.193C92.0312 100.123 92 100.037 92 99.9475C92 99.8583 92.0312 99.7717 92.0886 99.7017C100.568 88.4008 103.784 76.2513 106.128 67.3851C107.666 61.5721 108.884 56.9803 110.998 54.4664C116.492 47.9317 122.562 48.4313 126.691 50.0015C135.516 53.3482 143.576 65.0694 142.968 73.6422C142.581 79.0111 137.087 82.7464 136.314 83.246C135.657 84.3861 135.074 85.5647 134.57 86.775L134.233 87.5681C132.689 91.0214 130.88 94.3588 128.821 97.5525C127.628 99.4083 124.708 103.746 123.54 104L123.368 103.976ZM103.069 97.164C113.301 97.164 122.323 102.533 123.368 103.175C123.985 102.914 126.016 100.296 128.072 97.0926C130.133 93.9355 131.947 90.6353 133.501 87.2192L133.838 86.4261C134.365 85.1546 134.978 83.9174 135.672 82.7226C135.707 82.6727 135.752 82.6297 135.804 82.5957C135.87 82.5957 141.791 78.8049 142.17 73.555C142.762 65.2597 134.957 53.935 126.419 50.6994C122.545 49.2243 116.845 48.7644 111.664 54.9263C109.665 57.3055 108.464 61.8258 106.951 67.5358C104.673 76.1562 101.58 87.8457 93.6678 98.9166C96.6482 97.7317 99.845 97.1358 103.069 97.164V97.164Z" fill="#7000FF"/>
<path d="M124.431 55.4399C118.304 50.1099 115.393 60.9918 115.087 65.1162C114.642 71.9584 115.902 78.8042 118.75 85.024C119.101 85.9781 119.701 86.8172 120.487 87.4511C121.864 88.4108 123.844 88.0301 125.128 86.9434C126.355 85.7802 127.229 84.2861 127.648 82.6367C129.088 78.0523 129.127 73.119 128.892 68.3601C128.665 63.6489 127.945 58.4935 124.431 55.4399Z" fill="#231F20"/>
<path d="M122.33 88.9997C121.547 89.0098 120.779 88.7893 120.128 88.3673C119.215 87.6665 118.516 86.7383 118.104 85.6819C114.981 79.1926 113.603 72.0419 114.099 64.8967C114.344 61.7514 116.063 54.7792 119.79 53.2845C121.373 52.644 123.101 53.0874 124.913 54.5903C128.842 57.8752 129.63 63.3199 129.884 68.2308C130.121 72.8461 130.138 78.2252 128.512 83.1854C128.032 84.9673 127.043 86.5814 125.658 87.8417C124.715 88.5805 123.542 88.9885 122.33 88.9997V88.9997ZM121.229 53.8019C120.845 53.8025 120.465 53.8779 120.111 54.0236C116.97 55.2801 115.191 61.7514 114.946 64.9295C114.456 71.9439 115.805 78.9643 118.866 85.337C119.223 86.2539 119.822 87.0638 120.602 87.6857C122 88.6137 123.931 88.1374 125.116 87.1848C126.373 86.0233 127.271 84.5442 127.707 82.9144C129.291 78.0774 129.274 72.7887 129.037 68.2473C128.8 63.517 128.046 58.2612 124.362 55.1898C123.523 54.3786 122.411 53.8862 121.229 53.8019V53.8019Z" fill="#231F20"/>
<path d="M139.042 84.8006C136.161 80.8629 129.012 55.2562 123.028 55.0055C117.043 54.7549 111.678 63.091 115.038 69.802C118.397 76.5129 127.023 92.1826 133.082 96.3952C139.141 100.608 170.483 110.1 170.483 110.1L174.866 109.833C174.866 109.833 172.06 111.847 173.785 111.992C175.51 112.138 184.788 110.278 183.946 106.72C183.104 103.163 178.506 101.303 177.524 100.834C176.542 100.365 169.509 102.815 169.509 102.815C169.509 102.815 141.922 88.7382 139.042 84.8006Z" fill="white"/>
<path d="M173.743 112H173.531C172.926 111.944 172.714 111.673 172.657 111.457C172.526 111.002 172.975 110.426 173.474 109.931L170.287 110.131H170.156C168.881 109.747 138.999 100.721 133.026 96.5514C126.055 91.7586 116.144 72.34 115.049 70.1434C114.228 68.4132 113.879 66.5048 114.037 64.6039C114.194 62.7029 114.853 60.8742 115.948 59.2958C117.811 56.492 120.564 54.8864 123.302 55.0063C127.551 55.182 131.996 66.5807 135.559 75.7748C137.193 79.8726 138.541 83.4113 139.432 84.6334C142.096 88.2599 167.214 101.104 169.314 102.207C171.145 101.576 176.383 99.8105 177.388 100.322L177.641 100.441C178.997 101.057 183.124 102.942 183.941 106.377C184.031 106.774 184.018 107.188 183.904 107.579C183.79 107.971 183.578 108.329 183.287 108.621C181.253 110.93 175.41 112 173.743 112ZM173.392 111.241H173.596C175.002 111.353 180.95 110.179 182.764 108.046C182.975 107.84 183.13 107.587 183.216 107.308C183.301 107.029 183.315 106.734 183.255 106.448C182.519 103.357 178.638 101.584 177.363 101.001L177.102 100.881C176.546 100.641 172.706 101.728 169.453 102.854C169.407 102.874 169.357 102.884 169.306 102.884C169.256 102.884 169.206 102.874 169.159 102.854C168.04 102.287 141.736 88.907 138.868 84.9929C137.912 83.6908 136.588 80.288 134.905 75.9745C131.784 67.9866 127.061 55.869 123.302 55.7092C120.85 55.6213 118.317 57.0831 116.593 59.7032C115.575 61.1792 114.964 62.8876 114.821 64.6624C114.678 66.4372 115.007 68.218 115.776 69.8318C116.871 72.0045 126.701 91.2314 133.516 95.9603C139.236 99.9542 168.775 108.909 170.377 109.396L174.642 109.132C174.722 109.133 174.799 109.156 174.866 109.198C174.932 109.241 174.985 109.301 175.018 109.372C175.043 109.446 175.044 109.526 175.02 109.6C174.997 109.674 174.95 109.74 174.887 109.787C174.297 110.164 173.795 110.66 173.416 111.241H173.392Z" fill="#231F20"/>
<path d="M131.188 148.109C131.188 148.109 126.529 171.433 130.808 190.725L141.383 192C141.383 192 149.468 148.898 148.979 140L131.188 148.109Z" fill="white"/>
<path d="M141.286 192.999L131.051 191.758C130.974 191.749 130.903 191.715 130.846 191.664C130.789 191.612 130.749 191.545 130.733 191.47C126.652 172.254 131.051 148.729 131.1 148.497C131.112 148.441 131.136 148.387 131.171 148.342C131.207 148.296 131.252 148.259 131.304 148.233L148.443 140.042C148.498 140.014 148.558 140 148.619 140C148.68 140 148.74 140.014 148.794 140.042C148.847 140.073 148.89 140.116 148.922 140.168C148.953 140.22 148.971 140.278 148.974 140.338C149.496 149.218 141.988 190.918 141.669 192.687C141.657 192.777 141.611 192.859 141.54 192.917C141.469 192.975 141.378 193.004 141.286 192.999V192.999ZM131.37 191.078L140.984 192.239C141.702 188.235 148.419 150.379 148.239 140.954L131.761 148.817C131.362 151.043 127.575 172.91 131.37 191.078Z" fill="#231F20"/>
<path d="M149.881 202.924L131.009 201.088C130.108 201.001 129.304 201.643 129.214 202.522C129.125 203.402 129.782 204.186 130.684 204.274L149.555 206.109C150.457 206.197 151.26 205.555 151.35 204.675C151.44 203.795 150.782 203.011 149.881 202.924Z" fill="white"/>
<path d="M149.986 205.993H149.78L130.823 204.396C130.29 204.352 129.799 204.131 129.459 203.782C129.119 203.433 128.957 202.985 129.01 202.536C129.062 202.086 129.324 201.673 129.739 201.387C130.153 201.1 130.685 200.964 131.219 201.008L150.176 202.598C150.441 202.62 150.698 202.685 150.933 202.791C151.168 202.897 151.375 203.041 151.544 203.214C151.712 203.388 151.838 203.588 151.915 203.802C151.991 204.017 152.017 204.243 151.989 204.466C151.937 204.885 151.702 205.273 151.331 205.556C150.96 205.839 150.479 205.997 149.978 206L149.986 205.993ZM131.029 201.626C130.729 201.622 130.436 201.708 130.205 201.869C129.954 202.044 129.792 202.292 129.752 202.563C129.734 202.703 129.75 202.844 129.798 202.978C129.847 203.113 129.926 203.238 130.032 203.346C130.137 203.455 130.268 203.545 130.415 203.61C130.562 203.676 130.723 203.717 130.889 203.73L149.846 205.327C150.013 205.341 150.18 205.328 150.341 205.287C150.501 205.247 150.65 205.18 150.779 205.091C150.908 205.002 151.016 204.892 151.095 204.768C151.174 204.644 151.223 204.509 151.239 204.368C151.256 204.229 151.24 204.087 151.192 203.953C151.144 203.818 151.065 203.693 150.959 203.584C150.755 203.369 150.459 203.229 150.135 203.195L131.177 201.605L131.029 201.626Z" fill="#231F20"/>
<path d="M193.034 210H63.9664C62.3281 210 61 211.341 61 212.996V213.004C61 214.659 62.3281 216 63.9664 216H193.034C194.672 216 196 214.659 196 213.004V212.996C196 211.341 194.672 210 193.034 210Z" fill="#E6E7E8"/>
<path d="M193.618 216H64.3819C63.485 216 62.6248 215.684 61.9905 215.121C61.3563 214.559 61 213.796 61 213C61 212.204 61.3563 211.441 61.9905 210.879C62.6248 210.316 63.485 210 64.3819 210H193.618C194.515 210 195.375 210.316 196.009 210.879C196.644 211.441 197 212.204 197 213C197 213.796 196.644 214.559 196.009 215.121C195.375 215.684 194.515 216 193.618 216ZM64.3819 210.73C63.7032 210.73 63.0523 210.969 62.5724 211.395C62.0925 211.821 61.8228 212.398 61.8228 213C61.8228 213.602 62.0925 214.179 62.5724 214.605C63.0523 215.031 63.7032 215.27 64.3819 215.27H193.618C194.297 215.27 194.948 215.031 195.428 214.605C195.908 214.179 196.177 213.602 196.177 213C196.177 212.398 195.908 211.821 195.428 211.395C194.948 210.969 194.297 210.73 193.618 210.73H64.3819Z" fill="#231F20"/>
<path d="M143.615 133C143.555 133.001 143.496 132.988 143.442 132.963C143.388 132.939 143.341 132.902 143.304 132.858L123.106 107.614C123.069 107.577 123.04 107.533 123.022 107.485C123.004 107.436 122.997 107.385 123.001 107.334C123.006 107.283 123.022 107.233 123.048 107.188C123.074 107.143 123.11 107.104 123.154 107.073C123.197 107.042 123.247 107.021 123.3 107.009C123.353 106.998 123.408 106.997 123.462 107.007C123.515 107.017 123.566 107.038 123.61 107.067C123.654 107.097 123.691 107.135 123.719 107.179L143.917 132.423C143.949 132.46 143.972 132.503 143.986 132.548C143.999 132.594 144.003 132.642 143.997 132.689C143.991 132.736 143.975 132.782 143.949 132.823C143.924 132.864 143.89 132.9 143.85 132.929C143.781 132.975 143.699 132.999 143.615 133V133Z" fill="white"/>
<path d="M131.084 191C131.084 191 128.69 198.351 131.018 199.777C133.683 201.422 155.941 204.096 157.86 202.521C159.778 200.946 141.356 192.247 141.356 192.247L131.084 191Z" fill="white"/>
<path d="M153.809 204C146.873 204 133.262 202.035 131.147 200.661C128.752 199.063 130.812 192.05 131.059 191.251C131.086 191.17 131.141 191.1 131.214 191.055C131.287 191.01 131.373 190.992 131.458 191.004L141.476 192.234H141.596C144.278 193.576 157.705 200.389 157.992 202.73C158.01 202.855 157.997 202.984 157.952 203.102C157.907 203.221 157.833 203.327 157.737 203.409C157.266 203.824 155.845 204 153.809 204ZM131.674 191.762C131.027 193.975 129.95 199.023 131.538 200.054C134.324 201.859 155.709 204.224 157.25 202.89C157.481 201.915 150.329 197.458 141.285 192.953L131.674 191.762Z" fill="#231F20"/>
</svg>
