<svg width="200" height="200" viewBox="0 0 262 242" fill="none" xmlns="http://www.w3.org/2000/svg">
<ellipse cx="130.57" cy="120.995" rx="130.57" ry="120.995" fill="#DDF0F4"/>
<ellipse cx="130.57" cy="120.995" rx="130.57" ry="120.995" fill="white"/>
<path d="M133.345 38.3452C132.572 38.2078 131.814 37.9877 131.084 37.6884C128.651 36.6809 126.541 34.5091 126.123 31.8223C126.045 31.2289 126.014 30.6299 126.03 30.0311C126.03 27.6056 126.383 24.2471 127.715 22.1574C128.391 21.0977 129.723 20.3737 130.868 20.8364C130.472 21.1499 129.918 20.5081 130.091 20.023C130.21 19.7999 130.376 19.6075 130.576 19.4602C130.777 19.3129 131.007 19.2144 131.25 19.1721C133.302 18.5228 135.642 18.3288 137.492 19.4557C137.325 19.239 137.243 18.9644 137.263 18.6874C137.283 18.4103 137.403 18.1515 137.6 17.9631C138.02 17.5986 138.55 17.4002 139.098 17.4034C142.532 17.172 145.657 20.1274 146.535 23.5755C147.414 27.0235 146.427 30.7402 144.699 33.8225C143.888 35.4132 142.711 36.7719 141.272 37.778C139.796 38.7258 138.536 38.4795 136.895 38.5243C135.709 38.5952 134.519 38.5352 133.345 38.3452Z" fill="white"/>
<path d="M135.98 38.9347C135.078 38.9401 134.177 38.8652 133.287 38.7108C132.489 38.5713 131.708 38.3461 130.955 38.0391C128.168 36.8823 126.181 34.5239 125.771 31.8819C125.684 31.2692 125.651 30.6499 125.67 30.031C125.67 27.5458 126.023 24.1351 127.419 21.9483C127.682 21.5405 128.019 21.1902 128.412 20.9174C128.804 20.6447 129.245 20.4548 129.709 20.3587C129.684 20.2032 129.699 20.0436 129.752 19.896C129.889 19.6176 130.085 19.3753 130.326 19.1877C130.567 19.0001 130.846 18.8722 131.142 18.8138C132.726 18.3137 134.929 17.9331 136.902 18.7392C136.924 18.339 137.088 17.9614 137.363 17.6794C137.841 17.2466 138.456 17.0103 139.091 17.0151C142.871 16.7465 146.039 20.0975 146.895 23.4634C147.709 26.6502 147.047 30.3893 145.023 33.994C144.18 35.642 142.956 37.0473 141.459 38.0839C140.378 38.7227 139.135 39.0039 137.895 38.8899H136.916L135.98 38.9347ZM130.091 21.0677C129.672 21.1046 129.267 21.2409 128.908 21.4661C128.548 21.6913 128.243 21.9993 128.017 22.3663C126.649 24.5008 126.411 28.0906 126.39 30.0385C126.371 30.6149 126.403 31.1919 126.483 31.7625C126.843 34.1134 128.701 36.3001 131.221 37.345C131.918 37.6316 132.642 37.8418 133.381 37.9719C134.527 38.17 135.691 38.2351 136.851 38.166H137.867C138.973 38.2796 140.087 38.0373 141.056 37.4719C142.442 36.4959 143.575 35.1809 144.354 33.6432C146.283 30.2101 146.924 26.6651 146.161 23.6724C145.398 20.6796 142.561 17.5525 139.091 17.7839C138.641 17.7806 138.205 17.9418 137.859 18.2391C137.704 18.3991 137.616 18.6165 137.615 18.8436C137.612 18.9104 137.622 18.9771 137.644 19.0399C137.666 19.1027 137.7 19.1602 137.744 19.2093C137.81 19.2709 137.85 19.3557 137.858 19.4469C137.866 19.5381 137.841 19.6291 137.787 19.7019C137.734 19.7745 137.657 19.8245 137.571 19.8424C137.485 19.8602 137.395 19.8448 137.319 19.7989C135.404 18.6347 132.999 19.0526 131.365 19.5526C130.991 19.6646 130.551 19.8437 130.436 20.1796C130.424 20.2091 130.418 20.2408 130.418 20.2728C130.418 20.3049 130.424 20.3366 130.436 20.3661C130.626 20.3886 130.812 20.4363 130.991 20.5079C131.049 20.5345 131.1 20.5757 131.139 20.6278C131.178 20.6799 131.203 20.7414 131.214 20.8065C131.223 20.8711 131.215 20.9371 131.191 20.9975C131.166 21.0578 131.127 21.1104 131.077 21.1498C130.947 21.2654 130.781 21.3289 130.609 21.3289C130.437 21.3289 130.271 21.2654 130.141 21.1498L130.091 21.0677Z" fill="#231F20"/>
<path d="M107.115 119.791C107.115 120.291 101.687 124.224 95.3147 134.979C90.9002 133.478 86.3758 132.35 81.7859 131.605C76.0081 130.654 70.1397 130.438 64.3115 130.963L62.5115 138.098C62.5115 138.098 95.7899 150.323 100.491 148.547C105.193 146.771 120.104 127.426 120.104 127.426" fill="white"/>
<path d="M99.1882 149.069C91.3906 149.069 63.6562 138.919 62.389 138.449C62.3051 138.419 62.2354 138.356 62.194 138.274C62.1527 138.193 62.1426 138.098 62.1658 138.009L63.9586 130.874C63.9785 130.801 64.0183 130.735 64.0732 130.685C64.1281 130.635 64.1958 130.602 64.2682 130.59C70.1304 130.072 76.0316 130.29 81.8434 131.24C86.3568 131.976 90.8079 133.077 95.1562 134.531C98.1244 129.435 101.729 124.767 105.877 120.649C106.189 120.354 106.485 120.04 106.763 119.709C106.78 119.63 106.821 119.558 106.881 119.506C106.941 119.453 107.016 119.423 107.094 119.418C107.142 119.413 107.19 119.418 107.235 119.433C107.281 119.448 107.323 119.473 107.359 119.506C107.395 119.539 107.424 119.58 107.444 119.625C107.464 119.67 107.475 119.719 107.475 119.769C107.475 120.067 107.274 120.284 106.374 121.187C102.202 125.33 98.5845 130.034 95.617 135.173C95.5753 135.245 95.511 135.299 95.435 135.328C95.359 135.356 95.2758 135.357 95.1994 135.33C90.7928 133.841 86.2784 132.721 81.6994 131.979C76.0322 131.063 70.2811 130.838 64.5634 131.307L62.9794 137.86C74.5426 142.099 96.8194 149.547 100.419 148.181C104.977 146.442 119.723 127.374 119.859 127.18C119.887 127.137 119.923 127.1 119.965 127.072C120.007 127.044 120.054 127.026 120.103 127.018C120.152 127.01 120.203 127.012 120.251 127.025C120.299 127.039 120.344 127.062 120.383 127.094C120.422 127.126 120.454 127.167 120.478 127.212C120.501 127.258 120.515 127.308 120.518 127.36C120.522 127.411 120.515 127.463 120.498 127.512C120.482 127.56 120.455 127.605 120.421 127.642C119.809 128.441 105.395 147.047 100.65 148.883C100.176 149.029 99.682 149.092 99.1882 149.069V149.069Z" fill="#231F20"/>
<path d="M112.818 104.342L101.687 124.224L118.65 135.329L129.774 120.35L112.818 104.342Z" fill="#231F20"/>
<path d="M118.65 135.704C118.583 135.702 118.518 135.681 118.463 135.644L101.499 124.539C101.421 124.488 101.364 124.407 101.341 124.314C101.319 124.221 101.331 124.122 101.377 124.039L112.508 104.157C112.535 104.109 112.572 104.068 112.615 104.036C112.658 104.003 112.708 103.981 112.76 103.97C112.813 103.963 112.867 103.968 112.918 103.985C112.969 104.001 113.016 104.029 113.055 104.067L130.011 120.083C130.079 120.145 130.121 120.231 130.129 120.324C130.137 120.417 130.11 120.51 130.055 120.583L118.938 135.554C118.904 135.6 118.86 135.638 118.81 135.663C118.76 135.689 118.706 135.703 118.65 135.704ZM102.169 124.098L118.571 134.838L129.284 120.397L112.904 104.925L102.169 124.098Z" fill="#231F20"/>
<path d="M128.42 129.053C128.42 129.053 140.963 139.844 144.195 142.21C144.195 142.21 143.209 151.271 146.881 158.48C150.553 165.69 160.971 178.586 160.971 178.586L167.387 177.288C167.387 177.288 157.199 143.957 154.959 137.382C152.72 130.806 142.453 114.902 142.453 114.902L128.42 129.053Z" fill="white"/>
<path d="M160.971 178.96C160.918 178.96 160.866 178.947 160.817 178.924C160.769 178.901 160.726 178.868 160.691 178.826C160.59 178.699 150.207 165.818 146.564 158.675C143.202 152.078 143.684 143.861 143.814 142.413C140.365 139.838 128.312 129.464 128.19 129.36C128.15 129.328 128.118 129.287 128.096 129.241C128.073 129.194 128.061 129.143 128.06 129.091C128.058 129.039 128.066 128.986 128.085 128.937C128.104 128.888 128.132 128.844 128.168 128.807L142.201 114.627C142.239 114.59 142.285 114.561 142.334 114.543C142.384 114.525 142.437 114.518 142.489 114.523C142.541 114.529 142.591 114.548 142.636 114.576C142.68 114.604 142.719 114.642 142.748 114.687C143.173 115.344 153.073 130.711 155.298 137.256C157.523 143.801 167.631 176.811 167.732 177.169C167.76 177.272 167.747 177.382 167.696 177.475C167.671 177.52 167.636 177.558 167.595 177.587C167.554 177.617 167.508 177.637 167.459 177.647L161.036 178.945L160.971 178.96ZM128.953 129.031C130.904 130.703 141.503 139.786 144.397 141.905C144.449 141.945 144.491 141.999 144.517 142.06C144.544 142.122 144.555 142.189 144.548 142.256C144.548 142.346 143.627 151.287 147.198 158.31C150.582 164.952 159.87 176.632 161.108 178.177L166.926 177.005C165.759 173.206 156.702 143.615 154.621 137.51C152.612 131.614 143.951 117.919 142.381 115.486L128.953 129.031Z" fill="#231F20"/>
<path d="M107.123 93.3633C107.123 93.3633 105.834 105.663 107.648 112.103C109.463 118.544 129.039 134.247 129.039 134.247L142.453 114.902L134.425 98.8413L107.123 93.3633Z" fill="#231F20"/>
<path d="M129.039 134.622C128.961 134.623 128.885 134.597 128.823 134.547C128.017 133.905 109.124 118.68 107.303 112.209C105.481 105.739 106.712 93.8275 106.77 93.32C106.774 93.2691 106.789 93.2198 106.814 93.1759C106.839 93.1319 106.873 93.0944 106.914 93.0662C106.953 93.0352 106.999 93.0131 107.047 93.0016C107.096 92.99 107.146 92.9891 107.195 92.999L134.497 98.4397C134.549 98.4513 134.598 98.4747 134.64 98.5082C134.683 98.5418 134.717 98.5847 134.742 98.6338L142.77 114.732C142.805 114.79 142.824 114.857 142.824 114.926C142.824 114.995 142.805 115.062 142.77 115.12L129.363 134.472C129.335 134.513 129.298 134.547 129.256 134.573C129.214 134.599 129.167 134.615 129.119 134.622H129.039ZM107.439 93.8051C107.245 95.9694 106.403 106.358 107.994 112C109.628 117.822 126.519 131.733 128.967 133.718L142.028 114.874L134.187 99.1413L107.439 93.8051Z" fill="#231F20"/>
<path d="M64.3113 130.933L55.4265 129.553C55.4265 129.553 50.8113 149.218 51.4593 151.084C52.5393 154.069 62.4969 138.106 62.4969 138.106L64.3113 130.933Z" fill="#231F20"/>
<path d="M51.8841 151.831H51.8409C51.6762 151.813 51.52 151.746 51.3919 151.637C51.2639 151.528 51.1696 151.383 51.1209 151.219C50.4009 149.3 54.5841 131.523 55.0593 129.501C55.08 129.409 55.1329 129.33 55.2076 129.277C55.2823 129.225 55.3733 129.203 55.4625 129.217L64.3401 130.605C64.3895 130.614 64.4367 130.633 64.4787 130.661C64.5207 130.69 64.5566 130.727 64.5843 130.77C64.6119 130.814 64.6307 130.862 64.6395 130.914C64.6483 130.965 64.6469 131.017 64.6353 131.068L62.8353 138.203C62.8285 138.24 62.8137 138.276 62.7921 138.307C54.9081 150.995 52.4025 151.831 51.8841 151.831ZM55.7001 130.001C53.9217 137.583 51.3801 149.696 51.8121 150.957C51.8553 151.084 51.8985 151.084 51.9201 151.092C53.1945 151.092 58.0833 144.464 62.1441 137.956L63.8289 131.239L55.7001 130.001Z" fill="#231F20"/>
<path d="M160.654 178.199C160.654 178.199 160.107 184.02 161.641 184.662C163.174 185.304 181.801 183.072 181.153 181.677C180.505 180.281 166.839 175.982 166.839 175.982L160.654 178.199Z" fill="#231F20"/>
<path d="M162.98 185.147C162.496 185.173 162.011 185.125 161.54 185.006C159.848 184.297 160.244 179.184 160.338 178.162C160.346 178.092 160.372 178.026 160.414 177.97C160.456 177.915 160.512 177.873 160.575 177.848L166.76 175.609C166.833 175.583 166.911 175.583 166.983 175.609C170.223 176.632 180.851 180.087 181.513 181.498C181.559 181.606 181.571 181.726 181.549 181.842C181.528 181.958 181.472 182.065 181.391 182.147C180.195 183.453 167.516 185.147 162.98 185.147ZM160.993 178.475C160.806 180.767 160.921 183.961 161.778 184.319C163.419 185.013 179.209 182.826 180.743 181.744C179.843 180.849 173.147 178.378 166.847 176.386L160.993 178.475Z" fill="#231F20"/>
<path d="M68.9482 140.712H68.8618C68.8159 140.699 68.7728 140.678 68.7349 140.649C68.697 140.619 68.6651 140.582 68.641 140.54C68.6169 140.498 68.6012 140.451 68.5946 140.402C68.588 140.353 68.5907 140.304 68.6026 140.256L71.065 130.614C71.0919 130.52 71.1525 130.441 71.2342 130.392C71.316 130.344 71.4126 130.329 71.5042 130.353C71.5501 130.365 71.5932 130.386 71.6311 130.416C71.669 130.445 71.7009 130.482 71.725 130.525C71.7491 130.567 71.7649 130.614 71.7715 130.662C71.778 130.711 71.7753 130.76 71.7634 130.808L69.301 140.443C69.2789 140.522 69.2323 140.591 69.1685 140.639C69.1048 140.688 69.0273 140.713 68.9482 140.712Z" fill="#231F20"/>
<path d="M157.919 174.079C157.852 174.079 157.786 174.061 157.729 174.025C157.672 173.99 157.625 173.938 157.595 173.877C157.554 173.789 157.547 173.687 157.577 173.594C157.606 173.501 157.669 173.423 157.753 173.377L164.953 169.593C164.995 169.571 165.04 169.558 165.086 169.554C165.133 169.55 165.18 169.556 165.224 169.571C165.269 169.586 165.31 169.609 165.346 169.641C165.381 169.672 165.41 169.711 165.432 169.754C165.453 169.797 165.466 169.844 165.47 169.892C165.473 169.94 165.468 169.989 165.453 170.035C165.439 170.081 165.416 170.124 165.386 170.161C165.356 170.198 165.319 170.228 165.277 170.25L158.077 174.041C158.028 174.068 157.974 174.081 157.919 174.079V174.079Z" fill="#231F20"/>
<path d="M144.613 55.5039L152.367 78.0503C157.905 74.9031 163.648 72.1599 169.554 69.8408C169.554 69.8408 168.927 65.5121 170.807 63.7284C172.686 61.9447 174.241 60.9222 174.45 61.4372C174.659 61.9521 175.4 63.4746 175.4 63.4746C175.4 63.4746 177.186 60.9222 178.23 61.4372C179.274 61.9521 180.21 67.9824 180.203 69.587C180.195 71.1916 154.823 95.7084 149.415 92.1111C144.008 88.5138 136.11 71.729 136.11 71.729" fill="white"/>
<path d="M150.819 92.8722C150.271 92.8901 149.729 92.7451 149.257 92.4543C143.828 88.872 136.146 72.6096 135.822 71.9229C135.801 71.8788 135.789 71.8309 135.786 71.7819C135.783 71.7329 135.789 71.6838 135.805 71.6374C135.82 71.5909 135.844 71.5481 135.875 71.5113C135.907 71.4745 135.945 71.4445 135.987 71.4229C136.03 71.4014 136.076 71.3887 136.123 71.3856C136.171 71.3826 136.218 71.3892 136.263 71.4052C136.308 71.4211 136.349 71.446 136.385 71.4785C136.42 71.511 136.449 71.5505 136.47 71.5946C136.549 71.7588 144.39 88.357 149.646 91.8274C150.366 92.3125 151.662 92.2006 153.433 91.4915C162.375 87.9092 179.461 71.1617 179.879 69.5795C179.879 67.6017 178.827 62.1163 178.115 61.8028C177.582 61.5416 176.379 62.7954 175.724 63.7209C175.689 63.7744 175.641 63.8173 175.585 63.8452C175.528 63.8731 175.466 63.885 175.404 63.8797C175.341 63.8744 175.282 63.852 175.23 63.815C175.179 63.7779 175.138 63.7274 175.112 63.6686C175.112 63.6089 174.45 62.2954 174.198 61.7132C173.874 61.7804 172.844 62.3625 171.087 64.0343C169.331 65.7061 169.943 69.7735 169.943 69.8183C169.956 69.9019 169.941 69.9878 169.901 70.0613C169.86 70.1348 169.796 70.1914 169.719 70.2213C163.832 72.5449 158.106 75.288 152.583 78.4309C152.535 78.4548 152.482 78.4671 152.429 78.4671C152.375 78.4671 152.322 78.4548 152.274 78.4309C152.224 78.4123 152.179 78.3826 152.142 78.3439C152.104 78.3052 152.076 78.2584 152.058 78.207L144.275 55.6307C144.244 55.5366 144.251 55.4341 144.293 55.3449C144.334 55.2557 144.408 55.1869 144.498 55.1531C144.542 55.1355 144.589 55.1273 144.636 55.1292C144.683 55.131 144.729 55.1427 144.771 55.1637C144.814 55.1847 144.851 55.2144 144.882 55.2511C144.913 55.2877 144.937 55.3306 144.951 55.377L152.562 77.5055C157.928 74.507 163.474 71.8671 169.165 69.6019C169.057 68.557 168.841 65.1239 170.562 63.4522C171.635 62.4372 173.543 60.7505 174.378 60.9445C174.467 60.9631 174.55 61.0041 174.621 61.0639C174.691 61.1238 174.746 61.2007 174.781 61.2878C174.903 61.5938 175.235 62.2879 175.501 62.7805C176.149 61.9745 177.423 60.6162 178.381 61.1013C179.778 61.7804 180.541 68.4749 180.541 69.5944C180.541 71.2139 165.385 85.7299 156.335 90.8422C153.98 92.1782 152.137 92.8722 150.819 92.8722Z" fill="#231F20"/>
<path d="M175.422 63.1387C175.879 64.1467 176.28 65.1808 176.624 66.2359C176.998 67.235 177.113 68.3186 176.955 69.3779C176.746 70.4153 175.969 71.3482 175.09 71.2661C174.09 71.1766 173.449 69.9004 173.19 68.7137" fill="white"/>
<path d="M175.199 71.6458H175.062C173.55 71.504 172.981 69.4068 172.844 68.8023C172.823 68.7063 172.838 68.6054 172.888 68.5215C172.938 68.4376 173.018 68.3776 173.111 68.3545C173.157 68.3424 173.205 68.3403 173.252 68.3481C173.3 68.356 173.345 68.3737 173.385 68.4003C173.426 68.4268 173.46 68.4615 173.487 68.5024C173.515 68.5433 173.533 68.5895 173.543 68.6381C173.759 69.6307 174.306 70.8248 175.119 70.8771C175.933 70.9293 176.437 70.1308 176.603 69.28C176.744 68.2731 176.635 67.2455 176.286 66.2947C175.955 65.2423 175.515 64.2199 175.098 63.2347C175.059 63.1447 175.056 63.0422 175.09 62.9499C175.123 62.8576 175.191 62.7829 175.278 62.7422C175.321 62.7211 175.367 62.7093 175.415 62.7073C175.462 62.7054 175.509 62.7133 175.554 62.7307C175.598 62.7482 175.639 62.7747 175.673 62.8087C175.707 62.8427 175.734 62.8835 175.753 62.9287C176.209 63.9517 176.615 64.9979 176.97 66.0633C177.357 67.1268 177.474 68.2757 177.308 69.3994C177.085 70.5562 176.243 71.6458 175.199 71.6458Z" fill="#231F20"/>
<path d="M150.099 82.4225C150.005 82.4148 149.917 82.3691 149.855 82.2951C149.793 82.221 149.762 82.1247 149.768 82.0269C149.941 79.6835 152.094 77.855 152.187 77.7803C152.262 77.718 152.357 77.6889 152.452 77.6994C152.547 77.7099 152.635 77.7591 152.695 77.8363C152.755 77.9135 152.783 78.0123 152.773 78.111C152.763 78.2097 152.715 78.3001 152.641 78.3625C152.641 78.3625 150.639 80.0716 150.481 82.0941C150.47 82.1891 150.424 82.2762 150.353 82.3373C150.282 82.3984 150.191 82.4289 150.099 82.4225Z" fill="#231F20"/>
<path d="M137.319 99.6473L105.402 93.7663C105.402 93.7663 108.527 73.5558 108.505 55.5023C108.505 49.8526 124.345 41.255 130.508 43.6954C136.671 46.1359 143.324 52.0244 145.203 54.9649C145.981 56.174 135.699 93.3633 137.319 99.6473Z" fill="#7000FF"/>
<path d="M110.658 58.6292C110.658 58.6292 108.145 75.1528 112.875 74.9886C117.606 74.8244 124.583 54.6513 121.343 50.3301C118.103 46.0088 110.024 47.6582 110.658 58.6292Z" fill="#231F20"/>
<path d="M112.803 75.3621C112.483 75.364 112.166 75.2919 111.876 75.1512C111.586 75.0105 111.33 74.8047 111.126 74.5486C108.447 71.4066 110.161 59.5326 110.298 58.6146C110.003 53.3083 111.738 49.3901 114.999 48.1661C116.162 47.7086 117.436 47.6534 118.631 48.0085C119.826 48.3636 120.879 49.1101 121.631 50.1364C123.74 52.9575 121.854 61.7343 118.902 68.2497C117.707 70.8842 115.338 75.3173 112.883 75.3994L112.803 75.3621ZM117.037 48.4945C116.427 48.4935 115.822 48.6073 115.251 48.8303C112.314 49.9797 110.73 53.6366 111.018 58.6146V58.6967C111.018 58.8236 109.16 71.1305 111.666 74.0635C111.811 74.2452 111.994 74.3906 112.201 74.4888C112.408 74.587 112.633 74.6355 112.861 74.6307C114.351 74.5785 116.367 72.0634 118.254 67.9138C121.069 61.6969 122.919 53.047 121.062 50.5618C120.589 49.9197 119.98 49.3987 119.282 49.039C118.584 48.6792 117.816 48.4904 117.037 48.487V48.4945Z" fill="#231F20"/>
<path d="M82.0667 69.5345C81.2603 72.3034 88.5827 93.6333 88.5827 93.6333C88.5827 93.6333 91.4195 104.545 92.7803 105.074C94.1411 105.604 98.3171 105.88 99.3899 105.88C101.874 105.88 99.5915 101.664 99.2747 101.589C99.2747 101.589 100.931 102.38 101.687 101.097C102.443 99.8129 101.759 98.5441 101.111 96.6186C100.463 94.6931 96.9707 94.514 96.9707 94.514C96.6755 90.5585 92.9747 72.6989 92.9747 72.6989C92.9747 72.6989 115.057 62.1907 117.721 60.7578C120.385 59.3248 123.711 53.5408 117.721 49.6674C111.731 45.794 82.8803 66.7507 82.0667 69.5345Z" fill="white"/>
<path d="M99.3899 106.245C98.4395 106.245 94.1339 105.992 92.6507 105.417C91.1675 104.842 88.9067 96.3341 88.2299 93.7369C87.5099 91.5651 80.9075 72.2353 81.7499 69.4291C82.4699 67.0708 99.7499 54.2191 110.334 50.0994C113.991 48.6739 116.547 48.4127 117.944 49.353C120.947 51.2935 121.544 53.5996 121.458 55.1818C121.374 56.3899 121.008 57.5587 120.39 58.5872C119.773 59.6157 118.924 60.4731 117.915 61.0852C115.395 62.4734 96.0275 71.7054 93.4355 72.9518C93.9179 75.2952 96.9275 90.0127 97.3451 94.2071C98.2595 94.3041 100.88 94.7444 101.492 96.5281C101.593 96.8267 101.694 97.1028 101.787 97.3715C102.335 98.8641 102.767 100.081 102.039 101.32C101.849 101.64 101.572 101.896 101.244 102.056C100.915 102.216 100.549 102.274 100.189 102.223C100.656 103.065 100.904 104.019 100.909 104.991C100.896 105.179 100.846 105.362 100.763 105.529C100.679 105.696 100.564 105.844 100.424 105.964C100.284 106.084 100.123 106.174 99.9486 106.227C99.7745 106.28 99.5918 106.297 99.4115 106.275L99.3899 106.245ZM82.4195 69.6456C81.8507 71.586 86.0195 84.9825 88.8995 93.5279C90.2459 98.7074 92.1539 104.447 92.8811 104.723C94.1699 105.215 98.2883 105.469 99.3611 105.469C99.9515 105.469 100.081 105.185 100.081 105.081C100.398 104.2 99.3611 102.2 99.0731 101.887C98.9968 101.847 98.9372 101.779 98.9054 101.697C98.8736 101.614 98.8718 101.523 98.9003 101.439C98.9284 101.352 98.9866 101.278 99.0637 101.233C99.1407 101.188 99.2312 101.173 99.3179 101.193H99.3899C99.4403 101.193 100.765 101.827 101.341 100.842C101.917 99.8567 101.55 98.9686 101.039 97.5431C100.938 97.2745 100.837 96.9909 100.729 96.6923C100.261 95.3116 97.8491 94.8862 96.9203 94.834C96.8326 94.8291 96.7495 94.7917 96.6861 94.7287C96.6227 94.6657 96.5832 94.5813 96.5747 94.4907C96.2867 90.6023 92.6291 72.8995 92.5859 72.7204C92.5686 72.6374 92.5791 72.5507 92.6158 72.4747C92.6524 72.3987 92.713 72.338 92.7875 72.3025C93.0107 72.198 114.891 61.7868 117.519 60.3613C118.414 59.8083 119.167 59.0414 119.717 58.1248C120.267 57.2081 120.597 56.1683 120.68 55.0923C120.752 53.0996 119.651 51.3084 117.505 49.9128C116.331 49.1665 113.905 49.4426 110.528 50.7561C99.5987 55.0027 82.9235 67.7499 82.3763 69.6083L82.4195 69.6456Z" fill="#231F20"/>
<path d="M122.387 129.725C122.344 129.735 122.3 129.735 122.257 129.725C114.625 126.262 107.655 112.858 107.367 112.283C107.346 112.246 107.333 112.205 107.328 112.162C107.323 112.119 107.327 112.075 107.339 112.034C107.352 111.992 107.372 111.954 107.399 111.921C107.426 111.889 107.459 111.862 107.497 111.843C107.534 111.822 107.574 111.809 107.616 111.805C107.658 111.8 107.7 111.804 107.74 111.817C107.78 111.829 107.818 111.85 107.85 111.877C107.883 111.905 107.909 111.939 107.929 111.977C108.001 112.112 115.086 125.747 122.516 129.143C122.587 129.171 122.645 129.224 122.681 129.293C122.717 129.361 122.728 129.441 122.712 129.517C122.697 129.594 122.655 129.662 122.596 129.709C122.536 129.757 122.462 129.781 122.387 129.777V129.725Z" fill="white"/>
<path d="M146.168 27.0691C145.635 26.0168 143.706 26.2183 142.568 26.0765C140.564 25.7464 138.533 25.6313 136.506 25.7332C134.473 25.8556 132.526 26.6273 130.933 27.9423C127.527 30.9276 128.147 37.6445 127.779 41.9135C127.599 44.0927 127.499 46.3242 127.117 48.4811V48.5408C127.247 49.3916 129.047 60.7432 133.043 63.1389C137.19 65.6167 138.594 52.4739 138.594 52.4739L138.896 44.1673C138.896 44.1673 143.216 44.9137 144.786 40.9805C145.839 38.0647 146.341 34.9656 146.262 31.853C146.305 30.6738 146.694 28.1139 146.168 27.0691Z" fill="white"/>
<path d="M134.079 63.8241C133.657 63.8115 133.245 63.6854 132.884 63.4584C128.794 61.003 126.98 49.8604 126.786 48.5916C126.782 48.532 126.782 48.4722 126.786 48.4125C127.052 46.7419 127.232 45.0578 127.326 43.3674C127.326 42.8673 127.398 42.3748 127.441 41.8747C127.506 41.0314 127.542 40.0835 127.57 39.0835C127.7 35.1056 127.858 30.1276 130.702 27.6349C132.36 26.2656 134.389 25.4671 136.506 25.3511C138.556 25.2478 140.612 25.3629 142.64 25.6944C142.885 25.6944 143.166 25.7392 143.468 25.7541C144.584 25.8138 145.981 25.881 146.485 26.8885C146.924 27.7617 146.809 29.4186 146.715 30.7545C146.715 31.1724 146.658 31.5531 146.65 31.8441C146.65 34.516 146.42 37.9864 145.153 41.1209C143.77 44.5242 140.43 44.6361 139.27 44.569L138.982 52.48C138.939 52.8905 137.924 62.0404 134.994 63.5778C134.713 63.7352 134.399 63.8197 134.079 63.8241ZM127.498 48.4872C127.57 48.9573 129.37 60.488 133.258 62.8016C133.468 62.9501 133.711 63.0386 133.964 63.0582C134.217 63.0779 134.47 63.028 134.698 62.9136C136.858 61.7866 138.018 54.9578 138.298 52.4203L138.579 44.1585C138.581 44.1048 138.594 44.0521 138.617 44.0043C138.641 43.9565 138.675 43.9148 138.716 43.8823C138.755 43.8487 138.799 43.8239 138.848 43.8098C138.896 43.7956 138.947 43.7924 138.997 43.8002C139.162 43.8002 143.05 44.4197 144.498 40.8149C145.722 37.8297 145.938 34.4264 145.938 31.8217C145.938 31.5158 145.938 31.1202 146.002 30.6799C146.089 29.5081 146.204 27.9035 145.858 27.2169C145.542 26.59 144.375 26.5378 143.439 26.4706C143.122 26.4706 142.82 26.4706 142.561 26.4109C140.581 26.0839 138.573 25.9689 136.57 26.0676C134.607 26.18 132.725 26.9147 131.178 28.1722C128.571 30.4784 128.42 35.2474 128.298 39.076C128.262 40.091 128.233 41.0463 128.161 41.912L128.053 43.4047C127.954 45.1077 127.769 46.8042 127.498 48.4872V48.4872Z" fill="#231F20"/>
<path d="M138.767 48.5324C137.854 48.484 136.967 48.2058 136.182 47.7221C135.396 47.2384 134.737 46.5636 134.259 45.7561C132.567 42.9574 133.187 41.1289 133.187 41.1289C134.655 42.8756 136.72 43.9644 138.947 44.1664L138.767 48.5324Z" fill="#231F20"/>
<path d="M138.759 48.9052C137.783 48.8551 136.833 48.5566 135.994 48.0359C135.156 47.5153 134.453 46.7885 133.95 45.9199C132.179 42.9943 132.812 41.0538 132.841 40.9717C132.861 40.9089 132.897 40.8528 132.945 40.8094C132.993 40.766 133.052 40.737 133.115 40.7255C133.178 40.715 133.244 40.7219 133.304 40.7454C133.365 40.769 133.419 40.8084 133.46 40.8598C133.46 40.8598 135.699 43.6137 138.939 43.8003C138.986 43.8013 139.033 43.8119 139.076 43.8317C139.118 43.8514 139.157 43.8798 139.189 43.9153C139.222 43.9508 139.247 43.9925 139.263 44.0381C139.279 44.0837 139.287 44.1323 139.285 44.1809L139.127 48.5469C139.123 48.6433 139.083 48.7344 139.016 48.8012C138.949 48.868 138.86 48.9052 138.767 48.9052H138.759ZM133.424 41.9494C133.45 43.2425 133.844 44.4988 134.555 45.5616C134.968 46.2658 135.53 46.8634 136.198 47.3094C136.867 47.7555 137.624 48.0383 138.414 48.1364L138.543 44.5168C136.613 44.2682 134.816 43.3657 133.431 41.9494H133.424Z" fill="#231F20"/>
<path d="M139.551 31.9707C139.551 31.9707 140.351 36.2845 139.551 36.8666C138.752 37.4487 137.391 36.3516 137.391 36.3516" fill="white"/>
<path d="M139.011 37.4117C138.342 37.3463 137.703 37.0877 137.168 36.6654C137.13 36.636 137.098 36.5991 137.074 36.557C137.05 36.5148 137.034 36.4681 137.028 36.4196C137.021 36.3711 137.024 36.3217 137.035 36.2742C137.047 36.2268 137.068 36.1822 137.096 36.143C137.125 36.1038 137.16 36.0707 137.201 36.0458C137.241 36.0208 137.286 36.0044 137.333 35.9974C137.38 35.9905 137.428 35.9932 137.474 36.0054C137.519 36.0175 137.562 36.0389 137.6 36.0683C137.91 36.3071 138.896 36.9191 139.357 36.5758C139.667 36.3445 139.595 34.1876 139.199 32.0531C139.182 31.9562 139.203 31.8562 139.257 31.7752C139.31 31.6941 139.393 31.6384 139.487 31.6202C139.533 31.6094 139.58 31.6084 139.626 31.6174C139.673 31.6263 139.717 31.645 139.756 31.6723C139.795 31.6995 139.828 31.7348 139.854 31.7759C139.879 31.817 139.896 31.8631 139.904 31.9113C140.156 33.2845 140.624 36.5385 139.775 37.1878C139.549 37.3438 139.282 37.4221 139.011 37.4117V37.4117Z" fill="#231F20"/>
<path d="M136.808 33.0037C136.899 32.4678 136.673 31.9792 136.305 31.9124C135.937 31.8457 135.565 32.2261 135.475 32.762C135.384 33.2979 135.61 33.7865 135.978 33.8533C136.346 33.92 136.718 33.5397 136.808 33.0037Z" fill="#231F20"/>
<path d="M143.82 33.8651C143.911 33.3291 143.685 32.8405 143.317 32.7738C142.949 32.707 142.577 33.0874 142.487 33.6233C142.396 34.1593 142.621 34.6479 142.99 34.7146C143.358 34.7814 143.73 34.401 143.82 33.8651Z" fill="#231F20"/>
<path d="M130.739 34.6577C130.75 34.2118 130.627 33.7733 130.386 33.4039C130.068 32.7839 129.647 32.2278 129.14 31.7619C128.63 31.2953 127.977 31.0309 127.297 31.0156C126.637 31.0704 126.017 31.3711 125.554 31.8623C125.091 32.3534 124.815 33.0017 124.777 33.6875C124.767 34.3744 124.93 35.0522 125.249 35.6542C125.568 36.2562 126.034 36.7616 126.599 37.1206C127.034 37.4402 127.536 37.6493 128.064 37.7309C128.592 37.8126 129.13 37.7646 129.637 37.5907" fill="white"/>
<path d="M128.629 38.1291C127.833 38.1092 127.06 37.8499 126.404 37.3828C125.785 36.9869 125.276 36.4303 124.927 35.768C124.579 35.1057 124.403 34.3607 124.417 33.6064C124.469 32.8324 124.789 32.104 125.318 31.5555C125.848 31.0069 126.55 30.675 127.297 30.6211C128.054 30.6431 128.78 30.9388 129.349 31.457C129.896 31.9357 130.352 32.5152 130.695 33.1661C130.981 33.6057 131.123 34.1291 131.099 34.6587C131.093 34.7078 131.079 34.7554 131.055 34.7986C131.032 34.8418 131.001 34.8798 130.963 34.9103C130.926 34.9409 130.883 34.9634 130.837 34.9766C130.791 34.9898 130.743 34.9933 130.695 34.9871C130.601 34.974 130.514 34.923 130.455 34.8449C130.396 34.7668 130.368 34.6679 130.379 34.5691C130.382 34.203 130.274 33.845 130.069 33.5467C129.779 32.9633 129.386 32.4417 128.91 32.0093C128.465 31.5963 127.894 31.3609 127.297 31.345C126.728 31.3995 126.198 31.6638 125.801 32.0898C125.405 32.5158 125.169 33.0752 125.137 33.6661C125.13 34.2878 125.28 34.9007 125.571 35.444C125.863 35.9873 126.287 36.4421 126.8 36.7633C127.188 37.0491 127.634 37.237 128.104 37.3122C128.574 37.3873 129.055 37.3476 129.507 37.1962C129.596 37.1596 129.695 37.161 129.783 37.2002C129.871 37.2394 129.94 37.3131 129.975 37.4052C130.011 37.4972 130.009 37.6 129.972 37.691C129.934 37.782 129.863 37.8537 129.774 37.8903C129.41 38.0448 129.022 38.1259 128.629 38.1291V38.1291Z" fill="#231F20"/>
<path d="M141.459 40.5617C141.258 40.5617 136.419 40.5617 133.719 37.5764C133.683 37.5421 133.653 37.5002 133.632 37.4535C133.612 37.4068 133.601 37.3562 133.6 37.3049C133.599 37.2535 133.609 37.2026 133.628 37.1552C133.647 37.1078 133.675 37.065 133.711 37.0295C133.747 36.994 133.789 36.9665 133.836 36.9488C133.882 36.931 133.932 36.9234 133.981 36.9264C134.031 36.9294 134.079 36.943 134.123 36.9662C134.167 36.9894 134.206 37.0218 134.238 37.0614C136.765 39.7855 141.438 39.8228 141.438 39.8228C141.533 39.8247 141.623 39.8647 141.69 39.9342C141.757 40.0038 141.796 40.0976 141.798 40.196C141.796 40.2899 141.76 40.3797 141.698 40.4475C141.635 40.5153 141.55 40.5561 141.459 40.5617Z" fill="#231F20"/>
<path d="M147.029 26.1338L126.955 23.8402C126.453 23.7828 126.001 24.1581 125.946 24.6785L125.731 26.6962C125.676 27.2166 126.038 27.6849 126.54 27.7422L146.615 30.0358C147.116 30.0931 147.568 29.7178 147.624 29.1975L147.838 27.1797C147.893 26.6594 147.531 26.1911 147.029 26.1338Z" fill="white"/>
<path d="M146.723 30.405H146.579L126.505 28.1138C126.336 28.0945 126.172 28.0403 126.023 27.9543C125.875 27.8683 125.744 27.7523 125.639 27.6132C125.535 27.4741 125.458 27.3146 125.414 27.1442C125.369 26.9738 125.359 26.796 125.382 26.6212L125.591 24.6136C125.608 24.4375 125.66 24.267 125.742 24.112C125.825 23.9571 125.937 23.8209 126.071 23.7116C126.205 23.6023 126.36 23.5221 126.524 23.4758C126.689 23.4294 126.861 23.4179 127.031 23.4418L147.104 25.7331C147.271 25.7512 147.432 25.8034 147.579 25.8866C147.726 25.9699 147.856 26.0826 147.961 26.2182C148.171 26.4919 148.269 26.8403 148.235 27.1884L148.019 29.2035C147.988 29.5359 147.837 29.8442 147.597 30.0669C147.357 30.2896 147.045 30.4103 146.723 30.405V30.405ZM126.858 24.2106C126.721 24.21 126.589 24.2625 126.488 24.3578C126.386 24.4531 126.323 24.5843 126.311 24.7255L126.095 26.7331C126.078 26.8845 126.121 27.0364 126.213 27.1554C126.304 27.2743 126.438 27.3506 126.584 27.3675L146.658 29.6587C146.805 29.6756 146.952 29.6318 147.068 29.5368C147.184 29.4418 147.259 29.3032 147.277 29.1512L147.486 27.1436C147.502 26.9914 147.46 26.8386 147.368 26.7185C147.276 26.5983 147.143 26.5205 146.996 26.5018L126.923 24.2106H126.858Z" fill="#231F20"/>
<path d="M148.861 88.1621H118.887C118.049 88.1621 117.245 87.8169 116.652 87.2024C116.06 86.588 115.727 85.7547 115.727 84.8857V84.8857C115.728 84.0181 116.062 83.1866 116.655 82.5738C117.247 81.961 118.05 81.6168 118.887 81.6168H142.453C147.579 81.6168 151.431 71.0787 155.931 65.944C160.431 60.8093 170.259 57.0478 183.003 56.9434L148.861 88.1621Z" fill="#E6E7E8"/>
<path d="M148.861 88.5354H118.887C118.412 88.5577 117.938 88.4799 117.492 88.3067C117.047 88.1336 116.64 87.8686 116.296 87.5279C115.952 87.1872 115.678 86.7777 115.491 86.3242C115.304 85.8708 115.208 85.3828 115.208 84.8896C115.208 84.3964 115.304 83.9084 115.491 83.455C115.678 83.0015 115.952 82.5921 116.296 82.2513C116.64 81.9106 117.047 81.6456 117.492 81.4725C117.938 81.2993 118.412 81.2215 118.887 81.2438H142.453C145.643 81.2438 148.465 76.6539 151.194 72.2208C152.515 69.9339 154.01 67.7601 155.665 65.7203C160.547 60.1751 171.023 56.6674 183.025 56.5704C183.097 56.5692 183.168 56.5916 183.228 56.6345C183.287 56.6773 183.332 56.7384 183.356 56.8092C183.382 56.8794 183.388 56.9562 183.371 57.0294C183.354 57.1027 183.316 57.169 183.263 57.2197L149.127 88.4384C149.054 88.5048 148.959 88.5396 148.861 88.5354V88.5354ZM118.887 81.9901C118.508 81.9702 118.129 82.0304 117.773 82.1671C117.417 82.3038 117.091 82.5141 116.816 82.7853C116.541 83.0565 116.321 83.3829 116.172 83.7447C116.022 84.1064 115.945 84.496 115.945 84.8896C115.945 85.2832 116.022 85.6728 116.172 86.0345C116.321 86.3963 116.541 86.7227 116.816 86.9939C117.091 87.2651 117.417 87.4754 117.773 87.6121C118.129 87.7488 118.508 87.809 118.887 87.7891H148.724L182.031 57.3316C170.655 57.6003 160.813 60.9737 156.191 66.2203C154.569 68.2335 153.1 70.3745 151.799 72.6238C148.969 77.2286 146.039 81.9901 142.439 81.9901H118.887Z" fill="#231F20"/>
<path d="M204.524 88.1621C204.524 88.1621 186.323 109.164 186.323 116.478C186.323 127.672 204.524 187.378 204.524 187.378H212.019C212.019 187.378 193.609 128.419 193.184 117.478C192.853 109.022 212.876 88.192 212.876 88.192L204.524 88.1621Z" fill="#E6E7E8"/>
<path d="M212.019 187.722H204.531C204.454 187.722 204.379 187.697 204.317 187.65C204.255 187.603 204.209 187.537 204.186 187.461C203.466 185.02 185.97 127.591 185.97 116.478C185.97 109.112 203.516 88.7742 204.258 87.916C204.292 87.8757 204.334 87.8435 204.381 87.8216C204.428 87.7997 204.48 87.7886 204.531 87.7891H212.876C212.947 87.7894 213.017 87.8116 213.076 87.8528C213.134 87.894 213.18 87.9523 213.207 88.0204C213.236 88.0874 213.244 88.1615 213.231 88.2334C213.218 88.3052 213.185 88.3714 213.135 88.4235C212.934 88.6324 193.22 109.238 193.544 117.433C193.962 128.21 212.178 186.64 212.365 187.229C212.382 187.285 212.387 187.345 212.378 187.403C212.369 187.462 212.347 187.517 212.315 187.565C212.28 187.613 212.236 187.652 212.185 187.679C212.133 187.706 212.077 187.721 212.019 187.722V187.722ZM204.819 186.975H211.551C209.665 180.9 193.263 127.934 192.831 117.47C192.529 109.679 208.614 92.1625 212.027 88.5354H204.683C203.192 90.2743 186.683 109.679 186.683 116.478C186.683 127.098 203.48 182.662 204.819 186.975Z" fill="#231F20"/>
<path d="M148.861 88.1621C148.861 88.1621 129.774 109.761 129.774 116.478C129.774 127.672 146.442 185.348 146.442 185.348H139.242C139.242 185.348 122.538 126.546 123.805 115.381C124.878 105.917 141.143 88.1621 141.143 88.1621H148.861Z" fill="#E6E7E8"/>
<path d="M146.442 185.722H139.242C139.164 185.723 139.087 185.697 139.025 185.649C138.962 185.6 138.917 185.531 138.896 185.453C138.176 183.05 122.185 126.449 123.445 115.299C124.525 105.82 140.214 88.5953 140.883 87.8639C140.952 87.7925 141.045 87.7522 141.143 87.752H148.847C148.917 87.7526 148.985 87.7741 149.044 87.8137C149.102 87.8534 149.149 87.9097 149.178 87.9759C149.207 88.0421 149.216 88.1158 149.205 88.1876C149.193 88.2594 149.161 88.326 149.113 88.3789C148.926 88.5953 130.119 109.94 130.119 116.441C130.119 127.441 146.607 184.632 146.773 185.207C146.79 185.262 146.794 185.321 146.784 185.379C146.774 185.436 146.751 185.49 146.715 185.535C146.688 185.587 146.649 185.632 146.601 185.664C146.553 185.697 146.499 185.717 146.442 185.722ZM139.523 184.976H145.959C144.246 179.005 129.399 127.173 129.399 116.478C129.399 110.261 144.843 92.2 148.033 88.5356H141.315C139.875 90.0879 125.18 106.589 124.179 115.403C122.977 126.001 138.306 180.647 139.523 184.976Z" fill="#231F20"/>
<path d="M210.097 185.348H120.162C117.68 185.348 115.669 187.433 115.669 190.005V190.012C115.669 192.584 117.68 194.669 120.162 194.669H210.097C212.578 194.669 214.59 192.584 214.59 190.012V190.005C214.59 187.433 212.578 185.348 210.097 185.348Z" fill="#231F20"/>
<path d="M210.097 195.043H120.162C118.906 194.992 117.718 194.44 116.847 193.502C115.975 192.563 115.489 191.311 115.489 190.009C115.489 188.706 115.975 187.454 116.847 186.516C117.718 185.577 118.906 185.025 120.162 184.975H210.097C211.353 185.025 212.541 185.577 213.412 186.516C214.283 187.454 214.77 188.706 214.77 190.009C214.77 191.311 214.283 192.563 213.412 193.502C212.541 194.44 211.353 194.992 210.097 195.043ZM120.162 185.721C119.095 185.767 118.086 186.239 117.347 187.038C116.607 187.837 116.194 188.901 116.194 190.009C116.194 191.116 116.607 192.18 117.347 192.979C118.086 193.778 119.095 194.25 120.162 194.296H210.097C210.655 194.32 211.211 194.227 211.733 194.023C212.256 193.818 212.732 193.506 213.135 193.106C213.538 192.705 213.859 192.224 214.078 191.692C214.297 191.16 214.41 190.587 214.41 190.009C214.41 189.43 214.297 188.857 214.078 188.325C213.859 187.793 213.538 187.312 213.135 186.912C212.732 186.511 212.256 186.199 211.733 185.994C211.211 185.79 210.655 185.697 210.097 185.721H120.162Z" fill="#231F20"/>
<path d="M198.03 194.67H208.016C208.016 195.612 207.655 196.516 207.012 197.182C206.37 197.848 205.498 198.222 204.589 198.222H201.45C200.541 198.222 199.669 197.848 199.026 197.182C198.384 196.516 198.022 195.612 198.022 194.67V194.67H198.03Z" fill="#231F20"/>
<path d="M204.589 198.588H201.45C200.448 198.586 199.487 198.173 198.779 197.438C198.07 196.704 197.672 195.709 197.67 194.67C197.67 194.571 197.708 194.476 197.775 194.406C197.843 194.336 197.934 194.297 198.03 194.297H208.016C208.112 194.297 208.203 194.336 208.271 194.406C208.338 194.476 208.376 194.571 208.376 194.67C208.374 195.71 207.974 196.706 207.264 197.441C206.554 198.176 205.592 198.588 204.589 198.588V198.588ZM198.404 195.043C198.494 195.816 198.853 196.528 199.414 197.044C199.975 197.561 200.699 197.848 201.45 197.849H204.589C205.34 197.848 206.065 197.562 206.628 197.045C207.19 196.528 207.55 195.816 207.642 195.043H198.404Z" fill="#231F20"/>
<path d="M135.512 194.67H145.499C145.499 195.612 145.138 196.516 144.495 197.182C143.852 197.848 142.98 198.222 142.071 198.222H138.939C138.03 198.222 137.159 197.848 136.516 197.182C135.873 196.516 135.512 195.612 135.512 194.67Z" fill="#E6E7E8"/>
<path d="M142.078 198.596H138.939C137.935 198.594 136.973 198.179 136.263 197.444C135.554 196.708 135.154 195.711 135.152 194.67C135.152 194.571 135.19 194.476 135.258 194.406C135.325 194.336 135.417 194.297 135.512 194.297H145.498C145.594 194.297 145.686 194.336 145.753 194.406C145.821 194.476 145.858 194.571 145.858 194.67C145.858 195.71 145.46 196.707 144.752 197.443C144.043 198.179 143.082 198.594 142.078 198.596V198.596ZM135.894 195.043C135.983 195.816 136.343 196.528 136.904 197.044C137.465 197.561 138.189 197.848 138.939 197.849H142.078C142.828 197.847 143.551 197.561 144.111 197.044C144.671 196.527 145.029 195.815 145.117 195.043H135.894Z" fill="#231F20"/>
<path d="M52.741 194.67H62.7274C62.7274 195.612 62.3663 196.516 61.7236 197.182C61.0808 197.848 60.2091 198.222 59.3002 198.222H56.1682C55.2592 198.222 54.3875 197.848 53.7448 197.182C53.102 196.516 52.741 195.612 52.741 194.67V194.67Z" fill="#E6E7E8"/>
<path d="M59.3073 198.596H56.1681C55.1642 198.594 54.202 198.179 53.4922 197.444C52.7824 196.708 52.3828 195.711 52.3809 194.67C52.3809 194.571 52.4188 194.476 52.4863 194.406C52.5538 194.336 52.6454 194.297 52.7409 194.297H62.7273C62.8227 194.297 62.9143 194.336 62.9818 194.406C63.0493 194.476 63.0873 194.571 63.0873 194.67C63.0873 195.71 62.6892 196.707 61.9806 197.443C61.2719 198.179 60.3104 198.594 59.3073 198.596V198.596ZM53.1225 195.043C53.2121 195.816 53.5713 196.528 54.1323 197.044C54.6934 197.561 55.4174 197.848 56.1681 197.849H59.3073C60.0571 197.847 60.7802 197.561 61.3401 197.044C61.8999 196.527 62.2577 195.815 62.3457 195.043H53.1225Z" fill="#231F20"/>
<path d="M148.861 88.1628C148.861 88.1628 158.941 68.4151 167.386 61.9818C175.832 55.5485 197.886 54.8768 207.303 59.7428C216.721 64.6088 219.716 74.6096 214.798 88.1479L148.861 88.1628Z" fill="#231F20"/>
<path d="M214.799 88.5356H148.861C148.8 88.5354 148.74 88.5188 148.687 88.4874C148.634 88.456 148.59 88.4109 148.559 88.3564C148.528 88.3006 148.512 88.2376 148.512 88.1736C148.512 88.1096 148.528 88.0466 148.559 87.9908C148.976 87.1773 158.775 68.0938 167.192 61.6828C175.911 55.0331 198.303 54.6674 207.512 59.4439C217.369 64.5487 220.091 74.8032 215.18 88.3117C215.149 88.3873 215.095 88.4503 215.026 88.4908C214.957 88.5313 214.877 88.547 214.799 88.5356ZM149.466 87.7892H214.547C219.191 74.8107 216.57 64.9741 207.145 60.0932C198.131 55.4212 176.185 55.7645 167.603 62.2799C160.093 67.9967 151.158 84.5651 149.466 87.7892Z" fill="#231F20"/>
<path d="M152.288 185.348H48.673C46.1917 185.348 44.1802 187.433 44.1802 190.005V190.012C44.1802 192.584 46.1917 194.669 48.673 194.669H152.288C154.769 194.669 156.781 192.584 156.781 190.012V190.005C156.781 187.433 154.769 185.348 152.288 185.348Z" fill="#E6E7E8"/>
<path d="M152.259 195.042H48.673C47.4173 194.992 46.2292 194.44 45.358 193.501C44.4867 192.563 44 191.311 44 190.008C44 188.706 44.4867 187.454 45.358 186.515C46.2292 185.577 47.4173 185.025 48.673 184.974H152.259C152.913 184.948 153.565 185.059 154.176 185.3C154.787 185.542 155.345 185.908 155.816 186.378C156.287 186.848 156.662 187.412 156.918 188.036C157.174 188.66 157.306 189.331 157.306 190.008C157.306 190.686 157.174 191.357 156.918 191.981C156.662 192.605 156.287 193.168 155.816 193.638C155.345 194.108 154.787 194.475 154.176 194.716C153.565 194.958 152.913 195.068 152.259 195.042V195.042ZM48.673 185.721C47.6058 185.767 46.5971 186.239 45.8578 187.038C45.1184 187.837 44.7056 188.901 44.7056 190.008C44.7056 191.116 45.1184 192.18 45.8578 192.979C46.5971 193.778 47.6058 194.25 48.673 194.296H152.259C152.817 194.32 153.374 194.227 153.896 194.023C154.418 193.818 154.895 193.506 155.298 193.105C155.701 192.705 156.021 192.224 156.24 191.692C156.459 191.16 156.572 190.587 156.572 190.008C156.572 189.43 156.459 188.857 156.24 188.325C156.021 187.793 155.701 187.312 155.298 186.911C154.895 186.511 154.418 186.199 153.896 185.994C153.374 185.79 152.817 185.697 152.259 185.721H48.673Z" fill="#231F20"/>
</svg>
