<svg width="358" height="259" viewBox="0 0 365 268" fill="none" xmlns="http://www.w3.org/2000/svg">
<ellipse cx="204.282" cy="140.572" rx="130.262" ry="126.572" fill="#DDF0F4"/>
<ellipse cx="204.282" cy="140.572" rx="130.262" ry="126.572" fill="white"/>
<path d="M185.693 50.126C184.714 49.9661 183.755 49.7098 182.831 49.3613C179.75 48.188 177.079 45.6591 176.551 42.5305C176.452 41.8395 176.412 41.1419 176.432 40.4448C176.432 37.6204 176.879 33.7096 178.565 31.2763C179.422 30.0422 181.108 29.1992 182.557 29.738C182.056 30.1031 181.354 29.3557 181.573 28.7908C181.724 28.531 181.934 28.307 182.188 28.1355C182.442 27.9639 182.733 27.8493 183.04 27.8001C185.638 27.044 188.6 26.818 190.943 28.1303C190.731 27.8779 190.627 27.5582 190.652 27.2356C190.677 26.913 190.83 26.6116 191.08 26.3922C191.611 25.9677 192.282 25.7367 192.975 25.7404C197.323 25.471 201.279 28.9125 202.391 32.9275C203.503 36.9425 202.254 41.2704 200.067 44.8596C199.04 46.7119 197.55 48.294 195.728 49.4655C193.86 50.5692 192.264 50.2824 190.186 50.3346C188.685 50.4172 187.179 50.3472 185.693 50.126Z" fill="white"/>
<path d="M189.028 50.8122C187.886 50.8185 186.746 50.7313 185.62 50.5515C184.609 50.389 183.62 50.1269 182.666 49.7693C179.139 48.4223 176.623 45.6761 176.104 42.5997C175.995 41.8862 175.952 41.165 175.976 40.4444C175.976 37.5505 176.423 33.5789 178.191 31.0326C178.523 30.5577 178.95 30.1498 179.447 29.8321C179.945 29.5145 180.503 29.2934 181.09 29.1815C181.058 29.0004 181.077 28.8147 181.144 28.6427C181.317 28.3185 181.566 28.0364 181.87 27.818C182.175 27.5995 182.529 27.4506 182.903 27.3826C184.909 26.8003 187.698 26.3571 190.195 27.2957C190.223 26.8296 190.431 26.3899 190.778 26.0616C191.384 25.5577 192.162 25.2826 192.966 25.2881C197.751 24.9753 201.762 28.8773 202.846 32.7968C203.876 36.5076 203.038 40.8616 200.476 45.0591C199.409 46.9781 197.859 48.6145 195.965 49.8215C194.596 50.5654 193.022 50.8929 191.453 50.7601H190.213L189.028 50.8122ZM181.573 30.0071C181.043 30.0501 180.53 30.2088 180.075 30.471C179.62 30.7333 179.234 31.0919 178.948 31.5192C177.216 34.0047 176.915 38.1849 176.888 40.4531C176.865 41.1243 176.904 41.7961 177.006 42.4606C177.462 45.1981 179.814 47.7445 183.004 48.9611C183.886 49.2949 184.802 49.5396 185.738 49.6911C187.189 49.9219 188.663 49.9976 190.131 49.9171H191.416C192.818 50.0495 194.227 49.7673 195.454 49.1089C197.209 47.9724 198.643 46.4412 199.629 44.6506C202.072 40.653 202.883 36.525 201.917 33.0401C200.95 29.5552 197.359 25.9139 192.966 26.1833C192.397 26.1795 191.845 26.3672 191.407 26.7134C191.21 26.8997 191.099 27.1528 191.097 27.4173C191.094 27.4951 191.107 27.5728 191.135 27.6458C191.163 27.7189 191.206 27.786 191.262 27.8432C191.344 27.9149 191.396 28.0136 191.406 28.1198C191.416 28.226 191.384 28.332 191.316 28.4167C191.249 28.5013 191.152 28.5595 191.042 28.5803C190.933 28.6011 190.82 28.5831 190.724 28.5297C188.299 27.174 185.255 27.6607 183.186 28.2429C182.712 28.3733 182.156 28.5819 182.01 28.9729C181.995 29.0073 181.987 29.0442 181.987 29.0816C181.987 29.1189 181.995 29.1558 182.01 29.1902C182.251 29.2164 182.486 29.2718 182.712 29.3553C182.786 29.3862 182.85 29.4342 182.9 29.4949C182.949 29.5556 182.982 29.6271 182.995 29.7029C183.006 29.7782 182.996 29.855 182.965 29.9253C182.935 29.9956 182.885 30.0569 182.821 30.1027C182.656 30.2373 182.446 30.3113 182.229 30.3113C182.012 30.3113 181.802 30.2373 181.636 30.1027L181.573 30.0071Z" fill="#231F20"/>
<path d="M152.488 144.965C152.488 145.547 145.616 150.127 137.549 162.65C131.961 160.903 126.233 159.589 120.423 158.722C113.109 157.614 105.68 157.363 98.3016 157.975L96.0229 166.283C96.0229 166.283 138.151 180.518 144.103 178.449C150.055 176.381 168.931 153.855 168.931 153.855" fill="white"/>
<path d="M142.453 179.058C132.582 179.058 97.472 167.239 95.8679 166.691C95.7616 166.656 95.6735 166.583 95.6211 166.488C95.5687 166.393 95.5559 166.282 95.5853 166.179L97.8549 157.871C97.88 157.785 97.9304 157.709 97.9999 157.65C98.0694 157.592 98.1551 157.554 98.2468 157.54C105.668 156.937 113.138 157.19 120.496 158.296C126.209 159.154 131.844 160.435 137.349 162.129C141.106 156.194 145.67 150.759 150.92 145.965C151.316 145.62 151.69 145.255 152.041 144.87C152.063 144.777 152.116 144.694 152.191 144.633C152.267 144.572 152.362 144.536 152.461 144.531C152.521 144.525 152.582 144.531 152.64 144.548C152.698 144.566 152.751 144.595 152.797 144.633C152.842 144.672 152.879 144.719 152.904 144.771C152.929 144.824 152.943 144.881 152.944 144.939C152.944 145.287 152.689 145.539 151.549 146.59C146.268 151.415 141.689 156.893 137.932 162.876C137.879 162.96 137.798 163.024 137.702 163.057C137.605 163.09 137.5 163.091 137.403 163.059C131.825 161.326 126.11 160.021 120.313 159.157C113.139 158.091 105.859 157.828 98.6205 158.375L96.6153 166.005C111.253 170.941 139.454 179.614 144.011 178.024C149.781 175.999 168.448 153.795 168.621 153.569C168.656 153.519 168.701 153.476 168.755 153.444C168.808 153.411 168.867 153.389 168.93 153.38C168.992 153.371 169.056 153.374 169.117 153.389C169.178 153.404 169.235 153.432 169.284 153.469C169.333 153.507 169.374 153.553 169.404 153.607C169.433 153.66 169.451 153.718 169.455 153.778C169.46 153.838 169.451 153.899 169.43 153.955C169.409 154.012 169.375 154.064 169.332 154.108C168.557 155.037 150.31 176.703 144.303 178.841C143.703 179.011 143.078 179.085 142.453 179.058Z" fill="#231F20"/>
<path d="M159.707 126.976L145.616 150.127L167.09 163.059L181.172 145.617L159.707 126.976Z" fill="#231F20"/>
<path d="M167.09 163.494C167.005 163.492 166.923 163.468 166.853 163.424L145.379 150.493C145.279 150.433 145.207 150.34 145.179 150.231C145.15 150.123 145.166 150.008 145.224 149.911L159.315 126.759C159.349 126.704 159.395 126.656 159.45 126.618C159.505 126.581 159.568 126.555 159.634 126.542C159.701 126.533 159.769 126.539 159.834 126.559C159.898 126.578 159.958 126.611 160.008 126.655L181.473 145.305C181.558 145.377 181.611 145.477 181.621 145.585C181.631 145.694 181.598 145.801 181.527 145.887L167.454 163.32C167.411 163.374 167.356 163.417 167.293 163.447C167.23 163.477 167.16 163.493 167.09 163.494ZM146.226 149.98L166.989 162.486L180.552 145.67L159.816 127.654L146.226 149.98Z" fill="#231F20"/>
<path d="M179.458 155.751C179.458 155.751 195.336 168.317 199.429 171.072C199.429 171.072 198.18 181.622 202.828 190.017C207.477 198.412 220.666 213.43 220.666 213.43L228.787 211.918C228.787 211.918 215.89 173.106 213.055 165.449C210.22 157.793 197.223 139.273 197.223 139.273L179.458 155.751Z" fill="white"/>
<path d="M220.665 213.864C220.598 213.863 220.532 213.848 220.47 213.821C220.409 213.794 220.355 213.756 220.31 213.707C220.182 213.559 207.039 198.56 202.427 190.243C198.171 182.56 198.781 172.992 198.945 171.306C194.579 168.308 179.321 156.228 179.166 156.106C179.117 156.069 179.076 156.022 179.048 155.968C179.019 155.913 179.004 155.854 179.002 155.794C179 155.732 179.01 155.671 179.034 155.615C179.057 155.558 179.093 155.506 179.139 155.463L196.904 138.951C196.952 138.908 197.009 138.874 197.072 138.853C197.135 138.833 197.202 138.824 197.268 138.83C197.334 138.837 197.397 138.858 197.454 138.891C197.511 138.924 197.559 138.969 197.596 139.021C198.134 139.786 210.667 157.679 213.483 165.301C216.3 172.923 229.097 211.361 229.224 211.778C229.259 211.898 229.243 212.026 229.179 212.134C229.146 212.186 229.103 212.231 229.051 212.265C228.999 212.299 228.94 212.323 228.878 212.334L220.748 213.846L220.665 213.864ZM180.133 155.724C182.603 157.671 196.019 168.247 199.684 170.715C199.75 170.762 199.802 170.824 199.836 170.895C199.87 170.967 199.883 171.046 199.875 171.124C199.875 171.228 198.708 181.639 203.229 189.817C207.513 197.552 219.271 211.152 220.839 212.951L228.203 211.587C226.727 207.163 215.26 172.705 212.626 165.596C210.083 158.731 199.118 142.784 197.131 139.951L180.133 155.724Z" fill="#231F20"/>
<path d="M152.497 114.192C152.497 114.192 150.865 128.514 153.162 136.014C155.459 143.514 180.242 161.799 180.242 161.799L197.223 139.273L187.06 120.571L152.497 114.192Z" fill="#231F20"/>
<path d="M180.242 162.234C180.143 162.236 180.047 162.205 179.969 162.147C178.948 161.4 155.031 143.671 152.725 136.136C150.419 128.601 151.978 114.731 152.051 114.14C152.055 114.081 152.074 114.024 152.106 113.973C152.138 113.921 152.181 113.878 152.233 113.845C152.283 113.809 152.341 113.783 152.402 113.77C152.463 113.756 152.527 113.755 152.588 113.767L187.151 120.102C187.217 120.116 187.279 120.143 187.333 120.182C187.386 120.221 187.43 120.271 187.461 120.328L197.624 139.074C197.668 139.141 197.692 139.22 197.692 139.3C197.692 139.379 197.668 139.458 197.624 139.525L180.652 162.06C180.616 162.108 180.569 162.147 180.516 162.177C180.463 162.207 180.404 162.226 180.342 162.234H180.242ZM152.898 114.705C152.652 117.226 151.586 129.323 153.6 135.893C155.669 142.671 177.052 158.871 180.151 161.182L196.685 139.239L186.759 120.919L152.898 114.705Z" fill="#231F20"/>
<path d="M98.3017 157.94L87.0542 156.332C87.0542 156.332 81.2118 179.232 82.0321 181.404C83.3993 184.88 96.0048 166.291 96.0048 166.291L98.3017 157.94Z" fill="#231F20"/>
<path d="M82.5694 182.274H82.5147C82.3061 182.253 82.1084 182.175 81.9463 182.048C81.7842 181.921 81.6649 181.752 81.6032 181.561C80.6918 179.327 85.9874 158.627 86.5889 156.271C86.6151 156.165 86.6821 156.073 86.7766 156.011C86.8712 155.95 86.9863 155.925 87.0994 155.941L98.3377 157.558C98.4003 157.568 98.46 157.59 98.5131 157.623C98.5663 157.656 98.6118 157.7 98.6468 157.75C98.6818 157.8 98.7056 157.857 98.7167 157.917C98.7278 157.976 98.726 158.038 98.7114 158.096L96.4328 166.405C96.4241 166.449 96.4054 166.49 96.3781 166.526C86.3975 181.3 83.2256 182.274 82.5694 182.274ZM87.4001 156.854C85.1488 165.683 81.9314 179.788 82.4782 181.257C82.5329 181.404 82.5876 181.404 82.615 181.413C84.2282 181.413 90.4171 173.696 95.5577 166.118L97.6906 158.296L87.4001 156.854Z" fill="#231F20"/>
<path d="M220.265 212.978C220.265 212.978 219.572 219.756 221.513 220.504C223.455 221.251 247.034 218.652 246.214 217.027C245.394 215.402 228.094 210.396 228.094 210.396L220.265 212.978Z" fill="#231F20"/>
<path d="M223.209 221.068C222.596 221.098 221.982 221.042 221.386 220.903C219.244 220.077 219.745 214.124 219.864 212.933C219.874 212.852 219.907 212.775 219.96 212.71C220.013 212.646 220.084 212.597 220.164 212.568L227.994 209.961C228.085 209.931 228.185 209.931 228.276 209.961C232.378 211.152 245.831 215.176 246.67 216.818C246.728 216.944 246.744 217.084 246.716 217.219C246.688 217.354 246.618 217.478 246.515 217.574C245.002 219.095 228.951 221.068 223.209 221.068ZM220.693 213.298C220.456 215.966 220.602 219.686 221.687 220.103C223.765 220.911 243.753 218.365 245.695 217.105C244.555 216.062 236.079 213.186 228.103 210.865L220.693 213.298Z" fill="#231F20"/>
<path d="M104.171 169.325H104.062C104.004 169.311 103.949 169.286 103.901 169.252C103.853 169.217 103.813 169.174 103.782 169.125C103.752 169.076 103.732 169.021 103.724 168.965C103.715 168.908 103.719 168.85 103.734 168.795L106.851 157.567C106.885 157.458 106.962 157.365 107.065 157.309C107.169 157.252 107.291 157.236 107.407 157.263C107.465 157.277 107.52 157.302 107.568 157.336C107.616 157.371 107.656 157.414 107.687 157.463C107.717 157.512 107.737 157.567 107.745 157.623C107.754 157.68 107.75 157.737 107.735 157.793L104.618 169.012C104.59 169.104 104.531 169.184 104.45 169.241C104.37 169.297 104.272 169.327 104.171 169.325Z" fill="#231F20"/>
<path d="M216.801 208.18C216.716 208.181 216.633 208.16 216.561 208.118C216.488 208.077 216.43 208.017 216.391 207.946C216.339 207.843 216.331 207.725 216.368 207.616C216.406 207.508 216.486 207.417 216.591 207.363L225.706 202.957C225.759 202.932 225.816 202.916 225.875 202.912C225.934 202.907 225.993 202.914 226.05 202.931C226.106 202.948 226.158 202.976 226.203 203.013C226.248 203.049 226.285 203.094 226.312 203.144C226.339 203.194 226.355 203.249 226.36 203.305C226.365 203.362 226.358 203.418 226.34 203.472C226.321 203.525 226.292 203.575 226.254 203.618C226.216 203.661 226.169 203.696 226.116 203.722L217.001 208.137C216.94 208.168 216.871 208.183 216.801 208.18Z" fill="#231F20"/>
<path d="M199.957 70.1055L209.774 96.3595C216.784 92.6947 224.054 89.5005 231.53 86.8C231.53 86.8 230.737 81.7595 233.116 79.6824C235.495 77.6054 237.464 76.4148 237.728 77.0144C237.993 77.6141 238.932 79.3869 238.932 79.3869C238.932 79.3869 241.192 76.4148 242.514 77.0144C243.835 77.6141 245.02 84.636 245.011 86.5045C245.002 88.3729 212.882 116.921 206.037 112.732C199.192 108.544 189.193 88.9987 189.193 88.9987" fill="white"/>
<path d="M207.814 113.619C207.119 113.64 206.433 113.471 205.836 113.132C198.964 108.961 189.238 90.0242 188.828 89.2247C188.802 89.1733 188.786 89.1175 188.783 89.0605C188.779 89.0034 188.787 88.9462 188.806 88.8921C188.826 88.8381 188.856 88.7882 188.896 88.7453C188.936 88.7025 188.984 88.6675 189.038 88.6424C189.092 88.6173 189.15 88.6026 189.21 88.599C189.27 88.5955 189.33 88.6032 189.387 88.6218C189.443 88.6403 189.496 88.6694 189.54 88.7072C189.585 88.745 189.622 88.7909 189.648 88.8423C189.749 89.0335 199.675 108.361 206.328 112.402C207.24 112.967 208.88 112.837 211.123 112.011C222.443 107.84 244.072 88.3382 244.601 86.4959C244.601 84.1929 243.27 77.8053 242.368 77.4403C241.693 77.1362 240.171 78.5962 239.341 79.6738C239.297 79.7361 239.236 79.7861 239.165 79.8186C239.093 79.8511 239.014 79.8649 238.936 79.8587C238.857 79.8526 238.781 79.8265 238.716 79.7834C238.652 79.7402 238.6 79.6814 238.567 79.613C238.567 79.5434 237.728 78.0139 237.409 77.336C236.999 77.4143 235.696 78.0921 233.472 80.0388C231.248 81.9855 232.022 86.7218 232.022 86.774C232.04 86.8713 232.021 86.9713 231.969 87.0569C231.918 87.1425 231.837 87.2084 231.74 87.2432C224.286 89.9489 217.038 93.1431 210.047 96.8028C209.986 96.8306 209.919 96.845 209.851 96.845C209.783 96.845 209.716 96.8306 209.655 96.8028C209.592 96.7811 209.535 96.7465 209.488 96.7015C209.441 96.6564 209.404 96.602 209.382 96.5421L199.529 70.2533C199.491 70.1437 199.499 70.0243 199.552 69.9205C199.604 69.8166 199.698 69.7365 199.811 69.6971C199.867 69.6766 199.926 69.6671 199.986 69.6692C200.045 69.6714 200.104 69.6851 200.157 69.7095C200.211 69.7339 200.259 69.7685 200.298 69.8112C200.337 69.8539 200.367 69.9038 200.386 69.9578L210.02 95.7252C216.813 92.2337 223.833 89.1596 231.038 86.5219C230.901 85.3053 230.628 81.3076 232.806 79.3609C234.164 78.179 236.58 76.215 237.637 76.4409C237.75 76.4625 237.856 76.5102 237.945 76.58C238.034 76.6497 238.103 76.7392 238.147 76.8407C238.302 77.197 238.722 78.0052 239.059 78.5788C239.879 77.6402 241.493 76.0585 242.705 76.6234C244.473 77.4143 245.439 85.2097 245.439 86.5132C245.439 88.3991 226.253 105.302 214.796 111.255C211.815 112.811 209.482 113.619 207.814 113.619Z" fill="#231F20"/>
<path d="M238.959 78.9951C239.537 80.1689 240.045 81.373 240.481 82.6017C240.955 83.7651 241.099 85.0269 240.9 86.2604C240.636 87.4684 239.652 88.5547 238.54 88.4591C237.273 88.3548 236.461 86.8687 236.133 85.4869" fill="white"/>
<path d="M238.676 88.9028H238.503C236.589 88.7377 235.869 86.2957 235.696 85.5918C235.668 85.48 235.688 85.3624 235.751 85.2647C235.815 85.167 235.916 85.0972 236.033 85.0703C236.092 85.0563 236.153 85.0537 236.212 85.0629C236.272 85.0721 236.329 85.0927 236.381 85.1236C236.432 85.1545 236.476 85.195 236.51 85.2426C236.544 85.2902 236.568 85.3439 236.58 85.4006C236.853 86.5564 237.546 87.9469 238.576 88.0077C239.606 88.0686 240.244 87.1387 240.453 86.148C240.633 84.9756 240.495 83.779 240.052 82.6717C239.633 81.4464 239.077 80.2558 238.548 79.1086C238.499 79.0037 238.495 78.8845 238.538 78.777C238.581 78.6695 238.666 78.5825 238.776 78.5351C238.831 78.5106 238.889 78.4968 238.95 78.4945C239.01 78.4922 239.069 78.5015 239.126 78.5218C239.182 78.542 239.233 78.5729 239.276 78.6125C239.32 78.6521 239.354 78.6997 239.378 78.7523C239.955 79.9435 240.47 81.1617 240.918 82.4023C241.408 83.6407 241.556 84.9785 241.347 86.287C241.064 87.634 239.998 88.9028 238.676 88.9028Z" fill="#231F20"/>
<path d="M206.903 101.451C206.783 101.443 206.672 101.389 206.594 101.303C206.516 101.217 206.476 101.105 206.483 100.991C206.702 98.262 209.427 96.1329 209.546 96.046C209.64 95.9734 209.761 95.9394 209.881 95.9517C210.002 95.9639 210.112 96.0213 210.188 96.1111C210.265 96.201 210.3 96.3161 210.287 96.431C210.275 96.5459 210.214 96.6512 210.12 96.7238C210.12 96.7238 207.586 98.714 207.386 101.069C207.372 101.18 207.314 101.281 207.224 101.352C207.134 101.423 207.019 101.459 206.903 101.451Z" fill="#231F20"/>
<path d="M190.724 121.509L150.319 114.661C150.319 114.661 154.275 91.1271 154.247 70.1047C154.247 63.526 174.299 53.5145 182.102 56.3563C189.904 59.1981 198.326 66.0549 200.705 69.479C201.689 70.8868 188.673 114.192 190.724 121.509Z" fill="#7000FF"/>
<path d="M156.973 73.7465C156.973 73.7465 153.792 92.9873 159.78 92.7961C165.768 92.6049 174.6 69.1144 170.499 64.0826C166.397 59.0508 156.17 60.9714 156.973 73.7465Z" fill="#231F20"/>
<path d="M159.689 93.2303C159.283 93.2325 158.882 93.1486 158.515 92.9847C158.148 92.8209 157.823 92.5812 157.565 92.2831C154.174 88.6243 156.344 74.7977 156.517 73.7288C156.143 67.5498 158.34 62.9873 162.469 61.5621C163.94 61.0294 165.553 60.965 167.066 61.3785C168.579 61.7921 169.911 62.6613 170.863 63.8564C173.534 67.1414 171.146 77.3614 167.409 84.9483C165.896 88.016 162.897 93.1782 159.789 93.2738L159.689 93.2303ZM165.048 61.9444C164.276 61.9433 163.51 62.0758 162.788 62.3355C159.069 63.6738 157.064 67.9322 157.428 73.7288V73.8244C157.428 73.9721 155.077 88.3028 158.249 91.7182C158.432 91.9297 158.664 92.099 158.926 92.2134C159.188 92.3277 159.473 92.3842 159.762 92.3786C161.648 92.3178 164.2 89.3891 166.588 84.5572C170.152 77.318 172.495 67.2457 170.143 64.3517C169.545 63.604 168.774 62.9973 167.89 62.5785C167.007 62.1596 166.035 61.9397 165.048 61.9357V61.9444Z" fill="#231F20"/>
<path d="M120.778 86.4433C119.757 89.6675 129.027 114.505 129.027 114.505C129.027 114.505 132.618 127.211 134.341 127.828C136.064 128.445 141.35 128.766 142.708 128.766C145.853 128.766 142.963 123.856 142.562 123.769C142.562 123.769 144.659 124.69 145.616 123.196C146.573 121.701 145.707 120.223 144.886 117.981C144.066 115.739 139.646 115.53 139.646 115.53C139.272 110.925 134.587 90.1281 134.587 90.1281C134.587 90.1281 162.542 77.8918 165.914 76.2233C169.286 74.5547 173.497 67.8195 165.914 63.3091C158.331 58.7988 121.808 83.2017 120.778 86.4433Z" fill="white"/>
<path d="M142.708 129.192C141.505 129.192 136.054 128.897 134.177 128.227C132.299 127.558 129.437 117.651 128.58 114.627C127.669 112.098 119.311 89.5893 120.377 86.3217C121.288 83.5755 143.164 68.6104 156.562 63.8132C161.192 62.1533 164.428 61.8492 166.196 62.9442C169.997 65.2037 170.754 67.8891 170.644 69.7315C170.538 71.1382 170.074 72.4992 169.293 73.6968C168.512 74.8945 167.436 75.8928 166.16 76.6057C162.97 78.2221 138.451 88.9723 135.17 90.4236C135.781 93.1524 139.591 110.29 140.119 115.174C141.277 115.287 144.595 115.8 145.369 117.877C145.497 118.225 145.625 118.546 145.743 118.859C146.436 120.597 146.983 122.014 146.062 123.456C145.821 123.829 145.471 124.127 145.055 124.314C144.639 124.501 144.175 124.568 143.72 124.508C144.311 125.489 144.625 126.6 144.631 127.732C144.614 127.951 144.551 128.164 144.446 128.358C144.34 128.553 144.195 128.725 144.017 128.865C143.84 129.004 143.635 129.109 143.415 129.171C143.195 129.233 142.964 129.252 142.735 129.227L142.708 129.192ZM121.225 86.5737C120.505 88.8332 125.782 104.433 129.428 114.383C131.132 120.415 133.548 127.098 134.468 127.419C136.1 127.993 141.313 128.288 142.671 128.288C143.419 128.288 143.583 127.958 143.583 127.836C143.984 126.811 142.671 124.482 142.307 124.117C142.21 124.07 142.135 123.991 142.095 123.895C142.054 123.799 142.052 123.693 142.088 123.595C142.124 123.494 142.197 123.408 142.295 123.356C142.392 123.303 142.507 123.286 142.617 123.309H142.708C142.772 123.309 144.449 124.047 145.178 122.9C145.907 121.753 145.442 120.719 144.795 119.059C144.668 118.746 144.54 118.416 144.403 118.068C143.811 116.46 140.757 115.965 139.582 115.904C139.471 115.898 139.365 115.855 139.285 115.782C139.205 115.708 139.155 115.61 139.144 115.504C138.779 110.977 134.149 90.3628 134.095 90.1542C134.073 90.0575 134.086 89.9566 134.132 89.8681C134.179 89.7796 134.255 89.7088 134.35 89.6675C134.632 89.5459 162.332 77.4226 165.659 75.7627C166.791 75.1188 167.745 74.2258 168.441 73.1584C169.137 72.091 169.555 70.8801 169.66 69.6272C169.751 67.3068 168.357 65.2211 165.64 63.596C164.155 62.7269 161.083 63.0485 156.808 64.578C142.972 69.5229 121.863 84.3663 121.17 86.5303L121.225 86.5737Z" fill="#231F20"/>
<path d="M171.82 156.533C171.766 156.545 171.71 156.545 171.656 156.533C161.995 152.5 153.172 136.892 152.807 136.223C152.78 136.179 152.764 136.131 152.757 136.081C152.751 136.031 152.756 135.98 152.772 135.932C152.787 135.884 152.813 135.839 152.847 135.801C152.881 135.763 152.924 135.732 152.971 135.71C153.018 135.686 153.069 135.67 153.122 135.665C153.175 135.66 153.228 135.665 153.279 135.679C153.33 135.694 153.377 135.718 153.418 135.75C153.459 135.782 153.493 135.822 153.518 135.866C153.609 136.023 162.578 151.9 171.984 155.855C172.073 155.887 172.147 155.949 172.193 156.029C172.238 156.109 172.252 156.202 172.232 156.291C172.213 156.38 172.16 156.459 172.085 156.514C172.009 156.57 171.915 156.598 171.82 156.593V156.533Z" fill="white"/>
<path d="M201.926 36.9939C201.251 35.7685 198.809 36.0032 197.369 35.838C194.832 35.4536 192.26 35.3197 189.694 35.4383C187.12 35.5808 184.656 36.4794 182.639 38.0107C178.328 41.4869 179.112 49.3084 178.647 54.2793C178.419 56.817 178.292 59.4154 177.809 61.927V61.9965C177.973 62.9872 180.251 76.2055 185.31 78.9952C190.56 81.8804 192.337 66.5764 192.337 66.5764L192.72 56.9039C192.72 56.9039 198.189 57.7729 200.176 53.193C201.51 49.7977 202.144 46.1889 202.044 42.5645C202.099 41.1914 202.591 38.2106 201.926 36.9939Z" fill="white"/>
<path d="M186.622 79.7955C186.088 79.7807 185.566 79.634 185.109 79.3696C179.932 76.5105 177.635 63.5355 177.389 62.0581C177.385 61.9887 177.385 61.919 177.389 61.8495C177.726 59.9042 177.954 57.9432 178.073 55.9747C178.073 55.3925 178.164 54.8189 178.219 54.2366C178.301 53.2546 178.346 52.1509 178.383 50.9864C178.547 46.3543 178.747 40.5578 182.348 37.6551C184.446 36.0606 187.014 35.1309 189.694 34.9958C192.29 34.8756 194.892 35.0095 197.46 35.3956C197.77 35.3956 198.125 35.4477 198.508 35.4651C199.921 35.5346 201.689 35.6129 202.327 36.7861C202.883 37.8029 202.737 39.7322 202.619 41.2878C202.619 41.7744 202.546 42.2176 202.536 42.5566C202.536 45.6678 202.245 49.7089 200.641 53.3589C198.891 57.3218 194.661 57.4521 193.194 57.3739L192.829 66.5859C192.775 67.0639 191.49 77.7184 187.78 79.5087C187.424 79.6919 187.027 79.7903 186.622 79.7955ZM178.292 61.9364C178.383 62.4839 180.661 75.9108 185.583 78.6049C185.848 78.7777 186.156 78.8808 186.476 78.9037C186.796 78.9266 187.117 78.8685 187.406 78.7352C190.141 77.423 191.608 69.4711 191.963 66.5164L192.319 56.8959C192.321 56.8334 192.337 56.772 192.367 56.7164C192.397 56.6607 192.44 56.6122 192.492 56.5744C192.541 56.5352 192.598 56.5064 192.659 56.4899C192.72 56.4734 192.785 56.4696 192.848 56.4788C193.057 56.4788 197.979 57.2001 199.811 53.0026C201.361 49.5264 201.634 45.5635 201.634 42.5305C201.634 42.1742 201.634 41.7136 201.716 41.2009C201.826 39.8364 201.971 37.968 201.534 37.1685C201.133 36.4385 199.656 36.3776 198.471 36.2994C198.07 36.2994 197.687 36.2994 197.359 36.2299C194.853 35.8491 192.311 35.7152 189.776 35.8301C187.291 35.961 184.908 36.8165 182.949 38.2808C179.65 40.9662 179.458 46.5195 179.303 50.9777C179.258 52.1596 179.221 53.272 179.13 54.2801L178.993 56.0182C178.868 58.0013 178.634 59.9768 178.292 61.9364Z" fill="#231F20"/>
<path d="M192.556 61.9882C191.401 61.9318 190.278 61.6079 189.284 61.0446C188.29 60.4813 187.454 59.6956 186.85 58.7553C184.708 55.4964 185.492 53.3672 185.492 53.3672C187.351 55.4012 189.965 56.669 192.784 56.9042L192.556 61.9882Z" fill="#231F20"/>
<path d="M192.547 62.4229C191.311 62.3646 190.109 62.017 189.047 61.4107C187.985 60.8045 187.096 59.9582 186.458 58.9467C184.216 55.54 185.018 53.2805 185.055 53.1849C185.08 53.1117 185.125 53.0464 185.186 52.9959C185.247 52.9454 185.321 52.9116 185.401 52.8981C185.482 52.8859 185.565 52.8939 185.641 52.9213C185.718 52.9488 185.786 52.9947 185.838 53.0545C185.838 53.0545 188.673 56.2613 192.775 56.4786C192.834 56.4797 192.893 56.4921 192.947 56.5151C193.001 56.5381 193.05 56.5712 193.091 56.6125C193.132 56.6538 193.164 56.7024 193.184 56.7555C193.205 56.8086 193.215 56.8652 193.212 56.9218L193.012 62.0058C193.007 62.118 192.957 62.2241 192.872 62.3019C192.787 62.3796 192.674 62.423 192.556 62.4229H192.547ZM185.793 54.3234C185.826 55.829 186.324 57.292 187.224 58.5296C187.747 59.3495 188.458 60.0454 189.305 60.5648C190.151 61.0842 191.11 61.4135 192.109 61.5278L192.273 57.3129C189.83 57.0235 187.555 55.9725 185.802 54.3234H185.793Z" fill="#231F20"/>
<path d="M193.549 42.7041C193.549 42.7041 194.561 47.7272 193.549 48.4051C192.538 49.0829 190.815 47.8054 190.815 47.8054" fill="white"/>
<path d="M192.866 49.0394C192.018 48.9632 191.21 48.6621 190.532 48.1703C190.485 48.1361 190.444 48.0932 190.414 48.0441C190.383 47.995 190.363 47.9406 190.355 47.8842C190.346 47.8277 190.349 47.7701 190.364 47.7149C190.379 47.6596 190.405 47.6076 190.441 47.562C190.477 47.5163 190.522 47.4779 190.574 47.4488C190.625 47.4197 190.682 47.4006 190.741 47.3925C190.801 47.3845 190.861 47.3876 190.919 47.4018C190.977 47.4159 191.031 47.4408 191.079 47.4751C191.471 47.7532 192.72 48.4658 193.303 48.066C193.695 47.7966 193.604 45.2851 193.103 42.7996C193.081 42.6867 193.108 42.5704 193.176 42.4759C193.244 42.3815 193.349 42.3167 193.467 42.2955C193.525 42.2829 193.586 42.2818 193.644 42.2922C193.703 42.3026 193.759 42.3244 193.808 42.3561C193.858 42.3879 193.9 42.429 193.932 42.4768C193.965 42.5247 193.986 42.5783 193.996 42.6345C194.315 44.2335 194.907 48.0226 193.832 48.7787C193.547 48.9602 193.209 49.0515 192.866 49.0394Z" fill="#231F20"/>
<path d="M190.077 43.9054C190.191 43.2813 189.906 42.7124 189.44 42.6346C188.974 42.5569 188.503 42.9998 188.389 43.6239C188.274 44.248 188.559 44.8169 189.026 44.8946C189.492 44.9724 189.962 44.5294 190.077 43.9054Z" fill="#231F20"/>
<path d="M198.953 44.9093C199.068 44.2852 198.783 43.7163 198.317 43.6385C197.85 43.5608 197.38 44.0037 197.265 44.6278C197.151 45.2519 197.436 45.8208 197.902 45.8985C198.368 45.9763 198.839 45.5334 198.953 44.9093Z" fill="#231F20"/>
<path d="M182.393 45.8328C182.408 45.3136 182.252 44.803 181.947 44.3728C181.545 43.6509 181.011 43.0033 180.37 42.4608C179.724 41.9175 178.897 41.6096 178.036 41.5918C177.2 41.6556 176.417 42.0058 175.83 42.5777C175.244 43.1496 174.894 43.9045 174.846 44.703C174.833 45.5029 175.039 46.2922 175.444 46.9932C175.848 47.6942 176.437 48.2826 177.152 48.7006C177.704 49.0728 178.339 49.3163 179.007 49.4114C179.675 49.5065 180.357 49.4506 180.999 49.2481" fill="white"/>
<path d="M179.723 49.8735C178.715 49.8504 177.737 49.5484 176.906 49.0045C176.122 48.5435 175.477 47.8954 175.036 47.1242C174.595 46.353 174.373 45.4854 174.391 44.6071C174.457 43.7058 174.862 42.8577 175.532 42.2189C176.202 41.5801 177.091 41.1937 178.037 41.1309C178.995 41.1565 179.914 41.5008 180.634 42.1042C181.326 42.6617 181.904 43.3364 182.339 44.0943C182.701 44.6062 182.88 45.2158 182.849 45.8324C182.842 45.8897 182.824 45.945 182.794 45.9953C182.765 46.0456 182.725 46.0899 182.678 46.1254C182.63 46.161 182.576 46.1872 182.518 46.2026C182.459 46.2179 182.399 46.2221 182.339 46.2148C182.218 46.1996 182.109 46.1402 182.034 46.0493C181.959 45.9584 181.925 45.8431 181.938 45.7281C181.942 45.3017 181.805 44.8849 181.546 44.5375C181.179 43.8582 180.681 43.2509 180.078 42.7473C179.516 42.2665 178.792 41.9923 178.037 41.9738C177.317 42.0373 176.645 42.3451 176.143 42.8411C175.641 43.3371 175.343 43.9885 175.302 44.6766C175.293 45.4006 175.483 46.1142 175.852 46.7469C176.221 47.3795 176.757 47.9091 177.408 48.2832C177.898 48.6159 178.464 48.8347 179.059 48.9223C179.654 49.0098 180.262 48.9635 180.835 48.7872C180.947 48.7446 181.073 48.7463 181.184 48.7919C181.295 48.8375 181.382 48.9234 181.427 49.0305C181.472 49.1377 181.47 49.2574 181.422 49.3634C181.374 49.4693 181.284 49.5528 181.172 49.5954C180.712 49.7753 180.22 49.8697 179.723 49.8735Z" fill="#231F20"/>
<path d="M195.965 52.7065C195.71 52.7065 189.585 52.7065 186.167 49.2303C186.12 49.1903 186.083 49.1416 186.057 49.0872C186.031 49.0328 186.017 48.9738 186.016 48.9141C186.015 48.8543 186.027 48.795 186.051 48.7398C186.075 48.6846 186.111 48.6348 186.156 48.5935C186.201 48.5521 186.255 48.5201 186.314 48.4994C186.373 48.4788 186.435 48.4699 186.498 48.4734C186.561 48.4769 186.622 48.4926 186.678 48.5197C186.734 48.5468 186.783 48.5845 186.823 48.6306C190.022 51.8027 195.938 51.8461 195.938 51.8461C196.058 51.8483 196.172 51.8948 196.257 51.9758C196.342 52.0569 196.391 52.1661 196.393 52.2806C196.391 52.39 196.346 52.4946 196.266 52.5735C196.187 52.6525 196.079 52.6999 195.965 52.7065Z" fill="#231F20"/>
<path d="M203.016 35.905L177.604 33.2342C176.968 33.1674 176.396 33.6044 176.326 34.2103L176.055 36.5599C175.985 37.1658 176.443 37.7111 177.078 37.7779L202.491 40.4487C203.127 40.5154 203.698 40.0784 203.769 39.4725L204.04 37.1229C204.11 36.517 203.652 35.9717 203.016 35.905Z" fill="white"/>
<path d="M202.628 40.8792H202.446L177.034 38.2113C176.82 38.1888 176.613 38.1256 176.424 38.0255C176.236 37.9254 176.071 37.7903 175.938 37.6283C175.806 37.4663 175.709 37.2806 175.653 37.0822C175.597 36.8838 175.583 36.6767 175.612 36.4732L175.876 34.1354C175.899 33.9304 175.964 33.7318 176.069 33.5514C176.173 33.3709 176.315 33.2124 176.485 33.0851C176.655 32.9578 176.85 32.8644 177.059 32.8105C177.267 32.7565 177.485 32.7431 177.699 32.771L203.111 35.439C203.322 35.4601 203.527 35.5209 203.713 35.6178C203.899 35.7148 204.063 35.846 204.196 36.0039C204.462 36.3227 204.586 36.7283 204.542 37.1336L204.269 39.4801C204.23 39.8672 204.039 40.2262 203.735 40.4855C203.431 40.7448 203.036 40.8854 202.628 40.8792ZM177.481 33.6661C177.307 33.6654 177.14 33.7266 177.012 33.8376C176.884 33.9486 176.804 34.1013 176.788 34.2658L176.514 36.6035C176.494 36.7798 176.548 36.9567 176.664 37.0952C176.78 37.2337 176.949 37.3225 177.134 37.3422L202.546 40.0102C202.732 40.0298 202.918 39.9788 203.065 39.8682C203.212 39.7576 203.307 39.5963 203.33 39.4192L203.594 37.0815C203.615 36.9042 203.561 36.7264 203.445 36.5865C203.329 36.4466 203.16 36.3559 202.974 36.3341L177.563 33.6661H177.481Z" fill="#231F20"/>
<path d="M205.335 108.135H167.39C166.329 108.135 165.312 107.733 164.561 107.017C163.811 106.302 163.389 105.331 163.389 104.32C163.392 103.309 163.814 102.341 164.564 101.627C165.314 100.914 166.331 100.513 167.39 100.513H197.223C203.712 100.513 208.589 88.2421 214.285 82.263C219.982 76.2839 232.424 71.9039 248.556 71.7822L205.335 108.135Z" fill="#E6E7E8"/>
<path d="M205.335 108.569H167.39C166.789 108.595 166.188 108.505 165.624 108.303C165.06 108.101 164.545 107.793 164.109 107.396C163.674 106.999 163.328 106.522 163.091 105.994C162.854 105.466 162.732 104.898 162.732 104.324C162.732 103.75 162.854 103.181 163.091 102.653C163.328 102.125 163.674 101.649 164.109 101.252C164.545 100.855 165.06 100.546 165.624 100.345C166.188 100.143 166.789 100.053 167.39 100.079H197.223C201.261 100.079 204.833 94.7339 208.288 89.5717C209.96 86.9088 211.853 84.3776 213.948 82.0023C220.128 75.5452 233.39 71.4607 248.584 71.3477C248.675 71.3464 248.765 71.3725 248.84 71.4224C248.916 71.4723 248.973 71.5434 249.003 71.6258C249.036 71.7076 249.043 71.797 249.021 71.8823C249 71.9676 248.953 72.0448 248.885 72.1038L205.672 108.456C205.579 108.534 205.458 108.574 205.335 108.569ZM167.39 100.948C166.91 100.924 166.43 100.994 165.979 101.154C165.529 101.313 165.116 101.558 164.768 101.874C164.42 102.189 164.142 102.569 163.953 102.991C163.763 103.412 163.665 103.866 163.665 104.324C163.665 104.782 163.763 105.236 163.953 105.657C164.142 106.078 164.42 106.458 164.768 106.774C165.116 107.09 165.529 107.335 165.979 107.494C166.43 107.653 166.91 107.723 167.39 107.7H205.162L247.326 72.2341C232.925 72.547 220.465 76.4751 214.613 82.5846C212.56 84.9288 210.701 87.4218 209.054 90.041C205.471 95.4031 201.762 100.948 197.205 100.948H167.39Z" fill="#231F20"/>
<path d="M275.8 108.135C275.8 108.135 252.758 132.59 252.758 141.107C252.758 154.142 275.8 223.667 275.8 223.667H285.288C285.288 223.667 261.982 155.011 261.445 142.271C261.025 132.425 286.373 108.17 286.373 108.17L275.8 108.135Z" fill="#E6E7E8"/>
<path d="M285.288 224.066H275.809C275.712 224.067 275.617 224.038 275.538 223.983C275.459 223.928 275.401 223.851 275.372 223.762C274.46 220.92 252.312 154.047 252.312 141.107C252.312 132.529 274.524 108.847 275.463 107.848C275.506 107.801 275.559 107.764 275.619 107.738C275.679 107.713 275.744 107.7 275.809 107.7H286.373C286.463 107.701 286.551 107.726 286.625 107.774C286.7 107.822 286.758 107.89 286.792 107.97C286.828 108.048 286.838 108.134 286.822 108.218C286.806 108.301 286.764 108.378 286.701 108.439C286.446 108.682 261.49 132.677 261.9 142.219C262.429 154.768 285.489 222.806 285.726 223.493C285.748 223.558 285.753 223.628 285.742 223.695C285.731 223.763 285.704 223.828 285.662 223.884C285.619 223.94 285.562 223.985 285.498 224.017C285.433 224.048 285.361 224.065 285.288 224.066ZM276.174 223.197H284.696C282.308 216.123 261.545 154.447 260.998 142.262C260.615 133.19 280.977 112.793 285.297 108.569H276C274.114 110.594 253.214 133.19 253.214 141.107C253.214 153.473 274.478 218.174 276.174 223.197Z" fill="#231F20"/>
<path d="M205.335 108.135C205.335 108.135 181.172 133.285 181.172 141.107C181.172 154.142 202.272 221.303 202.272 221.303H193.157C193.157 221.303 172.011 152.83 173.616 139.829C174.974 128.81 195.564 108.135 195.564 108.135H205.335Z" fill="#E6E7E8"/>
<path d="M202.272 221.738H193.158C193.059 221.739 192.962 221.709 192.883 221.653C192.804 221.596 192.747 221.516 192.72 221.425C191.809 218.627 171.565 152.718 173.16 139.734C174.527 128.697 194.388 108.639 195.236 107.788C195.323 107.704 195.441 107.658 195.564 107.657H205.317C205.405 107.658 205.492 107.683 205.566 107.729C205.641 107.775 205.7 107.841 205.736 107.918C205.773 107.995 205.785 108.081 205.77 108.165C205.756 108.248 205.715 108.326 205.654 108.387C205.417 108.639 181.61 133.494 181.61 141.064C181.61 153.873 202.482 220.469 202.692 221.138C202.714 221.203 202.719 221.271 202.706 221.338C202.693 221.405 202.663 221.468 202.619 221.52C202.584 221.581 202.535 221.633 202.474 221.671C202.414 221.709 202.345 221.732 202.272 221.738ZM193.513 220.869H201.662C199.493 213.916 180.698 153.561 180.698 141.107C180.698 133.868 200.249 112.837 204.287 108.57H195.783C193.96 110.377 175.357 129.592 174.09 139.856C172.568 152.196 191.973 215.828 193.513 220.869Z" fill="#231F20"/>
<path d="M282.855 221.303H169.004C165.863 221.303 163.316 223.731 163.316 226.726V226.734C163.316 229.729 165.863 232.157 169.004 232.157H282.855C285.996 232.157 288.543 229.729 288.543 226.734V226.726C288.543 223.731 285.996 221.303 282.855 221.303Z" fill="#231F20"/>
<path d="M282.855 232.592H169.004C167.414 232.533 165.91 231.89 164.807 230.797C163.704 229.704 163.088 228.247 163.088 226.73C163.088 225.213 163.704 223.755 164.807 222.663C165.91 221.57 167.414 220.927 169.004 220.868H282.855C284.445 220.927 285.949 221.57 287.052 222.663C288.155 223.755 288.771 225.213 288.771 226.73C288.771 228.247 288.155 229.704 287.052 230.797C285.949 231.89 284.445 232.533 282.855 232.592ZM169.004 221.737C167.653 221.791 166.376 222.34 165.44 223.271C164.504 224.201 163.982 225.441 163.982 226.73C163.982 228.019 164.504 229.258 165.44 230.189C166.376 231.119 167.653 231.669 169.004 231.723H282.855C283.561 231.751 284.266 231.642 284.927 231.404C285.588 231.166 286.191 230.803 286.701 230.336C287.211 229.87 287.617 229.31 287.894 228.69C288.172 228.07 288.314 227.404 288.314 226.73C288.314 226.056 288.172 225.389 287.894 224.77C287.617 224.15 287.211 223.59 286.701 223.124C286.191 222.657 285.588 222.294 284.927 222.056C284.266 221.817 283.561 221.709 282.855 221.737H169.004Z" fill="#231F20"/>
<path d="M267.579 232.157H280.221C280.221 233.254 279.764 234.307 278.95 235.082C278.137 235.858 277.033 236.294 275.882 236.294H271.908C270.758 236.294 269.654 235.858 268.841 235.082C268.027 234.307 267.57 233.254 267.57 232.157H267.579Z" fill="#231F20"/>
<path d="M275.882 236.72H271.908C270.64 236.717 269.424 236.236 268.527 235.381C267.63 234.526 267.125 233.367 267.123 232.157C267.123 232.042 267.171 231.931 267.257 231.85C267.342 231.768 267.458 231.723 267.579 231.723H280.221C280.342 231.723 280.458 231.768 280.543 231.85C280.629 231.931 280.677 232.042 280.677 232.157C280.674 233.368 280.168 234.529 279.269 235.384C278.37 236.239 277.152 236.72 275.882 236.72ZM268.053 232.592C268.166 233.491 268.621 234.32 269.331 234.922C270.041 235.524 270.958 235.857 271.908 235.859H275.882C276.833 235.858 277.751 235.524 278.463 234.923C279.175 234.321 279.631 233.492 279.747 232.592H268.053Z" fill="#231F20"/>
<path d="M188.436 232.157H201.078C201.078 233.254 200.621 234.307 199.807 235.082C198.994 235.858 197.89 236.294 196.739 236.294H192.775C191.624 236.294 190.52 235.858 189.707 235.082C188.893 234.307 188.436 233.254 188.436 232.157Z" fill="#E6E7E8"/>
<path d="M196.749 236.728H192.775C191.504 236.726 190.286 236.244 189.387 235.387C188.489 234.53 187.983 233.369 187.98 232.157C187.98 232.042 188.028 231.931 188.114 231.85C188.199 231.768 188.315 231.723 188.436 231.723H201.078C201.199 231.723 201.315 231.768 201.4 231.85C201.486 231.931 201.534 232.042 201.534 232.157C201.534 233.368 201.03 234.529 200.133 235.386C199.236 236.243 198.019 236.726 196.749 236.728ZM188.919 232.592C189.033 233.491 189.487 234.32 190.198 234.922C190.908 235.524 191.825 235.857 192.775 235.859H196.749C197.698 235.857 198.613 235.523 199.322 234.921C200.031 234.319 200.484 233.491 200.595 232.592H188.919Z" fill="#231F20"/>
<path d="M83.6543 232.157H96.2963C96.2963 233.254 95.8392 234.307 95.0256 235.082C94.2119 235.858 93.1084 236.294 91.9577 236.294H87.9929C86.8422 236.294 85.7387 235.858 84.925 235.082C84.1114 234.307 83.6543 233.254 83.6543 232.157Z" fill="#E6E7E8"/>
<path d="M91.967 236.728H87.993C86.7222 236.726 85.5042 236.244 84.6056 235.387C83.707 234.53 83.2011 233.369 83.1987 232.157C83.1987 232.042 83.2467 231.931 83.3322 231.85C83.4177 231.768 83.5336 231.723 83.6545 231.723H96.2965C96.4173 231.723 96.5333 231.768 96.6187 231.85C96.7042 231.931 96.7522 232.042 96.7522 232.157C96.7522 233.368 96.2484 234.529 95.3512 235.386C94.4541 236.243 93.237 236.726 91.967 236.728ZM84.1375 232.592C84.251 233.491 84.7057 234.32 85.416 234.922C86.1262 235.524 87.0428 235.857 87.993 235.859H91.967C92.9162 235.857 93.8317 235.523 94.5404 234.921C95.2491 234.319 95.702 233.491 95.8134 232.592H84.1375Z" fill="#231F20"/>
<path d="M205.335 108.135C205.335 108.135 218.095 85.1399 228.787 77.6486C239.478 70.1574 267.397 69.3753 279.319 75.0415C291.241 80.7077 295.032 92.353 288.807 108.118L205.335 108.135Z" fill="#231F20"/>
<path d="M288.807 108.569H205.335C205.258 108.569 205.182 108.549 205.115 108.513C205.047 108.476 204.991 108.424 204.952 108.36C204.914 108.295 204.894 108.222 204.894 108.147C204.894 108.073 204.914 108 204.952 107.935C205.481 106.987 217.886 84.7656 228.541 77.3005C239.579 69.5572 267.925 69.1314 279.583 74.6933C292.061 80.6376 295.506 92.5784 289.29 108.308C289.251 108.396 289.182 108.47 289.095 108.517C289.007 108.564 288.906 108.582 288.807 108.569ZM206.1 107.7H288.488C294.367 92.5871 291.049 81.133 279.118 75.4494C267.706 70.0091 239.925 70.4089 229.06 77.9957C219.554 84.6527 208.242 103.946 206.1 107.7Z" fill="#231F20"/>
<path d="M209.673 221.303H78.5044C75.3633 221.303 72.8169 223.731 72.8169 226.726V226.734C72.8169 229.729 75.3633 232.157 78.5044 232.157H209.673C212.814 232.157 215.361 229.729 215.361 226.734V226.726C215.361 223.731 212.814 221.303 209.673 221.303Z" fill="#E6E7E8"/>
<path d="M209.637 232.592H78.5045C76.9149 232.534 75.4109 231.891 74.3079 230.798C73.205 229.705 72.5889 228.247 72.5889 226.73C72.5889 225.214 73.205 223.756 74.3079 222.663C75.4109 221.57 76.9149 220.927 78.5045 220.869H209.637C210.464 220.838 211.289 220.967 212.063 221.248C212.837 221.529 213.543 221.956 214.14 222.503C214.736 223.051 215.211 223.707 215.535 224.433C215.859 225.16 216.026 225.941 216.026 226.73C216.026 227.52 215.859 228.301 215.535 229.027C215.211 229.754 214.736 230.41 214.14 230.957C213.543 231.505 212.837 231.932 212.063 232.212C211.289 232.493 210.464 232.622 209.637 232.592ZM78.5045 221.738C77.1535 221.791 75.8766 222.341 74.9406 223.271C74.0047 224.202 73.4821 225.441 73.4821 226.73C73.4821 228.02 74.0047 229.259 74.9406 230.189C75.8766 231.12 77.1535 231.669 78.5045 231.723H209.637C210.343 231.751 211.048 231.643 211.709 231.405C212.37 231.166 212.973 230.803 213.483 230.337C213.993 229.87 214.399 229.31 214.676 228.691C214.953 228.071 215.096 227.404 215.096 226.73C215.096 226.057 214.953 225.39 214.676 224.77C214.399 224.15 213.993 223.59 213.483 223.124C212.973 222.658 212.37 222.294 211.709 222.056C211.048 221.818 210.343 221.71 209.637 221.738H78.5045Z" fill="#231F20"/>
</svg>
